<svg width="94" height="108" viewBox="0 0 94 108" fill="none" xmlns="http://www.w3.org/2000/svg">
<path d="M93.6261 26.1416C93.5326 23.2897 91.7236 20.4712 88.9703 19.5405L88.9647 19.5389C88.4174 19.3515 87.8461 19.2434 87.2682 19.2177C87.1742 19.2125 87.08 19.2094 86.9857 19.2098H82.6688C86.538 19.2076 89.3584 22.7722 89.3172 26.4885C89.3604 30.2034 86.5347 33.7677 82.6688 33.766C82.8856 33.7591 87.3415 33.7832 87.4145 33.7492C88.1588 33.6967 88.8873 33.5094 89.5645 33.1963C92.2177 31.9796 93.7807 29.0109 93.6261 26.1416Z" fill="url(#paint0_linear_101_689)"/>
<path d="M85.2553 44.4696C85.1618 41.6179 83.3523 38.7998 80.5992 37.8692C80.5974 37.8685 80.5955 37.868 80.5936 37.8674C80.0465 37.6801 79.4754 37.572 78.8977 37.5462C78.8037 37.541 78.7093 37.5379 78.6148 37.5383H74.2979C78.1666 37.5361 80.9875 41.1004 80.9464 44.816C80.9895 48.5309 78.1641 52.0965 74.2979 52.0947H78.6148C79.0856 52.0934 79.5547 52.0386 80.0132 51.9313C81.7281 51.5355 83.2089 50.3737 84.1248 48.8854C84.9344 47.5595 85.3282 46.0214 85.2553 44.4696Z" fill="url(#paint1_linear_101_689)"/>
<path d="M64.3244 62.7985C64.2305 60.0673 62.578 57.3647 60.003 56.3264C59.3796 56.0705 58.718 55.9197 58.0452 55.8801C58.0829 55.8553 53.489 55.8752 53.3671 55.869C57.2343 55.8665 60.0566 59.43 60.0155 63.1446C60.0587 66.8595 57.2333 70.4251 53.3671 70.4232H57.6839C58.1547 70.422 58.6239 70.3673 59.0823 70.26C60.7972 69.8642 62.2781 68.7024 63.194 67.2139C64.0035 65.8881 64.3973 64.3502 64.3244 62.7985Z" fill="url(#paint2_linear_101_689)"/>
<path d="M51.7654 81.1301C51.6718 78.2779 49.8619 75.459 47.1083 74.5284L47.1026 74.5265C46.5553 74.3392 45.984 74.2311 45.406 74.2053C45.3122 74.2002 45.2179 74.1971 45.1237 74.1975H40.8069C44.6759 74.1951 47.4979 77.7604 47.4565 81.4762C47.4995 85.1904 44.6708 88.753 40.8069 88.7511C41.0236 88.7442 45.4795 88.7683 45.5525 88.7344C46.297 88.6818 47.0257 88.4944 47.7031 88.1813C50.3555 86.9655 51.9201 83.999 51.7654 81.1301Z" fill="url(#paint3_linear_101_689)"/>
<path d="M47.5785 99.4581C47.4839 96.3786 45.3638 93.3517 42.2801 92.6748C41.84 92.5768 41.3907 92.527 40.94 92.5262H36.623C37.0738 92.5273 37.5231 92.5772 37.9631 92.6748C41.5964 93.4935 43.7326 97.3515 43.1921 100.917C42.767 104.202 40.0436 107.1 36.623 107.083H40.94C41.4106 107.082 41.8795 107.027 42.3378 106.919C44.051 106.524 45.5303 105.363 46.4463 103.877C46.4471 103.876 46.4478 103.875 46.4485 103.874C47.258 102.548 47.6516 101.01 47.5785 99.4581Z" fill="url(#paint4_linear_101_689)"/>
<path d="M76.882 7.81329C76.7882 5.08115 75.1362 2.37716 72.5602 1.33828C71.9368 1.08236 71.2753 0.93153 70.6025 0.89195C70.6634 0.8599 66.0349 0.891966 65.9242 0.880883C69.7931 0.878387 72.6145 4.44412 72.5732 8.15953C72.6163 11.8748 69.7903 15.4389 65.9242 15.4372H70.2411C70.712 15.436 71.1812 15.3812 71.6397 15.2738C73.3546 14.8784 74.8359 13.7163 75.7518 12.2286C76.5615 10.9029 76.9551 9.36496 76.882 7.81329Z" fill="url(#paint5_linear_101_689)"/>
<path d="M82.6689 19.2098C91.4717 19.5954 91.501 33.3654 82.6689 33.7657H19.8774C11.0754 33.3791 11.0475 19.6099 19.8774 19.2098H82.6689Z" fill="#1869FF"/>
<path d="M74.298 37.5384C77.9648 37.5384 80.9464 40.8022 80.9464 44.816C80.9464 48.8299 77.9648 52.0947 74.298 52.0947H36.6231C27.8132 51.7048 27.7962 37.9352 36.6231 37.5381L74.298 37.5384Z" fill="#1869FF"/>
<path d="M53.3671 55.869C57.034 55.869 60.0156 59.1333 60.0156 63.1446C60.0156 67.1584 57.034 70.4233 53.3671 70.4233H28.2493C24.5825 70.4233 21.6009 67.1584 21.6009 63.1446C21.6009 59.1333 24.5825 55.869 28.2493 55.869H53.3671Z" fill="#1869FF"/>
<path d="M40.8071 74.1975C49.6207 74.5896 49.6319 88.3548 40.8071 88.7514H19.8774C11.063 88.3584 11.0596 74.5929 19.8774 74.1975H40.8071Z" fill="#1869FF"/>
<path d="M36.6231 92.5261C45.4379 92.9206 45.4394 106.688 36.6231 107.083H28.2494C19.4321 106.689 19.431 92.9198 28.2494 92.5261H36.6231Z" fill="#1869FF"/>
<path d="M72.573 8.15951C72.573 12.1733 69.5914 15.4371 65.9239 15.4371H7.31964C3.65276 15.4371 0.670044 12.1734 0.670044 8.15951C0.670044 4.14566 3.65276 0.880859 7.31964 0.880859H65.9242C69.5917 0.88056 72.573 4.14566 72.573 8.15951Z" fill="#1869FF"/>
<g style="mix-blend-mode:multiply" opacity="0.4" filter="url(#filter0_f_101_689)">
<path d="M82.9913 23.3037C86.8329 23.468 86.8652 29.4924 82.9913 29.6725H20.199C18.595 29.6725 17.2897 28.2441 17.2897 26.4874C17.2897 24.7308 18.595 23.3033 20.199 23.3033L82.9913 23.3037Z" fill="#0440AD"/>
<path d="M74.6187 41.6331C78.4688 41.8004 78.4856 47.8255 74.6187 48.0013H36.9435C35.3395 48.0013 34.0351 46.5736 34.0351 44.8163C34.0351 43.0591 35.3395 41.6327 36.9435 41.6327L74.6187 41.6331Z" fill="#0440AD"/>
<path d="M53.6887 59.962C57.5414 60.1323 57.5526 66.1554 53.6887 66.3314H28.5716C26.9677 66.3314 25.6623 64.9024 25.6623 63.1463C25.6623 61.3903 26.9677 59.9613 28.5716 59.9613L53.6887 59.962Z" fill="#0440AD"/>
<path d="M41.1302 78.2908C42.7341 78.2908 44.0397 79.7191 44.0397 81.4758C44.0397 83.2325 42.7341 84.6608 41.1302 84.6608H20.1993C16.3453 84.4899 16.3363 78.4665 20.1993 78.2915L41.1302 78.2908Z" fill="#0440AD"/>
<path d="M36.9435 96.6201C40.8007 96.7913 40.8035 102.816 36.9435 102.988H28.5716C26.9677 102.988 25.6623 101.56 25.6623 99.8042C25.6623 98.0485 26.9677 96.6201 28.5716 96.6201H36.9435Z" fill="#0440AD"/>
<path d="M69.1564 8.15961C69.1564 9.91537 67.851 11.3446 66.247 11.3446H7.64137C6.03697 11.3446 4.73193 9.91577 4.73193 8.15961C4.73193 6.40344 6.03697 4.97458 7.64137 4.97458H66.247C67.851 4.97498 69.1564 6.40334 69.1564 8.15961Z" fill="#0440AD"/>
</g>
<path d="M82.5792 26.3365C82.5742 26.2317 82.5646 26.1274 82.5518 26.0234C82.5288 25.859 82.4948 25.6963 82.4501 25.5365C82.2989 25.0049 82.015 24.5204 81.6252 24.1286C81.4579 23.9634 81.2719 23.8181 81.0711 23.6957C81.0139 23.6614 80.9551 23.6298 80.8962 23.5987C80.7812 23.5413 80.6628 23.4911 80.5416 23.4483H80.54C80.0282 23.2429 79.1422 23.3156 78.5977 23.3041C81.0591 23.338 82.2507 26.3072 81.008 28.2691C80.5033 29.0994 79.5815 29.6812 78.5977 29.6728C78.8573 29.6669 79.769 29.6905 80.0088 29.651C80.8674 29.5488 81.6325 29.0031 82.0812 28.2732L82.0836 28.2697L82.0843 28.2686C82.4382 27.6883 82.6105 27.0155 82.5792 26.3365Z" fill="url(#paint6_linear_101_689)"/>
<path d="M74.2071 44.6652C74.195 44.3953 74.1519 44.1276 74.0786 43.8675L74.078 43.8652C73.9267 43.3338 73.643 42.8497 73.2535 42.458C73.1884 42.3943 73.1211 42.3334 73.0514 42.2754C72.94 42.1841 72.8225 42.1007 72.6996 42.0257C72.6979 42.0246 72.6961 42.0239 72.6945 42.0228C72.5283 41.924 72.3526 41.8421 72.17 41.7783L72.1681 41.7777C71.9062 41.6892 71.6324 41.6408 71.356 41.6341C71.3061 41.6325 33.6803 41.6341 33.6261 41.6341H70.2251C70.3837 41.6348 70.5421 41.6491 70.6983 41.6768C71.31 41.7922 71.8668 42.1057 72.2828 42.5688C74.0301 44.4637 72.9459 47.9439 70.2251 48.0022C70.5403 47.9946 71.4246 48.0266 71.7211 47.9687C72.5486 47.8419 73.2769 47.3065 73.7116 46.5999C74.0661 46.0189 74.2387 45.3451 74.2071 44.6652Z" fill="url(#paint7_linear_101_689)"/>
<path d="M53.277 62.9951C53.2461 62.1657 52.9058 61.378 52.3229 60.7871L52.3199 60.784C52.0145 60.4806 51.6451 60.2492 51.2389 60.1066L51.2374 60.1061C51.1145 60.0652 50.9892 60.0322 50.8621 60.0073C50.5308 59.9326 49.643 59.9703 49.295 59.9619C49.5933 59.9629 49.8895 60.0129 50.1716 60.1101C51.6992 60.6308 52.4968 62.4265 52.1105 63.9494C51.8226 65.2436 50.6575 66.3472 49.2949 66.3313C49.5545 66.3254 50.4663 66.349 50.7061 66.3094C51.5667 66.207 52.3325 65.6591 52.7815 64.928V64.9273C53.1357 64.3471 53.3083 63.6742 53.277 62.9951Z" fill="url(#paint8_linear_101_689)"/>
<path d="M40.7186 81.3238C40.7064 81.0531 40.6631 80.7847 40.5895 80.5239C40.4378 79.9909 40.1529 79.5053 39.7616 79.1129C39.6994 79.0519 39.6343 78.9944 39.5688 78.9379C39.5668 78.9361 39.5646 78.9347 39.5625 78.9329C39.3006 78.716 39.002 78.5475 38.6808 78.4355L38.6791 78.435C38.1672 78.2298 37.2813 78.3023 36.7366 78.2908C38.408 78.275 39.6781 79.8701 39.646 81.4758C39.6781 83.0802 38.4078 84.6771 36.7366 84.6608C36.8774 84.6585 37.887 84.6677 38.0003 84.6535C38.626 84.6055 39.2169 84.3468 39.6766 83.9197C39.8866 83.7253 40.0697 83.5036 40.2211 83.2607L40.2231 83.2577L40.2236 83.2568C40.5778 82.6763 40.7502 82.0031 40.7186 81.3238Z" fill="url(#paint9_linear_101_689)"/>
<path d="M36.5318 99.6527C36.5037 98.9308 36.243 98.2374 35.7886 97.6758C35.5728 97.4132 35.3145 97.1888 35.0243 97.012C35.0226 97.0109 35.0207 97.0102 35.0191 97.0091C34.8524 96.91 34.6761 96.8279 34.493 96.7641C33.9807 96.5589 33.0952 96.6313 32.5498 96.6198C34.2265 96.6074 35.4879 98.1936 35.4591 99.8039C35.4914 101.409 34.2211 103.005 32.5498 102.988C32.8094 102.982 33.7212 103.006 33.9612 102.966C34.8217 102.864 35.5875 102.317 36.0365 101.585V101.584C36.3906 101.004 36.5631 100.332 36.5318 99.6527Z" fill="url(#paint10_linear_101_689)"/>
<path d="M62.1426 4.99078C63.7388 5.15053 64.8555 6.75953 64.7593 8.30612C64.7245 9.86 63.4675 11.3608 61.8539 11.3443C62.1135 11.3383 63.0252 11.362 63.265 11.3225C64.1257 11.22 64.8913 10.6721 65.3404 9.94108V9.94015C65.5861 9.53483 65.7455 9.08316 65.8085 8.61341C65.8716 8.14366 65.8369 7.66598 65.7068 7.21022C65.5553 6.67634 65.2701 6.18991 64.8781 5.797C64.8137 5.73436 64.7473 5.67447 64.6789 5.6173C64.4169 5.4004 64.1184 5.23196 63.7972 5.11988L63.7957 5.11939C63.2838 4.91411 62.3978 4.98656 61.8532 4.97518C61.9501 4.97628 62.0468 4.9816 62.1426 4.99078Z" fill="url(#paint11_linear_101_689)"/>
<path d="M78.5977 23.3037C82.4392 23.468 82.4717 29.4924 78.5977 29.6725H15.8055C14.2016 29.6725 12.8963 28.2441 12.8963 26.4874C12.8963 24.7308 14.2016 23.3033 15.8055 23.3033L78.5977 23.3037Z" fill="#F0F8FF"/>
<path d="M70.2251 41.6331C74.0751 41.8004 74.092 47.8255 70.2251 48.0013H32.5498C30.9459 48.0013 29.6416 46.5736 29.6416 44.8163C29.6416 43.0591 30.9459 41.6327 32.5498 41.6327L70.2251 41.6331Z" fill="#F0F8FF"/>
<path d="M49.295 59.962C53.1477 60.1323 53.159 66.1554 49.295 66.3314H24.1785C22.5745 66.3314 21.2691 64.9024 21.2691 63.1463C21.2691 61.3903 22.5745 59.9613 24.1785 59.9613L49.295 59.962Z" fill="#F0F8FF"/>
<path d="M36.7366 78.2908C38.3405 78.2908 39.646 79.7191 39.646 81.4758C39.646 83.2325 38.3405 84.6608 36.7366 84.6608H15.8056C11.9516 84.4899 11.9427 78.4665 15.8056 78.2915L36.7366 78.2908Z" fill="#F0F8FF"/>
<path d="M32.5498 96.6201C36.4071 96.7913 36.4099 102.816 32.5498 102.988H24.1785C22.5745 102.988 21.2691 101.56 21.2691 99.8042C21.2691 98.0485 22.5745 96.6201 24.1785 96.6201H32.5498Z" fill="#F0F8FF"/>
<path d="M64.7628 8.15961C64.7628 9.91537 63.4575 11.3446 61.8535 11.3446H3.24771C1.64321 11.3446 0.338379 9.91577 0.338379 8.15961C0.338379 6.40344 1.64321 4.97458 3.24771 4.97458H61.8535C63.4573 4.97498 64.7628 6.40334 64.7628 8.15961Z" fill="#F0F8FF"/>
<defs>
<filter id="filter0_f_101_689" x="1.73193" y="1.97458" width="87.1527" height="104.014" filterUnits="userSpaceOnUse" color-interpolation-filters="sRGB">
<feFlood flood-opacity="0" result="BackgroundImageFix"/>
<feBlend mode="normal" in="SourceGraphic" in2="BackgroundImageFix" result="shape"/>
<feGaussianBlur stdDeviation="1.5" result="effect1_foregroundBlur_101_689"/>
</filter>
<linearGradient id="paint0_linear_101_689" x1="65.1298" y1="0.877258" x2="65.1298" y2="107.083" gradientUnits="userSpaceOnUse">
<stop stop-color="#0440AD"/>
<stop offset="1" stop-color="#1869FF"/>
</linearGradient>
<linearGradient id="paint1_linear_101_689" x1="65.1298" y1="0.877258" x2="65.1298" y2="107.083" gradientUnits="userSpaceOnUse">
<stop stop-color="#0440AD"/>
<stop offset="1" stop-color="#1869FF"/>
</linearGradient>
<linearGradient id="paint2_linear_101_689" x1="65.1298" y1="0.877258" x2="65.1298" y2="107.083" gradientUnits="userSpaceOnUse">
<stop stop-color="#0440AD"/>
<stop offset="1" stop-color="#1869FF"/>
</linearGradient>
<linearGradient id="paint3_linear_101_689" x1="65.1298" y1="0.877258" x2="65.1298" y2="107.083" gradientUnits="userSpaceOnUse">
<stop stop-color="#0440AD"/>
<stop offset="1" stop-color="#1869FF"/>
</linearGradient>
<linearGradient id="paint4_linear_101_689" x1="65.1298" y1="0.877258" x2="65.1298" y2="107.083" gradientUnits="userSpaceOnUse">
<stop stop-color="#0440AD"/>
<stop offset="1" stop-color="#1869FF"/>
</linearGradient>
<linearGradient id="paint5_linear_101_689" x1="65.1298" y1="0.877258" x2="65.1298" y2="107.083" gradientUnits="userSpaceOnUse">
<stop stop-color="#0440AD"/>
<stop offset="1" stop-color="#1869FF"/>
</linearGradient>
<linearGradient id="paint6_linear_101_689" x1="57.5663" y1="4.97168" x2="57.5663" y2="102.99" gradientUnits="userSpaceOnUse">
<stop stop-color="#81ADFF"/>
<stop offset="1" stop-color="#F0F8FF"/>
</linearGradient>
<linearGradient id="paint7_linear_101_689" x1="57.5663" y1="4.97168" x2="57.5663" y2="102.99" gradientUnits="userSpaceOnUse">
<stop stop-color="#81ADFF"/>
<stop offset="1" stop-color="#F0F8FF"/>
</linearGradient>
<linearGradient id="paint8_linear_101_689" x1="57.5663" y1="4.97168" x2="57.5663" y2="102.99" gradientUnits="userSpaceOnUse">
<stop stop-color="#81ADFF"/>
<stop offset="1" stop-color="#F0F8FF"/>
</linearGradient>
<linearGradient id="paint9_linear_101_689" x1="57.5663" y1="4.97168" x2="57.5663" y2="102.99" gradientUnits="userSpaceOnUse">
<stop stop-color="#81ADFF"/>
<stop offset="1" stop-color="#F0F8FF"/>
</linearGradient>
<linearGradient id="paint10_linear_101_689" x1="57.5663" y1="4.97168" x2="57.5663" y2="102.99" gradientUnits="userSpaceOnUse">
<stop stop-color="#81ADFF"/>
<stop offset="1" stop-color="#F0F8FF"/>
</linearGradient>
<linearGradient id="paint11_linear_101_689" x1="57.5663" y1="4.97168" x2="57.5663" y2="102.99" gradientUnits="userSpaceOnUse">
<stop stop-color="#81ADFF"/>
<stop offset="1" stop-color="#F0F8FF"/>
</linearGradient>
</defs>
</svg>
