<svg width="94" height="79" viewBox="0 0 94 79" fill="none" xmlns="http://www.w3.org/2000/svg">
<path d="M13.5994 60.269C13.6153 60.624 13.6722 60.976 13.7691 61.318C13.9675 62.0154 14.3399 62.651 14.8513 63.1651C15.4379 63.7558 16.2075 64.1302 17.0344 64.2269L17.0413 64.228C17.0874 64.2687 21.5591 64.2392 21.7311 64.248C19.2197 64.2462 17.5461 61.682 17.974 59.3264C18.2061 57.8339 19.2766 56.4538 20.7526 56.0332C21.4841 55.813 22.264 55.95 23.0026 55.7585C24.7685 55.3911 26.302 54.21 27.2403 52.6857C27.8685 51.6632 28.2477 50.5075 28.3473 49.3116C28.4019 48.4629 28.3733 47.6075 28.4863 46.7628C28.6967 44.8682 29.2329 43.0242 30.0714 41.3123C32.4034 36.4882 37.2638 33.0115 42.7069 33.0428C41.6249 33.061 38.0034 32.9846 37.0005 33.1164C35.8919 33.2333 34.8026 33.4901 33.7586 33.8806C29.0845 35.6079 25.6535 39.9212 24.527 44.7187C24.275 45.773 24.1246 46.849 24.0777 47.932C24.0518 48.6403 24.0729 49.3554 23.9308 50.0536C23.5661 52.0896 22.3393 53.9837 20.5429 55.0347C19.8183 55.4623 19.014 55.7377 18.1793 55.844C17.623 55.9239 17.0494 55.8504 16.5048 56.0142C15.5619 56.2809 14.7555 56.896 14.2491 57.7349L14.2485 57.7358C13.7843 58.4965 13.5583 59.3787 13.5994 60.269Z" fill="url(#paint0_linear_41_82)"/>
<path d="M39.3838 18.4355C40.7232 18.4755 42.0575 18.618 43.3752 18.8617H47.692C46.5753 18.6552 45.4463 18.5213 44.3122 18.461C43.3437 18.3917 39.6404 18.4331 38.6111 18.4226C38.869 18.4228 39.1265 18.426 39.3838 18.4355Z" fill="url(#paint1_linear_41_82)"/>
<path d="M55.9544 64.2567C56.0229 64.2607 56.0924 64.2647 56.1585 64.2679H56.1626C56.2481 64.2719 56.331 64.2752 56.415 64.2771H56.4159C56.4675 64.2781 56.5157 64.2786 56.5646 64.2786H60.8815C60.7506 64.2786 60.617 64.2745 60.4843 64.2681H60.4743C60.3555 64.2621 60.2381 64.2551 60.1166 64.2473H55.7997C55.855 64.2508 55.9027 64.2538 55.9544 64.2567Z" fill="url(#paint2_linear_41_82)"/>
<path d="M56.8066 26.3501C59.45 28.9444 61.5983 31.999 63.146 35.364C63.7936 35.6391 64.427 35.9465 65.0438 36.2851C65.116 36.2875 65.1877 36.2876 65.2601 36.2876H69.5769C69.5046 36.2876 69.4331 36.2876 69.3608 36.2851C69.3444 36.2761 69.3276 36.2676 69.3109 36.2587H70.7574L70.329 36.2505H69.2956C68.7 35.9253 68.0889 35.6298 67.4624 35.364C65.8008 31.7474 63.4445 28.4926 60.5276 25.7847C60.4807 24.1249 60.771 22.473 61.381 20.9287H57.0643C57.0311 21.0118 56.9988 21.0952 56.9675 21.179C56.424 22.652 56.1672 24.2153 56.211 25.7847C56.4122 25.97 56.6107 26.1584 56.8066 26.3501Z" fill="url(#paint3_linear_41_82)"/>
<path d="M62.5544 0.0187997C64.2972 0.117047 65.9451 1.00526 67.0659 2.3313C68.42 3.83675 69.054 5.91661 68.9066 7.92438C68.8754 8.47223 68.7496 9.0052 68.6526 9.54356C68.5435 10.1883 68.4842 10.8405 68.4753 11.4944C68.4652 14.0278 69.2852 16.4947 70.8098 18.518C72.2162 20.3728 74.2524 21.7675 76.5343 22.276C77.1332 22.4101 77.7437 22.4849 78.3573 22.4993C78.4289 22.5021 78.5007 22.502 78.5726 22.5023H82.8895C77.9888 22.521 73.9934 18.6205 73.0469 13.9502C72.7929 12.7555 72.7308 11.5279 72.8631 10.3137C72.9445 9.42504 73.2183 8.56398 73.2379 7.66858C73.3161 5.74218 72.6788 3.77235 71.3827 2.3313C70.3943 1.16631 69.0045 0.330913 67.4898 0.0886905C66.8391 -0.0651698 62.928 0.0336758 62.1939 0.00751657C62.3144 0.00741673 62.4343 0.0135079 62.5544 0.0187997Z" fill="url(#paint4_linear_41_82)"/>
<path d="M82.6503 22.026C82.7465 22.0314 82.8424 22.039 82.938 22.0488C82.9412 22.0488 82.9443 22.0488 82.9474 22.0497C84.479 22.2069 85.9114 22.9754 86.9533 24.0998C88.652 25.8404 89.3296 28.443 88.8981 30.8153C87.3604 38.4569 82.3827 45.453 75.1961 48.6909C77.211 54.8375 76.6659 61.7992 73.6335 67.5216C70.16 74.1574 63.4034 78.8327 55.7998 78.8045C57.3901 78.7846 60.7945 78.8844 62.3151 78.6758C64.8683 78.3738 67.3346 77.5611 69.5672 76.2861C79.0486 70.8764 82.8674 58.8709 79.513 48.6912C86.6997 45.4533 91.6777 38.4572 93.215 30.8158C93.6466 28.4436 92.9689 25.8407 91.2701 24.1003C90.7363 23.5256 90.1066 23.0479 89.4093 22.6887C88.7393 22.3478 88.0129 22.1315 87.2656 22.0503H87.2643C87.2612 22.0503 87.2581 22.0498 87.255 22.0494C86.9605 21.9845 82.7103 22.027 82.2952 22.0156C82.414 22.0152 82.532 22.0207 82.6503 22.026Z" fill="url(#paint5_linear_41_82)"/>
<path d="M86.9533 24.0998C88.5858 25.7616 89.348 28.3538 88.8981 30.8153C87.2174 38.9617 82.0813 45.5639 75.1961 48.691C80.0067 62.691 70.1387 78.9527 55.7996 78.8041H17.4138C-1.80561 78.2115 -6.06517 50.2029 11.3079 42.5759C14.2025 26.8332 28.4427 15.9633 43.3752 18.8619C45.4407 9.59128 52.1815 2.25222 60.8349 0.159279C63.1447 -0.362708 65.4932 0.48637 67.0659 2.3314C68.6265 4.06869 69.2734 6.59875 68.7471 9.04643C68.5765 9.85158 68.4854 10.6716 68.4753 11.4945C68.4383 18.3485 74.4153 23.8509 80.7824 22.2047C81.2767 22.0782 81.785 22.0145 82.2953 22.015C84.0454 22.015 85.6997 22.7558 86.9533 24.0998ZM63.8725 56.8622C64.1826 52.4417 61.1529 48.5699 57.1154 48.23C54.4658 47.7456 52.4789 45.8774 51.7049 43.3208C50.6965 40.1786 48.7112 37.4088 46.126 35.567C36.5067 28.6778 23.9537 36.7452 24.0604 48.6257C24.0604 52.6284 21.0778 55.893 17.4135 55.893C15.3068 55.893 13.5945 57.767 13.5945 60.0701C13.5945 62.3733 15.3069 64.2473 17.4135 64.2473H55.7995C59.9431 64.6784 63.5505 61.3182 63.8722 56.8622H63.8725ZM66.4407 36.2587C67.7535 36.2571 69.0514 35.9791 70.2497 35.4427C64.2432 32.8157 59.4339 27.5228 57.0644 20.9287C56.4537 22.4728 56.1634 24.1249 56.211 25.7847C59.1295 28.4911 61.486 31.7463 63.1458 35.3639C63.7938 35.6382 64.4272 35.9457 65.0436 36.2851C65.3363 36.2925 65.6292 36.2846 65.9212 36.2616L66.0123 36.2505L66.4408 36.2587" fill="#79517A"/>
<g style="mix-blend-mode:multiply" opacity="0.4" filter="url(#filter0_f_41_82)">
<path d="M84.6491 27.0219C85.0242 27.4108 85.3015 27.8831 85.4582 28.4001C85.6149 28.9171 85.6466 29.464 85.5505 29.9956C83.8599 38.2466 77.9401 44.3902 70.3216 46.2235L71.0614 47.7565C72.3313 50.4104 72.9821 53.3179 72.9649 56.2599C72.9649 66.4373 65.4067 74.7106 56.1158 74.7106H17.729C14.7927 74.7063 12.0024 73.6756 9.66287 71.731C0.790189 64.3876 3.50436 48.6222 14.938 45.729C16.5775 29.7251 31.1962 18.5 46.7385 23.8474C47.2377 14.5006 53.3997 6.15034 61.9466 4.16074C62.4403 4.05985 62.9521 4.09568 63.427 4.26435C63.9018 4.43302 64.3215 4.72813 64.6409 5.11785C64.9985 5.51895 65.2557 5.99922 65.3914 6.51915C65.5272 7.03907 65.5375 7.58379 65.4216 8.10849C63.0477 18.3961 71.8932 28.8415 81.9384 26.1951C82.1581 26.1384 82.384 26.1096 82.6109 26.1091C82.9954 26.1114 83.3752 26.1937 83.7262 26.3508C84.0771 26.508 84.3914 26.7365 84.6491 27.0219V27.0219ZM67.9174 57.1765C68.4938 51.0291 64.0065 44.6281 57.7871 44.1574C56.7503 43.9421 55.9032 43.133 55.5692 42.0339C53.2687 34.5892 46.4672 28.9204 38.7215 28.9516C28.4841 28.798 20.4523 38.5167 20.6387 48.6101C20.6387 50.3713 19.3331 51.7991 17.729 51.7991C13.5631 51.7991 10.1735 55.5106 10.1735 60.0708C10.1735 64.631 13.5631 68.3425 17.729 68.3425H56.0681C62.316 68.9176 67.6071 63.3548 67.9174 57.1765V57.1765ZM77.1238 35.2453L78.6906 33.307C73.3499 32.6847 69.0841 31.015 65.2771 26.8571C61.4955 22.7551 59.9135 17.8486 59.3917 12.2252L57.631 13.8742C54.5531 16.7551 52.7886 20.9506 52.7886 25.3835V27.7683C56.2845 30.5695 59.0468 34.3561 60.7546 38.6613C62.0019 39.0838 63.2004 39.6387 64.3295 40.3166C65.0347 40.3926 65.7453 40.4034 66.4525 40.3488C70.5276 40.4502 74.4306 38.5759 77.1244 35.2457" fill="#79517A"/>
</g>
<path d="M5.78902 60.4642C5.89565 63.7057 7.95296 66.909 11.0822 67.9669C11.084 67.9676 11.0859 67.968 11.0878 67.9687C11.8115 68.2154 12.5708 68.3417 13.3355 68.3425H14.4116C13.8993 68.3412 13.3885 68.2845 12.8884 68.1736C7.82904 66.9874 5.5556 61.0312 7.6095 56.473C8.51479 54.411 10.2924 52.7012 12.4766 52.0753C12.9489 51.9384 13.4344 51.8522 13.925 51.818C14.2257 51.788 14.5319 51.8165 14.8311 51.7655C15.6584 51.639 16.3867 51.1031 16.8211 50.3968L16.822 50.3952C17.078 49.9778 17.2397 49.5096 17.2959 49.0232C17.347 48.385 17.3187 47.741 17.3778 47.1024C17.5079 45.2618 17.8775 43.4459 18.4774 41.7008C20.9575 34.4267 27.5523 28.9131 35.4041 28.9518C34.2006 28.9469 32.9356 28.9484 31.7519 29.1475C27.8311 29.7266 24.2028 31.7834 21.5464 34.7046C19.2298 37.2498 17.6035 40.3456 16.8223 43.6973C16.5119 45.0107 16.326 46.3504 16.2672 47.6986C16.2287 48.3975 16.3026 49.1192 16.0401 49.7843C15.6484 50.9162 14.5583 51.8126 13.3355 51.7992C8.77727 51.8101 5.55169 56.1001 5.78902 60.4642Z" fill="url(#paint6_linear_41_82)"/>
<path d="M35.1204 22.5268C36.5785 22.5645 38.0296 22.7424 39.4537 23.058C40.313 23.2391 41.4905 23.6012 42.3446 23.8474H43.4207C41.6811 23.3173 39.8363 22.8206 38.0267 22.6475H38.0231C36.8973 22.5186 35.6688 22.5108 34.5319 22.5186C34.7284 22.5185 34.9244 22.5208 35.1204 22.5268Z" fill="url(#paint7_linear_41_82)"/>
<path d="M52.1428 68.3671C52.381 68.38 53.3087 68.372 53.5626 68.3741C53.2924 68.3727 53.0204 68.3623 52.7507 68.3425H51.6745C51.8303 68.3544 51.9864 68.3626 52.1428 68.3671Z" fill="url(#paint8_linear_41_82)"/>
<path d="M49.4055 28.6302C52.4827 31.356 54.8389 34.8496 56.3605 38.6609C57.6072 39.0844 58.8054 39.6393 59.9349 40.3161C60.6259 40.3974 61.5565 40.3844 62.259 40.3834C61.8465 40.3823 61.4221 40.3569 61.0109 40.3161C59.8815 39.6392 58.6833 39.0843 57.4365 38.6609C55.758 34.4315 53.0253 30.6192 49.4705 27.7679C49.485 26.5597 49.4183 24.6644 49.5798 23.4892C49.8412 21.1582 50.6112 18.913 51.8354 16.9121C52.3234 16.1216 52.8833 15.3779 53.508 14.6904C54.0388 14.0887 55.4806 12.7928 56.074 12.2249H54.9976C53.8528 13.3032 52.2935 14.6599 51.4051 15.9491C49.997 17.9021 49.0522 20.1502 48.6424 22.5227C48.3315 24.0848 48.3968 26.1678 48.3943 27.7681C48.6974 28.0221 49.1154 28.3694 49.4055 28.6302Z" fill="url(#paint9_linear_41_82)"/>
<path d="M58.3723 4.11392C59.1036 4.19363 59.7757 4.55343 60.2476 5.11785C60.8367 5.78002 61.1435 6.64633 61.1024 7.53169C61.036 8.28741 60.8151 9.05003 60.7568 9.82652C60.5574 11.6745 60.6829 13.5431 61.1275 15.3479C62.2506 20.0853 65.7077 24.332 70.3757 25.9121C71.4636 26.2839 72.5967 26.5069 73.7443 26.575C74.2225 26.6085 75.0831 26.595 75.5708 26.5975C69.4811 26.6211 64.3473 22.1954 62.5391 16.528C61.7596 14.1471 61.548 11.6168 61.921 9.13948C61.9868 8.59294 62.1506 8.06007 62.1806 7.50973C62.2152 6.63156 61.9082 5.77413 61.3241 5.11745C61.1154 4.87271 60.8692 4.66277 60.5945 4.49552C60.4271 4.39593 60.2502 4.31318 60.0665 4.24851C60.0641 4.24771 60.0618 4.24661 60.0594 4.24581C59.9301 4.20267 59.798 4.16838 59.664 4.14317C59.3445 4.07118 58.4525 4.10882 58.1164 4.10024C58.2011 4.10203 58.2869 4.10573 58.3723 4.11392Z" fill="url(#paint10_linear_41_82)"/>
<path d="M63.1349 40.3483H62.0588C62.1629 40.3511 62.2663 40.3527 62.3708 40.3526H63.447C63.3421 40.3526 63.2386 40.3511 63.1349 40.3483Z" fill="url(#paint11_linear_41_82)"/>
<path d="M78.5036 26.1244C79.1767 26.2026 79.7989 26.5213 80.2556 27.0219C80.6296 27.4115 80.9061 27.884 81.0628 28.4008C81.2194 28.9176 81.2517 29.4641 81.1569 29.9957C79.9887 35.7519 76.4747 41.0896 71.3522 44.0505C70.423 44.5916 69.4487 45.0512 68.4401 45.4241C67.7887 45.6723 66.5998 46.0131 65.9283 46.2235C66.6443 47.674 67.4133 49.2636 67.8296 50.8212C68.8653 54.5275 68.8191 58.4527 67.6965 62.1336C65.5679 69.1906 59.2731 74.7324 51.7226 74.7105C52.8789 74.7205 54.1131 74.7128 55.2497 74.5148C59.0238 73.9248 62.4909 71.8656 64.9829 68.9924C69.0112 64.4004 70.506 57.8461 69.1816 51.9154C68.9462 50.8523 68.6209 49.811 68.2093 48.8029C67.9297 48.0945 67.3335 46.9175 67.0046 46.2234C68.3076 45.8294 69.7914 45.3959 71.0065 44.7985C74.4711 43.1686 77.3808 40.4566 79.3835 37.2048C80.7458 34.9861 81.7101 32.5465 82.2331 29.996C82.3279 29.4643 82.2957 28.9178 82.139 28.401C81.9824 27.8842 81.7057 27.4118 81.3317 27.0222C81.3012 26.9895 81.2703 26.9575 81.2388 26.9264C81.0262 26.7169 80.7831 26.5407 80.5179 26.4038C80.2252 26.2556 79.9083 26.1612 79.5823 26.1249H79.5803C79.3857 26.0974 78.4307 26.1138 78.2177 26.1096C78.3128 26.1109 78.409 26.1144 78.5036 26.1244Z" fill="url(#paint12_linear_41_82)"/>
<path d="M80.2556 27.0219C80.6306 27.4107 80.9079 27.8831 81.0646 28.4001C81.2213 28.9171 81.2529 29.464 81.1569 29.9956C79.4663 38.2466 73.5465 44.3902 65.928 46.2235L66.6678 47.7565C67.9376 50.4104 68.5885 53.3179 68.5714 56.2599C68.5714 66.4373 61.0126 74.7106 51.7222 74.7106H13.3355C10.399 74.7063 7.60879 73.6756 5.26923 71.731C-3.60334 64.3876 -0.889176 48.6222 10.5445 45.729C12.1839 29.7251 26.8026 18.5 42.345 23.8474C42.8442 14.5006 49.0061 6.15033 57.553 4.16073C58.0467 4.05984 58.5585 4.09566 59.0334 4.26433C59.5082 4.43299 59.928 4.72811 60.2474 5.11784C60.6049 5.51894 60.8622 5.99922 60.9979 6.51914C61.1336 7.03906 61.144 7.58378 61.0281 8.10848C58.6542 18.3961 67.4997 28.8415 77.5448 26.1951C77.7645 26.1384 77.9904 26.1095 78.2173 26.1091C78.6018 26.1114 78.9816 26.1937 79.3326 26.3508C79.6835 26.508 79.9979 26.7365 80.2556 27.0219ZM63.5243 57.1765C64.1007 51.0291 59.6133 44.6281 53.3939 44.1574C52.3572 43.9421 51.5101 43.133 51.1761 42.0339C48.8756 34.5892 42.0741 28.9204 34.3283 28.9516C24.091 28.7979 16.0591 38.5167 16.2454 48.6101C16.2454 50.3713 14.94 51.7991 13.3359 51.7991C9.16986 51.7991 5.78033 55.5106 5.78033 60.0708C5.78033 64.631 9.16986 68.3425 13.3359 68.3425H51.6748C57.9228 68.9175 63.214 63.3548 63.5243 57.1765ZM72.7299 35.2453L74.2963 33.307C68.9556 32.6847 64.6898 31.015 60.8827 26.8571C57.1011 22.7551 55.5191 17.8486 54.9973 12.2252L53.2366 13.8742C50.1588 16.7551 48.3941 20.9506 48.3941 25.3835V27.7682C51.8901 30.5695 54.6524 34.3561 56.3601 38.6613C57.6073 39.0838 58.8056 39.6387 59.9346 40.3166C60.6398 40.3926 61.3505 40.4034 62.0576 40.3488C66.1327 40.4502 70.0352 38.5759 72.7295 35.2457" fill="#E5B5C9"/>
<defs>
<filter id="filter0_f_41_82" x="1.39355" y="1.10471" width="87.2113" height="76.6059" filterUnits="userSpaceOnUse" color-interpolation-filters="sRGB">
<feFlood flood-opacity="0" result="BackgroundImageFix"/>
<feBlend mode="normal" in="SourceGraphic" in2="BackgroundImageFix" result="shape"/>
<feGaussianBlur stdDeviation="1.5" result="effect1_foregroundBlur_41_82"/>
</filter>
<linearGradient id="paint0_linear_41_82" x1="53.4681" y1="0" x2="53.4681" y2="78.8113" gradientUnits="userSpaceOnUse">
<stop stop-color="#79517A"/>
<stop offset="1" stop-color="#3C3261"/>
</linearGradient>
<linearGradient id="paint1_linear_41_82" x1="53.4681" y1="0" x2="53.4681" y2="78.8113" gradientUnits="userSpaceOnUse">
<stop stop-color="#79517A"/>
<stop offset="1" stop-color="#3C3261"/>
</linearGradient>
<linearGradient id="paint2_linear_41_82" x1="53.4681" y1="0" x2="53.4681" y2="78.8113" gradientUnits="userSpaceOnUse">
<stop stop-color="#79517A"/>
<stop offset="1" stop-color="#3C3261"/>
</linearGradient>
<linearGradient id="paint3_linear_41_82" x1="53.4681" y1="0" x2="53.4681" y2="78.8113" gradientUnits="userSpaceOnUse">
<stop stop-color="#79517A"/>
<stop offset="1" stop-color="#3C3261"/>
</linearGradient>
<linearGradient id="paint4_linear_41_82" x1="53.4681" y1="0" x2="53.4681" y2="78.8113" gradientUnits="userSpaceOnUse">
<stop stop-color="#79517A"/>
<stop offset="1" stop-color="#3C3261"/>
</linearGradient>
<linearGradient id="paint5_linear_41_82" x1="53.4681" y1="0" x2="53.4681" y2="78.8113" gradientUnits="userSpaceOnUse">
<stop stop-color="#79517A"/>
<stop offset="1" stop-color="#3C3261"/>
</linearGradient>
<linearGradient id="paint6_linear_41_82" x1="44.0315" y1="4.09789" x2="44.0315" y2="74.7132" gradientUnits="userSpaceOnUse">
<stop stop-color="#79517A"/>
<stop offset="0.338542" stop-color="#E5B5C9"/>
</linearGradient>
<linearGradient id="paint7_linear_41_82" x1="44.0315" y1="4.09789" x2="44.0315" y2="74.7132" gradientUnits="userSpaceOnUse">
<stop stop-color="#79517A"/>
<stop offset="0.338542" stop-color="#E5B5C9"/>
</linearGradient>
<linearGradient id="paint8_linear_41_82" x1="44.0315" y1="4.09789" x2="44.0315" y2="74.7132" gradientUnits="userSpaceOnUse">
<stop stop-color="#79517A"/>
<stop offset="0.338542" stop-color="#E5B5C9"/>
</linearGradient>
<linearGradient id="paint9_linear_41_82" x1="44.0315" y1="4.09789" x2="44.0315" y2="74.7132" gradientUnits="userSpaceOnUse">
<stop stop-color="#79517A"/>
<stop offset="0.338542" stop-color="#E5B5C9"/>
</linearGradient>
<linearGradient id="paint10_linear_41_82" x1="44.0315" y1="4.09789" x2="44.0315" y2="74.7132" gradientUnits="userSpaceOnUse">
<stop stop-color="#79517A"/>
<stop offset="0.338542" stop-color="#E5B5C9"/>
</linearGradient>
<linearGradient id="paint11_linear_41_82" x1="44.0315" y1="4.09789" x2="44.0315" y2="74.7132" gradientUnits="userSpaceOnUse">
<stop stop-color="#79517A"/>
<stop offset="0.338542" stop-color="#E5B5C9"/>
</linearGradient>
<linearGradient id="paint12_linear_41_82" x1="44.0315" y1="4.09789" x2="44.0315" y2="74.7132" gradientUnits="userSpaceOnUse">
<stop stop-color="#79517A"/>
<stop offset="0.338542" stop-color="#E5B5C9"/>
</linearGradient>
</defs>
</svg>
