<svg width="95" height="98" viewBox="0 0 95 98" fill="none" xmlns="http://www.w3.org/2000/svg">
<path d="M18.5708 77.9541C20.6975 77.8555 22.6444 76.559 23.7454 74.7651C25.586 71.8567 25.19 67.7146 22.7151 65.2911L22.7143 65.2904C22.3118 64.8925 21.8605 64.5472 21.3711 64.2628C21.066 64.0773 20.728 63.9521 20.4295 63.7557C20.0908 63.5381 19.7885 63.2685 19.5337 62.9569C17.9773 61.0848 18.3796 57.9306 20.4515 56.6023C20.9255 56.2904 21.4669 56.0958 22.031 56.0344C22.4737 56.0003 22.9207 56.0183 23.3589 55.9378C25.1445 55.663 26.7377 54.5554 27.7396 53.0684C28.4368 52.0333 28.8702 50.8433 29.0021 49.6023C29.0762 48.9034 29.0326 48.196 29.0938 47.4961C29.5843 39.9352 35.4733 33.1117 43.3276 33.1041C41.629 33.1414 38.188 32.9663 36.5632 33.3347C33.5079 33.9045 30.7217 35.6075 28.6909 37.943C28.1339 38.5838 27.6292 39.2683 27.1817 39.9898C25.9043 42.0682 25.104 44.4041 24.8385 46.8291C24.6999 47.8307 24.7856 48.8486 24.6544 49.8497C24.3905 51.7588 23.3899 53.5739 21.8414 54.7366C20.9684 55.4007 19.9364 55.8242 18.8486 55.9647C18.2687 56.0446 17.6704 55.9701 17.1054 56.1544C16.1927 56.4333 15.4149 57.039 14.921 57.8556L14.9203 57.8568C13.8833 59.5168 14.0853 61.88 15.4958 63.2654C15.7093 63.4725 15.9447 63.6558 16.1978 63.8121C16.4474 63.9591 16.7153 64.0699 16.9666 64.2128C17.4853 64.5048 17.9631 64.8642 18.3874 65.2817C20.0183 66.8799 20.7774 69.2531 20.5357 71.5084C20.2232 74.9001 17.4573 77.9775 13.9321 77.9635C14.037 77.9592 18.6413 77.9728 18.5708 77.9541Z" fill="url(#paint0_linear_41_94)"/>
<path d="M37.282 90.3244C37.1673 93.9151 34.369 97.2602 30.6408 97.255H34.9575C35.4284 97.2537 35.8975 97.1989 36.356 97.0917C38.0699 96.6963 39.55 95.5359 40.4665 94.0493C41.0266 93.138 41.3899 92.1196 41.5329 91.0596C41.5815 90.7006 41.6062 90.3387 41.6069 89.9764V62.4825C41.6125 60.9567 41.1661 59.4634 40.3239 58.191C39.3937 56.7864 37.9393 55.7132 36.2847 55.3498C35.8488 55.2535 35.4039 55.2046 34.9575 55.2039H30.6407C33.4971 55.1773 35.9963 57.2837 36.8697 59.9373C37.1112 60.6469 37.25 61.3874 37.282 62.1363C37.2869 62.251 37.29 62.3659 37.29 62.4825V89.9764C37.2901 90.0931 37.287 90.209 37.282 90.3244Z" fill="url(#paint1_linear_41_94)"/>
<path d="M40.0538 18.558C41.393 18.5979 42.7272 18.7404 44.0447 18.9839H48.3616C47.245 18.7775 46.1162 18.6438 44.9822 18.5834C44.0137 18.5141 40.3101 18.5556 39.2806 18.5451C39.5384 18.5454 39.7962 18.5484 40.0538 18.558Z" fill="url(#paint2_linear_41_94)"/>
<path d="M56.7736 90.093C57.8043 88.744 58.3586 87.0913 58.3497 85.3935V57.8997C58.3497 57.7836 58.3481 57.6685 58.3417 57.5537C58.3143 56.9353 58.2153 56.3222 58.0468 55.7266C57.4402 53.574 55.8229 51.6782 53.681 50.9533C53.1344 50.7661 52.5638 50.658 51.9865 50.6322C51.8925 50.627 51.7981 50.6239 51.7037 50.6243H47.3872C50.5187 50.6029 53.1332 53.0775 53.8143 56.0482C53.932 56.5423 54.0026 57.0465 54.0253 57.5539C54.0301 57.6687 54.0332 57.7836 54.0332 57.9V85.3938C54.0326 86.0101 53.9612 86.6243 53.8203 87.2243C53.147 90.2034 50.5269 92.6944 47.3872 92.6725C48.1314 92.6482 52.0142 92.741 52.6627 92.5957C54.2941 92.3428 55.7751 91.3955 56.7736 90.093Z" fill="url(#paint3_linear_41_94)"/>
<path d="M58.7924 27.6598C60.8602 29.9661 62.5677 32.5714 63.8572 35.3878C64.4734 35.6979 65.074 36.04 65.6582 36.4069C65.7081 36.4069 65.7555 36.4099 65.8045 36.41H70.1214C70.0731 36.41 70.0238 36.407 69.9751 36.4069C69.391 36.0399 68.7903 35.698 68.1741 35.3878C66.5079 31.7382 64.1372 28.4537 61.1983 25.7228C61.1507 24.0628 61.4416 22.4105 62.0531 20.8665H57.7363C57.7014 20.953 57.6676 21.0404 57.6347 21.1286V21.1291L57.6336 21.1321C57.0928 22.6004 56.8375 24.1586 56.8816 25.7228C57.5473 26.3386 58.1843 26.9843 58.7924 27.6598Z" fill="url(#paint4_linear_41_94)"/>
<path d="M73.9129 7.42803C73.9066 5.62084 73.2661 3.80367 72.052 2.45358C71.0635 1.28879 69.6748 0.452496 68.1601 0.210073C67.5094 0.0558138 63.5983 0.155063 62.8642 0.128804C64.7329 0.121315 66.5385 1.03379 67.7351 2.45358C69.0318 3.89393 69.669 5.86296 69.5908 7.78896V7.78967C69.5608 8.7991 69.2386 9.77078 69.1856 10.7788C69.0787 12.1613 69.2205 13.5518 69.6043 14.8843C70.5239 18.1492 72.9821 21.0199 76.2282 22.1219L76.2345 22.124C77.0006 22.3861 77.7977 22.5467 78.6055 22.6019C78.898 22.6455 83.147 22.6168 83.5588 22.6244C78.6396 22.6435 74.6382 18.7127 73.7097 14.0221C73.4605 12.8269 73.4028 11.5997 73.5386 10.3863C73.6441 9.39675 73.9468 8.43086 73.9129 7.42803Z" fill="url(#paint5_linear_41_94)"/>
<path d="M94.0085 29.2093C93.9362 27.3788 93.2381 25.5471 91.9471 24.2302C90.9062 23.0956 89.4674 22.3202 87.929 22.1624C87.6195 22.0956 83.3853 22.1394 82.9575 22.1277C84.7274 22.1168 86.4436 22.9302 87.6302 24.2303C89.3296 25.9691 90.0023 28.5727 89.5684 30.943C88.0308 38.5827 83.0522 45.5759 75.8681 48.8133C78.202 55.9799 77.1294 64.2721 72.7097 70.4251C71.768 71.7461 70.6806 72.9568 69.4679 74.0344C67.9738 75.3983 66.3954 76.4453 64.3452 76.423H68.662C69.9848 76.4168 71.2718 75.9922 72.3386 75.2101C73.9188 74.0356 75.3299 72.6493 76.5321 71.0901C81.3571 64.884 82.6071 56.2413 80.185 48.8133C87.3692 45.5757 92.3484 38.5827 93.8852 30.943C93.9889 30.3712 94.0302 29.7899 94.0085 29.2093Z" fill="url(#paint6_linear_41_94)"/>
<path d="M30.6408 55.2039C34.3077 55.2039 37.2904 58.4688 37.2904 62.4825V89.9763C37.2904 93.9913 34.308 97.2549 30.6408 97.2549C26.9765 97.2549 23.9937 93.9913 23.9937 89.9763V62.4825C23.9937 58.4686 26.9761 55.2039 30.6408 55.2039Z" fill="#79517A"/>
<path d="M47.3872 50.624C51.0515 50.624 54.0333 53.8889 54.0333 57.8997V85.3935C54.0333 89.4086 51.0519 92.6722 47.3872 92.6722C43.7203 92.6722 40.7376 89.4087 40.7376 85.3935V57.8997C40.7379 53.8888 43.7203 50.624 47.3872 50.624Z" fill="#79517A"/>
<path d="M87.6302 24.2302C89.2577 25.8838 90.0223 28.4763 89.5684 30.9429C87.8893 39.084 82.7528 45.6862 75.8682 48.8132C79.0217 58.1287 75.8632 69.5897 68.0216 75.2099C66.9548 75.9921 65.668 76.4167 64.3452 76.4229C57.4766 76.3174 55.3838 66.7567 60.6875 63.0249C66.4337 59.1442 64.7759 49.3017 57.6791 48.3442C55.0938 47.868 53.1055 45.9987 52.3332 43.4435C51.3261 40.2999 49.3394 37.5314 46.7546 35.6882C37.2311 28.6525 24.5377 36.8721 24.7326 48.7373C24.7326 52.751 21.7501 56.0144 18.083 56.0144C15.9792 56.0144 14.2666 57.8891 14.2666 60.1926C14.2574 61.8592 15.1491 63.3439 16.5345 63.9908C19.014 65.1434 20.6035 67.7943 20.5792 70.7453C20.5884 75.7818 15.7353 79.4159 11.316 77.4078C-2.70364 70.7739 -2.36017 48.7281 11.9804 42.6926C14.8769 26.9556 29.1148 16.0847 44.0445 18.984C46.1122 9.71325 52.8527 2.37438 61.5049 0.281744C63.8147 -0.243437 66.1628 0.60913 67.7352 2.45356C69.2966 4.19085 69.9438 6.72021 69.4164 9.16909C69.2473 9.97151 69.1571 10.7885 69.1468 11.6085C69.1078 18.4406 75.0525 23.9576 81.3968 22.3326C81.9058 22.1966 82.4303 22.1277 82.9571 22.1276C84.7174 22.1276 86.3765 22.8743 87.6302 24.2302ZM66.9736 36.3754C68.3853 36.3742 69.7785 36.0539 71.049 35.4385C64.982 32.8294 60.1197 27.507 57.7363 20.8659C57.1241 22.4097 56.8333 24.0621 56.8814 25.7222C59.822 28.4517 62.1929 31.7365 63.8573 35.3872C64.472 35.6955 65.0738 36.0381 65.6583 36.4062C65.9406 36.4126 66.2231 36.4039 66.5045 36.3802L66.9738 36.3749" fill="#79517A"/>
<g style="mix-blend-mode:multiply" opacity="0.4" filter="url(#filter0_f_41_94)">
<path d="M30.9584 59.2991C32.5626 59.2991 33.8676 60.7277 33.8676 62.4841V89.9777C33.8676 91.7337 32.5626 93.1622 30.9584 93.1622C29.3542 93.1622 28.0491 91.7337 28.0491 89.9777V62.4837C28.0491 60.7275 29.3543 59.2991 30.9584 59.2991Z" fill="#79517A"/>
<path d="M47.7025 54.7168C49.3067 54.7168 50.6118 56.1455 50.6118 57.9019V85.3953C50.6118 87.1513 49.3067 88.5804 47.7025 88.5804C46.0983 88.5804 44.7932 87.1517 44.7932 85.3953V57.9019C44.7932 56.1458 46.0988 54.7168 47.7025 54.7168Z" fill="#79517A"/>
<path d="M85.3174 27.1407C85.693 27.5299 85.9708 28.0027 86.1279 28.5203C86.2851 29.0378 86.3171 29.5853 86.2214 30.1177C84.5299 38.3695 78.6105 44.5127 70.9921 46.3447C75.7626 54.7701 73.9986 66.0993 66.2517 71.8129C64.9237 72.7894 63.0381 72.3237 62.208 70.883C61.3373 69.4956 61.6934 67.3951 63.0421 66.4566C71.7642 60.508 68.873 45.6002 58.4311 44.2827C57.3878 44.0715 56.534 43.2599 56.1984 42.156C54.9005 38.1023 52.3893 34.5978 49.117 32.266C37.0331 23.4127 21.1154 33.7112 21.3096 48.7376C21.3096 50.4933 20.0043 51.9219 18.4001 51.9219C10.153 52.0544 7.99476 64.2427 15.3884 67.7572C18.244 69.1151 17.4473 73.8015 14.2488 73.8716C13.8291 73.8648 13.4148 73.7762 13.029 73.6108C1.32285 67.9027 2.768 49.1272 15.6084 45.854C17.2449 29.8517 31.8688 18.6209 47.4088 23.9702C47.9081 14.6242 54.0715 6.27341 62.6169 4.28301C63.1106 4.18204 63.6225 4.21789 64.0973 4.38668C64.5721 4.55547 64.9918 4.85078 65.311 5.24072C65.6688 5.64176 65.9263 6.12202 66.0622 6.64198C66.1981 7.16194 66.2087 7.70674 66.0929 8.23157C63.7178 18.4913 72.5492 28.9619 82.5735 26.3168C82.8013 26.2549 83.0363 26.2234 83.2724 26.2229C83.6584 26.225 84.0397 26.3077 84.3918 26.4658C84.744 26.6238 85.0592 26.8537 85.3174 27.1407ZM77.8091 35.1655L79.3133 33.2377C74.0106 32.6268 69.7215 30.9242 65.9474 26.7959C62.1614 22.6846 60.5874 17.7944 60.0616 12.163L58.3005 13.8118C55.2233 16.6938 53.458 20.8882 53.4589 25.3221V27.707C56.9414 30.4985 59.6961 34.2648 61.4053 38.5523C62.6114 39.0581 63.761 39.6892 64.8351 40.4354C65.5659 40.5133 66.3023 40.5239 67.0351 40.4672C71.1825 40.5501 75.1202 38.6081 77.8091 35.1655Z" fill="#79517A"/>
</g>
<path d="M29.4706 90.1236C29.4477 90.7016 29.2773 91.2642 28.9755 91.7577C28.9746 91.7593 28.9736 91.7607 28.9726 91.7622C28.4675 92.5909 27.5467 93.17 26.5647 93.1618C26.8797 93.1542 27.7641 93.1862 28.0604 93.1282C28.8881 93.0013 29.6165 92.4655 30.0511 91.7587L30.0518 91.7577C30.3552 91.261 30.5259 90.6947 30.5475 90.113C30.5556 90.0474 30.5475 62.5794 30.5502 62.4836C30.5496 62.1627 30.5052 61.8433 30.4181 61.5343C30.267 61.0018 29.9829 60.5165 29.5926 60.1241C29.5916 60.1232 29.5907 60.1221 29.5896 60.121C29.5274 60.0602 29.4625 60.0025 29.3968 59.9461C29.1331 59.727 28.8324 59.5569 28.5087 59.4438H28.5071C27.9952 59.2386 27.1093 59.311 26.5647 59.2996C27.867 59.2855 29.0004 60.2957 29.3377 61.5212C29.4277 61.8343 29.4736 62.1584 29.4739 62.4841C29.4683 62.615 29.482 90.0097 29.4706 90.1236Z" fill="url(#paint7_linear_41_94)"/>
<path d="M30.7552 29.8674C32.4506 29.3 34.2265 29.0104 36.0142 29.0099C34.7942 29.0037 33.514 29.0085 32.3153 29.2195C28.5024 29.8178 24.9721 31.8136 22.3537 34.6303C19.9668 37.1759 18.3033 40.3714 17.4967 43.7615C17.1827 45.0834 16.9952 46.4322 16.9369 47.7896C16.8975 48.4985 16.9779 49.2316 16.7114 49.9063C16.3195 51.038 15.2291 51.9343 14.0064 51.9211C10.8428 51.8967 8.06708 54.1576 7.00913 57.0693C5.83955 60.171 6.5154 63.9511 8.90618 66.297L8.90718 66.298C9.35926 66.7448 9.86599 67.1326 10.4153 67.4524C10.8299 67.7009 11.3012 67.8594 11.6618 68.1913C12.4179 68.8376 12.8062 69.854 12.7596 70.8394C12.7247 72.3844 11.4591 73.8882 9.85521 73.8702C9.99789 73.871 11.0034 73.8749 11.1175 73.8629C11.445 73.8398 11.7654 73.7567 12.0629 73.6178C13.7788 72.819 14.3275 70.5226 13.368 68.9433L13.3668 68.9414C13.0085 68.3521 12.4691 67.8946 11.8292 67.6372C11.2716 67.3503 10.7523 66.9941 10.2838 66.5772C7.73142 64.3349 6.90828 60.5139 7.9902 57.3388C8.78206 54.9495 10.6995 52.897 13.1475 52.1968C13.6198 52.0598 14.1055 51.9736 14.5961 51.9395C14.8969 51.9095 15.2032 51.938 15.5025 51.8869C16.3285 51.7603 17.0567 51.226 17.4911 50.5209C17.492 50.5194 17.4929 50.5181 17.4938 50.5167C17.7494 50.1001 17.9109 49.6328 17.9672 49.1473C18.0141 48.6968 17.9841 48.2403 18.0135 47.7885C18.0734 46.3839 18.2723 44.9886 18.6073 43.6231C20.0856 37.4324 24.635 31.8884 30.7552 29.8674Z" fill="url(#paint8_linear_41_94)"/>
<path d="M36.1007 22.6582C37.52 22.7144 38.9309 22.9033 40.315 23.2223C41.0908 23.3927 42.242 23.7462 43.0151 23.9696H44.0913C42.6881 23.5502 41.1539 23.1029 39.7081 22.9012C38.2377 22.6623 36.6928 22.6228 35.2028 22.64C35.5024 22.6398 35.8017 22.6468 36.1007 22.6582Z" fill="url(#paint9_linear_41_94)"/>
<path d="M47.2908 85.5417C47.3018 85.5091 47.2901 57.9772 47.2942 57.9018C47.2948 57.7965 47.2879 57.6921 47.2799 57.5878C47.26 57.3728 47.2206 57.1601 47.1621 56.9524C46.9876 56.333 46.632 55.78 46.1409 55.3642C45.7243 55.0147 45.2143 54.7952 44.6741 54.7329C44.4726 54.7048 43.5273 54.7211 43.3088 54.7171C44.7135 54.7026 45.9013 55.8692 46.1488 57.2133C46.1945 57.44 46.2177 57.6708 46.2179 57.9022V85.3957C46.2173 85.6025 46.1988 85.8089 46.1627 86.0125C45.9403 87.384 44.7403 88.5975 43.3088 88.5802C43.5684 88.5744 44.4801 88.5979 44.72 88.5585C45.5808 88.4559 46.3469 87.9079 46.7958 87.1764C47.0977 86.6827 47.2681 86.1199 47.2908 85.5417Z" fill="url(#paint10_linear_41_94)"/>
<path d="M50.1459 24.9432C50.2151 21.714 51.2483 18.4996 53.1539 15.8845C54.0413 14.5965 55.6023 13.2379 56.7439 12.1635H55.6678C54.524 13.2398 52.9652 14.5969 52.0777 15.8845L52.0761 15.8865C50.6679 17.8395 49.723 20.0876 49.313 22.4602C49.0018 24.023 49.0678 26.1064 49.0651 27.7075C52.6059 30.5487 55.3322 34.342 57.0114 38.5528C58.2171 39.0594 59.3666 39.6906 60.4413 40.4359C61.1475 40.5175 62.0865 40.5058 62.8039 40.5046C62.3807 40.5034 61.9397 40.4771 61.5174 40.4359C60.4428 39.6905 59.2933 39.0594 58.0877 38.5528C56.4084 34.3421 53.6822 30.5484 50.1412 27.7075C50.1428 27.4421 50.1369 25.1446 50.1459 24.9432Z" fill="url(#paint11_linear_41_94)"/>
<path d="M62.8446 7.26449C62.794 6.51378 62.4945 5.80135 61.9935 5.24003C61.697 4.88932 61.3224 4.61297 60.8998 4.43319C60.6506 4.32867 60.3872 4.26207 60.1184 4.23559C59.9448 4.21113 58.978 4.22563 58.7854 4.22224C59.1931 4.22792 59.5948 4.32184 59.9628 4.49754C60.3308 4.67324 60.6565 4.92653 60.9173 5.24003C61.5079 5.90298 61.815 6.77109 61.7727 7.65797C61.7409 8.20132 61.579 8.72752 61.5144 9.26747C61.2869 10.7599 61.2745 12.2772 61.4776 13.7731C62.0217 17.9253 64.2408 21.8822 67.6832 24.308C68.7146 25.0383 69.8443 25.6186 71.0387 26.0316C72.1288 26.4049 73.2645 26.6287 74.4148 26.697C74.8932 26.7306 75.7527 26.717 76.2412 26.7195C69.7313 26.7374 64.4077 21.7395 62.902 15.5841C62.4748 13.9022 62.3249 12.1618 62.4583 10.4316C62.5022 9.86827 62.5743 9.30752 62.6743 8.75146C62.7651 8.26012 62.8921 7.76801 62.8446 7.26449Z" fill="url(#paint12_linear_41_94)"/>
<path d="M62.8981 40.4697H63.9743C63.8889 40.4697 63.8037 40.4687 63.7174 40.4671H62.6413C62.7274 40.469 62.8128 40.4697 62.8981 40.4697Z" fill="url(#paint13_linear_41_94)"/>
<path d="M82.9516 29.3391C82.9111 28.5152 82.5729 27.7341 81.9998 27.1408C81.7661 26.8876 81.4901 26.6771 81.1842 26.5187L81.1806 26.5167C80.8876 26.3684 80.5703 26.2739 80.2439 26.2377H80.2424C80.0473 26.2101 79.0928 26.2266 78.8792 26.2224C78.9749 26.2241 79.0714 26.2277 79.1663 26.2377H79.168C79.8432 26.3167 80.467 26.6375 80.924 27.1408C81.2985 27.5307 81.5755 28.0036 81.7326 28.5209C81.8897 29.0382 81.9223 29.5853 81.8279 30.1177C80.6597 35.8736 77.1461 41.2113 72.0231 44.1721C71.0939 44.7131 70.1195 45.1727 69.1109 45.5455C68.4598 45.7935 67.2697 46.1346 66.5985 46.3443C66.9363 47.0475 67.5227 48.2222 67.8038 48.9244C68.2155 49.9326 68.5407 50.9739 68.7761 52.0371C70.3743 59.2864 67.9274 67.331 61.8582 71.8125C61.3954 72.1477 60.8391 72.3291 60.2677 72.3311H61.3438C61.9152 72.3291 62.4716 72.1477 62.9344 71.8125C63.806 71.1637 64.6156 70.4356 65.3529 69.6375C65.3544 69.6358 65.356 69.6342 65.3576 69.6325C69.677 64.976 71.2108 58.1325 69.8421 51.99C69.6072 50.9433 69.2854 49.918 68.88 48.9248C68.5998 48.2159 68.004 47.0391 67.6747 46.3446C68.3563 46.1339 69.5405 45.7892 70.1871 45.5458C71.1956 45.173 72.1699 44.7135 73.0992 44.1725C78.2225 41.2111 81.7357 35.8748 82.9039 30.118C82.9483 29.8609 82.9643 29.5997 82.9516 29.3391Z" fill="url(#paint14_linear_41_94)"/>
<path d="M26.5647 59.2991C28.1689 59.2991 29.474 60.7277 29.474 62.4841V89.9777C29.474 91.7337 28.1689 93.1623 26.5647 93.1623C24.9605 93.1623 23.6555 91.7337 23.6555 89.9777V62.4837C23.6552 60.7275 24.9605 59.2991 26.5647 59.2991Z" fill="#E5B5C9"/>
<path d="M43.3088 54.7169C44.9129 54.7169 46.2181 56.1455 46.2181 57.9019V85.3954C46.2181 87.1513 44.9129 88.5804 43.3088 88.5804C41.7047 88.5804 40.3996 87.1517 40.3996 85.3954V57.9019C40.3996 56.1458 41.7051 54.7169 43.3088 54.7169Z" fill="#E5B5C9"/>
<path d="M80.9237 27.1407C81.2993 27.5299 81.5771 28.0028 81.7343 28.5203C81.8914 29.0379 81.9234 29.5853 81.8276 30.1177C80.1362 38.3695 74.2168 44.5127 66.5983 46.3447C71.3688 54.7701 69.605 66.0993 61.858 71.8129C60.5301 72.7894 58.6444 72.3237 57.8143 70.883C56.9437 69.4956 57.2996 67.3951 58.6483 66.4566C67.3704 60.508 64.4793 45.6002 54.0374 44.2827C52.9942 44.0715 52.1404 43.2599 51.8047 42.156C50.5073 38.1023 47.9955 34.5978 44.7232 32.266C32.6395 23.4127 16.7217 33.7112 16.9158 48.7376C16.9158 50.4933 15.6106 51.9219 14.0065 51.9219C5.75934 52.0544 3.6011 64.2427 10.9948 67.7572C13.8503 69.1151 13.0536 73.8015 9.85517 73.8716C9.43548 73.8648 9.02114 73.7762 8.63537 73.6108C-3.07079 67.9027 -1.62575 49.1273 11.2147 45.8541C12.8512 29.8517 27.4751 18.6209 43.0152 23.9702C43.5144 14.6242 49.6777 6.27342 58.2232 4.28302C58.7169 4.18207 59.2288 4.21793 59.7036 4.38672C60.1784 4.55551 60.5981 4.85081 60.9173 5.24074C61.2751 5.64178 61.5325 6.12204 61.6684 6.64199C61.8044 7.16195 61.8149 7.70676 61.6992 8.23158C59.3241 18.4913 68.1555 28.9619 78.1797 26.3168C78.4075 26.255 78.6425 26.2234 78.8786 26.2229C79.2646 26.225 79.6459 26.3078 79.9981 26.4658C80.3503 26.6238 80.6656 26.8537 80.9237 27.1407ZM73.4154 35.1655L74.9198 33.2377C69.617 32.6268 65.3279 30.9242 61.5538 26.7959C57.7678 22.6847 56.1937 17.7944 55.6681 12.1631L53.9069 13.8118C50.8297 16.6938 49.0645 20.8883 49.0654 25.3221V27.707C52.5477 30.4985 55.3025 34.2648 57.0117 38.5523C58.2178 39.0581 59.3674 39.6892 60.4415 40.4354C61.1723 40.5133 61.9087 40.5239 62.6415 40.4673C66.7889 40.5501 70.7266 38.6081 73.4154 35.1655Z" fill="#E5B5C9"/>
<defs>
<filter id="filter0_f_41_94" x="2.052" y="1.22693" width="87.2233" height="94.9353" filterUnits="userSpaceOnUse" color-interpolation-filters="sRGB">
<feFlood flood-opacity="0" result="BackgroundImageFix"/>
<feBlend mode="normal" in="SourceGraphic" in2="BackgroundImageFix" result="shape"/>
<feGaussianBlur stdDeviation="1.5" result="effect1_foregroundBlur_41_94"/>
</filter>
<linearGradient id="paint0_linear_41_94" x1="53.9731" y1="0.121216" x2="53.9731" y2="97.255" gradientUnits="userSpaceOnUse">
<stop stop-color="#79517A"/>
<stop offset="1" stop-color="#3C3261"/>
</linearGradient>
<linearGradient id="paint1_linear_41_94" x1="53.9731" y1="0.121216" x2="53.9731" y2="97.255" gradientUnits="userSpaceOnUse">
<stop stop-color="#79517A"/>
<stop offset="1" stop-color="#3C3261"/>
</linearGradient>
<linearGradient id="paint2_linear_41_94" x1="53.9731" y1="0.121216" x2="53.9731" y2="97.255" gradientUnits="userSpaceOnUse">
<stop stop-color="#79517A"/>
<stop offset="1" stop-color="#3C3261"/>
</linearGradient>
<linearGradient id="paint3_linear_41_94" x1="53.9731" y1="0.121216" x2="53.9731" y2="97.255" gradientUnits="userSpaceOnUse">
<stop stop-color="#79517A"/>
<stop offset="1" stop-color="#3C3261"/>
</linearGradient>
<linearGradient id="paint4_linear_41_94" x1="53.9731" y1="0.121216" x2="53.9731" y2="97.255" gradientUnits="userSpaceOnUse">
<stop stop-color="#79517A"/>
<stop offset="1" stop-color="#3C3261"/>
</linearGradient>
<linearGradient id="paint5_linear_41_94" x1="53.9731" y1="0.121216" x2="53.9731" y2="97.255" gradientUnits="userSpaceOnUse">
<stop stop-color="#79517A"/>
<stop offset="1" stop-color="#3C3261"/>
</linearGradient>
<linearGradient id="paint6_linear_41_94" x1="53.9731" y1="0.121216" x2="53.9731" y2="97.255" gradientUnits="userSpaceOnUse">
<stop stop-color="#79517A"/>
<stop offset="1" stop-color="#3C3261"/>
</linearGradient>
<linearGradient id="paint7_linear_41_94" x1="44.7024" y1="4.22101" x2="44.7024" y2="93.1639" gradientUnits="userSpaceOnUse">
<stop stop-color="#79517A"/>
<stop offset="0.348958" stop-color="#E5B5C9"/>
</linearGradient>
<linearGradient id="paint8_linear_41_94" x1="44.7024" y1="4.22101" x2="44.7024" y2="93.1639" gradientUnits="userSpaceOnUse">
<stop stop-color="#79517A"/>
<stop offset="0.348958" stop-color="#E5B5C9"/>
</linearGradient>
<linearGradient id="paint9_linear_41_94" x1="44.7024" y1="4.22101" x2="44.7024" y2="93.1639" gradientUnits="userSpaceOnUse">
<stop stop-color="#79517A"/>
<stop offset="0.348958" stop-color="#E5B5C9"/>
</linearGradient>
<linearGradient id="paint10_linear_41_94" x1="44.7024" y1="4.22101" x2="44.7024" y2="93.1639" gradientUnits="userSpaceOnUse">
<stop stop-color="#79517A"/>
<stop offset="0.348958" stop-color="#E5B5C9"/>
</linearGradient>
<linearGradient id="paint11_linear_41_94" x1="44.7024" y1="4.22101" x2="44.7024" y2="93.1639" gradientUnits="userSpaceOnUse">
<stop stop-color="#79517A"/>
<stop offset="0.348958" stop-color="#E5B5C9"/>
</linearGradient>
<linearGradient id="paint12_linear_41_94" x1="44.7024" y1="4.22101" x2="44.7024" y2="93.1639" gradientUnits="userSpaceOnUse">
<stop stop-color="#79517A"/>
<stop offset="0.348958" stop-color="#E5B5C9"/>
</linearGradient>
<linearGradient id="paint13_linear_41_94" x1="44.7024" y1="4.22101" x2="44.7024" y2="93.1639" gradientUnits="userSpaceOnUse">
<stop stop-color="#79517A"/>
<stop offset="0.348958" stop-color="#E5B5C9"/>
</linearGradient>
<linearGradient id="paint14_linear_41_94" x1="44.7024" y1="4.22101" x2="44.7024" y2="93.1639" gradientUnits="userSpaceOnUse">
<stop stop-color="#79517A"/>
<stop offset="0.348958" stop-color="#E5B5C9"/>
</linearGradient>
</defs>
</svg>
