<svg width="94" height="98" viewBox="0 0 94 98" fill="none" xmlns="http://www.w3.org/2000/svg">
<path d="M16.2891 70.156C17.5893 70.0855 18.8349 69.6106 19.852 68.7976C20.1409 68.5693 20.4113 68.3184 20.6607 68.0475L31.2726 56.3888H26.9557L16.3438 68.0475C16.0516 68.3647 15.7308 68.6543 15.3853 68.9125C14.311 69.7211 13.0038 70.1603 11.6591 70.1643H15.976C16.0809 70.1643 16.1852 70.1613 16.2891 70.156Z" fill="url(#paint0_linear_101_666)"/>
<path d="M12.0174 28.08C13.3173 28.1588 14.5603 28.6409 15.5734 29.4592C15.8592 29.6868 16.1264 29.9366 16.3727 30.2065L26.9555 41.8327H31.2724L20.6895 30.2065C20.4435 29.9364 20.1762 29.6866 19.8902 29.4592C18.9569 28.7059 17.8274 28.2357 16.6353 28.1042H16.634C16.3171 28.0367 12.0906 28.0811 11.6567 28.0692C11.7777 28.0692 11.8973 28.0747 12.0174 28.08Z" fill="url(#paint1_linear_101_666)"/>
<path d="M23.6501 15.3213C25.5686 17.866 25.6429 21.6084 23.8558 24.2414C22.6821 26.013 20.6508 27.2219 18.5035 27.2022H22.8204C23.3838 27.2011 23.9443 27.1236 24.4868 26.9719C26.2802 26.4738 27.7767 25.1372 28.6147 23.4911C29.891 23.5356 31.1226 23.972 32.1421 24.7411C32.7956 25.0937 37.8561 30.9002 38.4985 31.5411H42.8154C42.3215 31.0454 37.0557 25.082 36.6342 24.8764C35.7013 24.1231 34.5723 23.6527 33.3805 23.5207H33.3785C33.0402 23.4535 29.0615 23.4976 28.6175 23.4858C29.9903 20.83 29.6792 17.3795 27.7667 15.0649L27.7652 15.063C26.7079 13.7628 25.157 12.8533 23.48 12.6818H23.4762C23.1651 12.6147 18.9325 12.6587 18.504 12.6469C20.5278 12.6291 22.4628 13.7031 23.6501 15.3213Z" fill="url(#paint2_linear_101_666)"/>
<path d="M32.8106 72.9091C31.6947 73.9989 30.1847 74.6955 28.6182 74.7379C28.2664 74.0542 27.8102 73.4295 27.266 72.8864L27.2652 72.8856C26.2473 71.8636 24.9122 71.2178 23.4791 71.0543H23.4776C23.1652 70.9871 18.934 71.0312 18.504 71.0195C18.7236 71.0214 18.9433 71.0314 19.1612 71.0543H19.1627C22.891 71.4437 25.393 75.1407 25.1365 78.7457C24.9903 82.2941 22.184 85.5912 18.5018 85.5765C19.2338 85.5565 23.1196 85.6389 23.7524 85.5044C24.6606 85.3638 25.5262 85.0234 26.2869 84.5077C29.4031 82.4331 30.3268 78.0122 28.6216 74.7437H32.7209C32.8255 74.7437 32.9298 74.7405 33.0337 74.7353C33.5946 74.7056 34.1488 74.5998 34.6812 74.4208C35.5419 74.1233 36.3314 73.6502 36.9996 73.0315C37.1504 72.8897 37.2982 72.7466 37.439 72.5931L42.8157 66.6816H38.4988L33.1221 72.5931C33.0205 72.7026 32.918 72.8078 32.8106 72.9091Z" fill="url(#paint3_linear_101_666)"/>
<path d="M32.948 5.16777C34.3608 5.25531 35.7029 5.8164 36.7577 6.76049C37.1722 7.09896 38.1204 8.21502 38.4987 8.6159H42.8156C42.429 8.20653 41.4926 7.10355 41.0751 6.76089C40.0969 5.88607 38.8705 5.33768 37.5663 5.19193H37.5645C37.2488 5.12454 33.0211 5.16877 32.5882 5.15699C32.7084 5.15689 32.8282 5.16268 32.948 5.16777Z" fill="url(#paint4_linear_101_666)"/>
<path d="M39.7362 92.3772C40.2586 92.1052 40.7433 91.7662 41.178 91.3688C41.5131 91.0751 42.4975 89.9477 42.8155 89.606H38.4986C38.0263 90.1082 37.1215 91.1909 36.5905 91.6029C35.4675 92.5417 34.0518 93.0586 32.5881 93.0643C33.0109 93.0537 37.24 93.0943 37.5328 93.0318C38.3016 92.9526 39.0489 92.7307 39.7362 92.3772Z" fill="url(#paint5_linear_101_666)"/>
<path d="M49.4641 97.6293C52.3501 97.6548 54.867 95.5073 55.7197 92.8179C55.9489 92.1206 56.0794 91.3947 56.1075 90.6613C56.1199 90.4266 56.1107 89.8463 56.1134 89.6086H51.7966C51.8225 90.688 51.759 91.7918 51.4029 92.8174C50.55 95.5069 48.0331 97.655 45.1472 97.6293H49.4641Z" fill="url(#paint6_linear_101_666)"/>
<path d="M45.5084 0.603984C48.2476 0.738474 50.5905 2.8428 51.4024 5.40381C51.7574 6.42362 51.8218 7.54048 51.7962 8.6141H56.1131C56.123 7.79348 56.1131 6.91824 55.9176 6.12059C55.4084 3.79531 53.73 1.69808 51.4485 0.923685L51.4428 0.921888C50.8956 0.734636 50.3245 0.626478 49.7467 0.600688C49.6527 0.595596 49.5583 0.592402 49.4638 0.592901H45.1468C45.2688 0.592801 45.3886 0.598792 45.5084 0.603984Z" fill="url(#paint7_linear_101_666)"/>
<path d="M58.0644 5.16777C60.5729 5.28589 62.7805 7.06482 63.7383 9.34037C64.5388 11.2315 64.5802 13.3583 63.8539 15.2791C63.5749 16.0103 63.1811 16.6924 62.6874 17.2997C62.5998 17.4061 62.5109 17.5113 62.4178 17.6137L51.7966 29.198V31.5411H56.1134V29.198L66.7353 17.6137C66.829 17.5124 66.9167 17.4061 67.0044 17.2999C67.4983 16.6927 67.8922 16.0105 68.171 15.2791C68.8594 13.4583 68.8596 11.4489 68.1717 9.62792C67.3079 7.31383 65.1821 5.43795 62.683 5.19183H62.6815C62.3649 5.12444 58.1381 5.16867 57.7046 5.15689C57.8249 5.15689 57.9444 5.16268 58.0644 5.16777Z" fill="url(#paint8_linear_101_666)"/>
<path d="M62.936 81.2478C64.9872 84.0229 64.8331 88.1844 62.5505 90.7802C61.3239 92.1493 59.5722 93.096 57.7071 93.0754C58.253 93.0601 62.3299 93.1187 62.7626 93.0291C64.3606 92.8468 65.7998 91.9579 66.8674 90.7802C69.2924 88.0299 69.2989 83.5298 66.8787 80.7745L56.1134 69.0241V66.6816H51.7966V69.0241L62.5618 80.7745C62.6925 80.9275 62.8178 81.0851 62.936 81.2478Z" fill="url(#paint9_linear_101_666)"/>
<path d="M69.0937 24.2019C68.4047 23.8375 67.6529 23.6068 66.8782 23.522C66.8749 23.522 66.8716 23.5211 66.8682 23.5208H66.8664C66.5516 23.4536 62.3229 23.4977 61.8909 23.4859C64.5185 23.4543 66.9031 25.2632 67.9102 27.6381C68.7247 29.5362 68.7712 31.6763 68.04 33.6081C67.761 34.3391 67.3673 35.021 66.8737 35.628C66.786 35.7346 66.6972 35.84 66.6041 35.9422L61.1983 41.8331H65.5152L70.9211 35.9422C70.9596 35.9002 70.9975 35.8577 71.0348 35.8147C71.4053 35.3868 71.726 34.9183 71.9907 34.418C72.5656 33.3032 72.868 32.068 72.8729 30.8137C72.8779 29.5595 72.5854 28.3219 72.0194 27.2026H76.1077C76.7339 27.2018 77.3562 27.1059 77.9535 26.9181C79.9552 26.2973 81.5373 24.6366 82.2569 22.6906C83.2054 20.1696 82.7781 17.1546 81.0553 15.0646C79.9986 13.7632 78.4468 12.8536 76.7697 12.6819H76.7658C76.4543 12.6148 72.2221 12.6588 71.7928 12.647C75.6706 12.6405 78.4837 16.2169 78.4349 19.9372C78.473 23.5629 75.7834 27.072 72.016 27.1972C71.665 26.5177 71.2094 25.8975 70.6659 25.3594C70.2014 24.8986 69.6717 24.5086 69.0937 24.2019Z" fill="url(#paint10_linear_101_666)"/>
<path d="M82.7471 77.9797C82.6909 76.3222 82.0981 74.7277 81.0578 73.4361C80.9396 73.2898 80.7805 73.1173 80.6539 72.9753L80.6005 72.9328C79.6387 71.9487 78.3847 71.3016 77.0253 71.0879C76.4173 70.9581 72.7063 71.0414 72.02 71.0193C72.6202 69.8362 72.906 68.5187 72.85 67.1932C72.779 65.4474 72.1457 63.7713 71.0443 62.4149L65.5159 56.3888H61.199L66.7274 62.4149C69.0746 65.2477 69.1916 69.6476 66.7374 72.4514C65.5076 73.8175 63.7568 74.7645 61.8913 74.7437C62.4377 74.7283 66.5141 74.787 66.948 74.6972C68.5455 74.515 69.9842 73.6262 71.0543 72.4514C71.4309 72.0158 71.7542 71.537 72.0174 71.025C73.6202 71.0708 75.1637 71.7958 76.2839 72.9328L76.3374 72.9754C78.7991 75.4994 79.1219 79.7076 77.1447 82.6117C75.9695 84.3839 73.9385 85.5959 71.7891 85.5765C71.9566 85.5718 76.5157 85.5908 76.5218 85.5608C77.2557 85.5111 77.9748 85.3307 78.6452 85.0281C81.3165 83.828 82.889 80.8557 82.7471 77.9797Z" fill="url(#paint11_linear_101_666)"/>
<path d="M93.7795 48.765C93.6859 45.9129 91.8767 43.0943 89.1232 42.1635C89.1214 42.1628 89.1194 42.1623 89.1176 42.1618C88.2721 41.8557 87.353 41.8108 86.4608 41.8324C86.8382 41.413 87.8293 40.3846 88.1403 39.9447C88.892 38.922 89.3742 37.7264 89.5424 36.4683C90.1157 32.633 87.6286 28.5437 83.6136 28.1038H83.6124C83.2955 28.0363 79.0695 28.0807 78.6352 28.0688C78.8563 28.0708 79.0773 28.0808 79.2968 28.104C83.4421 28.5673 85.9183 32.8549 85.176 36.782C84.9671 37.9738 84.4737 39.0975 83.7375 40.0577C83.4729 40.4243 82.4533 41.483 82.1439 41.8326C82.6656 41.841 83.2804 41.8119 83.7898 41.9105C87.197 42.4433 89.5095 45.7668 89.4709 49.1111C89.5114 52.4582 87.1908 55.7828 83.7815 56.3118C83.2764 56.4079 82.6589 56.3853 82.144 56.3886L83.4954 57.8632C85.9116 60.6209 85.9069 65.1187 83.4803 67.8683C82.2546 69.2381 80.5029 70.1847 78.6379 70.1641C79.3545 70.1408 83.2629 70.2293 83.8826 70.092C85.1542 69.9017 86.3251 69.267 87.2656 68.4016C87.4488 68.2293 87.627 68.056 87.7971 67.8683C90.224 65.1191 90.2282 60.6206 87.8123 57.8632L86.4608 56.3886C86.98 56.3864 87.5911 56.4039 88.0982 56.3118C91.6399 55.7572 93.9734 52.2315 93.7795 48.765Z" fill="url(#paint12_linear_101_666)"/>
<path d="M18.5034 71.0192C22.267 70.9524 25.2576 74.6242 25.1494 78.3168C25.1911 84.4587 18.2224 88.1777 13.7871 83.4277C9.79572 79.163 12.3526 71.0629 18.5034 71.0192Z" fill="#1869FF"/>
<path d="M13.9827 25.2651L13.7874 25.0577C9.79544 20.7911 12.3532 12.6928 18.5036 12.6463C24.6679 12.6949 27.22 20.8325 23.1897 25.0861C20.7781 27.8188 16.4835 27.8997 13.9827 25.2651Z" fill="#1869FF"/>
<path d="M76.337 72.9753C80.5418 77.222 78.072 85.4936 71.7886 85.5764C65.6233 85.5246 63.0757 77.388 67.1046 73.1358C69.5074 70.4143 73.7806 70.3174 76.2835 72.9325L76.337 72.9753Z" fill="#1869FF"/>
<path d="M67.2465 25.2468C63.0412 21.0003 65.5092 12.7283 71.7938 12.6464C77.959 12.694 80.507 20.8366 76.4777 25.0863C74.0754 27.8071 69.8016 27.9036 67.2993 25.2895L67.2465 25.2468Z" fill="#1869FF"/>
<path d="M89.4705 49.1113C89.4737 53.418 86.0992 56.7156 82.1438 56.3888L83.4952 57.8634C85.9015 60.542 85.8967 65.1983 83.4801 67.8685C80.8258 70.8965 76.5169 70.9038 73.915 68.0083L63.3395 56.3888H61.1989L66.7272 62.4149C69.1679 65.4155 69.115 69.7118 66.7372 72.4513C64.0759 75.4724 59.7762 75.4835 57.1712 72.5911L51.7967 66.682V69.0245L62.5617 80.7745C64.973 83.4524 64.965 88.1085 62.5505 90.7802C59.8946 93.8065 55.5871 93.8155 52.9845 90.92L51.7963 89.609C52.1043 93.8413 49.1428 97.6358 45.1467 97.6296C41.1497 97.6357 38.1886 93.8389 38.4979 89.606L37.3078 90.92C36.0428 92.3072 34.3685 93.0645 32.5874 93.0645C26.4136 93.0194 23.8557 84.8855 27.8715 80.6094L38.4979 69.0245V66.6816L33.1212 72.5931C30.6472 75.39 26.3426 75.4501 23.824 72.7429C21.0372 69.6742 21.062 65.1782 23.6967 62.2716L29.0955 56.3885H26.9549L16.3437 68.0475C13.8526 70.8692 9.40726 70.8471 6.93701 68.0076C4.33237 65.1357 4.34962 60.521 6.94837 57.6917L8.1487 56.3885C4.19486 56.7145 0.821315 53.4165 0.82471 49.111C0.821515 44.8051 4.19446 41.5062 8.1487 41.8324L6.95057 40.532C4.34642 37.6764 4.34643 33.0484 6.94408 30.2061C9.42911 27.3736 13.8883 27.3748 16.3724 30.2061L26.9552 41.8323H29.0958L23.6948 35.9473C21.1029 33.2249 21.1028 28.3402 23.69 25.6202C26.1715 22.7923 30.6331 22.7904 33.1161 25.6233L38.4982 31.5406V29.198L27.8766 17.6161C23.8549 13.3365 26.4135 5.20382 32.5879 5.15679C34.3688 5.15679 36.0431 5.91561 37.3027 7.29486L38.4982 8.6159C38.1893 4.3825 41.1496 0.586713 45.1471 0.592903C49.1431 0.586713 52.1051 4.3817 51.7967 8.61411L52.9848 7.30315C54.2521 5.91531 55.9258 5.15649 57.7047 5.15649C61.4767 5.10108 64.4585 8.72094 64.3707 12.4534C64.3707 14.4018 63.6788 16.2338 62.4186 17.6134L51.7965 29.198V31.5411L57.1732 25.629C57.7631 24.96 58.4886 24.4241 59.3014 24.0568C60.1143 23.6896 60.9959 23.4994 61.8878 23.4989C62.7798 23.4984 63.6616 23.6876 64.4748 24.054C65.2881 24.4203 66.0141 24.9554 66.6047 25.6238C69.1907 28.3349 69.1907 33.2281 66.6047 35.9419L61.1989 41.8328H63.3395L73.9201 30.2089C75.1815 28.827 76.8556 28.069 78.6351 28.069C82.4068 28.0138 85.3881 31.6334 85.3011 35.3653C85.3187 37.2688 84.6217 39.1096 83.3479 40.5242L82.1438 41.8329C86.0992 41.5057 89.4739 44.8044 89.4705 49.1113Z" fill="#1869FF"/>
<g style="mix-blend-mode:multiply" opacity="0.4" filter="url(#filter0_f_101_666)">
<path d="M20.8767 76.0378C22.6369 77.9178 21.5218 81.4569 18.8262 81.4808C18.4354 81.4786 18.0495 81.3939 17.6938 81.232C17.3381 81.0701 17.0206 80.8349 16.7622 80.5416C15.6379 79.3535 15.6419 77.2199 16.7744 76.0378C17.0321 75.7485 17.3481 75.5171 17.7016 75.3586C18.0551 75.2001 18.4381 75.1181 18.8256 75.1181C19.213 75.1181 19.596 75.2001 19.9495 75.3586C20.303 75.5171 20.619 75.7485 20.8767 76.0378Z" fill="#0440AD"/>
<path d="M16.7741 22.1835C15.0127 20.3049 16.1297 16.764 18.825 16.741C21.5244 16.7618 22.639 20.3224 20.8763 22.1845C20.6186 22.4739 20.3026 22.7055 19.9491 22.864C19.5955 23.0226 19.2125 23.1045 18.825 23.1044C18.4375 23.1043 18.0544 23.0222 17.701 22.8635C17.3475 22.7048 17.0316 22.4731 16.7741 22.1835Z" fill="#0440AD"/>
<path d="M74.1652 76.0378C75.9285 77.8988 74.8142 81.4603 72.1143 81.4808C71.7236 81.4785 71.3377 81.3937 70.9821 81.2318C70.6265 81.07 70.3091 80.8348 70.0507 80.5416C68.9262 79.3542 68.9316 77.2199 70.063 76.0378C70.3207 75.7485 70.6367 75.5171 70.9902 75.3586C71.3437 75.2001 71.7267 75.1181 72.1141 75.1181C72.5015 75.1181 72.8845 75.2001 73.238 75.3586C73.5915 75.5171 73.9075 75.7485 74.1652 76.0378Z" fill="#0440AD"/>
<path d="M70.0629 22.1835C68.9239 20.9817 68.928 18.8587 70.0629 17.6673C70.3209 17.3779 70.6368 17.1459 70.9902 16.9863C71.3435 16.8268 71.7265 16.7432 72.1142 16.741C74.8131 16.7619 75.9283 20.3227 74.1651 22.1845C73.9075 22.4739 73.5915 22.7055 73.2379 22.864C72.8844 23.0226 72.5012 23.1045 72.1138 23.1044C71.7263 23.1043 71.3433 23.0222 70.9898 22.8635C70.6363 22.7048 70.3204 22.4731 70.0629 22.1835Z" fill="#0440AD"/>
<path d="M83.1442 45.9263C87.0035 46.0994 87.0021 52.1235 83.1442 52.2955H73.3886L81.0486 60.6158C82.1711 61.8039 82.1647 63.9394 81.031 65.1188C80.458 65.7406 79.731 66.0688 78.9584 66.0688C78.5672 66.0667 78.1808 65.9817 77.8248 65.8194C77.4688 65.6571 77.1512 65.4212 76.893 65.1271L65.2137 52.2958H52.4657L64.3043 65.1977C64.8574 65.8179 65.1581 66.6227 65.1473 67.4536C65.1873 69.0818 63.8364 70.6806 62.2141 70.6516C61.8228 70.6494 61.4364 70.5642 61.0804 70.4017C60.7244 70.2392 60.4068 70.0031 60.1487 69.709L48.3788 56.7689V70.7242L60.1185 83.5272C61.8779 85.4219 60.715 88.948 58.0282 88.9796C57.6369 88.9775 57.2504 88.8924 56.8943 88.7301C56.5381 88.5678 56.2204 88.3319 55.9621 88.0379L48.3788 79.6732V90.3516C48.3788 92.1073 47.0742 93.5367 45.4694 93.5367C43.8646 93.5367 42.5605 92.1077 42.5605 90.3516V79.6732L34.9772 88.0378C34.7177 88.3301 34.3992 88.5639 34.0427 88.724C33.6861 88.884 33.2997 88.9666 32.9088 88.9663C32.518 88.9659 32.1317 88.8827 31.7754 88.7221C31.4192 88.5614 31.101 88.327 30.842 88.0344C30.2898 87.4091 29.985 86.6037 29.985 85.7696C29.985 84.9354 30.2898 84.13 30.842 83.5048L42.5605 70.7247V56.7689L30.7725 69.7287C30.5147 70.017 30.1993 70.2481 29.8467 70.4071C29.494 70.566 29.112 70.6493 28.7252 70.6515C27.0693 70.6825 25.7428 69.0394 25.7919 67.4273C25.7874 66.5966 26.0944 65.7944 26.6521 65.1789L38.4737 52.2954H25.7255L14.0314 65.1428C13.7734 65.4319 13.4575 65.6637 13.1043 65.8232C12.7511 65.9827 12.3684 66.0663 11.9809 66.0687C9.27041 66.0479 8.14164 62.4419 9.90839 60.5972L17.5498 52.2957H7.7942C6.1903 52.2957 4.88574 50.8673 4.88574 49.1107C4.88574 47.3541 6.1903 45.9257 7.7942 45.9257H17.5498L9.90829 37.6247C8.14603 35.7541 9.27181 32.1791 11.981 32.16C12.3724 32.1623 12.7589 32.247 13.1153 32.4087C13.4717 32.5704 13.79 32.8055 14.0494 33.0985L25.7255 45.9256H38.4736L26.6539 33.0448C26.096 32.4242 25.7908 31.6171 25.7987 30.7826C25.7602 29.1451 27.0701 27.5551 28.7252 27.5791C29.1167 27.5814 29.5033 27.6662 29.8599 27.8279C30.2164 27.9896 30.5349 28.2247 30.7945 28.5177L42.5605 41.4527V27.4981L30.8412 14.7165C30.2896 14.0912 29.9853 13.286 29.9856 12.4522C29.9858 11.6183 30.2905 10.8133 30.8425 10.1883C31.1017 9.89526 31.4202 9.66058 31.777 9.49986C32.1337 9.33913 32.5204 9.25601 32.9117 9.25601C33.303 9.25601 33.6898 9.33913 34.0465 9.49986C34.4032 9.66058 34.7217 9.89526 34.9809 10.1883L42.561 18.5495V7.87075C42.561 6.11499 43.8656 4.68571 45.4699 4.68571C47.0742 4.68571 48.3793 6.11459 48.3793 7.87075V18.5496L55.9626 10.1839C56.2219 9.89199 56.5399 9.65795 56.8958 9.49707C57.2516 9.33619 57.6374 9.25207 58.0279 9.2502C60.7385 9.26927 61.864 12.8427 60.0977 14.718L48.3793 27.4981V41.4527L60.1474 28.515C60.4068 28.2225 60.7249 27.988 61.0811 27.8267C61.4372 27.6654 61.8233 27.5809 62.2142 27.5788C63.8694 27.5554 65.1787 29.1445 65.1397 30.7823C65.1478 31.6177 64.842 32.4258 64.2827 33.0465L52.4657 45.9265H65.2137L76.8912 33.0974C77.1507 32.805 77.4688 32.5704 77.8249 32.409C78.181 32.2476 78.5671 32.1631 78.958 32.1608C81.6679 32.1816 82.7939 35.7542 81.0274 37.629L73.3882 45.9261L83.1442 45.9263Z" fill="#0440AD"/>
</g>
<path d="M7.87333 32.1758C7.87453 32.1758 7.87574 32.1758 7.87694 32.1758C8.42635 32.2374 8.94473 32.462 9.36539 32.8207C9.4683 32.9069 9.56538 32.9999 9.65596 33.099L21.332 45.9261H22.4082C22.1355 45.6334 10.9208 33.2935 10.6229 32.9853L10.6195 32.9819C10.5566 32.9208 10.4917 32.8632 10.4261 32.8066C10.0077 32.4563 9.49543 32.2369 8.95315 32.1758H8.95237C8.95147 32.1758 8.95044 32.1758 8.94944 32.1758C8.75524 32.1486 7.80007 32.1647 7.5874 32.1607C7.68275 32.1623 7.77878 32.1659 7.87333 32.1758Z" fill="url(#paint13_linear_101_666)"/>
<path d="M18.4112 78.1747C18.3882 77.4386 18.1252 76.7302 17.6624 76.1573C17.5976 76.0782 17.5287 76.0026 17.4559 75.9308H17.4554C17.1063 75.583 16.6728 75.3319 16.1974 75.202C16.0653 75.1681 15.9311 75.1433 15.7957 75.1278C15.7957 75.1278 15.7948 75.1278 15.7943 75.1278C15.6 75.1005 14.6449 75.1168 14.4321 75.1127C14.5275 75.1144 14.6236 75.118 14.7181 75.1278H14.7195C16.3209 75.2827 17.429 76.8984 17.3354 78.4448C17.3035 79.9994 16.0484 81.5001 14.4332 81.4813C14.9824 81.4693 15.8526 81.5428 16.368 81.3403C17.671 80.9078 18.477 79.5163 18.4112 78.1747Z" fill="url(#paint14_linear_101_666)"/>
<path d="M16.7571 18.0132C18.1263 19.9649 16.9622 23.0773 14.4315 23.1103C14.6494 23.1078 15.5855 23.1212 15.7811 23.0962C16.1298 23.0604 16.4682 22.9571 16.7774 22.792C18.548 21.8595 18.9314 19.3052 17.6733 17.7991V17.7986C17.6047 17.7154 17.5319 17.6357 17.4551 17.56C17.1503 17.2546 16.7795 17.0233 16.3712 16.8837C16.1846 16.821 15.9918 16.7784 15.7962 16.7567H15.7911C15.5989 16.7297 14.6429 16.7458 14.4315 16.7418C15.3603 16.7338 16.2434 17.2494 16.7571 18.0132Z" fill="url(#paint15_linear_101_666)"/>
<path d="M21.332 52.2958L9.63787 65.1428C9.54163 65.2465 9.43867 65.3437 9.32966 65.4339C8.84029 65.8415 8.22428 66.0659 7.5874 66.0687C7.80217 66.0648 8.74357 66.0805 8.93676 66.0545C9.36331 66.0102 9.77338 65.8657 10.1334 65.6328C10.3467 65.4943 10.5417 65.3297 10.714 65.1428L22.4082 52.2958H21.332Z" fill="url(#paint16_linear_101_666)"/>
<path d="M26.1365 69.9638C25.638 70.4041 24.9966 70.6485 24.3316 70.6516C24.5464 70.6477 25.4878 70.6635 25.681 70.6375C26.1072 70.5933 26.517 70.449 26.8768 70.2164C27.0892 70.0787 27.2835 69.9148 27.4551 69.7288L39.2432 56.7689H38.1671L26.3789 69.7287C26.3022 69.8112 26.2213 69.8897 26.1365 69.9638Z" fill="url(#paint17_linear_101_666)"/>
<path d="M24.6186 27.5943C25.1699 27.6555 25.6901 27.8806 26.1121 28.2406C26.2144 28.3264 26.3109 28.4188 26.4011 28.5172L38.1671 41.4528H39.2432L27.4773 28.5169C27.3819 28.4135 27.2801 28.3163 27.1724 28.2259C26.7534 27.8752 26.2405 27.6555 25.6976 27.5942H25.6948C25.4998 27.5668 24.5451 27.5832 24.3316 27.5791C24.4273 27.5809 24.5238 27.5844 24.6186 27.5943Z" fill="url(#paint18_linear_101_666)"/>
<path d="M28.8067 9.2656H28.8083C29.4348 9.33703 30.0189 9.618 30.4657 10.063C30.5078 10.1029 30.5476 10.1452 30.5874 10.1883L38.1674 18.5495H39.2436L31.6635 10.1883C31.6235 10.1452 31.5836 10.1029 31.542 10.063C31.1959 9.71996 30.7673 9.47189 30.2975 9.34268C30.162 9.30711 30.0241 9.28135 29.8848 9.2656H29.8832C29.6872 9.23794 28.7333 9.25442 28.5188 9.25032C28.6147 9.25202 28.7115 9.25552 28.8067 9.2656Z" fill="url(#paint19_linear_101_666)"/>
<path d="M38.1671 79.6732L30.5838 88.0379C30.3198 88.3282 30.0004 88.5628 29.6444 88.7277C29.2907 88.8885 28.9069 88.9719 28.5184 88.9726C28.6533 88.9701 29.6704 88.9792 29.7778 88.9657C30.1038 88.9437 30.4232 88.8631 30.7206 88.7277C31.0766 88.5628 31.3959 88.3282 31.6599 88.0379L39.2432 79.6732H38.1671Z" fill="url(#paint20_linear_101_666)"/>
<path d="M42.2934 93.5323C43.3795 93.4845 44.3392 92.7261 44.7673 91.7463C44.9416 91.3522 45.0401 90.9288 45.0579 90.4982C45.0608 90.4496 45.061 90.4007 45.0613 90.3517V79.6732H43.9851V90.3517C43.9848 90.6328 43.9506 90.9128 43.8832 91.1857C43.5868 92.467 42.4255 93.552 41.0758 93.5362C41.1617 93.5349 42.2429 93.5399 42.2934 93.5323Z" fill="url(#paint21_linear_101_666)"/>
<path d="M41.3427 4.70002C42.5471 4.80985 43.5388 5.77974 43.8532 6.92136C43.9402 7.2303 43.9847 7.5497 43.9852 7.87068V18.5496H45.0614V7.87068C45.0607 7.71533 45.0503 7.56018 45.0305 7.4061C44.9374 6.69008 44.6119 6.02439 44.104 5.51116C43.9365 5.34592 43.7505 5.20059 43.5496 5.07803L43.5448 5.07544C43.2081 4.87305 42.8317 4.74565 42.4413 4.70192C42.241 4.67376 41.2937 4.69014 41.0759 4.68614C41.1652 4.68774 41.255 4.69123 41.3427 4.70002Z" fill="url(#paint22_linear_101_666)"/>
<path d="M53.9238 9.2656H53.9244C55.9838 9.49115 57.0625 11.8582 56.3334 13.6895C56.2339 13.9515 56.101 14.1996 55.9379 14.4275C55.8653 14.5286 55.7871 14.6255 55.7037 14.7178L43.9852 27.4979V41.4528H45.0614V27.498C45.1149 27.4374 56.7803 14.7207 56.8268 14.6655C57.0355 14.4238 57.2081 14.1532 57.3391 13.8619C57.901 12.6162 57.653 11.0338 56.6667 10.0705C56.3167 9.72207 55.8822 9.4705 55.4057 9.34048C55.2725 9.30639 55.1372 9.2814 55.0006 9.2657H54.9999C54.8026 9.23804 53.8495 9.25452 53.6338 9.25042C53.7306 9.25202 53.828 9.25551 53.9238 9.2656Z" fill="url(#paint23_linear_101_666)"/>
<path d="M57.6401 85.6326V85.631C57.6151 84.9062 57.3559 84.2091 56.9012 83.6441L56.8999 83.6424C56.7472 83.4557 45.2082 70.8916 45.0612 70.7243V56.7689H43.985V70.7243L55.725 83.5272C55.7595 83.5653 55.7928 83.6041 55.8248 83.6436C56.0586 83.9309 56.2416 84.256 56.3659 84.6049C57.0901 86.5355 55.8077 88.964 53.6344 88.9796C54.0518 88.9662 54.9107 89.0217 55.3071 88.912C56.2856 88.69 57.0806 87.9083 57.4253 86.9795L57.4259 86.978C57.5846 86.5479 57.6574 86.0908 57.6401 85.6326Z" fill="url(#paint24_linear_101_666)"/>
<path d="M58.1077 27.5943C60.1623 27.8191 61.2428 30.1693 60.5277 32.0019C60.3947 32.3563 60.2006 32.6847 59.9542 32.9722C59.9077 33.0369 48.1308 45.8565 48.0721 45.9264H49.1483C49.2172 45.8477 60.9599 33.0578 61.0171 32.9887C61.2186 32.7563 61.3857 32.4963 61.5136 32.2166C62.0446 31.0677 61.885 29.6207 61.0731 28.6412L61.0697 28.6373C61.0025 28.5559 60.9312 28.478 60.8562 28.4038L60.8529 28.4003C60.5481 28.0979 60.1797 27.8673 59.7746 27.7252C59.5837 27.6607 59.3864 27.6168 59.1861 27.5945H59.1834C58.9883 27.5671 58.0338 27.5835 57.8202 27.5794C57.9164 27.5809 58.0127 27.5844 58.1077 27.5943Z" fill="url(#paint25_linear_101_666)"/>
<path d="M60.1655 65.5196C61.5557 67.4929 60.3606 70.6017 57.8208 70.6516C58.1281 70.6443 59.0158 70.6751 59.3045 70.6202C60.1507 70.4947 60.8894 69.9374 61.3351 69.2192L61.3356 69.218C61.6336 68.723 61.8024 68.1612 61.8269 67.584C61.8513 67.0069 61.7304 66.4328 61.4754 65.9144C61.3458 65.6546 61.1815 65.4135 60.9872 65.1978L49.1483 52.2958H48.0721L59.9108 65.1977C60.0026 65.2994 60.0877 65.4069 60.1655 65.5196Z" fill="url(#paint26_linear_101_666)"/>
<path d="M70.0471 76.385C71.4159 78.3358 70.2499 81.4481 67.7207 81.4808C67.8589 81.4826 68.8695 81.4845 68.9787 81.474C69.3595 81.4485 69.7306 81.3422 70.0671 81.1622C71.8358 80.2293 72.2212 77.6766 70.963 76.1712L70.9625 76.1705C70.9258 76.1253 70.8867 76.0814 70.8476 76.0379C70.8136 76.0007 70.7789 75.9647 70.7435 75.9299C70.297 75.4826 69.7121 75.1998 69.0843 75.1276H69.0826C68.8887 75.1003 67.9333 75.1166 67.7209 75.1125C67.8162 75.1142 67.912 75.1178 68.0064 75.1276H68.0082C68.6871 75.2068 69.314 75.5305 69.7718 76.0382C69.8715 76.1473 69.9635 76.2632 70.0471 76.385Z" fill="url(#paint27_linear_101_666)"/>
<path d="M70.0459 18.013C71.4158 19.9642 70.2512 23.0772 67.7208 23.1103C68.1388 23.0971 68.9976 23.1524 69.3947 23.0427C70.3648 22.8278 71.1486 22.0559 71.4878 21.1357V21.1347C71.9022 20.0313 71.7155 18.7133 70.9616 17.7985L70.9609 17.7978C70.7446 17.5341 70.4854 17.3086 70.1942 17.1309C70.137 17.0977 70.0792 17.0656 70.0208 17.0349C69.8528 16.9505 69.6769 16.883 69.4956 16.8334L69.4856 16.8302C69.3539 16.7966 69.22 16.7719 69.0849 16.7562H69.0794C68.8876 16.7291 67.9311 16.7453 67.7205 16.7413C68.6494 16.7339 69.5324 17.2493 70.0459 18.013Z" fill="url(#paint28_linear_101_666)"/>
<path d="M76.9095 60.9377C77.2759 61.481 77.4795 62.1177 77.4961 62.7728C77.5128 63.4279 77.3418 64.0741 77.0034 64.6353C77.0028 64.6363 77.0021 64.6373 77.0015 64.6384C76.4875 65.4749 75.5626 66.0787 74.5646 66.0687C74.6976 66.0663 75.717 66.0753 75.8227 66.0619C76.1441 66.0401 76.459 65.9605 76.7522 65.827C77.2999 65.5677 77.7606 65.1549 78.0782 64.6388C78.0789 64.6377 78.0796 64.6368 78.0802 64.6357C78.3781 64.1408 78.5471 63.579 78.5715 63.0019C78.5959 62.4247 78.475 61.8507 78.2199 61.3324C78.1448 61.1814 78.0576 61.0366 77.9592 60.8996C77.8892 60.8007 77.8132 60.706 77.7318 60.6162L70.0713 52.2958H68.995L76.6551 60.616C76.7468 60.7176 76.8318 60.825 76.9095 60.9377Z" fill="url(#paint29_linear_101_666)"/>
<path d="M74.8507 32.1757H74.8545C76.8264 32.3866 77.9245 34.6048 77.3332 36.4003C77.2025 36.8253 76.9859 37.2188 76.6967 37.5565C76.5894 37.7088 69.0952 45.7959 68.995 45.926H70.0713L77.7104 37.6287C77.7318 37.6051 77.7535 37.582 77.7729 37.5568C78.0205 37.2678 78.2153 36.9374 78.3484 36.5808C78.4211 36.3835 78.4763 36.1801 78.5133 35.973C78.6001 35.4916 78.583 34.9973 78.4632 34.5231C78.3433 34.0489 78.1234 33.6058 77.8183 33.2236L77.8162 33.2212C77.748 33.1383 77.6756 33.059 77.5992 32.9835C77.4291 32.8162 77.2397 32.6695 77.0352 32.5465C76.8714 32.4497 76.6984 32.3695 76.5187 32.3069C76.3279 32.2424 76.1307 32.1986 75.9306 32.1764H75.9299C75.9289 32.1764 75.9279 32.1764 75.9269 32.1764C75.7327 32.1491 74.7776 32.1653 74.5648 32.1613C74.6602 32.1623 74.7562 32.1659 74.8507 32.1757Z" fill="url(#paint30_linear_101_666)"/>
<path d="M79.0175 45.9403C80.6242 46.0852 81.7532 47.704 81.6566 49.2575C81.6219 50.8118 80.3651 52.3122 78.7511 52.2957C79.0663 52.288 79.9507 52.3201 80.2471 52.262C81.0746 52.1351 81.803 51.5995 82.2375 50.8929L82.2382 50.8918C82.484 50.4861 82.6434 50.034 82.7063 49.5637C82.7693 49.0935 82.7344 48.6154 82.604 48.1593C82.4526 47.6278 82.1688 47.1434 81.7791 46.7515C81.7781 46.7506 81.7771 46.7494 81.7761 46.7484C81.6082 46.5831 81.4216 46.4379 81.22 46.3159C81.0538 46.2169 80.878 46.1349 80.6954 46.0712H80.6938C80.1818 45.8659 79.2959 45.9385 78.7511 45.9271C78.8397 45.9279 78.9294 45.9315 79.0175 45.9403Z" fill="url(#paint31_linear_101_666)"/>
<path d="M16.4828 76.0378C18.243 77.9178 17.128 81.4569 14.4323 81.4808C14.0414 81.4786 13.6556 81.3938 13.2998 81.232C12.9441 81.0701 12.6266 80.8349 12.3683 80.5416C11.244 79.3535 11.248 77.2199 12.3806 76.0378C12.6383 75.7485 12.9542 75.5171 13.3077 75.3586C13.6612 75.2001 14.0443 75.1181 14.4317 75.1181C14.8191 75.1181 15.2021 75.2001 15.5555 75.3586C15.909 75.5171 16.225 75.7485 16.4828 76.0378Z" fill="#F0F8FF"/>
<path d="M12.3805 22.1835C10.6192 20.3049 11.7362 16.764 14.4315 16.741C17.1308 16.7618 18.2455 20.3224 16.4828 22.1845C16.225 22.4739 15.909 22.7054 15.5555 22.8639C15.2019 23.0224 14.8188 23.1043 14.4314 23.1042C14.0439 23.1041 13.6609 23.022 13.3074 22.8633C12.9539 22.7047 12.638 22.473 12.3805 22.1835Z" fill="#F0F8FF"/>
<path d="M69.7717 76.0378C71.5349 77.8989 70.4202 81.4603 67.7207 81.4808C67.3299 81.4786 66.944 81.3938 66.5884 81.232C66.2327 81.0702 65.9153 80.835 65.6569 80.5418C64.5323 79.3544 64.5378 77.2201 65.6691 76.038C65.9268 75.7487 66.2428 75.5172 66.5963 75.3587C66.9498 75.2001 67.3329 75.1182 67.7203 75.1181C68.1077 75.1181 68.4908 75.2001 68.8443 75.3585C69.1979 75.517 69.5139 75.7485 69.7717 76.0378Z" fill="#F0F8FF"/>
<path d="M65.6693 22.1835C64.5303 20.9817 64.5344 18.8587 65.6693 17.6673C65.9273 17.3779 66.2433 17.1459 66.5967 16.9863C66.9501 16.8268 67.333 16.7432 67.7207 16.741C70.4196 16.7619 71.5348 20.3227 69.7715 22.1845C69.5138 22.4739 69.1979 22.7055 68.8443 22.864C68.4908 23.0226 68.1077 23.1045 67.7202 23.1044C67.3327 23.1043 66.9497 23.0222 66.5962 22.8635C66.2427 22.7048 65.9268 22.4731 65.6693 22.1835Z" fill="#F0F8FF"/>
<path d="M78.7506 45.9263C82.6098 46.0994 82.6085 52.1235 78.7506 52.2955H68.9949L76.655 60.6158C77.7775 61.8039 77.771 63.9394 76.6373 65.1188C76.0643 65.7406 75.3374 66.0688 74.5648 66.0688C74.1735 66.0667 73.7871 65.9817 73.4311 65.8194C73.0751 65.6571 72.7576 65.4211 72.4994 65.1271L60.8202 52.2958H48.072L59.9107 65.1977C60.4638 65.8179 60.7645 66.6227 60.7538 67.4536C60.7937 69.0818 59.4428 70.6806 57.8204 70.6516C57.4291 70.6494 57.0427 70.5642 56.6868 70.4017C56.3308 70.2392 56.0133 70.0031 55.7552 69.709L43.9851 56.7689V70.7242L55.7249 83.5272C57.4843 85.4219 56.3214 88.948 53.6347 88.9796C53.2432 88.9775 52.8566 88.8925 52.5004 88.7302C52.1441 88.5679 51.8263 88.332 51.5679 88.0379L43.9851 79.6732V90.3516C43.9851 92.1073 42.6806 93.5367 41.0758 93.5367C39.471 93.5367 38.167 92.1077 38.167 90.3516V79.6732L30.5837 88.0378C30.3242 88.3301 30.0057 88.5639 29.6491 88.724C29.2926 88.884 28.9061 88.9666 28.5153 88.9663C28.1245 88.9659 27.7382 88.8827 27.3819 88.7221C27.0256 88.5614 26.7074 88.327 26.4484 88.0344C25.8962 87.4092 25.5914 86.6038 25.5914 85.7696C25.5914 84.9354 25.8962 84.13 26.4484 83.5048L38.167 70.7247V56.7689L26.3789 69.7287C26.121 70.017 25.8056 70.2481 25.453 70.4071C25.1004 70.566 24.7183 70.6493 24.3315 70.6515C22.6757 70.6825 21.3493 69.0394 21.3984 67.4273C21.3939 66.5966 21.7008 65.7944 22.2586 65.1789L34.0801 52.2954H21.332L9.6378 65.1428C9.37976 65.4319 9.06398 65.6637 8.71078 65.8232C8.35758 65.9827 7.97486 66.0663 7.58733 66.0687C4.87686 66.0479 3.74809 62.4419 5.51473 60.5972L13.1562 52.2957H3.40055C1.79665 52.2957 0.492188 50.8673 0.492188 49.1107C0.492188 47.3541 1.79665 45.9257 3.40055 45.9257H13.1562L5.51473 37.6247C3.75248 35.7541 4.87825 32.1791 7.58733 32.16C7.97873 32.1623 8.36522 32.247 8.72165 32.4087C9.07808 32.5704 9.39643 32.8055 9.65589 33.0985L21.3319 45.9256H34.08L22.2604 33.0448C21.7024 32.4242 21.3972 31.6171 21.4051 30.7826C21.3666 29.1451 22.6765 27.5551 24.3316 27.5791C24.7231 27.5814 25.1098 27.6662 25.4663 27.8279C25.8229 27.9896 26.1413 28.2247 26.401 28.5177L38.167 41.4527V27.4981L26.447 14.7165C25.8954 14.0912 25.5911 13.286 25.5914 12.4521C25.5916 11.6183 25.8964 10.8133 26.4484 10.1883C26.7076 9.89526 27.0261 9.66058 27.3829 9.49986C27.7396 9.33913 28.1264 9.25601 28.5177 9.25601C28.9089 9.25601 29.2957 9.33913 29.6524 9.49986C30.0091 9.66058 30.3277 9.89526 30.5869 10.1883L38.167 18.5495V7.87075C38.167 6.11499 39.4714 4.68571 41.0758 4.68571C42.6802 4.68571 43.9851 6.11459 43.9851 7.87075V18.5496L51.5684 10.1839C51.8278 9.892 52.1458 9.65796 52.5016 9.49708C52.8575 9.33619 53.2432 9.25208 53.6338 9.2502C56.3444 9.26927 57.4698 12.8427 55.7036 14.718L43.9851 27.4981V41.4527L55.7534 28.5153C56.0127 28.2228 56.3309 27.9882 56.687 27.827C57.0431 27.6656 57.4292 27.5812 57.8202 27.5791C59.4754 27.5557 60.7845 29.1448 60.7456 30.7826C60.7537 31.618 60.4478 32.4261 59.8885 33.0468L48.0715 45.9268H60.8197L72.4971 33.0977C72.7565 32.8053 73.0746 32.5707 73.4307 32.4093C73.7868 32.248 74.1729 32.1634 74.5638 32.1611C77.2737 32.1819 78.3998 35.7545 76.6332 37.6293L68.994 45.9264L78.7506 45.9263Z" fill="#F0F8FF"/>
<defs>
<filter id="filter0_f_101_666" x="1.88574" y="1.68571" width="87.1524" height="94.851" filterUnits="userSpaceOnUse" color-interpolation-filters="sRGB">
<feFlood flood-opacity="0" result="BackgroundImageFix"/>
<feBlend mode="normal" in="SourceGraphic" in2="BackgroundImageFix" result="shape"/>
<feGaussianBlur stdDeviation="1.5" result="effect1_foregroundBlur_101_666"/>
</filter>
<linearGradient id="paint0_linear_101_666" x1="52.7237" y1="0.59285" x2="52.7237" y2="97.6295" gradientUnits="userSpaceOnUse">
<stop stop-color="#0440AD"/>
<stop offset="1" stop-color="#1869FF"/>
</linearGradient>
<linearGradient id="paint1_linear_101_666" x1="52.7237" y1="0.59285" x2="52.7237" y2="97.6295" gradientUnits="userSpaceOnUse">
<stop stop-color="#0440AD"/>
<stop offset="1" stop-color="#1869FF"/>
</linearGradient>
<linearGradient id="paint2_linear_101_666" x1="52.7237" y1="0.59285" x2="52.7237" y2="97.6295" gradientUnits="userSpaceOnUse">
<stop stop-color="#0440AD"/>
<stop offset="1" stop-color="#1869FF"/>
</linearGradient>
<linearGradient id="paint3_linear_101_666" x1="52.7237" y1="0.59285" x2="52.7237" y2="97.6295" gradientUnits="userSpaceOnUse">
<stop stop-color="#0440AD"/>
<stop offset="1" stop-color="#1869FF"/>
</linearGradient>
<linearGradient id="paint4_linear_101_666" x1="52.7237" y1="0.59285" x2="52.7237" y2="97.6295" gradientUnits="userSpaceOnUse">
<stop stop-color="#0440AD"/>
<stop offset="1" stop-color="#1869FF"/>
</linearGradient>
<linearGradient id="paint5_linear_101_666" x1="52.7237" y1="0.59285" x2="52.7237" y2="97.6295" gradientUnits="userSpaceOnUse">
<stop stop-color="#0440AD"/>
<stop offset="1" stop-color="#1869FF"/>
</linearGradient>
<linearGradient id="paint6_linear_101_666" x1="52.7237" y1="0.59285" x2="52.7237" y2="97.6295" gradientUnits="userSpaceOnUse">
<stop stop-color="#0440AD"/>
<stop offset="1" stop-color="#1869FF"/>
</linearGradient>
<linearGradient id="paint7_linear_101_666" x1="52.7237" y1="0.59285" x2="52.7237" y2="97.6295" gradientUnits="userSpaceOnUse">
<stop stop-color="#0440AD"/>
<stop offset="1" stop-color="#1869FF"/>
</linearGradient>
<linearGradient id="paint8_linear_101_666" x1="52.7237" y1="0.59285" x2="52.7237" y2="97.6295" gradientUnits="userSpaceOnUse">
<stop stop-color="#0440AD"/>
<stop offset="1" stop-color="#1869FF"/>
</linearGradient>
<linearGradient id="paint9_linear_101_666" x1="52.7237" y1="0.59285" x2="52.7237" y2="97.6295" gradientUnits="userSpaceOnUse">
<stop stop-color="#0440AD"/>
<stop offset="1" stop-color="#1869FF"/>
</linearGradient>
<linearGradient id="paint10_linear_101_666" x1="52.7237" y1="0.59285" x2="52.7237" y2="97.6295" gradientUnits="userSpaceOnUse">
<stop stop-color="#0440AD"/>
<stop offset="1" stop-color="#1869FF"/>
</linearGradient>
<linearGradient id="paint11_linear_101_666" x1="52.7237" y1="0.59285" x2="52.7237" y2="97.6295" gradientUnits="userSpaceOnUse">
<stop stop-color="#0440AD"/>
<stop offset="1" stop-color="#1869FF"/>
</linearGradient>
<linearGradient id="paint12_linear_101_666" x1="52.7237" y1="0.59285" x2="52.7237" y2="97.6295" gradientUnits="userSpaceOnUse">
<stop stop-color="#0440AD"/>
<stop offset="1" stop-color="#1869FF"/>
</linearGradient>
<linearGradient id="paint13_linear_101_666" x1="45.1621" y1="4.68497" x2="45.1621" y2="93.5366" gradientUnits="userSpaceOnUse">
<stop stop-color="#81ADFF"/>
<stop offset="1" stop-color="#F0F8FF"/>
</linearGradient>
<linearGradient id="paint14_linear_101_666" x1="45.1621" y1="4.68497" x2="45.1621" y2="93.5366" gradientUnits="userSpaceOnUse">
<stop stop-color="#81ADFF"/>
<stop offset="1" stop-color="#F0F8FF"/>
</linearGradient>
<linearGradient id="paint15_linear_101_666" x1="45.1621" y1="4.68497" x2="45.1621" y2="93.5366" gradientUnits="userSpaceOnUse">
<stop stop-color="#81ADFF"/>
<stop offset="1" stop-color="#F0F8FF"/>
</linearGradient>
<linearGradient id="paint16_linear_101_666" x1="45.1621" y1="4.68497" x2="45.1621" y2="93.5366" gradientUnits="userSpaceOnUse">
<stop stop-color="#81ADFF"/>
<stop offset="1" stop-color="#F0F8FF"/>
</linearGradient>
<linearGradient id="paint17_linear_101_666" x1="45.1621" y1="4.68497" x2="45.1621" y2="93.5366" gradientUnits="userSpaceOnUse">
<stop stop-color="#81ADFF"/>
<stop offset="1" stop-color="#F0F8FF"/>
</linearGradient>
<linearGradient id="paint18_linear_101_666" x1="45.1621" y1="4.68497" x2="45.1621" y2="93.5366" gradientUnits="userSpaceOnUse">
<stop stop-color="#81ADFF"/>
<stop offset="1" stop-color="#F0F8FF"/>
</linearGradient>
<linearGradient id="paint19_linear_101_666" x1="45.1621" y1="4.68497" x2="45.1621" y2="93.5366" gradientUnits="userSpaceOnUse">
<stop stop-color="#81ADFF"/>
<stop offset="1" stop-color="#F0F8FF"/>
</linearGradient>
<linearGradient id="paint20_linear_101_666" x1="45.1621" y1="4.68497" x2="45.1621" y2="93.5366" gradientUnits="userSpaceOnUse">
<stop stop-color="#81ADFF"/>
<stop offset="1" stop-color="#F0F8FF"/>
</linearGradient>
<linearGradient id="paint21_linear_101_666" x1="45.1621" y1="4.68497" x2="45.1621" y2="93.5366" gradientUnits="userSpaceOnUse">
<stop stop-color="#81ADFF"/>
<stop offset="1" stop-color="#F0F8FF"/>
</linearGradient>
<linearGradient id="paint22_linear_101_666" x1="45.1621" y1="4.68497" x2="45.1621" y2="93.5366" gradientUnits="userSpaceOnUse">
<stop stop-color="#81ADFF"/>
<stop offset="1" stop-color="#F0F8FF"/>
</linearGradient>
<linearGradient id="paint23_linear_101_666" x1="45.1621" y1="4.68497" x2="45.1621" y2="93.5366" gradientUnits="userSpaceOnUse">
<stop stop-color="#81ADFF"/>
<stop offset="1" stop-color="#F0F8FF"/>
</linearGradient>
<linearGradient id="paint24_linear_101_666" x1="45.1621" y1="4.68497" x2="45.1621" y2="93.5366" gradientUnits="userSpaceOnUse">
<stop stop-color="#81ADFF"/>
<stop offset="1" stop-color="#F0F8FF"/>
</linearGradient>
<linearGradient id="paint25_linear_101_666" x1="45.1621" y1="4.68497" x2="45.1621" y2="93.5366" gradientUnits="userSpaceOnUse">
<stop stop-color="#81ADFF"/>
<stop offset="1" stop-color="#F0F8FF"/>
</linearGradient>
<linearGradient id="paint26_linear_101_666" x1="45.1621" y1="4.68497" x2="45.1621" y2="93.5366" gradientUnits="userSpaceOnUse">
<stop stop-color="#81ADFF"/>
<stop offset="1" stop-color="#F0F8FF"/>
</linearGradient>
<linearGradient id="paint27_linear_101_666" x1="45.1621" y1="4.68497" x2="45.1621" y2="93.5366" gradientUnits="userSpaceOnUse">
<stop stop-color="#81ADFF"/>
<stop offset="1" stop-color="#F0F8FF"/>
</linearGradient>
<linearGradient id="paint28_linear_101_666" x1="45.1621" y1="4.68497" x2="45.1621" y2="93.5366" gradientUnits="userSpaceOnUse">
<stop stop-color="#81ADFF"/>
<stop offset="1" stop-color="#F0F8FF"/>
</linearGradient>
<linearGradient id="paint29_linear_101_666" x1="45.1621" y1="4.68497" x2="45.1621" y2="93.5366" gradientUnits="userSpaceOnUse">
<stop stop-color="#81ADFF"/>
<stop offset="1" stop-color="#F0F8FF"/>
</linearGradient>
<linearGradient id="paint30_linear_101_666" x1="45.1621" y1="4.68497" x2="45.1621" y2="93.5366" gradientUnits="userSpaceOnUse">
<stop stop-color="#81ADFF"/>
<stop offset="1" stop-color="#F0F8FF"/>
</linearGradient>
<linearGradient id="paint31_linear_101_666" x1="45.1621" y1="4.68497" x2="45.1621" y2="93.5366" gradientUnits="userSpaceOnUse">
<stop stop-color="#81ADFF"/>
<stop offset="1" stop-color="#F0F8FF"/>
</linearGradient>
</defs>
</svg>
