<svg width="94" height="88" viewBox="0 0 94 88" fill="none" xmlns="http://www.w3.org/2000/svg">
<path d="M13.6905 48.81C13.8248 52.2058 16.4498 55.1219 19.9563 54.9846C21.4956 55.0686 22.9671 55.7734 24.0532 56.8584C25.8436 58.623 26.5812 61.3123 26.096 63.7621C25.532 66.8772 22.8557 69.5512 19.5951 69.5294C20.348 69.5008 24.2145 69.6011 24.8704 69.4528C25.887 69.2874 26.8476 68.875 27.6678 68.2518C30.7446 65.9554 31.4318 61.3332 29.3888 58.1347C28.236 56.2598 26.1384 54.954 23.912 54.9735C21.3508 55 19.1052 53.0824 18.3507 50.6952C18.0498 49.7805 17.941 48.8136 18.0309 47.855C18.1209 46.8963 18.4079 45.9665 18.8737 45.1239C19.6745 43.6878 21.0541 42.5531 22.6687 42.1805C23.3891 41.9869 24.1409 42.0807 24.8707 41.9587C27.1261 41.6142 29.0337 39.9471 29.9168 37.8756C30.2272 37.1599 30.4276 36.4016 30.5114 35.6261C30.5676 35.135 30.5533 34.6392 30.5688 34.1462C30.5985 33.1172 30.701 32.0916 30.8756 31.0771C31.2528 28.8656 31.9765 26.7273 33.02 24.7413C36.1371 18.7698 42.2293 14.562 49.0673 14.591C47.6985 14.6032 44.2469 14.5286 42.9551 14.6862C41.5231 14.8375 40.1162 15.1697 38.7677 15.6746C32.729 17.9086 28.2997 23.4841 26.8444 29.6828C26.4835 31.1935 26.2835 32.7382 26.2476 34.291C26.3245 36.5155 25.5687 38.7477 23.9164 40.2817C22.9896 41.1661 21.8178 41.7509 20.5539 41.9597C20.0126 42.0595 19.4584 42.0096 18.9145 42.0806C17.1667 42.2886 15.6079 43.4011 14.6965 44.8869L14.6954 44.8886C13.976 46.0659 13.626 47.4318 13.6905 48.81Z" fill="url(#paint0_linear_41_130)"/>
<path d="M45.379 86.3602C45.1492 86.5521 44.9074 86.7291 44.655 86.8902C44.4068 87.0464 44.1487 87.1864 43.8825 87.3095C43.8814 87.3101 43.8803 87.3107 43.8791 87.3112C43.6133 87.4316 43.3398 87.5344 43.0605 87.6188L43.0578 87.6196C42.777 87.7021 42.4909 87.7655 42.2015 87.8094H42.2002C41.9076 87.8513 41.6124 87.8729 41.3168 87.874C41.9857 87.8527 45.9443 87.9331 46.517 87.8094H46.5186C46.8089 87.7654 47.0957 87.7018 47.3773 87.6189C47.6566 87.5345 47.9302 87.4318 48.196 87.3114L48.1993 87.3097C48.4671 87.1862 48.7266 87.0453 48.9761 86.8881C49.7932 86.3653 50.4914 85.6769 51.0258 84.8674C51.1656 84.6578 51.293 84.4405 51.4112 84.218L61.0806 65.8904C61.2292 65.6065 61.3604 65.3138 61.4735 65.014C62.5854 62.0878 61.795 58.4754 59.3478 56.4618C58.5063 55.7583 57.4989 55.2815 56.4214 55.0765C56.2699 55.0492 56.1177 55.0259 55.9645 55.0096C55.6507 54.9417 51.4216 54.986 50.9906 54.9742C54.8845 54.9808 57.6975 58.521 57.6511 62.2666C57.6516 63.5285 57.3472 64.7719 56.7638 65.8909L47.0943 84.2184C47.0162 84.3648 46.9346 84.5091 46.8483 84.6505C46.4528 85.295 45.9568 85.8722 45.379 86.3602Z" fill="url(#paint1_linear_41_130)"/>
<path d="M54.8911 43.8329C54.8795 42.8734 54.6947 41.9239 54.3457 41.0301C53.8447 39.7319 52.977 38.6074 51.8481 37.7938L51.8472 37.7932C50.9691 37.1695 49.9469 36.7796 48.8766 36.66C48.5857 36.5947 44.332 36.6372 43.9201 36.6259C46.6492 36.607 49.0778 38.5253 50.0288 41.0299C50.671 42.6745 50.749 44.4858 50.2506 46.1795C50.1089 47.0681 46.2105 54.0173 45.7624 54.9738H50.0793C50.2034 54.7113 54.3856 46.9229 54.3233 46.8769C54.7138 45.9103 54.9068 44.8753 54.8911 43.8329Z" fill="url(#paint2_linear_41_130)"/>
<path d="M76.9879 68.326C85.3748 65.4223 91.3267 57.5488 92.8431 48.9262C94.87 37.9003 90.0385 25.9274 79.8304 20.7289L79.828 20.7277C79.1327 20.3752 78.42 20.0579 77.6928 19.7769C75.5653 14.8983 72.3412 10.4841 68.2407 7.08022C64.1612 3.68441 59.2094 1.318 53.9685 0.426086C52.8004 0.224771 51.621 0.0953452 50.437 0.0385066C49.4057 -0.0272909 45.7857 0.0136276 44.7059 0.00284437C57.445 -0.00564241 68.4043 8.28445 73.3755 19.7769C85.8551 24.6143 91.4922 39.0301 87.9237 51.5193C85.114 61.5636 76.3386 69.5094 65.6464 69.5293C67.2395 69.5076 70.6945 69.6062 72.2283 69.4015C73.8505 69.225 75.4474 68.8642 76.9879 68.326Z" fill="url(#paint3_linear_41_130)"/>
<path d="M50.9906 54.9735C56.3351 54.9796 59.2341 61.3861 56.7637 65.8897L47.0943 84.2173C45.376 87.6097 41.1469 88.9441 37.998 86.9024C34.7873 84.9654 33.7283 80.2136 35.5427 76.9446L39.4715 69.5294H34.244C28.901 69.5202 25.9994 63.1209 28.4705 58.6106L38.1394 40.282C39.8622 36.8917 44.085 35.5543 47.2367 37.5969C50.4198 39.6038 51.5218 44.0707 49.6917 47.5552L45.7622 54.9736L50.9906 54.9735Z" fill="#79517A"/>
<path d="M73.3766 19.777C97.6795 29.3821 92.0985 68.9057 65.647 69.5295C61.9754 69.5295 58.9932 66.2662 58.9932 62.2509C58.9932 58.2355 61.9754 54.9734 65.64 54.9734C70.425 54.912 74.552 51.1061 75.4247 45.926C75.9234 43.0649 75.35 40.1204 73.8142 37.6555C72.2846 35.2256 69.9802 33.5912 67.3278 33.0536C64.9646 32.6221 62.978 30.7817 62.1824 28.2578C54.9319 6.65338 26.5914 12.2868 26.2413 34.7629C26.2413 38.7714 23.2595 42.0353 19.5954 42.0353C11.7552 42.3847 11.7549 54.6208 19.5954 54.9734C28.4099 55.3666 28.4087 69.1363 19.5954 69.5293C10.6426 69.5293 2.95973 62.8959 0.879374 53.4016C-1.49003 43.517 3.84984 31.9224 13.4682 28.5633C19.0981 -3.88759 59.2709 -11.0731 73.3766 19.777Z" fill="#79517A"/>
<g style="mix-blend-mode:multiply" opacity="0.4" filter="url(#filter0_f_41_130)">
<path d="M51.3309 59.0661C53.661 59.0725 54.9313 61.8724 53.8503 63.8423L44.1806 82.171C43.4244 83.663 41.5726 84.2526 40.1879 83.3537C38.7901 82.4751 38.3062 80.515 39.1096 78.9849L46.289 65.4349H34.553C33.5172 65.4349 32.5523 64.8248 32.0343 63.8423C31.7789 63.3506 31.6455 62.8047 31.6454 62.2507C31.6452 61.6966 31.7783 61.1507 32.0334 60.6589L41.7041 42.3291C42.4604 40.838 44.3119 40.2494 45.6967 41.1466C47.1061 41.9982 47.5697 44.0808 46.7751 45.5161L39.5952 59.0661H51.3309Z" fill="#79517A"/>
<path d="M81.6559 31.0507C90.9154 44.2738 82.8965 65.2167 65.9627 65.4349C64.362 65.4349 63.0566 64.0071 63.0566 62.2499C63.0566 60.4926 64.362 59.0659 65.9662 59.0659C72.5752 58.9835 78.2303 53.7698 79.4275 46.6698C80.8919 39.0675 76.0156 30.4559 68.3328 29.0287C67.2597 28.8317 66.3906 28.0268 66.0424 26.9232C56.8547 0.547916 23.2041 8.07479 22.828 34.7537C22.828 36.5131 21.5225 37.9412 19.9184 37.9412C7.12308 38.5135 7.12098 58.4928 19.9184 59.066C21.5224 59.066 22.8278 60.4938 22.8278 62.2499C22.8278 64.0059 21.5224 65.4349 19.9183 65.4349C16.4231 65.4349 13.0219 64.1436 10.305 61.7971C7.58813 59.4505 5.6471 56.1307 4.84076 52.4472C2.76639 43.5551 8.08713 33.6332 17.1373 31.8135C20.2606 0.816298 58.7153 -7.02259 70.9759 23.1248C75.2936 24.4222 78.9945 27.1377 81.6559 31.0507Z" fill="#79517A"/>
</g>
<path d="M33.5993 11.7436C33.1116 11.9221 32.6307 12.1177 32.1564 12.3304L32.1539 12.3315C24.5766 15.7471 19.5235 23.4907 18.6186 31.6571C18.5177 32.4973 18.4627 33.3432 18.4417 34.1894C18.4304 34.6467 18.4549 35.1116 18.3404 35.5589C18.2414 35.9956 18.0506 36.4062 17.7807 36.7636C17.5109 37.121 17.1681 37.4169 16.7752 37.6317C16.2705 37.9152 15.6883 37.9523 15.1224 37.9512C14.6813 37.9711 14.2423 38.0238 13.809 38.1089C11.7685 38.5065 9.91007 39.6485 8.55118 41.2114L8.54855 41.2145C8.17315 41.6465 7.83294 42.108 7.53129 42.5944C4.04073 48.1906 6.23745 56.3223 12.6465 58.5864C13.2871 58.8058 13.9507 58.9512 14.6243 59.0199C15.1561 59.0921 15.7051 59.0141 16.2261 59.1603C17.4604 59.4886 18.3206 60.6879 18.4202 61.936C18.6059 63.6503 17.3289 65.443 15.5247 65.4348C15.8398 65.4272 16.724 65.4593 17.0204 65.4013C17.8484 65.2743 18.5772 64.7383 19.0118 64.0311C19.7546 62.843 19.6594 61.1955 18.7586 60.1172C18.6373 59.9708 18.503 59.8358 18.3573 59.7137C18.0934 59.4946 17.7924 59.3244 17.4686 59.2113C17.122 59.0993 16.7584 59.0493 16.3944 59.0637C16.0164 59.0551 15.6392 59.0221 15.2654 58.965C13.9713 58.765 12.736 58.2869 11.6445 57.5635C5.48541 53.4782 5.38542 43.8468 11.4176 39.5985C12.6829 38.7051 14.1561 38.1507 15.6965 37.9882C16.1808 37.9213 16.6774 37.9818 17.1576 37.8822C17.5412 37.7944 17.9032 37.63 18.2219 37.3989C18.5405 37.1678 18.8092 36.8748 19.0118 36.5374C19.2676 36.1204 19.4293 35.6526 19.4856 35.1666C19.5363 34.5934 19.5041 34.0142 19.5455 33.4399C19.6403 31.5101 19.9471 29.5967 20.4604 27.7341C22.6437 19.6699 29.0706 12.7217 37.377 10.9628H37.3779C38.8201 10.6541 40.2906 10.4981 41.7653 10.4972C39.943 10.4651 38.0823 10.5649 36.3018 10.9628H36.3008C35.3838 11.1621 34.4812 11.4229 33.5993 11.7436Z" fill="url(#paint4_linear_41_130)"/>
<path d="M43.8427 43.7543C43.8188 43.2677 43.6933 42.7916 43.4743 42.3565C43.2744 41.9521 42.9849 41.5986 42.6278 41.323C42.2708 41.0474 41.8555 40.8569 41.4137 40.7659C41.0796 40.6924 40.2001 40.7284 39.8507 40.7206C40.9254 40.7169 41.9226 41.4023 42.3961 42.3527C42.7997 43.1528 42.8801 44.0775 42.6207 44.9353C42.5583 45.1356 42.4782 45.33 42.3816 45.5162L35.2022 59.0662H36.2784L43.4578 45.5162C43.5546 45.3301 43.6346 45.1356 43.6969 44.9353C43.8134 44.553 43.8627 44.1534 43.8427 43.7543Z" fill="url(#paint5_linear_41_130)"/>
<path d="M50.916 62.0734C50.8863 61.4406 50.6792 60.829 50.3184 60.3083C50.1022 59.9947 49.8261 59.7269 49.506 59.5203C49.1859 59.3138 48.8283 59.1725 48.4534 59.1046C48.1485 59.0397 47.2575 59.0746 46.9372 59.0661C47.3926 59.0746 47.8394 59.1918 48.2403 59.4079C48.6412 59.624 48.9848 59.9327 49.2423 60.3083C49.5638 60.7781 49.7638 61.3202 49.8245 61.8862C49.8853 62.4522 49.8048 63.0244 49.5904 63.5517C49.5508 63.6507 49.5062 63.7477 49.4568 63.8423L39.7871 82.1711C39.7411 82.2525 39.6978 82.3359 39.6449 82.4128C39.4766 82.6764 39.2699 82.9134 39.0315 83.1159L39.0298 83.1174C38.9297 83.2005 38.8246 83.2774 38.7151 83.3477L38.7136 83.3487C38.6045 83.4172 38.491 83.4787 38.3741 83.5329L38.3731 83.5335C38.2559 83.5862 38.1355 83.6314 38.0126 83.6687C37.8892 83.7046 37.7636 83.7323 37.6366 83.7519H37.6358C37.5073 83.77 37.3776 83.7794 37.2479 83.7802C37.5374 83.7737 38.4394 83.8012 38.7119 83.7519H38.7129C38.8398 83.7323 38.9654 83.7046 39.0887 83.6687C39.2117 83.6314 39.3321 83.5863 39.4493 83.5335L39.4504 83.5329C39.5673 83.4787 39.6806 83.4172 39.7898 83.3487L39.7914 83.3477C39.9009 83.2774 40.0059 83.2005 40.106 83.1174C40.4057 82.863 40.6553 82.5549 40.8419 82.2088C40.8676 82.1689 50.5088 63.8846 50.5331 63.8421C50.564 63.7781 50.5971 63.7149 50.6263 63.6502C50.6807 63.5246 50.7287 63.3964 50.7701 63.266C50.7889 63.1988 50.8078 63.1313 50.8253 63.0637C50.9016 62.7394 50.9321 62.4061 50.916 62.0734Z" fill="url(#paint6_linear_41_130)"/>
<path d="M82.227 43.0042C82.0493 37.9255 80.1544 32.9071 76.8101 29.0667C74.8723 26.8168 72.4459 25.0396 69.7162 23.8709L69.7105 23.8684C69.0545 23.5883 68.3395 23.3449 67.6585 23.1253C63.6439 12.3827 53.9355 4.34779 42.2448 4.10227H42.2398C41.8851 4.09338 41.0037 4.09798 40.6367 4.09688C52.5394 4.10208 62.5011 12.2015 66.5824 23.1254C70.1372 24.1947 73.3127 26.2566 75.7357 29.0689C82.446 36.736 82.9797 48.7436 77.0969 57.0367C73.5483 62.1135 67.8259 65.4461 61.5694 65.4355C66.9759 65.6297 71.8421 63.7406 75.703 59.9466C80.1883 55.5769 82.4935 49.2264 82.227 43.0042Z" fill="url(#paint7_linear_41_130)"/>
<path d="M46.9378 59.0661C49.2679 59.0725 50.5382 61.8724 49.4571 63.8423L39.7875 82.171C39.0312 83.663 37.1795 84.2526 35.7948 83.3537C34.397 82.4751 33.913 80.515 34.7165 78.9849L41.896 65.4349H30.1595C29.1237 65.4349 28.1588 64.8248 27.6407 63.8423C27.3853 63.3506 27.2519 62.8047 27.2518 62.2507C27.2516 61.6966 27.3848 61.1507 27.6399 60.6589L37.3104 42.3291C38.0668 40.838 39.9183 40.2494 41.3031 41.1466C42.7126 41.9982 43.1761 44.0808 42.3814 45.5161L35.2021 59.0661H46.9378Z" fill="#E5B5C9"/>
<path d="M77.2623 31.0507C86.5219 44.2738 78.503 65.2167 61.5692 65.4349C59.9685 65.4349 58.6631 64.0071 58.6631 62.2499C58.6631 60.4926 59.9684 59.0659 61.5725 59.0659C68.1816 58.9835 73.8367 53.7698 75.0338 46.6698C76.4984 39.0675 71.622 30.4559 63.9392 29.0287C62.8661 28.8317 61.997 28.0268 61.6487 26.9232C52.4611 0.547916 18.8104 8.07479 18.4344 34.7537C18.4344 36.5131 17.129 37.9412 15.5249 37.9412C2.72943 38.5135 2.72733 58.4928 15.5249 59.066C17.1289 59.066 18.4342 60.4938 18.4342 62.2499C18.4342 64.0059 17.1289 65.4349 15.5248 65.4349C12.0295 65.4349 8.62832 64.1436 5.91136 61.7971C3.19439 59.4505 1.25336 56.1307 0.447116 52.4472C-1.62735 43.5551 3.69348 33.6332 12.7438 31.8135C15.867 0.816298 54.3218 -7.02259 66.5823 23.1248C70.8997 24.4222 74.6009 27.1377 77.2623 31.0507Z" fill="#E5B5C9"/>
<defs>
<filter id="filter0_f_41_130" x="1.39368" y="1.12558" width="87.1628" height="85.653" filterUnits="userSpaceOnUse" color-interpolation-filters="sRGB">
<feFlood flood-opacity="0" result="BackgroundImageFix"/>
<feBlend mode="normal" in="SourceGraphic" in2="BackgroundImageFix" result="shape"/>
<feGaussianBlur stdDeviation="1.5" result="effect1_foregroundBlur_41_130"/>
</filter>
<linearGradient id="paint0_linear_41_130" x1="53.4901" y1="0" x2="53.4901" y2="87.8803" gradientUnits="userSpaceOnUse">
<stop stop-color="#79517A"/>
<stop offset="1" stop-color="#3C3261"/>
</linearGradient>
<linearGradient id="paint1_linear_41_130" x1="53.4901" y1="0" x2="53.4901" y2="87.8803" gradientUnits="userSpaceOnUse">
<stop stop-color="#79517A"/>
<stop offset="1" stop-color="#3C3261"/>
</linearGradient>
<linearGradient id="paint2_linear_41_130" x1="53.4901" y1="0" x2="53.4901" y2="87.8803" gradientUnits="userSpaceOnUse">
<stop stop-color="#79517A"/>
<stop offset="1" stop-color="#3C3261"/>
</linearGradient>
<linearGradient id="paint3_linear_41_130" x1="53.4901" y1="0" x2="53.4901" y2="87.8803" gradientUnits="userSpaceOnUse">
<stop stop-color="#79517A"/>
<stop offset="1" stop-color="#3C3261"/>
</linearGradient>
<linearGradient id="paint4_linear_41_130" x1="44.0634" y1="4.09665" x2="44.0634" y2="83.7821" gradientUnits="userSpaceOnUse">
<stop stop-color="#79517A"/>
<stop offset="0.40625" stop-color="#E5B5C9"/>
</linearGradient>
<linearGradient id="paint5_linear_41_130" x1="44.0634" y1="4.09665" x2="44.0634" y2="83.7821" gradientUnits="userSpaceOnUse">
<stop stop-color="#79517A"/>
<stop offset="0.40625" stop-color="#E5B5C9"/>
</linearGradient>
<linearGradient id="paint6_linear_41_130" x1="44.0634" y1="4.09665" x2="44.0634" y2="83.7821" gradientUnits="userSpaceOnUse">
<stop stop-color="#79517A"/>
<stop offset="0.40625" stop-color="#E5B5C9"/>
</linearGradient>
<linearGradient id="paint7_linear_41_130" x1="44.0634" y1="4.09665" x2="44.0634" y2="83.7821" gradientUnits="userSpaceOnUse">
<stop stop-color="#79517A"/>
<stop offset="0.40625" stop-color="#E5B5C9"/>
</linearGradient>
</defs>
</svg>
