<svg width="95" height="80" viewBox="0 0 95 80" fill="none" xmlns="http://www.w3.org/2000/svg">
<path d="M14.4591 60.9507C14.4747 61.3046 14.5312 61.6555 14.6273 61.9964C14.9058 63.0013 15.552 63.8648 16.4375 64.4155C16.6578 64.5467 16.8906 64.6554 17.1325 64.7401L17.135 64.7408C17.5014 64.8655 17.8856 64.9295 18.2727 64.9305H22.5895C20.0771 64.9285 18.4049 62.3617 18.8335 60.0062C19.0609 58.5517 20.0793 57.2012 21.5025 56.7458C22.2633 56.4805 23.0864 56.6359 23.8615 56.4372C25.6273 56.0699 27.1609 54.8897 28.0997 53.3655L28.1007 53.3638C28.7098 52.3725 29.0847 51.2552 29.1969 50.097C29.2667 49.2655 29.2242 48.4252 29.3305 47.596C29.6432 44.5014 30.8344 41.5608 32.7636 39.121C34.7511 36.6213 37.5629 34.7551 40.6937 34.0637C41.6424 33.8531 42.6111 33.7465 43.5828 33.7456C43.0828 33.7518 38.9519 33.7282 38.5672 33.7645C37.83 33.8037 37.0974 33.9039 36.3769 34.064C31.7079 35.084 27.8735 38.7033 26.1305 43.0962C25.5492 44.5365 25.1732 46.0514 25.0136 47.5963C24.9073 48.425 24.9494 49.2657 24.88 50.097C24.7676 51.2552 24.3927 52.3725 23.7838 53.3641L23.7828 53.3658C22.6291 55.2629 20.5204 56.5917 18.2726 56.5728C16.9821 56.562 15.7719 57.3241 15.1095 58.4133L15.1086 58.4149C14.6443 59.1765 14.4181 60.0596 14.4591 60.9507Z" fill="url(#paint0_linear_101_664)"/>
<path d="M39.7869 19.1155C40.6291 19.1366 41.4697 19.2003 42.3055 19.3065H46.6227C44.6757 19.0122 41.1882 19.1277 39.1888 19.1068C39.3883 19.1073 39.5876 19.1102 39.7869 19.1155Z" fill="url(#paint1_linear_101_664)"/>
<path d="M47.9952 7.75089C48.1777 7.76217 48.36 7.77855 48.5408 7.80511H48.5416C49.8322 8.00276 51.0316 8.59008 51.9792 9.48838L53.1773 10.7696H57.4941L56.2959 9.48838C56.0709 9.27834 55.8324 9.08326 55.5818 8.9044C54.7728 8.32943 53.8399 7.95285 52.8584 7.80511H52.8574C52.3044 7.6826 48.3026 7.76178 47.6579 7.74081C47.7706 7.74091 47.883 7.7459 47.9952 7.75089Z" fill="url(#paint2_linear_101_664)"/>
<path d="M61.205 25.653C61.2666 25.5759 61.3292 25.5016 61.3926 25.4299C62.7499 24.0398 64.6539 23.1821 66.6053 23.1896C65.9671 23.2069 61.9877 23.1413 61.452 23.2415C59.7957 23.4329 58.2396 24.2444 57.0757 25.4299C56.9435 25.5795 56.8191 25.7359 56.703 25.8983C59.7892 28.6838 62.2734 32.0707 64.003 35.8511C64.954 36.2486 65.8743 36.7158 66.7565 37.249H71.0734C70.6322 36.9843 70.183 36.733 69.7245 36.5001C69.2643 36.2671 68.7961 36.0511 68.3199 35.8519C66.5904 32.0715 64.1061 28.6845 61.0199 25.8991C61.0802 25.8128 61.1423 25.7329 61.205 25.653Z" fill="url(#paint3_linear_101_664)"/>
<path d="M62.5875 0.789737C65.3263 0.924327 67.6691 3.02765 68.4818 5.58826C68.6874 6.21143 68.8128 6.85822 68.8552 7.51306C68.8934 7.91074 68.8688 9.26853 68.8751 9.68348C69.7032 9.99199 70.5103 10.3541 71.2914 10.7674H75.6084C74.8274 10.3536 74.02 9.99152 73.1916 9.68348C73.1871 8.61814 73.2527 7.22821 72.9727 6.20191C72.4375 3.91687 70.7713 1.86866 68.5214 1.10764C67.9742 0.92039 67.403 0.812233 66.8252 0.786443C66.7311 0.781251 66.6368 0.778255 66.5423 0.778554H62.2254C62.3474 0.778455 62.467 0.784645 62.5875 0.789737Z" fill="url(#paint4_linear_101_664)"/>
<path d="M77.131 7.74821C79.0729 7.84466 80.8887 8.93037 82.0087 10.5022C83.9671 13.1854 83.9098 17.1424 81.8455 19.7515L80.6752 21.0395C81.0595 21.9019 81.3912 22.7867 81.6684 23.6893C81.9604 23.6821 83.2584 23.6877 83.5181 23.7004C84.0691 23.7334 84.6131 23.8403 85.1356 24.0183C88.0083 24.9861 89.8383 27.9942 89.8053 30.9654C89.8389 33.9287 88.0181 36.9306 85.1583 37.9066C84.6502 38.0819 84.1214 38.1897 83.5852 38.2273C83.2651 38.2653 82.0054 38.2339 81.6682 38.244C81.39 39.145 81.0592 40.029 80.6776 40.8913C81.0545 41.314 81.8985 42.187 82.2083 42.6367C83.0169 43.764 83.504 45.0898 83.6178 46.4724C83.9972 50.3963 81.2326 54.347 77.1115 54.4188C77.6679 59.6512 76.494 65.0699 73.7188 69.5495C70.09 75.4751 63.6935 79.5148 56.6593 79.484C58.1339 79.4659 61.5679 79.5539 62.9718 79.3778C65.2061 79.1394 67.3807 78.5079 69.3951 77.5122C77.8779 73.3292 82.4448 63.6678 81.4284 54.4192C84.7117 54.3881 87.3299 51.6983 87.8449 48.5492V48.5469C88.23 46.3667 87.6801 44.0167 86.2654 42.2991L86.264 42.2973C86.1211 42.1142 85.1677 41.0862 84.994 40.8917C85.1868 40.4623 85.3605 40.023 85.5289 39.5832C85.6903 39.1403 85.8471 38.6957 85.9847 38.2444C86.6941 38.231 87.8759 38.2935 88.5597 38.1456C90.4007 37.8232 92.0133 36.6145 92.9828 35.0353C95.256 31.4101 94.0301 26.1186 90.0622 24.2643C89.4491 23.9794 88.7934 23.7969 88.1213 23.724C87.6579 23.6641 86.4614 23.6987 85.9846 23.6897C85.7074 22.7871 85.3757 21.9023 84.9913 21.0399L86.1617 19.7519C88.7306 16.5117 88.1411 11.3139 84.7212 8.90541C83.9137 8.33105 82.9828 7.95406 82.0032 7.80472C81.4314 7.67822 77.4533 7.76019 76.7931 7.73832C76.9064 7.73842 77.0187 7.74312 77.131 7.74821Z" fill="url(#paint5_linear_101_664)"/>
<path d="M83.1567 38.2434H81.6684C81.3913 39.1448 81.0604 40.0289 80.6777 40.8908L81.7161 42.0284C85.6781 46.2648 83.2045 54.2948 77.1115 54.4182C78.6076 67.4113 68.8706 79.6289 56.6593 79.4829H18.2725C-1.16717 78.8727 -4.96317 50.6137 12.1648 43.257C14.9523 28.2779 28.0261 17.4872 42.3057 19.3059C39.2026 14.7757 41.9947 7.78118 47.658 7.74024C49.2685 7.74972 50.8145 8.37486 51.979 9.48752L53.1771 10.7687C53.9499 10.3491 54.752 9.9861 55.5772 9.68242V8.05335C55.5772 4.0423 58.5588 0.778687 62.2261 0.778687C65.8933 0.778687 68.8757 4.0423 68.8757 8.05335V9.68351C69.7049 9.9893 70.5122 10.3514 71.2919 10.7674L72.3303 9.6307C73.6748 8.35918 75.2109 7.73794 76.7934 7.73794C82.6865 7.76271 85.3948 15.3743 81.8455 19.7515L80.6751 21.0395C81.0595 21.9018 81.3912 22.7867 81.6684 23.6892H83.1567C91.9777 24.0848 91.9709 37.8511 83.1567 38.2434ZM63.664 58.4172C64.4046 54.0898 61.7906 49.9121 57.8396 49.1043C55.454 48.6569 53.4657 46.7906 52.6895 44.2345C47.0433 27.6245 25.2175 32.0076 24.9198 49.3095C24.9198 53.3078 21.9378 56.5716 18.2726 56.5716C16.1659 56.5716 14.4545 58.446 14.4545 60.752C14.4545 63.0552 16.166 64.9296 18.2726 64.9296H56.6592C60.0691 64.8667 63.0309 62.1282 63.6637 58.4172H63.664ZM67.5187 36.5767C70.231 33.4868 70.2213 28.5037 67.4082 25.3288C64.6425 22.4726 59.8589 22.4893 57.0754 25.4297C56.9429 25.5791 56.8185 25.7355 56.7026 25.8981C59.7908 28.6818 62.2753 32.0692 64.0027 35.8509C64.954 36.2478 65.8743 36.715 66.7561 37.2488C67.0264 37.0439 67.2813 36.8194 67.5187 36.5772" fill="#1869FF"/>
<g style="mix-blend-mode:multiply" opacity="0.4" filter="url(#filter0_f_101_664)">
<path d="M83.5413 27.7823C87.4011 27.9556 87.3982 33.978 83.5413 34.1504H79.1765C78.7595 36.4129 78.0596 38.6626 76.9274 40.6367L76.4003 41.5766L79.4573 44.9222C81.1865 46.7741 80.1023 50.3106 77.4125 50.3264C77.0244 50.3244 76.6409 50.2411 76.2869 50.082C75.9328 49.9229 75.616 49.6915 75.3567 49.4026L74.7796 48.8176L72.7273 50.3645C77.0958 61.8306 68.9003 75.5305 57.0429 75.3911H18.6564C15.7199 75.3868 12.9308 74.3561 10.5901 72.4115C1.71755 65.0682 4.43213 49.3014 15.8654 46.4095C17.3099 31.0291 31.797 19.1781 46.8711 24.4692C47.346 23.4884 47.8144 22.2635 48.3011 21.3296L48.8096 20.4024L45.8062 17.0557C44.2808 15.1365 45.4758 11.8472 48.0435 11.8327C48.7339 11.8379 49.3974 12.1011 49.9036 12.5706L52.9728 15.8729C54.7073 14.6102 56.6459 13.5734 58.7085 13.0836L59.7017 12.836V8.05522C59.7017 6.29845 61.0064 4.87018 62.6105 4.87018C64.2146 4.87018 65.5196 6.29795 65.5196 8.05522V12.833L66.5107 13.0826C68.5875 13.5818 70.5461 14.6148 72.3038 15.8719L75.3221 12.5671C75.8282 12.0992 76.4908 11.8373 77.1801 11.8327C79.7381 11.8434 80.9316 15.1284 79.4187 17.051L76.4001 20.3559L76.9273 21.2958C78.0593 23.2696 78.76 25.52 79.1762 27.7821L83.5413 27.7823ZM67.7265 59.1677C68.9076 53.1087 65.0324 46.2342 58.9102 45.0802C57.8308 44.8773 56.9615 44.0601 56.6225 42.9426C54.1184 35.0249 47.307 29.69 39.6689 29.6515C29.4156 29.4973 21.3947 39.191 21.5655 49.2895C21.5655 51.0515 20.2601 52.4793 18.656 52.4793C14.49 52.4793 11.1003 56.1896 11.1003 60.751C11.1003 65.3124 14.49 69.0216 18.656 69.0216H57.0646C62.4207 68.9823 66.9098 64.4469 67.7265 59.1677ZM70.4592 39.5628C74.6705 34.9648 74.6638 27.0477 70.4765 22.4775C69.477 21.4204 68.2731 20.5774 66.9378 19.9997C65.6026 19.422 64.1639 19.1216 62.709 19.1167C61.2542 19.1119 59.8135 19.4027 58.4745 19.9715C57.1354 20.5403 55.9259 21.3753 54.9194 22.4257C53.9612 23.4937 53.205 24.7268 52.6875 26.065L52.2782 27.1152C56.5232 30.1262 59.7929 34.3149 61.6835 39.1637C63.5904 39.7906 65.3793 40.7312 66.9767 41.9468C68.2629 41.3623 69.4598 40.6079 70.4589 39.5628" fill="#0440AD"/>
</g>
<path d="M6.71631 61.1444C6.82285 64.3855 8.88014 67.588 12.0089 68.6459C12.6041 68.8494 13.2242 68.9715 13.8522 69.0089C14.1409 69.0303 15.0373 69.0189 15.339 69.0215C11.1913 69.0315 8.02756 65.3612 7.80651 61.3658C7.54002 58.0363 9.32415 54.5414 12.4093 53.1268C13.1047 52.8061 13.8475 52.6007 14.6088 52.5186C14.9621 52.473 15.3205 52.4956 15.6744 52.4575C16.2459 52.3818 16.7798 52.1306 17.2026 51.7387C17.4132 51.5434 17.5969 51.3209 17.7487 51.0771L17.7496 51.0755C18.0056 50.658 18.1674 50.1896 18.2236 49.703C18.2745 49.0681 18.2474 48.427 18.3063 47.7917C18.4375 45.9535 18.8073 44.1402 19.4064 42.3975C21.8913 35.1126 28.4911 29.6102 36.3523 29.6515C35.6143 29.6507 34.7054 29.6404 33.9814 29.7005C32.4483 29.8145 30.938 30.1379 29.4925 30.6615C23.9699 32.6469 19.7799 37.536 18.1014 43.097L18.1003 43.101C17.6876 44.4586 17.4111 45.854 17.275 47.2664C17.2016 47.9873 17.1774 48.7123 17.1692 49.4366C17.1404 50.2592 16.8075 51.0418 16.2351 51.6332C15.7846 52.0973 15.1871 52.3908 14.5445 52.4639C13.9171 52.4889 13.2865 52.5083 12.6745 52.6647C9.98751 53.2814 7.87381 55.5278 7.09582 58.1313C6.79976 59.107 6.67144 60.1258 6.71631 61.1444Z" fill="url(#paint6_linear_101_664)"/>
<path d="M35.6707 23.2068C37.986 23.2468 40.2858 23.737 42.4776 24.4695H43.5537C41.3352 23.727 39.0078 23.2372 36.664 23.2044C36.3817 23.1965 35.4752 23.2006 35.1788 23.1997C35.3425 23.1998 35.5068 23.2013 35.6707 23.2068Z" fill="url(#paint7_linear_101_664)"/>
<path d="M43.9212 11.8471C44.2529 11.8824 44.5753 11.9779 44.8726 12.1291C45.0619 12.2261 45.2402 12.3433 45.4044 12.4785C45.4059 12.4799 45.4076 12.481 45.4092 12.4823C45.4434 12.5108 45.4771 12.5401 45.5103 12.5702L48.5795 15.8725H49.6557L46.5864 12.5702C46.5528 12.5396 46.5186 12.5103 46.484 12.4811C46.4828 12.4802 46.4817 12.4795 46.4806 12.4785C46.3177 12.3442 46.1409 12.2277 45.9533 12.131C45.952 12.131 45.9509 12.1297 45.9496 12.1291H45.9487C45.8338 12.0713 45.7152 12.021 45.5938 11.9786L45.5923 11.978C45.4682 11.9364 45.3415 11.903 45.2129 11.8782C44.884 11.8035 43.9959 11.8414 43.6504 11.8329C43.7405 11.8345 43.8313 11.8378 43.9212 11.8471Z" fill="url(#paint8_linear_101_664)"/>
<path d="M49.9548 23.1179C49.3849 23.8552 48.9053 24.6579 48.526 25.5089C48.3578 25.8783 48.038 26.7278 47.885 27.1153C52.1937 30.1776 55.3387 34.2566 57.2903 39.1637C58.285 39.4909 59.2495 39.9034 60.1731 40.3965C61.012 40.8561 61.8174 41.3742 62.5835 41.9469H63.6596C62.8936 41.3741 62.0882 40.856 61.2494 40.3965C60.3258 39.903 59.3612 39.4906 58.3664 39.1637C56.4129 34.2534 53.2714 30.1796 48.9611 27.1153C49.1929 26.5285 49.5064 25.6682 49.7874 25.1147C50.2679 24.1405 50.8783 23.2359 51.6019 22.4257C51.8636 22.1609 52.1369 21.9086 52.4217 21.6687L52.4243 21.6665C53.3954 20.8489 54.4991 20.2034 55.6878 19.7578C56.8619 19.322 58.1041 19.0982 59.3564 19.097C58.8472 19.1004 57.9945 19.083 57.4985 19.1264C56.5114 19.2009 55.5397 19.4134 54.6116 19.7578L54.6091 19.7588C53.0696 20.3392 51.6758 21.2494 50.5255 22.4257C50.328 22.6501 50.1361 22.8804 49.9548 23.1179Z" fill="url(#paint9_linear_101_664)"/>
<path d="M58.4842 4.88425C59.7651 5.00077 60.7962 6.08618 61.0467 7.31776C61.2008 7.68609 61.0989 12.3339 61.1265 12.8332C62.2105 13.095 63.3631 13.3976 64.3823 13.8446C65.6231 14.3555 66.8085 15.1074 67.9107 15.8721H68.9869C67.8834 15.1067 66.7005 14.356 65.4584 13.8446C64.44 13.3981 63.2847 13.0942 62.2027 12.8332V8.05511C62.2021 7.73324 62.1575 7.41296 62.0701 7.1032C61.9467 6.6735 61.7378 6.27318 61.4557 5.92633C61.3878 5.84526 61.3174 5.76658 61.2423 5.6922C60.7958 5.24402 60.2109 4.95995 59.5826 4.88615C59.3808 4.85799 58.4363 4.87437 58.2174 4.87038C58.3067 4.87197 58.396 4.87537 58.4842 4.88425Z" fill="url(#paint10_linear_101_664)"/>
<path d="M68.4643 50.7339C70.338 56.1624 69.6312 62.4085 66.598 67.2836C63.6375 72.1132 58.3838 75.4224 52.6497 75.391C53.8063 75.401 55.0407 75.3934 56.1775 75.1951C59.9522 74.6054 63.4188 72.546 65.9113 69.6737C66.5674 68.9184 67.1617 68.1116 67.6885 67.261C70.7795 62.2771 71.4394 55.8687 69.4098 50.3645L71.462 48.8182H70.3859L68.3338 50.3645C68.3786 50.4871 68.4221 50.6103 68.4643 50.7339Z" fill="url(#paint11_linear_101_664)"/>
<path d="M75.2172 13.268C75.9138 14.4171 75.8433 15.9808 75.0254 17.051L72.0067 20.3559C72.644 21.4641 73.2839 22.6496 73.7226 23.8486C74.2078 25.0939 74.522 26.4699 74.783 27.7825H75.8594C75.5979 26.4683 75.2845 25.0954 74.7988 23.8486C74.3606 22.6505 73.7196 21.4629 73.0831 20.3562L76.1017 17.0513C76.4348 16.5991 76.6521 16.0723 76.7346 15.5167C76.817 14.9612 76.7621 14.3939 76.5746 13.8645L76.5738 13.8621C76.3609 13.2512 75.9653 12.7205 75.4405 12.3421C75.2222 12.1888 74.9836 12.0664 74.7316 11.9787C74.2182 11.772 73.3329 11.8442 72.7867 11.833C73.7818 11.8266 74.7188 12.4189 75.2172 13.268Z" fill="url(#paint12_linear_101_664)"/>
<path d="M75.1645 45.0388C76.7493 46.9458 75.6622 50.2896 73.019 50.3263C73.4068 50.3138 74.2693 50.3634 74.6373 50.2709C75.6218 50.0771 76.4237 49.3061 76.764 48.376C76.8365 48.179 76.8916 47.976 76.9285 47.7693V47.768C77.0147 47.2901 76.9978 46.7994 76.8791 46.3286C76.7604 45.8578 76.5425 45.4177 76.2401 45.0379C76.2078 44.9986 76.1745 44.96 76.1402 44.9221L73.0832 41.5766C73.7322 40.4496 74.3794 39.244 74.8223 38.0228L74.823 38.0212C75.2941 36.796 75.6025 35.4395 75.8595 34.1504H74.7833C74.5255 35.4422 74.2181 36.7953 73.7462 38.0228C73.3036 39.2433 72.6556 40.4506 72.007 41.5766L75.064 44.9221C75.0985 44.9604 75.132 44.9993 75.1645 45.0388Z" fill="url(#paint13_linear_101_664)"/>
<path d="M79.4152 27.7963C81.0212 27.9417 82.151 29.5591 82.0535 31.1124C82.0189 32.6663 80.7619 34.167 79.1481 34.1504C79.4077 34.1445 80.3194 34.168 80.5593 34.1286C81.4198 34.0261 82.1854 33.4785 82.6344 32.7475L82.6349 32.7465C82.8805 32.3412 83.0398 31.8896 83.1029 31.4198C83.1659 30.9501 83.1314 30.4725 83.0014 30.0167C82.8503 29.4845 82.5663 28.9994 82.1761 28.6072C82.0087 28.442 81.8229 28.2968 81.6221 28.1744C81.6204 28.1734 81.6186 28.1726 81.617 28.1716C81.4508 28.0727 81.2751 27.9908 81.0925 27.9272L81.0907 27.9266C80.5787 27.7213 79.6929 27.7938 79.1481 27.7823C79.237 27.7839 79.327 27.7875 79.4152 27.7963Z" fill="url(#paint14_linear_101_664)"/>
<path d="M79.1479 27.7823C83.0076 27.9556 83.0046 33.978 79.1479 34.1504H74.783C74.3659 36.4129 73.666 38.6626 72.5339 40.6367L72.0067 41.5766L75.0637 44.9222C76.793 46.7741 75.7088 50.3106 73.019 50.3264C72.6308 50.3244 72.2474 50.2411 71.8933 50.082C71.5392 49.9229 71.2224 49.6915 70.9631 49.4026L70.3861 48.8176L68.3338 50.3645C72.7022 61.8306 64.5067 75.5305 52.6493 75.3911H14.2628C11.3264 75.3868 8.53728 74.3561 6.19662 72.4115C-2.67605 65.0682 0.0386178 49.3014 11.4718 46.4095C12.9163 31.0291 27.4035 19.1781 42.4776 24.4692C42.9525 23.4884 43.4209 22.2635 43.9075 21.3296L44.4161 20.4024L41.413 17.0557C39.8877 15.1365 41.0827 11.8472 43.6503 11.8327C44.3407 11.8379 45.0042 12.1011 45.5105 12.5706L48.5797 15.8729C50.3142 14.6102 52.2527 13.5734 54.3154 13.0836L55.3086 12.836V8.05522C55.3086 6.29845 56.6132 4.87018 58.2174 4.87018C59.8216 4.87018 61.1264 6.29795 61.1264 8.05522V12.833L62.1176 13.0826C64.1944 13.5818 66.153 14.6148 67.9106 15.8719L70.9289 12.5671C71.435 12.0992 72.0976 11.8373 72.7869 11.8327C75.345 11.8434 76.5385 15.1284 75.0256 17.051L72.0069 20.3559L72.5341 21.2958C73.6662 23.2696 74.3669 25.52 74.7831 27.7821L79.1479 27.7823ZM63.3325 59.1677C64.5136 53.1087 60.6385 46.2342 54.5167 45.0802C53.4374 44.8773 52.568 44.0601 52.229 42.9426C49.725 35.0249 42.9135 29.69 35.2754 29.6515C25.0222 29.4973 17.0013 39.191 17.1721 49.2895C17.1721 51.0515 15.8666 52.4793 14.2625 52.4793C10.0965 52.4793 6.70693 56.1896 6.70693 60.751C6.70693 65.3124 10.0965 69.0216 14.2625 69.0216H52.6708C58.0269 68.9823 62.5154 64.4469 63.3325 59.1677ZM66.0654 39.5628C70.2766 34.9648 70.27 27.0477 66.0826 22.4775C65.0831 21.4204 63.8792 20.5774 62.5439 19.9997C61.2087 19.4219 59.77 19.1215 58.3152 19.1167C56.8604 19.1118 55.4197 19.4027 54.0806 19.9715C52.7416 20.5403 51.5321 21.3753 50.5256 22.4257C49.5674 23.4936 48.8111 24.7267 48.2937 26.065L47.8844 27.1152C52.1293 30.1262 55.3991 34.3149 57.2897 39.1637C59.1966 39.7907 60.9855 40.7313 62.5829 41.9468C63.8691 41.3623 65.0659 40.6079 66.0651 39.5628" fill="#F0F8FF"/>
<defs>
<filter id="filter0_f_101_664" x="2.32101" y="1.87018" width="87.1141" height="76.522" filterUnits="userSpaceOnUse" color-interpolation-filters="sRGB">
<feFlood flood-opacity="0" result="BackgroundImageFix"/>
<feBlend mode="normal" in="SourceGraphic" in2="BackgroundImageFix" result="shape"/>
<feGaussianBlur stdDeviation="1.5" result="effect1_foregroundBlur_101_664"/>
</filter>
<linearGradient id="paint0_linear_101_664" x1="54.2861" y1="0.778534" x2="54.2861" y2="79.4904" gradientUnits="userSpaceOnUse">
<stop stop-color="#0440AD"/>
<stop offset="1" stop-color="#1869FF"/>
</linearGradient>
<linearGradient id="paint1_linear_101_664" x1="54.2861" y1="0.778534" x2="54.2861" y2="79.4904" gradientUnits="userSpaceOnUse">
<stop stop-color="#0440AD"/>
<stop offset="1" stop-color="#1869FF"/>
</linearGradient>
<linearGradient id="paint2_linear_101_664" x1="54.2861" y1="0.778534" x2="54.2861" y2="79.4904" gradientUnits="userSpaceOnUse">
<stop stop-color="#0440AD"/>
<stop offset="1" stop-color="#1869FF"/>
</linearGradient>
<linearGradient id="paint3_linear_101_664" x1="54.2861" y1="0.778534" x2="54.2861" y2="79.4904" gradientUnits="userSpaceOnUse">
<stop stop-color="#0440AD"/>
<stop offset="1" stop-color="#1869FF"/>
</linearGradient>
<linearGradient id="paint4_linear_101_664" x1="54.2861" y1="0.778534" x2="54.2861" y2="79.4904" gradientUnits="userSpaceOnUse">
<stop stop-color="#0440AD"/>
<stop offset="1" stop-color="#1869FF"/>
</linearGradient>
<linearGradient id="paint5_linear_101_664" x1="54.2861" y1="0.778534" x2="54.2861" y2="79.4904" gradientUnits="userSpaceOnUse">
<stop stop-color="#0440AD"/>
<stop offset="1" stop-color="#1869FF"/>
</linearGradient>
<linearGradient id="paint6_linear_101_664" x1="44.9205" y1="4.8692" x2="44.9205" y2="75.3937" gradientUnits="userSpaceOnUse">
<stop stop-color="#81ADFF"/>
<stop offset="1" stop-color="#F0F8FF"/>
</linearGradient>
<linearGradient id="paint7_linear_101_664" x1="44.9205" y1="4.8692" x2="44.9205" y2="75.3937" gradientUnits="userSpaceOnUse">
<stop stop-color="#81ADFF"/>
<stop offset="1" stop-color="#F0F8FF"/>
</linearGradient>
<linearGradient id="paint8_linear_101_664" x1="44.9205" y1="4.8692" x2="44.9205" y2="75.3937" gradientUnits="userSpaceOnUse">
<stop stop-color="#81ADFF"/>
<stop offset="1" stop-color="#F0F8FF"/>
</linearGradient>
<linearGradient id="paint9_linear_101_664" x1="44.9205" y1="4.8692" x2="44.9205" y2="75.3937" gradientUnits="userSpaceOnUse">
<stop stop-color="#81ADFF"/>
<stop offset="1" stop-color="#F0F8FF"/>
</linearGradient>
<linearGradient id="paint10_linear_101_664" x1="44.9205" y1="4.8692" x2="44.9205" y2="75.3937" gradientUnits="userSpaceOnUse">
<stop stop-color="#81ADFF"/>
<stop offset="1" stop-color="#F0F8FF"/>
</linearGradient>
<linearGradient id="paint11_linear_101_664" x1="44.9205" y1="4.8692" x2="44.9205" y2="75.3937" gradientUnits="userSpaceOnUse">
<stop stop-color="#81ADFF"/>
<stop offset="1" stop-color="#F0F8FF"/>
</linearGradient>
<linearGradient id="paint12_linear_101_664" x1="44.9205" y1="4.8692" x2="44.9205" y2="75.3937" gradientUnits="userSpaceOnUse">
<stop stop-color="#81ADFF"/>
<stop offset="1" stop-color="#F0F8FF"/>
</linearGradient>
<linearGradient id="paint13_linear_101_664" x1="44.9205" y1="4.8692" x2="44.9205" y2="75.3937" gradientUnits="userSpaceOnUse">
<stop stop-color="#81ADFF"/>
<stop offset="1" stop-color="#F0F8FF"/>
</linearGradient>
<linearGradient id="paint14_linear_101_664" x1="44.9205" y1="4.8692" x2="44.9205" y2="75.3937" gradientUnits="userSpaceOnUse">
<stop stop-color="#81ADFF"/>
<stop offset="1" stop-color="#F0F8FF"/>
</linearGradient>
</defs>
</svg>
