<svg width="107" height="81" viewBox="0 0 107 81" fill="none" xmlns="http://www.w3.org/2000/svg">
<path d="M52.0977 0.447676C66.3737 0.795744 78.5677 10.2586 84.1417 23.1848C98.6587 28.8366 105.067 45.7245 100.7 60.2166C97.3378 71.5495 87.3544 80.4229 75.2717 80.4236C77.1088 80.4121 81.0002 80.5 82.7573 80.2863C85.4882 79.9994 88.1526 79.2596 90.6417 78.0972C100.989 73.2514 107.089 62.1593 106.999 50.881C107.023 39.9984 101.381 29.2803 91.5478 24.2795L91.5456 24.2785C90.7477 23.873 89.9301 23.508 89.0957 23.1848C86.6549 17.5743 82.9573 12.4981 78.2545 8.5827L78.2492 8.57811C73.5671 4.67125 67.8839 1.94839 61.869 0.922336C60.5286 0.690654 59.1752 0.541726 57.8165 0.476395C56.6322 0.400348 52.478 0.447905 51.2391 0.435384C51.5259 0.435728 51.8116 0.438142 52.0977 0.447676Z" fill="url(#paint0_linear_22_29)"/>
<path d="M15.643 56.5892C15.7386 59.3577 17.3923 62.0933 19.979 63.1812C20.6369 63.4606 21.3375 63.6253 22.0507 63.6682C21.9881 63.6817 27.2459 63.6817 27.3736 63.6797C23.8123 63.7026 20.9866 60.6011 20.644 57.1652C20.3453 54.6984 21.2493 52.0841 23.1282 50.4378C24.0968 49.57 25.304 49.0151 26.5921 48.8457C27.3376 48.76 28.0977 48.822 28.8324 48.6389C30.858 48.2166 32.6167 46.8583 33.6934 45.1063L33.6952 45.1031C34.4167 43.9251 34.852 42.5936 34.9662 41.2161C35.0213 40.5858 34.9917 39.9503 35.0281 39.3189C35.0634 38.5107 35.141 37.7037 35.252 36.9031C35.6432 34.1241 36.5055 31.4325 37.8016 28.9448C41.3672 22.0515 48.3826 17.1838 56.2437 17.2189C54.6729 17.2329 50.7115 17.1474 49.2291 17.3285C47.5856 17.5027 45.9707 17.8848 44.423 18.4658C37.4928 21.0358 32.4091 27.4497 30.7388 34.581C30.3251 36.3178 30.0956 38.0935 30.0544 39.8787C30.1432 42.4397 29.2768 45.0098 27.3787 46.7756C26.3516 47.7581 25.0617 48.4201 23.666 48.6809C23.0397 48.8125 22.3969 48.7716 21.7639 48.8303C19.7101 49.0347 17.8652 50.3276 16.7982 52.0745L16.7969 52.0767C15.9709 53.4314 15.569 55.0032 15.643 56.5892Z" fill="url(#paint1_linear_22_29)"/>
<path d="M84.1416 23.1848C111.693 34.1773 106.222 79.3094 75.2725 80.4238H22.3782C-3.17439 79.7161 -7.57987 41.9915 15.3873 33.2917C21.8476 -4.04034 67.9554 -12.3075 84.1416 23.1848ZM86.493 53.2703C87.7237 46.8858 83.6353 39.6567 77.2008 38.4613C74.4883 37.9639 72.2084 35.8474 71.2954 32.9434C68.3643 23.5582 60.3251 17.2402 51.2892 17.2194C39.5794 17.2194 30.0743 27.6315 30.0468 40.4268C30.0468 45.0388 26.625 48.7945 22.4192 48.7945C13.433 49.1917 13.4107 63.2687 22.4192 63.6796H75.2636C80.7554 63.6099 85.4915 59.2306 86.4933 53.2703" fill="#79517A"/>
<g style="mix-blend-mode:multiply" opacity="0.4" filter="url(#filter0_f_22_29)">
<path d="M93.6558 36.1547C104.278 51.3701 95.0854 75.4611 75.6435 75.7154H22.7598C18.7894 75.7154 14.8854 74.2287 11.7679 71.5304C-0.0966692 61.2754 4.4925 40.1735 19.6089 37.0338C23.1925 1.3692 67.3292 -7.64851 81.3982 27.0367C86.3542 28.5283 90.6012 31.6552 93.6558 36.1547ZM91.0978 54.1262C92.7791 45.3788 87.1812 35.4714 78.3636 33.8292C77.1332 33.6031 76.1355 32.6766 75.7362 31.4071C72.2146 20.1298 62.547 12.5339 51.6814 12.508C37.2258 12.2935 25.8498 26.1121 26.1404 40.4162C26.1404 42.4394 24.6419 44.0833 22.801 44.0833C8.12451 44.7362 8.10251 67.7232 22.801 68.3874H75.6644C83.2338 68.2922 89.7245 62.2948 91.0978 54.1262Z" fill="#79517A"/>
</g>
<path d="M6.69338 56.7176C6.80797 60.5084 8.65858 64.2648 11.7776 66.4589C13.5244 67.7066 15.6142 68.3806 17.7591 68.3879H18.9943C16.0229 68.4064 13.1388 67.0179 11.1613 64.8183C6.91155 60.1863 6.84257 52.5711 10.9864 47.8498C12.6566 45.9199 14.9937 44.5499 17.5295 44.1904C18.1933 44.0683 18.8743 44.1278 19.5398 44.034C19.9973 43.9433 20.4308 43.7577 20.8125 43.489C21.1942 43.2203 21.5155 42.8746 21.756 42.4739C21.7571 42.4721 21.7584 42.4705 21.7595 42.4687C22.0535 41.9884 22.2394 41.4496 22.304 40.8898C22.3602 40.2989 22.325 39.7011 22.3633 39.1093C22.4439 37.222 22.6996 35.3462 23.1269 33.5064C24.9732 25.4108 30.4606 18.0594 38.0788 14.618L38.0812 14.6169C39.6076 13.9275 41.2018 13.4002 42.8378 13.0438H42.8389C44.494 12.6887 46.1817 12.5092 47.8742 12.5083C45.7827 12.4713 43.6474 12.586 41.6039 13.0438H41.6026C39.9667 13.4002 38.3724 13.9274 36.8461 14.6169L36.8438 14.618C33.5046 16.1292 30.5366 18.4144 28.1343 21.1809C24.9112 24.8798 22.715 29.4403 21.7288 34.2456C21.4129 35.7812 21.2155 37.3388 21.1381 38.9047C21.0894 39.5653 21.1274 40.2309 21.0694 40.8904C21.0048 41.4495 20.8192 41.9878 20.5257 42.4676L20.5213 42.4745C19.9417 43.4267 18.8855 44.0926 17.7597 44.0834C14.6994 44.063 11.7402 45.538 9.75462 47.846C9.32264 48.3442 8.93125 48.8763 8.58421 49.4372C8.43387 49.6817 8.29159 49.9312 8.15736 50.1856C7.10993 52.1979 6.60526 54.4496 6.69338 56.7176Z" fill="url(#paint2_linear_22_29)"/>
<path d="M47.2981 5.1536C60.6729 5.48087 71.7641 14.718 76.3559 27.0371C83.3175 29.0967 88.682 34.5306 91.2924 41.2477C93.187 46.1047 93.5842 51.5233 92.5056 56.6196C90.3475 67.0775 81.5584 75.7117 70.6013 75.7157C71.5753 75.7231 72.6904 75.7232 73.6483 75.6307C75.4737 75.4672 77.2696 75.0627 78.9893 74.4276C86.3452 71.7323 91.7711 64.9416 93.5662 57.388C94.7958 52.3177 94.5409 46.9994 92.832 42.0706C90.6703 35.8712 86.0368 30.4473 79.9427 27.8897C79.1908 27.568 78.372 27.2875 77.591 27.0367C72.9828 14.6755 61.8431 5.43332 48.4243 5.15015H48.419C48.0118 5.1397 47.0003 5.14498 46.5789 5.14384C46.819 5.1443 47.0585 5.14579 47.2981 5.1536Z" fill="url(#paint3_linear_22_29)"/>
<path d="M88.6134 36.1547C99.2357 51.3701 90.043 75.4611 70.601 75.7153H17.7175C13.7471 75.7153 9.84294 74.2287 6.72543 71.5304C-5.1391 61.2754 -0.549813 40.1735 14.5666 37.0338C18.1502 1.36977 62.2864 -7.64795 76.3559 27.0373C81.3119 28.5283 85.5589 31.6552 88.6134 36.1547ZM86.0555 54.1262C87.7368 45.3788 82.1389 35.4713 73.3213 33.8292C72.0908 33.603 71.0931 32.6766 70.6937 31.4071C67.1722 20.1298 57.5049 12.5339 46.6391 12.5079C32.1835 12.2935 20.8074 26.1121 21.098 40.4162C21.098 42.4394 19.5996 44.0833 17.7586 44.0833C3.08208 44.7362 3.06008 67.7232 17.7586 68.3874H70.6219C78.1913 68.2922 84.682 62.2947 86.0555 54.1262Z" fill="#E5B5C9"/>
<defs>
<filter id="filter0_f_22_29" x="2.04239" y="2.17738" width="99.089" height="76.538" filterUnits="userSpaceOnUse" color-interpolation-filters="sRGB">
<feFlood flood-opacity="0" result="BackgroundImageFix"/>
<feBlend mode="normal" in="SourceGraphic" in2="BackgroundImageFix" result="shape"/>
<feGaussianBlur stdDeviation="1.5" result="effect1_foregroundBlur_22_29"/>
</filter>
<linearGradient id="paint0_linear_22_29" x1="61.3172" y1="0.432007" x2="61.3172" y2="80.432" gradientUnits="userSpaceOnUse">
<stop stop-color="#79517A"/>
<stop offset="1" stop-color="#3C3261"/>
</linearGradient>
<linearGradient id="paint1_linear_22_29" x1="61.3172" y1="0.432007" x2="61.3172" y2="80.432" gradientUnits="userSpaceOnUse">
<stop stop-color="#79517A"/>
<stop offset="1" stop-color="#3C3261"/>
</linearGradient>
<linearGradient id="paint2_linear_22_29" x1="50.5079" y1="5.14349" x2="50.5079" y2="75.7186" gradientUnits="userSpaceOnUse">
<stop stop-color="#79517A"/>
<stop offset="0.338542" stop-color="#E5B5C9"/>
</linearGradient>
<linearGradient id="paint3_linear_22_29" x1="50.5079" y1="5.14349" x2="50.5079" y2="75.7186" gradientUnits="userSpaceOnUse">
<stop stop-color="#79517A"/>
<stop offset="0.338542" stop-color="#E5B5C9"/>
</linearGradient>
</defs>
</svg>
