<svg width="133" height="92" viewBox="0 0 133 92" fill="none" xmlns="http://www.w3.org/2000/svg">
<path d="M86.8205 0.0131232C98.8284 0.30463 109.085 8.22977 113.773 19.0554C125.984 23.7888 131.374 37.9325 127.701 50.0696C124.873 59.5609 116.476 66.9924 106.313 66.9929C107.858 66.9833 111.131 67.0569 112.609 66.878C114.906 66.6377 117.147 66.0181 119.241 65.0446C127.944 60.9863 133.075 51.6966 132.999 42.251C133.019 33.1369 128.273 24.1605 120.003 19.9723L120.001 19.9714C119.33 19.6319 118.642 19.3261 117.94 19.0554C115.887 14.3567 112.777 10.1053 108.822 6.82621L108.817 6.82236C104.879 3.55036 100.099 1.26997 95.0394 0.41065C93.9119 0.216617 92.7735 0.0918898 91.6307 0.0371749C90.6346 -0.0265141 87.1404 0.0133146 86.0983 0.00282808C86.3395 0.0031167 86.5798 0.005138 86.8205 0.0131232Z" fill="url(#paint0_linear_41_70)"/>
<path d="M56.1577 47.0316C56.2381 49.3502 57.6291 51.6413 59.8048 52.5525C60.3581 52.7865 60.9475 52.9244 61.5473 52.9603C61.4947 52.9716 65.9171 52.9716 66.0245 52.9699C63.029 52.9892 60.6523 50.3916 60.3641 47.514C60.1129 45.4481 60.8732 43.2586 62.4536 41.8799C63.2684 41.1531 64.2838 40.6884 65.3672 40.5464C65.9942 40.4747 66.6336 40.5266 67.2516 40.3733C68.9553 40.0196 70.4346 38.8821 71.3402 37.4147L71.3418 37.412C71.9486 36.4254 72.3148 35.3104 72.4109 34.1567C72.4572 33.6288 72.4323 33.0966 72.4629 32.5678C72.4926 31.8909 72.5578 31.215 72.6512 30.5446C72.9803 28.2171 73.7056 25.9629 74.7958 23.8795C77.7948 18.1064 83.6957 14.0296 90.3078 14.059C88.9865 14.0708 85.6546 13.9991 84.4077 14.1508C83.0253 14.2967 81.667 14.6167 80.3652 15.1033C74.536 17.2557 70.26 22.6273 68.8551 28.5997C68.5071 30.0543 68.3141 31.5415 68.2794 33.0366C68.3541 35.1815 67.6253 37.3339 66.0288 38.8128C65.1649 39.6356 64.0799 40.19 62.906 40.4085C62.3792 40.5186 61.8385 40.4844 61.3061 40.5335C59.5786 40.7048 58.0268 41.7876 57.1293 43.2506L57.1283 43.2524C56.4335 44.387 56.0954 45.7034 56.1577 47.0316Z" fill="url(#paint1_linear_41_70)"/>
<path d="M113.773 19.0554C136.947 28.2617 132.345 66.0598 106.313 66.9931H61.8228C40.33 66.4004 36.6244 34.8061 55.9426 27.52C61.3765 -3.74558 100.159 -10.6693 113.773 19.0554ZM115.751 44.252C116.786 38.905 113.347 32.8507 107.935 31.8495C105.654 31.4329 103.736 29.6604 102.968 27.2283C100.503 19.3682 93.7408 14.0768 86.1405 14.0594C76.2911 14.0594 68.2961 22.7796 68.273 33.4956C68.273 37.3582 65.3949 40.5036 61.8572 40.5036C54.2988 40.8362 54.2801 52.6257 61.8572 52.9698H106.306C110.925 52.9115 114.909 49.2438 115.751 44.252" fill="#1869FF"/>
<g style="mix-blend-mode:multiply" opacity="0.4" filter="url(#filter0_f_41_70)">
<path d="M121.776 29.9178C130.711 42.6607 122.978 62.8369 106.625 63.0498H62.1438C58.8042 63.0498 55.5204 61.8047 52.8982 59.5449C42.9187 50.9563 46.7787 33.2835 59.4935 30.654C62.5077 0.784891 99.6321 -6.76745 111.466 22.2815C115.634 23.5306 119.207 26.1495 121.776 29.9178ZM119.624 44.9689C121.038 37.6429 116.33 29.3454 108.913 27.9702C107.878 27.7807 107.039 27.0048 106.703 25.9416C103.741 16.4969 95.6096 10.1353 86.4704 10.1136C74.3115 9.93397 64.7428 21.5071 64.9873 33.4868C64.9873 35.1812 63.7269 36.558 62.1785 36.558C49.8337 37.1047 49.8152 56.3564 62.1785 56.9127H106.643C113.01 56.8329 118.469 51.81 119.624 44.9689Z" fill="#1869FF"/>
</g>
<path d="M48.6299 47.1392C48.7263 50.314 50.2829 53.46 52.9063 55.2975C54.3756 56.3425 56.1334 56.9069 57.9375 56.913H58.9765C56.4771 56.9285 54.0513 55.7657 52.388 53.9235C48.8134 50.0443 48.7554 43.6665 52.2409 39.7124C53.6457 38.0961 55.6115 36.9488 57.7444 36.6476C58.3027 36.5454 58.8755 36.5952 59.4353 36.5167C59.8202 36.4407 60.1848 36.2853 60.5058 36.0602C60.8269 35.8352 61.0972 35.5456 61.2994 35.2101C61.3004 35.2086 61.3014 35.2072 61.3024 35.2057C61.5497 34.8035 61.706 34.3522 61.7604 33.8834C61.8076 33.3885 61.778 32.8879 61.8102 32.3922C61.878 30.8116 62.0931 29.2407 62.4525 27.6998C64.0054 20.9197 68.621 14.763 75.0289 11.8808L75.0309 11.8798C76.3148 11.3024 77.6557 10.8609 79.0318 10.5624H79.0327C80.4248 10.265 81.8444 10.1146 83.268 10.1139C81.5088 10.0829 79.7127 10.179 77.9939 10.5624H77.9928C76.6168 10.8609 75.2759 11.3024 73.992 11.8798L73.9901 11.8808C71.1815 13.1464 68.6849 15.0603 66.6644 17.3772C63.9533 20.4751 62.106 24.2945 61.2765 28.3189C61.0109 29.6049 60.8448 30.9094 60.7797 32.2209C60.7387 32.7742 60.7707 33.3316 60.7219 33.8839C60.6675 34.3522 60.5115 34.803 60.2646 35.2048L60.2609 35.2106C59.7734 36.0081 58.885 36.5658 57.938 36.5581C55.3639 36.5409 52.8749 37.7762 51.2048 39.7092C50.8415 40.1264 50.5122 40.5721 50.2203 41.0419C50.0939 41.2466 49.9742 41.4555 49.8613 41.6687C48.9803 43.3539 48.5558 45.2397 48.6299 47.1392Z" fill="url(#paint2_linear_41_70)"/>
<path d="M82.7835 3.95433C94.0333 4.22843 103.362 11.9645 107.225 22.2817C113.08 24.0066 117.592 28.5576 119.788 34.1831C121.382 38.2508 121.716 42.7889 120.808 47.0571C118.993 55.8156 111.6 63.0467 102.384 63.0501C103.203 63.0562 104.141 63.0563 104.947 62.9789C106.483 62.842 107.993 62.5032 109.44 61.9713C115.627 59.714 120.191 54.0268 121.701 47.7007C122.735 43.4542 122.52 39.0002 121.083 34.8723C119.265 29.6803 115.367 25.1378 110.241 22.9958C109.609 22.7264 108.92 22.4915 108.263 22.2815C104.387 11.9289 95.0176 4.1886 83.7307 3.95145H83.7263C83.3837 3.94269 82.533 3.94712 82.1785 3.94616C82.3805 3.94654 82.5819 3.94779 82.7835 3.95433Z" fill="url(#paint3_linear_41_70)"/>
<path d="M117.535 29.9178C126.469 42.6607 118.737 62.8369 102.384 63.0498H57.9026C54.563 63.0498 51.2791 61.8047 48.6569 59.5449C38.6774 50.9563 42.5375 33.2835 55.2523 30.654C58.2665 0.785375 95.3904 -6.76696 107.225 22.2819C111.393 23.5306 114.965 26.1495 117.535 29.9178ZM115.383 44.9689C116.797 37.6429 112.089 29.3454 104.672 27.9702C103.637 27.7807 102.798 27.0048 102.462 25.9416C99.5 16.4969 91.3686 10.1353 82.2292 10.1136C70.0702 9.93397 60.5015 21.5071 60.746 33.4868C60.746 35.1812 59.4856 36.558 57.9372 36.558C45.5924 37.1047 45.5739 56.3564 57.9372 56.9127H102.402C108.768 56.8329 114.228 51.81 115.383 44.9689Z" fill="white"/>
<path d="M54 15L102.497 75.75H5.50258L54 15Z" fill="#5A80CB"/>
<path d="M52.0977 12.0157C66.3737 12.3637 78.5677 21.8266 84.1417 34.7528C98.6587 40.4046 105.067 57.2925 100.7 71.7846C97.3378 83.1174 87.3544 91.9909 75.2717 91.9916C77.1088 91.9801 81.0002 92.068 82.7573 91.8543C85.4882 91.5673 88.1526 90.8276 90.6417 89.6651C100.989 84.8194 107.089 73.7273 106.999 62.449C107.023 51.5664 101.381 40.8483 91.5478 35.8475L91.5456 35.8465C90.7477 35.441 89.9301 35.076 89.0957 34.7528C86.6549 29.1423 82.9573 24.0661 78.2545 20.1507L78.2492 20.1461C73.5671 16.2392 67.8839 13.5164 61.869 12.4903C60.5286 12.2586 59.1752 12.1097 57.8165 12.0444C56.6322 11.9683 52.478 12.0159 51.2391 12.0034C51.5259 12.0037 51.8116 12.0061 52.0977 12.0157Z" fill="url(#paint4_linear_41_70)"/>
<path d="M15.643 68.1572C15.7386 70.9257 17.3923 73.6613 19.979 74.7492C20.6369 75.0286 21.3375 75.1933 22.0507 75.2362C21.9881 75.2497 27.2459 75.2497 27.3736 75.2477C23.8123 75.2706 20.9866 72.169 20.644 68.7332C20.3453 66.2664 21.2493 63.6521 23.1282 62.0058C24.0968 61.138 25.304 60.5831 26.5921 60.4137C27.3376 60.328 28.0977 60.39 28.8324 60.2069C30.858 59.7846 32.6167 58.4263 33.6934 56.6743L33.6952 56.6711C34.4167 55.4931 34.852 54.1616 34.9662 52.7841C35.0213 52.1538 34.9917 51.5183 35.0281 50.8869C35.0634 50.0787 35.141 49.2717 35.252 48.4711C35.6432 45.6921 36.5055 43.0005 37.8016 40.5128C41.3672 33.6195 48.3826 28.7518 56.2437 28.7869C54.6729 28.8009 50.7115 28.7153 49.2291 28.8965C47.5856 29.0707 45.9707 29.4528 44.423 30.0338C37.4928 32.6038 32.4091 39.0177 30.7388 46.149C30.3251 47.8858 30.0956 49.6615 30.0544 51.4467C30.1432 54.0077 29.2768 56.5778 27.3787 58.3436C26.3516 59.3261 25.0617 59.9881 23.666 60.2489C23.0397 60.3805 22.3969 60.3396 21.7639 60.3983C19.7101 60.6027 17.8652 61.8956 16.7982 63.6425L16.7969 63.6447C15.9709 64.9994 15.569 66.5712 15.643 68.1572Z" fill="url(#paint5_linear_41_70)"/>
<path d="M84.1417 34.7528C111.693 45.7453 106.222 90.8774 75.2725 91.9918H22.3783C-3.17436 91.2841 -7.57984 53.5595 15.3873 44.8597C21.8476 7.52766 67.9554 -0.739476 84.1417 34.7528ZM86.493 64.8382C87.7237 58.4538 83.6353 51.2247 77.2008 50.0293C74.4883 49.5319 72.2084 47.4154 71.2954 44.5114C68.3644 35.1262 60.3252 28.8082 51.2893 28.7874C39.5794 28.7874 30.0743 39.1995 30.0468 51.9948C30.0468 56.6068 26.6251 60.3625 22.4192 60.3625C13.433 60.7597 13.4108 74.8366 22.4192 75.2475H75.2637C80.7554 75.1779 85.4915 70.7986 86.4934 64.8382" fill="#1869FF"/>
<g style="mix-blend-mode:multiply" opacity="0.4" filter="url(#filter1_f_41_70)">
<path d="M93.6558 47.7227C104.278 62.9381 95.0854 87.0291 75.6435 87.2833H22.7598C18.7894 87.2833 14.8854 85.7967 11.7679 83.0984C-0.0966387 72.8434 4.49253 51.7415 19.609 48.6017C23.1925 12.9372 67.3293 3.91947 81.3983 38.6047C86.3542 40.0963 90.6012 43.2232 93.6558 47.7227ZM91.0979 65.6942C92.7791 56.9468 87.1812 47.0393 78.3636 45.3972C77.1333 45.171 76.1355 44.2446 75.7362 42.9751C72.2147 31.6978 62.547 24.1019 51.6815 24.0759C37.2259 23.8615 25.8498 37.6801 26.1404 51.9842C26.1404 54.0074 24.6419 55.6513 22.8011 55.6513C8.12454 56.3042 8.10254 79.2912 22.8011 79.9554H75.6645C83.2339 79.8602 89.7245 73.8627 91.0979 65.6942Z" fill="#1869FF"/>
</g>
<path d="M6.69338 68.2856C6.80797 72.0764 8.65858 75.8328 11.7776 78.0269C13.5244 79.2746 15.6142 79.9486 17.7591 79.9559H18.9943C16.0229 79.9744 13.1388 78.5859 11.1613 76.3863C6.91155 71.7543 6.84257 64.1391 10.9864 59.4178C12.6566 57.4879 14.9937 56.1179 17.5295 55.7584C18.1933 55.6363 18.8743 55.6958 19.5398 55.602C19.9973 55.5113 20.4308 55.3257 20.8125 55.057C21.1942 54.7883 21.5155 54.4425 21.756 54.0419C21.7571 54.0401 21.7584 54.0385 21.7595 54.0366C22.0535 53.5564 22.2394 53.0176 22.304 52.4578C22.3602 51.8669 22.325 51.2691 22.3633 50.6773C22.4439 48.7899 22.6996 46.9142 23.1269 45.0744C24.9732 36.9788 30.4606 29.6274 38.0788 26.186L38.0812 26.1849C39.6076 25.4954 41.2018 24.9682 42.8378 24.6118H42.8389C44.494 24.2567 46.1817 24.0772 47.8742 24.0763C45.7827 24.0393 43.6474 24.154 41.6039 24.6118H41.6026C39.9667 24.9682 38.3724 25.4954 36.8461 26.1849L36.8438 26.186C33.5046 27.6972 30.5366 29.9824 28.1343 32.7489C24.9112 36.4478 22.715 41.0083 21.7288 45.8136C21.4129 47.3491 21.2155 48.9068 21.1381 50.4727C21.0894 51.1333 21.1274 51.7989 21.0694 52.4584C21.0048 53.0175 20.8192 53.5558 20.5257 54.0356L20.5213 54.0425C19.9417 54.9947 18.8855 55.6606 17.7597 55.6514C14.6994 55.631 11.7402 57.106 9.75462 59.414C9.32264 59.9122 8.93125 60.4443 8.58421 61.0052C8.43387 61.2497 8.29159 61.4992 8.15736 61.7536C7.10993 63.7659 6.60526 66.0176 6.69338 68.2856Z" fill="url(#paint6_linear_41_70)"/>
<path d="M47.2981 16.7216C60.6729 17.0489 71.7641 26.286 76.3559 38.6051C83.3175 40.6646 88.682 46.0986 91.2924 52.8157C93.187 57.6726 93.5842 63.0912 92.5056 68.1876C90.3475 78.6455 81.5584 87.2797 70.6013 87.2837C71.5753 87.291 72.6904 87.2912 73.6483 87.1987C75.4737 87.0352 77.2696 86.6307 78.9893 85.9956C86.3452 83.3003 91.7711 76.5096 93.5662 68.956C94.7958 63.8857 94.5409 58.5674 92.832 53.6386C90.6703 47.4392 86.0368 42.0153 79.9427 39.4577C79.1908 39.136 78.372 38.8555 77.591 38.6047C72.9828 26.2435 61.8431 17.0013 48.4243 16.7181H48.419C48.0118 16.7077 47.0003 16.713 46.5789 16.7118C46.819 16.7123 47.0585 16.7138 47.2981 16.7216Z" fill="url(#paint7_linear_41_70)"/>
<path d="M88.6134 47.7227C99.2357 62.9381 90.043 87.0291 70.601 87.2833H17.7175C13.7471 87.2833 9.84294 85.7966 6.72543 83.0984C-5.1391 72.8433 -0.549813 51.7415 14.5666 48.6017C18.1502 12.9378 62.2864 3.92004 76.3559 38.6053C81.3119 40.0962 85.5589 43.2232 88.6134 47.7227ZM86.0555 65.6942C87.7368 56.9468 82.1389 47.0393 73.3213 45.3972C72.0908 45.171 71.0931 44.2446 70.6937 42.9751C67.1722 31.6978 57.5049 24.1019 46.6391 24.0759C32.1835 23.8615 20.8074 37.6801 21.098 51.9842C21.098 54.0074 19.5996 55.6513 17.7586 55.6513C3.08208 56.3041 3.06008 79.2912 17.7586 79.9554H70.6219C78.1913 79.8602 84.682 73.8627 86.0555 65.6942Z" fill="white"/>
<defs>
<filter id="filter0_f_41_70" x="44.2413" y="0.974243" width="84.2992" height="65.0756" filterUnits="userSpaceOnUse" color-interpolation-filters="sRGB">
<feFlood flood-opacity="0" result="BackgroundImageFix"/>
<feBlend mode="normal" in="SourceGraphic" in2="BackgroundImageFix" result="shape"/>
<feGaussianBlur stdDeviation="1.5" result="effect1_foregroundBlur_41_70"/>
</filter>
<filter id="filter1_f_41_70" x="2.04242" y="13.7454" width="99.0891" height="76.538" filterUnits="userSpaceOnUse" color-interpolation-filters="sRGB">
<feFlood flood-opacity="0" result="BackgroundImageFix"/>
<feBlend mode="normal" in="SourceGraphic" in2="BackgroundImageFix" result="shape"/>
<feGaussianBlur stdDeviation="1.5" result="effect1_foregroundBlur_41_70"/>
</filter>
<linearGradient id="paint0_linear_41_70" x1="94.5752" y1="0" x2="94.5752" y2="67" gradientUnits="userSpaceOnUse">
<stop stop-color="#1869FF"/>
<stop offset="1" stop-color="#0440AD"/>
</linearGradient>
<linearGradient id="paint1_linear_41_70" x1="94.5752" y1="0" x2="94.5752" y2="67" gradientUnits="userSpaceOnUse">
<stop stop-color="#1869FF"/>
<stop offset="1" stop-color="#0440AD"/>
</linearGradient>
<linearGradient id="paint2_linear_41_70" x1="85.4832" y1="3.94587" x2="85.4832" y2="63.0525" gradientUnits="userSpaceOnUse">
<stop stop-color="#81ADFF"/>
<stop offset="1" stop-color="white" stop-opacity="0.2"/>
</linearGradient>
<linearGradient id="paint3_linear_41_70" x1="85.4832" y1="3.94587" x2="85.4832" y2="63.0525" gradientUnits="userSpaceOnUse">
<stop stop-color="#81ADFF"/>
<stop offset="1" stop-color="white" stop-opacity="0.2"/>
</linearGradient>
<linearGradient id="paint4_linear_41_70" x1="61.3172" y1="12" x2="61.3172" y2="92" gradientUnits="userSpaceOnUse">
<stop stop-color="#1869FF"/>
<stop offset="1" stop-color="#0440AD"/>
</linearGradient>
<linearGradient id="paint5_linear_41_70" x1="61.3172" y1="12" x2="61.3172" y2="92" gradientUnits="userSpaceOnUse">
<stop stop-color="#1869FF"/>
<stop offset="1" stop-color="#0440AD"/>
</linearGradient>
<linearGradient id="paint6_linear_41_70" x1="50.5079" y1="16.7115" x2="50.5079" y2="87.2866" gradientUnits="userSpaceOnUse">
<stop stop-color="#81ADFF"/>
<stop offset="1" stop-color="white" stop-opacity="0.2"/>
</linearGradient>
<linearGradient id="paint7_linear_41_70" x1="50.5079" y1="16.7115" x2="50.5079" y2="87.2866" gradientUnits="userSpaceOnUse">
<stop stop-color="#81ADFF"/>
<stop offset="1" stop-color="white" stop-opacity="0.2"/>
</linearGradient>
</defs>
</svg>
