<svg width="94" height="98" viewBox="0 0 94 98" fill="none" xmlns="http://www.w3.org/2000/svg">
<path d="M13.4182 48.8496C13.4675 63.0097 22.1358 76.9358 35.9866 81.1927H40.3035C26.8169 77.0492 18.2202 63.7142 17.7577 49.925C17.1859 35.08 25.7823 20.4138 40.3035 15.8465H35.987C21.8508 20.2815 13.2722 34.3773 13.4182 48.8496Z" fill="url(#paint0_linear_41_76)"/>
<path d="M76.265 48.3805C76.2542 40.1056 74.3001 31.8206 70.4682 24.4777H66.1513C73.8822 39.2418 73.8585 57.7307 66.1751 72.5087H70.4919C74.3368 65.0914 76.2844 56.7273 76.265 48.3805Z" fill="url(#paint1_linear_41_76)"/>
<path d="M45.284 0.0134977C45.5447 0.0194883 45.8051 0.0268688 46.0648 0.0377519H46.0691C54.9199 0.37912 63.5453 3.77125 70.433 9.30793L70.4367 9.311C90.111 25.0801 94.2312 54.5069 81.0556 75.7043C73.1664 88.4855 59.5663 97.0705 44.3602 97.0382C47.0297 97.03 50.5797 97.1181 53.1895 96.7886C56.1841 96.4546 59.1324 95.7894 61.9803 94.8052C74.9301 90.3658 85.0066 79.562 89.7201 66.8402L89.7208 66.8383C97.2391 46.7619 91.675 22.86 74.7541 9.311L74.7503 9.30793C67.8627 3.77125 59.2372 0.37902 50.3865 0.0377519H50.3822C49.2012 -0.0230534 45.5892 0.00980205 44.3532 0.00211403C44.6639 0.00221388 44.9736 0.0066084 45.284 0.0134977Z" fill="url(#paint2_linear_41_76)"/>
<path d="M44.3526 0.00202179C103.169 2.6484 103.123 94.4127 44.3601 97.0384C41.1078 96.9497 37.8791 96.4571 34.7482 95.5721H34.1783C-11.5467 82.9249 -10.2802 12.7342 34.6111 1.10031H35.133C38.154 0.382437 41.2475 0.0139258 44.3526 0.00202179ZM57.5351 57.1071C61.8085 39.2179 52.1628 20.866 35.9869 15.8466C6.1581 25.4582 5.91837 71.4625 35.9869 81.1927C46.5314 77.9178 54.7577 68.75 57.5351 57.1071ZM73.64 59.3811C77.5325 46.7494 74.2267 33.3241 66.1517 24.4775C73.9555 39.4418 73.8012 57.7996 66.1755 72.5087C69.5992 68.7352 72.1481 64.2528 73.6404 59.3811" fill="#79517A"/>
<g style="mix-blend-mode:multiply" opacity="0.4" filter="url(#filter0_f_41_76)">
<path d="M82.2715 31.2287C93.0525 58.4298 75.7469 92.6193 44.8929 92.9454C41.8511 92.8563 38.8331 92.3794 35.9121 91.5263L35.1544 91.4789C13.9782 85.8912 1.37994 62.1584 5.01578 40.9758C7.40376 24.5165 19.2794 9.3211 35.5658 5.19502H36.0594C55.7568 0.151682 75.338 12.6324 82.2715 31.2287ZM36.8273 85.3395C59.6253 78.8931 69.4297 49.9374 58.0362 29.2901C53.5033 20.7434 45.7611 14.1269 36.504 11.6087C19.1498 16.0396 7.7704 35.9109 10.5586 53.986C12.3173 68.3028 22.4175 81.6854 36.504 85.4324L36.8273 85.3395V85.3395ZM77.7 60.6893C83.7262 42.1065 74.6913 19.2613 55.8758 12.4624L54.6346 14.8463C73.4035 32.3033 73.398 64.7566 54.6346 82.1944L55.8758 84.5783C66.3506 80.7584 74.4397 71.4627 77.7 60.6893Z" fill="#79517A"/>
</g>
<path d="M5.83312 50.103C6.38506 65.9831 16.4294 81.1178 32.1105 85.4324H33.1866C22.3413 82.4741 13.8674 74.0548 9.776 63.711C3.99221 49.3222 6.98512 31.9187 17.8914 20.7524L17.8935 20.7502C22.0814 16.4425 27.3832 13.2013 33.1866 11.6092H32.1105C22.9564 14.1009 15.2584 20.6851 10.758 28.9659C7.23665 35.3904 5.55795 42.7887 5.83312 50.103Z" fill="url(#paint3_linear_41_76)"/>
<path d="M64.2929 45.992C65.0039 59.3571 60.0713 72.9829 50.2409 82.1944L51.4823 84.5783H52.5584L51.3172 82.1944C52.3534 81.2189 53.3364 80.189 54.2744 79.1192L54.2754 79.118C70.1525 60.8446 68.9961 31.5112 51.3172 14.8463L52.5584 12.4623H51.4823L50.2409 14.8463C58.7774 22.8629 63.7297 34.3433 64.2929 45.992Z" fill="url(#paint4_linear_41_76)"/>
<path d="M41.3687 4.10602C54.6256 4.3762 66.4859 11.8177 73.6027 22.8317C80.2418 33.0359 82.504 45.8459 80.19 57.762C76.5313 77.032 60.6894 92.9225 40.4993 92.9454C52.2059 93.2806 63.3324 87.9902 70.9493 79.1569C81.2784 67.3406 84.5939 50.4063 80.3447 35.3962V35.3955C76.3862 21.2165 65.5593 9.14856 51.1283 5.3344C47.6669 4.40585 44.0681 4.03264 40.488 4.09544C40.7821 4.09524 41.075 4.09983 41.3687 4.10602Z" fill="url(#paint5_linear_41_76)"/>
<path d="M77.8777 31.2287C88.6587 58.4298 71.353 92.6193 40.4991 92.9454C37.4573 92.8563 34.4393 92.3794 31.5183 91.5263L30.7606 91.4789C9.58445 85.8912 -3.01392 62.1584 0.621916 40.9758C3.01 24.5165 14.8856 9.3211 31.1719 5.19502H31.6654C51.3631 0.151682 70.9445 12.6324 77.8777 31.2287ZM32.4335 85.3395C55.2315 78.8931 65.036 49.9374 53.6424 29.2901C49.1095 20.7434 41.3672 14.1269 32.1103 11.6087C14.7559 16.0396 3.37654 35.9109 6.1647 53.986C7.92346 68.3028 18.0237 81.6854 32.1103 85.4324L32.4335 85.3395V85.3395ZM73.3062 60.6893C79.3323 42.1065 70.2975 19.2613 51.4821 12.4624L50.2407 14.8463C69.0097 32.3033 69.0042 64.7566 50.2407 82.1944L51.4821 84.5783C61.9569 80.7584 70.0459 71.4627 73.3062 60.6893Z" fill="#E5B5C9"/>
<defs>
<filter id="filter0_f_41_76" x="1.39386" y="1.06981" width="87.0927" height="94.8756" filterUnits="userSpaceOnUse" color-interpolation-filters="sRGB">
<feFlood flood-opacity="0" result="BackgroundImageFix"/>
<feBlend mode="normal" in="SourceGraphic" in2="BackgroundImageFix" result="shape"/>
<feGaussianBlur stdDeviation="1.5" result="effect1_foregroundBlur_41_76"/>
</filter>
<linearGradient id="paint0_linear_41_76" x1="53.2099" y1="0" x2="53.2099" y2="97.0431" gradientUnits="userSpaceOnUse">
<stop stop-color="#79517A"/>
<stop offset="1" stop-color="#3C3261"/>
</linearGradient>
<linearGradient id="paint1_linear_41_76" x1="53.2099" y1="0" x2="53.2099" y2="97.0431" gradientUnits="userSpaceOnUse">
<stop stop-color="#79517A"/>
<stop offset="1" stop-color="#3C3261"/>
</linearGradient>
<linearGradient id="paint2_linear_41_76" x1="53.2099" y1="0" x2="53.2099" y2="97.0431" gradientUnits="userSpaceOnUse">
<stop stop-color="#79517A"/>
<stop offset="1" stop-color="#3C3261"/>
</linearGradient>
<linearGradient id="paint3_linear_41_76" x1="43.9756" y1="4.0887" x2="43.9756" y2="92.9604" gradientUnits="userSpaceOnUse">
<stop stop-color="#79517A"/>
<stop offset="0.322917" stop-color="#E5B5C9"/>
</linearGradient>
<linearGradient id="paint4_linear_41_76" x1="43.9756" y1="4.0887" x2="43.9756" y2="92.9604" gradientUnits="userSpaceOnUse">
<stop stop-color="#79517A"/>
<stop offset="0.322917" stop-color="#E5B5C9"/>
</linearGradient>
<linearGradient id="paint5_linear_41_76" x1="43.9756" y1="4.0887" x2="43.9756" y2="92.9604" gradientUnits="userSpaceOnUse">
<stop stop-color="#79517A"/>
<stop offset="0.322917" stop-color="#E5B5C9"/>
</linearGradient>
</defs>
</svg>
