<svg width="94" height="107" viewBox="0 0 94 107" fill="none" xmlns="http://www.w3.org/2000/svg">
<path d="M93.2878 25.2643C93.1942 22.4125 91.3852 19.5939 88.6319 18.6633L88.6264 18.6616C88.079 18.4743 87.5077 18.3661 86.9298 18.3404C86.8358 18.3352 86.7417 18.3321 86.6473 18.3325H82.3304C86.1996 18.3303 89.02 21.8949 88.9788 25.6112C89.022 29.3261 86.1963 32.8904 82.3304 32.8887C82.5472 32.8818 87.0032 32.9059 87.0761 32.872C87.8204 32.8195 88.5489 32.6321 89.2261 32.319C91.8793 31.1023 93.4423 28.1337 93.2878 25.2643Z" fill="url(#paint0_linear_41_142)"/>
<path d="M84.9169 43.5924C84.8235 40.7406 83.0139 37.9225 80.2608 36.992C80.259 36.9913 80.2571 36.9908 80.2552 36.9902C79.7081 36.8029 79.1371 36.6947 78.5593 36.669C78.4653 36.6638 78.3709 36.6607 78.2765 36.6611H73.9596C77.8282 36.6589 80.6491 40.2231 80.608 43.9388C80.6511 47.6537 77.8257 51.2192 73.9596 51.2174H78.2765C78.7473 51.2161 79.2164 51.1613 79.6748 51.054C81.3897 50.6582 82.8706 49.4965 83.7864 48.0081C84.596 46.6822 84.9898 45.1442 84.9169 43.5924Z" fill="url(#paint1_linear_41_142)"/>
<path d="M63.986 61.9213C63.8921 59.19 62.2396 56.4874 59.6646 55.4491C59.0412 55.1932 58.3796 55.0424 57.7069 55.0028C57.7445 54.9781 53.1506 54.9979 53.0287 54.9917C56.8959 54.9892 59.7183 58.5528 59.6771 62.2673C59.7204 65.9822 56.8949 69.5478 53.0287 69.546H57.3455C57.8163 69.5448 58.2855 69.49 58.7439 69.3827C60.4588 68.9869 61.9397 67.8251 62.8556 66.3366C63.6651 65.0109 64.0589 63.473 63.986 61.9213Z" fill="url(#paint2_linear_41_142)"/>
<path d="M51.427 80.2529C51.3334 77.4006 49.5235 74.5817 46.7699 73.6512L46.7642 73.6492C46.2169 73.462 45.6456 73.3538 45.0677 73.328C44.9738 73.3229 44.8795 73.3199 44.7853 73.3203H40.4685C44.3376 73.3179 47.1595 76.8831 47.1181 80.5989C47.1611 84.3131 44.3325 87.8758 40.4685 87.8739C40.6852 87.867 45.1411 87.891 45.2141 87.8571C45.9586 87.8046 46.6873 87.6172 47.3648 87.304C50.0171 86.0882 51.5818 83.1217 51.427 80.2529Z" fill="url(#paint3_linear_41_142)"/>
<path d="M47.2402 98.5808C47.1455 95.5013 45.0255 92.4744 41.9417 91.7975C41.5017 91.6996 41.0523 91.6497 40.6016 91.6489H36.2847C36.7354 91.6501 37.1847 91.6999 37.6248 91.7975C41.258 92.6162 43.3942 96.4743 42.8537 100.04C42.4286 103.325 39.7052 106.222 36.2847 106.205H40.6016C41.0722 106.204 41.5412 106.15 41.9994 106.042C43.7126 105.647 45.192 104.486 46.1079 103C46.1087 102.999 46.1094 102.998 46.1101 102.997C46.9196 101.671 47.3132 100.133 47.2402 98.5808Z" fill="url(#paint4_linear_41_142)"/>
<path d="M76.5436 6.93604C76.4499 4.20389 74.7978 1.4999 72.2218 0.461018C71.5984 0.205105 70.9369 0.0542714 70.2641 0.0146916C70.3251 -0.0173585 65.6965 0.0147076 65.5858 0.00362485C69.4548 0.00112874 72.2761 3.56686 72.2348 7.28227C72.2779 10.9976 69.452 14.5616 65.5858 14.5599H69.9027C70.3736 14.5587 70.8428 14.5039 71.3013 14.3966C73.0162 14.0011 74.4975 12.839 75.4135 11.3513C76.2231 10.0256 76.6167 8.4877 76.5436 6.93604Z" fill="url(#paint5_linear_41_142)"/>
<path d="M82.3305 18.3325C91.1334 18.7181 91.1626 32.4882 82.3305 32.8884H19.5391C10.7371 32.5018 10.7091 18.7327 19.5391 18.3325H82.3305Z" fill="#79517A"/>
<path d="M73.9596 36.6612C77.6265 36.6612 80.608 39.9249 80.608 43.9388C80.608 47.9526 77.6265 51.2174 73.9596 51.2174H36.2847C27.4748 50.8275 27.4578 37.058 36.2847 36.6608L73.9596 36.6612Z" fill="#79517A"/>
<path d="M53.0288 54.9917C56.6956 54.9917 59.6772 58.256 59.6772 62.2674C59.6772 66.2811 56.6956 69.546 53.0288 69.546H27.911C24.2441 69.546 21.2625 66.2811 21.2625 62.2674C21.2625 58.256 24.2441 54.9917 27.911 54.9917H53.0288Z" fill="#79517A"/>
<path d="M40.4687 73.3203C49.2823 73.7124 49.2935 87.4776 40.4687 87.8742H19.539C10.7247 87.4812 10.7213 73.7157 19.539 73.3203H40.4687Z" fill="#79517A"/>
<path d="M36.2848 91.6488C45.0995 92.0434 45.101 105.811 36.2848 106.205H27.911C19.0937 105.812 19.0926 92.0426 27.911 91.6488H36.2848Z" fill="#79517A"/>
<path d="M72.2346 7.28225C72.2346 11.296 69.2531 14.5598 65.5856 14.5598H6.98127C3.31438 14.5598 0.331665 11.2961 0.331665 7.28225C0.331665 3.2684 3.31438 0.00360109 6.98127 0.00360109H65.5859C69.2533 0.00330156 72.2346 3.2684 72.2346 7.28225Z" fill="#79517A"/>
<g style="mix-blend-mode:multiply" opacity="0.4" filter="url(#filter0_f_41_142)">
<path d="M82.6529 22.4265C86.4945 22.5907 86.5268 28.6151 82.6529 28.7952H19.8607C18.2567 28.7952 16.9513 27.3669 16.9513 25.6102C16.9513 23.8535 18.2567 22.426 19.8607 22.426L82.6529 22.4265Z" fill="#79517A"/>
<path d="M74.2803 40.7559C78.1304 40.9231 78.1473 46.9483 74.2803 47.1241H36.6051C35.0011 47.1241 33.6967 45.6963 33.6967 43.9391C33.6967 42.1818 35.0011 40.7555 36.6051 40.7555L74.2803 40.7559Z" fill="#79517A"/>
<path d="M53.3503 59.0847C57.203 59.2551 57.2143 65.2782 53.3503 65.4541H28.2333C26.6294 65.4541 25.3239 64.0252 25.3239 62.2691C25.3239 60.513 26.6294 59.0841 28.2333 59.0841L53.3503 59.0847Z" fill="#79517A"/>
<path d="M40.7919 77.4135C42.3958 77.4135 43.7013 78.8419 43.7013 80.5985C43.7013 82.3552 42.3958 83.7836 40.7919 83.7836H19.8609C16.0069 83.6126 15.9979 77.5892 19.8609 77.4142L40.7919 77.4135Z" fill="#79517A"/>
<path d="M36.6051 95.7428C40.4623 95.914 40.4651 101.938 36.6051 102.111H28.2333C26.6294 102.111 25.3239 100.683 25.3239 98.927C25.3239 97.1712 26.6294 95.7428 28.2333 95.7428H36.6051Z" fill="#79517A"/>
<path d="M68.818 7.28235C68.818 9.03811 67.5127 10.4674 65.9087 10.4674H7.30299C5.69859 10.4674 4.39355 9.03851 4.39355 7.28235C4.39355 5.52618 5.69859 4.09732 7.30299 4.09732H65.9087C67.5127 4.09772 68.818 5.52608 68.818 7.28235Z" fill="#79517A"/>
</g>
<path d="M82.2408 25.4593C82.2358 25.3544 82.2262 25.2502 82.2134 25.1461C82.1904 24.9817 82.1564 24.8191 82.1117 24.6592C81.9605 24.1276 81.6766 23.6432 81.2868 23.2514C81.1195 23.0861 80.9336 22.9408 80.7327 22.8185C80.6755 22.7841 80.6167 22.7525 80.5578 22.7214C80.4428 22.6641 80.3244 22.6139 80.2033 22.571H80.2016C79.6898 22.3657 78.8039 22.4384 78.2593 22.4269C80.7207 22.4607 81.9123 25.4299 80.6696 27.3919C80.1649 28.2222 79.2431 28.804 78.2593 28.7956C78.5189 28.7897 79.4307 28.8132 79.6704 28.7738C80.5291 28.6715 81.2941 28.1258 81.7428 27.3959L81.7452 27.3924L81.7459 27.3913C82.0998 26.811 82.2721 26.1382 82.2408 25.4593Z" fill="url(#paint6_linear_41_142)"/>
<path d="M73.8687 43.788C73.8566 43.518 73.8135 43.2504 73.7402 42.9902L73.7396 42.9879C73.5884 42.4566 73.3047 41.9724 72.9151 41.5807C72.8501 41.517 72.7827 41.4561 72.7131 41.3981C72.6017 41.3069 72.4841 41.2235 72.3612 41.1485C72.3595 41.1474 72.3577 41.1466 72.3561 41.1455C72.1899 41.0467 72.0142 40.9648 71.8316 40.9011L71.8297 40.9005C71.5678 40.8119 71.294 40.7635 71.0177 40.7568C70.9677 40.7552 33.3419 40.7568 33.2877 40.7568H69.8867C70.0454 40.7575 70.2037 40.7718 70.3599 40.7995C70.9716 40.915 71.5284 41.2284 71.9444 41.6915C73.6917 43.5865 72.6075 47.0667 69.8867 47.125C70.2019 47.1174 71.0862 47.1493 71.3827 47.0914C72.2102 46.9646 72.9386 46.4293 73.3732 45.7227C73.7277 45.1417 73.9003 44.4679 73.8687 43.788Z" fill="url(#paint7_linear_41_142)"/>
<path d="M52.9386 62.1178C52.9078 61.2884 52.5674 60.5007 51.9845 59.9099L51.9815 59.9068C51.6761 59.6033 51.3067 59.3719 50.9005 59.2294L50.899 59.2288C50.7761 59.1879 50.6508 59.1549 50.5237 59.13C50.1924 59.0553 49.3046 59.093 48.9566 59.0847C49.255 59.0856 49.5511 59.1357 49.8332 59.2328C51.3608 59.7535 52.1585 61.5492 51.7722 63.0721C51.4842 64.3663 50.3191 65.4699 48.9565 65.454C49.2161 65.4481 50.1279 65.4717 50.3677 65.4322C51.2284 65.3297 51.9941 64.7819 52.4431 64.0507V64.05C52.7973 63.4698 52.9699 62.7969 52.9386 62.1178Z" fill="url(#paint8_linear_41_142)"/>
<path d="M40.3802 80.4466C40.3681 80.1759 40.3247 79.9074 40.2511 79.6466C40.0994 79.1136 39.8145 78.6281 39.4232 78.2356C39.361 78.1746 39.296 78.1171 39.2304 78.0606C39.2284 78.0588 39.2262 78.0575 39.2241 78.0557C38.9622 77.8387 38.6636 77.6703 38.3424 77.5583L38.3407 77.5578C37.8288 77.3525 36.9429 77.425 36.3983 77.4135C38.0697 77.3977 39.3397 78.9928 39.3076 80.5985C39.3397 82.2029 38.0695 83.7998 36.3983 83.7836C36.539 83.7813 37.5486 83.7904 37.6619 83.7763C38.2876 83.7282 38.8785 83.4696 39.3382 83.0424C39.5482 82.848 39.7313 82.6264 39.8827 82.3835L39.8847 82.3804L39.8852 82.3796C40.2394 81.7991 40.4118 81.1259 40.3802 80.4466Z" fill="url(#paint9_linear_41_142)"/>
<path d="M36.1934 98.7754C36.1653 98.0535 35.9046 97.3601 35.4502 96.7985C35.2345 96.5359 34.9761 96.3116 34.6859 96.1347C34.6842 96.1336 34.6823 96.1329 34.6807 96.1318C34.514 96.0327 34.3378 95.9506 34.1546 95.8868C33.6423 95.6817 32.7568 95.754 32.2114 95.7425C33.8881 95.7302 35.1495 97.3164 35.1208 98.9267C35.153 100.531 33.8827 102.128 32.2114 102.111C32.471 102.105 33.3828 102.128 33.6228 102.089C34.4834 101.987 35.2491 101.439 35.6981 100.708V100.707C36.0522 100.127 36.2247 99.4543 36.1934 98.7754Z" fill="url(#paint10_linear_41_142)"/>
<path d="M61.8042 4.11352C63.4004 4.27328 64.5172 5.88228 64.4209 7.42887C64.3862 8.98275 63.1292 10.4836 61.5155 10.467C61.7751 10.461 62.6868 10.4847 62.9267 10.4453C63.7873 10.3427 64.5529 9.79488 65.002 9.06382V9.06289C65.2477 8.65758 65.4071 8.2059 65.4702 7.73615C65.5332 7.2664 65.4986 6.78872 65.3685 6.33297C65.2169 5.79908 64.9317 5.31265 64.5398 4.91974C64.4753 4.8571 64.4089 4.79722 64.3406 4.74004C64.0786 4.52314 63.78 4.3547 63.4588 4.24262L63.4573 4.24213C62.9454 4.03685 62.0594 4.10931 61.5148 4.09792C61.6117 4.09902 61.7084 4.10434 61.8042 4.11352Z" fill="url(#paint11_linear_41_142)"/>
<path d="M78.2593 22.4265C82.1008 22.5907 82.1333 28.6151 78.2593 28.7952H15.4671C13.8632 28.7952 12.5579 27.3669 12.5579 25.6102C12.5579 23.8535 13.8632 22.426 15.4671 22.426L78.2593 22.4265Z" fill="#E5B5C9"/>
<path d="M69.8867 40.7559C73.7367 40.9231 73.7536 46.9483 69.8867 47.1241H32.2114C30.6075 47.1241 29.3032 45.6963 29.3032 43.9391C29.3032 42.1818 30.6075 40.7555 32.2114 40.7555L69.8867 40.7559Z" fill="#E5B5C9"/>
<path d="M48.9566 59.0847C52.8093 59.2551 52.8206 65.2782 48.9566 65.4541H23.8401C22.2361 65.4541 20.9307 64.0252 20.9307 62.2691C20.9307 60.513 22.2361 59.0841 23.8401 59.0841L48.9566 59.0847Z" fill="#E5B5C9"/>
<path d="M36.3983 77.4135C38.0022 77.4135 39.3076 78.8419 39.3076 80.5985C39.3076 82.3552 38.0022 83.7836 36.3983 83.7836H15.4672C11.6132 83.6126 11.6043 77.5892 15.4672 77.4142L36.3983 77.4135Z" fill="#E5B5C9"/>
<path d="M32.2114 95.7428C36.0687 95.914 36.0715 101.938 32.2114 102.111H23.8401C22.2361 102.111 20.9307 100.683 20.9307 98.927C20.9307 97.1712 22.2361 95.7428 23.8401 95.7428H32.2114Z" fill="#E5B5C9"/>
<path d="M64.4244 7.28235C64.4244 9.03811 63.1191 10.4674 61.5151 10.4674H2.90933C1.30483 10.4674 0 9.03851 0 7.28235C0 5.52618 1.30483 4.09732 2.90933 4.09732H61.5151C63.1189 4.09772 64.4244 5.52608 64.4244 7.28235Z" fill="#E5B5C9"/>
<defs>
<filter id="filter0_f_41_142" x="1.39355" y="1.09732" width="87.1527" height="104.014" filterUnits="userSpaceOnUse" color-interpolation-filters="sRGB">
<feFlood flood-opacity="0" result="BackgroundImageFix"/>
<feBlend mode="normal" in="SourceGraphic" in2="BackgroundImageFix" result="shape"/>
<feGaussianBlur stdDeviation="1.5" result="effect1_foregroundBlur_41_142"/>
</filter>
<linearGradient id="paint0_linear_41_142" x1="64.7915" y1="0" x2="64.7915" y2="106.205" gradientUnits="userSpaceOnUse">
<stop stop-color="#79517A"/>
<stop offset="1" stop-color="#3C3261"/>
</linearGradient>
<linearGradient id="paint1_linear_41_142" x1="64.7915" y1="0" x2="64.7915" y2="106.205" gradientUnits="userSpaceOnUse">
<stop stop-color="#79517A"/>
<stop offset="1" stop-color="#3C3261"/>
</linearGradient>
<linearGradient id="paint2_linear_41_142" x1="64.7915" y1="0" x2="64.7915" y2="106.205" gradientUnits="userSpaceOnUse">
<stop stop-color="#79517A"/>
<stop offset="1" stop-color="#3C3261"/>
</linearGradient>
<linearGradient id="paint3_linear_41_142" x1="64.7915" y1="0" x2="64.7915" y2="106.205" gradientUnits="userSpaceOnUse">
<stop stop-color="#79517A"/>
<stop offset="1" stop-color="#3C3261"/>
</linearGradient>
<linearGradient id="paint4_linear_41_142" x1="64.7915" y1="0" x2="64.7915" y2="106.205" gradientUnits="userSpaceOnUse">
<stop stop-color="#79517A"/>
<stop offset="1" stop-color="#3C3261"/>
</linearGradient>
<linearGradient id="paint5_linear_41_142" x1="64.7915" y1="0" x2="64.7915" y2="106.205" gradientUnits="userSpaceOnUse">
<stop stop-color="#79517A"/>
<stop offset="1" stop-color="#3C3261"/>
</linearGradient>
<linearGradient id="paint6_linear_41_142" x1="57.2279" y1="4.09442" x2="57.2279" y2="102.113" gradientUnits="userSpaceOnUse">
<stop stop-color="#79517A"/>
<stop offset="0.411458" stop-color="#E5B5C9"/>
</linearGradient>
<linearGradient id="paint7_linear_41_142" x1="57.2279" y1="4.09442" x2="57.2279" y2="102.113" gradientUnits="userSpaceOnUse">
<stop stop-color="#79517A"/>
<stop offset="0.411458" stop-color="#E5B5C9"/>
</linearGradient>
<linearGradient id="paint8_linear_41_142" x1="57.2279" y1="4.09442" x2="57.2279" y2="102.113" gradientUnits="userSpaceOnUse">
<stop stop-color="#79517A"/>
<stop offset="0.411458" stop-color="#E5B5C9"/>
</linearGradient>
<linearGradient id="paint9_linear_41_142" x1="57.2279" y1="4.09442" x2="57.2279" y2="102.113" gradientUnits="userSpaceOnUse">
<stop stop-color="#79517A"/>
<stop offset="0.411458" stop-color="#E5B5C9"/>
</linearGradient>
<linearGradient id="paint10_linear_41_142" x1="57.2279" y1="4.09442" x2="57.2279" y2="102.113" gradientUnits="userSpaceOnUse">
<stop stop-color="#79517A"/>
<stop offset="0.411458" stop-color="#E5B5C9"/>
</linearGradient>
<linearGradient id="paint11_linear_41_142" x1="57.2279" y1="4.09442" x2="57.2279" y2="102.113" gradientUnits="userSpaceOnUse">
<stop stop-color="#79517A"/>
<stop offset="0.411458" stop-color="#E5B5C9"/>
</linearGradient>
</defs>
</svg>
