<svg width="107" height="80" viewBox="0 0 107 80" fill="none" xmlns="http://www.w3.org/2000/svg">
<path d="M52.0977 0.0156695C66.3737 0.363737 78.5677 9.82659 84.1417 22.7528C98.6587 28.4046 105.067 45.2925 100.7 59.7846C97.3378 71.1174 87.3544 79.9909 75.2717 79.9916C77.1088 79.9801 81.0002 80.068 82.7573 79.8543C85.4882 79.5673 88.1526 78.8276 90.6417 77.6651C100.989 72.8194 107.089 61.7273 106.999 50.449C107.023 39.5664 101.381 28.8483 91.5478 23.8475L91.5456 23.8465C90.7477 23.441 89.9301 23.076 89.0957 22.7528C86.6549 17.1423 82.9573 12.0661 78.2545 8.15069L78.2491 8.1461C73.567 4.23924 67.8839 1.51638 61.869 0.490329C60.5286 0.258647 59.1752 0.109719 57.8165 0.0443879C56.6322 -0.0316586 52.478 0.0158981 51.2391 0.00337681C51.5259 0.00372143 51.8116 0.00613492 52.0977 0.0156695Z" fill="url(#paint0_linear_49_17)"/>
<path d="M15.643 56.1572C15.7386 58.9257 17.3923 61.6612 19.979 62.7492C20.6369 63.0286 21.3375 63.1933 22.0507 63.2362C21.9881 63.2497 27.2459 63.2497 27.3736 63.2477C23.8123 63.2706 20.9866 60.169 20.644 56.7332C20.3453 54.2664 21.2493 51.6521 23.1282 50.0058C24.0968 49.138 25.304 48.5831 26.5921 48.4137C27.3376 48.328 28.0977 48.39 28.8324 48.2069C30.858 47.7846 32.6167 46.4263 33.6934 44.6743L33.6952 44.6711C34.4167 43.4931 34.852 42.1616 34.9662 40.7841C35.0213 40.1538 34.9917 39.5183 35.0281 38.8869C35.0634 38.0787 35.141 37.2717 35.252 36.4711C35.6432 33.6921 36.5055 31.0005 37.8016 28.5128C41.3672 21.6195 48.3826 16.7518 56.2437 16.7869C54.6729 16.8009 50.7115 16.7153 49.2291 16.8965C47.5856 17.0707 45.9707 17.4528 44.423 18.0338C37.4928 20.6038 32.4091 27.0177 30.7388 34.149C30.3251 35.8858 30.0956 37.6615 30.0544 39.4467C30.1432 42.0077 29.2768 44.5778 27.3787 46.3436C26.3516 47.3261 25.0617 47.9881 23.666 48.2489C23.0397 48.3805 22.3969 48.3396 21.7639 48.3983C19.7101 48.6027 17.8652 49.8956 16.7982 51.6425L16.7969 51.6447C15.9709 52.9994 15.569 54.5712 15.643 56.1572Z" fill="url(#paint1_linear_49_17)"/>
<path d="M84.1416 22.7528C111.693 33.7453 106.222 78.8774 75.2725 79.9918H22.3782C-3.17439 79.2841 -7.57987 41.5595 15.3873 32.8597C21.8476 -4.47234 67.9554 -12.7395 84.1416 22.7528ZM86.493 52.8382C87.7237 46.4538 83.6353 39.2247 77.2008 38.0293C74.4883 37.5319 72.2083 35.4154 71.2954 32.5114C68.3644 23.1262 60.3251 16.8082 51.2892 16.7874C39.5794 16.7874 30.0743 27.1995 30.0468 39.9948C30.0468 44.6068 26.625 48.3625 22.4192 48.3625C13.433 48.7597 13.4107 62.8366 22.4192 63.2475H75.2636C80.7554 63.1779 85.4915 58.7986 86.4933 52.8382" fill="#1869FF"/>
<g style="mix-blend-mode:multiply" opacity="0.4" filter="url(#filter0_f_49_17)">
<path d="M93.6558 35.7227C104.278 50.9381 95.0854 75.0291 75.6435 75.2833H22.7598C18.7894 75.2833 14.8854 73.7967 11.7679 71.0984C-0.096669 60.8434 4.4925 39.7415 19.6089 36.6017C23.1925 0.937187 67.3292 -8.08053 81.3982 26.6047C86.3542 28.0963 90.6012 31.2232 93.6558 35.7227ZM91.0978 53.6942C92.7791 44.9468 87.1812 35.0393 78.3636 33.3972C77.1332 33.171 76.1355 32.2446 75.7362 30.9751C72.2146 19.6978 62.547 12.1019 51.6814 12.0759C37.2258 11.8615 25.8498 25.6801 26.1404 39.9842C26.1404 42.0074 24.6419 43.6513 22.801 43.6513C8.12451 44.3042 8.10251 67.2912 22.801 67.9554H75.6644C83.2338 67.8602 89.7245 61.8627 91.0978 53.6942Z" fill="#0440AD"/>
</g>
<path d="M6.69338 56.2856C6.80797 60.0764 8.65858 63.8328 11.7776 66.0269C13.5244 67.2746 15.6142 67.9486 17.7591 67.9559H18.9943C16.0229 67.9744 13.1388 66.5859 11.1613 64.3863C6.91155 59.7543 6.84257 52.1391 10.9864 47.4178C12.6566 45.4879 14.9937 44.1179 17.5295 43.7584C18.1933 43.6363 18.8743 43.6958 19.5398 43.602C19.9973 43.5113 20.4308 43.3257 20.8125 43.057C21.1942 42.7883 21.5155 42.4425 21.756 42.0419C21.7571 42.0401 21.7584 42.0385 21.7595 42.0366C22.0535 41.5564 22.2393 41.0176 22.304 40.4578C22.3602 39.8669 22.325 39.2691 22.3633 38.6773C22.4439 36.7899 22.6996 34.9142 23.1269 33.0744C24.9732 24.9788 30.4606 17.6274 38.0788 14.186L38.0812 14.1849C39.6076 13.4954 41.2018 12.9682 42.8378 12.6118H42.8389C44.494 12.2567 46.1817 12.0772 47.8742 12.0763C45.7827 12.0393 43.6474 12.154 41.6039 12.6118H41.6026C39.9667 12.9682 38.3724 13.4954 36.8461 14.1849L36.8438 14.186C33.5046 15.6972 30.5366 17.9824 28.1343 20.7489C24.9112 24.4478 22.715 29.0083 21.7288 33.8136C21.4129 35.3491 21.2155 36.9068 21.1381 38.4727C21.0894 39.1333 21.1274 39.7989 21.0694 40.4584C21.0048 41.0175 20.8192 41.5558 20.5257 42.0356L20.5213 42.0425C19.9417 42.9947 18.8855 43.6606 17.7597 43.6514C14.6994 43.631 11.7402 45.106 9.75462 47.414C9.32264 47.9122 8.93125 48.4443 8.58421 49.0052C8.43387 49.2497 8.29159 49.4992 8.15736 49.7536C7.10993 51.7659 6.60526 54.0176 6.69338 56.2856Z" fill="url(#paint2_linear_49_17)"/>
<path d="M47.2981 4.72159C60.6729 5.04887 71.7641 14.286 76.3559 26.6051C83.3175 28.6646 88.682 34.0986 91.2925 40.8157C93.187 45.6726 93.5842 51.0912 92.5056 56.1876C90.3476 66.6455 81.5584 75.2797 70.6013 75.2837C71.5753 75.291 72.6904 75.2912 73.6483 75.1987C75.4737 75.0352 77.2696 74.6306 78.9893 73.9956C86.3452 71.3003 91.7711 64.5096 93.5662 56.956C94.7958 51.8857 94.5409 46.5674 92.832 41.6386C90.6704 35.4392 86.0368 30.0153 79.9427 27.4577C79.1908 27.136 78.372 26.8555 77.591 26.6047C72.9828 14.2435 61.8431 5.00131 48.4243 4.71815H48.419C48.0118 4.70769 47.0003 4.71298 46.5789 4.71183C46.819 4.71229 47.0585 4.71378 47.2981 4.72159Z" fill="url(#paint3_linear_49_17)"/>
<path d="M88.6134 35.7227C99.2357 50.9381 90.043 75.0291 70.601 75.2833H17.7175C13.7471 75.2833 9.84294 73.7966 6.72543 71.0984C-5.1391 60.8433 -0.549813 39.7415 14.5666 36.6017C18.1502 0.937763 62.2863 -8.07995 76.3559 26.6053C81.3119 28.0962 85.5589 31.2232 88.6134 35.7227ZM86.0555 53.6942C87.7368 44.9468 82.1389 35.0393 73.3213 33.3972C72.0908 33.171 71.0931 32.2446 70.6937 30.9751C67.1722 19.6978 57.5049 12.1019 46.6391 12.0759C32.1835 11.8615 20.8074 25.6801 21.098 39.9842C21.098 42.0074 19.5996 43.6513 17.7586 43.6513C3.08208 44.3042 3.06008 67.2912 17.7586 67.9554H70.6219C78.1913 67.8602 84.682 61.8627 86.0555 53.6942Z" fill="#F0F8FF"/>
<defs>
<filter id="filter0_f_49_17" x="2.04239" y="1.74537" width="99.089" height="76.538" filterUnits="userSpaceOnUse" color-interpolation-filters="sRGB">
<feFlood flood-opacity="0" result="BackgroundImageFix"/>
<feBlend mode="normal" in="SourceGraphic" in2="BackgroundImageFix" result="shape"/>
<feGaussianBlur stdDeviation="1.5" result="effect1_foregroundBlur_49_17"/>
</filter>
<linearGradient id="paint0_linear_49_17" x1="61.3172" y1="0" x2="61.3172" y2="80" gradientUnits="userSpaceOnUse">
<stop stop-color="#0440AD"/>
<stop offset="1" stop-color="#1869FF"/>
</linearGradient>
<linearGradient id="paint1_linear_49_17" x1="61.3172" y1="0" x2="61.3172" y2="80" gradientUnits="userSpaceOnUse">
<stop stop-color="#0440AD"/>
<stop offset="1" stop-color="#1869FF"/>
</linearGradient>
<linearGradient id="paint2_linear_49_17" x1="50.5079" y1="4.71149" x2="50.5079" y2="75.2866" gradientUnits="userSpaceOnUse">
<stop stop-color="#81ADFF"/>
<stop offset="1" stop-color="#F0F8FF"/>
</linearGradient>
<linearGradient id="paint3_linear_49_17" x1="50.5079" y1="4.71149" x2="50.5079" y2="75.2866" gradientUnits="userSpaceOnUse">
<stop stop-color="#81ADFF"/>
<stop offset="1" stop-color="#F0F8FF"/>
</linearGradient>
</defs>
</svg>
