<svg width="94" height="93" viewBox="0 0 94 93" fill="none" xmlns="http://www.w3.org/2000/svg">
<path d="M16.3436 63.9681C19.534 65.7345 20.7507 69.9487 19.4305 73.2675C18.4919 75.7762 16.044 77.7459 13.3094 77.719H17.6263C18.2637 77.7177 18.8972 77.6166 19.5034 77.4195C21.3392 76.8315 22.8215 75.3701 23.5993 73.6243C24.6212 71.3544 24.4735 68.5932 23.1924 66.4555C22.6213 65.4909 21.8247 64.6793 20.8708 64.0905C20.5301 63.8714 20.1463 63.7303 19.8064 63.5108C19.2211 63.1318 18.7475 62.6035 18.4345 61.9804C17.371 59.9335 18.1455 57.0813 20.2971 56.0972C20.6484 55.9353 21.0236 55.8316 21.4082 55.79C21.894 55.7557 22.3845 55.7711 22.8641 55.6714C24.7036 55.3495 26.3152 54.1424 27.2853 52.565L27.2874 52.5615C27.9166 51.5365 28.2962 50.3781 28.3956 49.1795C28.4507 48.3154 28.4192 47.4448 28.5326 46.5843C28.7417 44.687 29.2769 42.8401 30.1147 41.1249C32.4384 36.3083 37.2855 32.8284 42.7202 32.8595C41.0204 32.8968 37.5797 32.7219 35.9538 33.0892C32.8934 33.6583 30.1007 35.3624 28.066 37.702C25.8948 40.1855 24.5615 43.3597 24.209 46.6338C24.0634 47.7253 24.1834 48.8392 23.9793 49.9235C23.6215 51.9204 22.4398 53.7834 20.6975 54.8459C19.9458 55.3103 19.1033 55.6082 18.2267 55.7195C17.5877 55.8007 16.9253 55.7238 16.312 55.9629C15.4743 56.2647 14.7651 56.844 14.3022 57.6046C14.3012 57.6063 14.3001 57.6079 14.2991 57.6095C14.1994 57.7732 14.1095 57.9428 14.0301 58.1173C13.921 58.3653 13.8337 58.6223 13.7692 58.8855C13.4948 60.02 13.6685 61.2167 14.2541 62.2265C14.54 62.7072 14.9253 63.1214 15.3843 63.4411C15.6823 63.6556 16.0255 63.789 16.3436 63.9681Z" fill="url(#paint0_linear_41_106)"/>
<path d="M42.4201 77.8522C41.6682 77.6951 41.0351 76.9994 41.017 76.2214C41.152 74.3233 41.747 72.4865 42.7505 70.8697H38.4336C37.4299 72.4865 36.8349 74.3232 36.7 76.2214C36.7187 76.6556 36.9043 77.0658 37.218 77.3666C37.2197 77.3682 37.221 77.3701 37.2227 77.3716C37.2617 77.4086 37.3026 77.4441 37.3425 77.4803C37.3797 77.5113 37.4181 77.5408 37.4578 77.5688C37.4596 77.5702 37.4617 77.5712 37.4635 77.5726C37.6018 77.6696 37.753 77.7465 37.9128 77.8012C38.0248 77.8385 38.1403 77.8641 38.2576 77.8776L38.2614 77.8782C38.3176 77.8841 38.3741 77.8871 38.4306 77.8871H42.7476C42.6375 77.8869 42.5277 77.8752 42.4201 77.8522Z" fill="url(#paint1_linear_41_106)"/>
<path d="M39.1424 18.3215C40.5835 18.3737 42.0178 18.5447 43.4307 18.8328H47.7476C46.5329 18.5851 45.3021 18.4239 44.0646 18.3503C43.1044 18.2711 39.3978 18.3134 38.3764 18.3037C38.6321 18.3059 38.8875 18.3127 39.1424 18.3215Z" fill="url(#paint2_linear_41_106)"/>
<path d="M49.1574 57.0205C48.5727 56.4464 47.9669 55.8949 47.3388 55.373L47.3353 55.3702C47.0476 55.1322 46.7597 54.9022 46.4602 54.6833L46.4581 54.6818L46.4381 54.6676C46.4352 54.6656 46.4313 54.6629 46.4291 54.6612L46.4172 54.653C46.0133 54.3576 45.577 54.1091 45.1168 53.9123H45.1159C44.4956 53.6499 43.8363 53.4911 43.1645 53.4423C43.0804 53.4111 38.6259 53.431 38.4096 53.4258C39.7391 53.4321 41.0319 53.8621 42.1003 54.6533L42.1121 54.6615C44.4512 56.422 46.4866 58.579 48.2306 60.9276C51.5519 65.3982 53.6039 70.9093 53.4425 76.5178C53.2718 84.7691 47.0055 92.423 38.431 92.4424C39.1241 92.4572 43.0302 92.4512 43.619 92.4141C44.5769 92.3542 45.526 92.1941 46.4506 91.9363C50.479 90.828 53.85 87.8619 55.7702 84.1865C58.5135 79.0651 58.2095 72.8104 56.1742 67.4954C54.656 63.5358 52.1691 59.9865 49.1574 57.0205Z" fill="url(#paint3_linear_41_106)"/>
<path d="M56.8719 25.8763C59.5518 28.5009 61.7189 31.6021 63.262 35.0211C63.8915 35.3711 64.5027 35.7551 65.0944 36.1662H69.4114C68.8196 35.7551 68.2086 35.3709 67.579 35.0211C65.9201 31.3418 63.5378 28.0339 60.5741 25.2944C60.5268 23.635 60.8182 21.9834 61.4305 20.4404H57.1136C57.0783 20.5283 57.044 20.6167 57.0108 20.7057C56.469 22.1731 56.2132 23.7308 56.2571 25.2944C56.4648 25.4851 56.6697 25.679 56.8719 25.8763Z" fill="url(#paint4_linear_41_106)"/>
<path d="M62.693 0.012908C65.9373 0.195024 68.4377 2.95123 68.885 6.07716C68.9982 6.8187 69.0055 7.57257 68.9067 8.31617C68.7876 9.09656 68.5883 9.86576 68.553 10.6584C68.1976 15.3997 71.0212 20.3251 75.6112 21.8799C76.3774 22.1422 77.1747 22.3029 77.9826 22.3581C78.275 22.4018 82.5241 22.3731 82.936 22.3808C79.4579 22.4125 76.199 20.3171 74.4684 17.3503C73.3272 15.4242 72.7659 13.2098 72.8519 10.9727C72.8756 10.168 73.0245 9.37682 73.1828 8.59064C73.2961 7.91601 73.3219 7.22957 73.2596 6.54833C73.0261 3.68589 71.0447 0.927583 68.1991 0.205109L68.1972 0.20451C67.73 0.0818489 67.2502 0.0141615 66.7673 0.00282391C66.7247 0.00195859 66.682 0.00152588 66.6393 0.00152588H62.3224C62.446 0.00185869 62.5695 0.00565262 62.693 0.012908Z" fill="url(#paint5_linear_41_106)"/>
<path d="M82.6977 21.9045C84.337 21.9882 85.8958 22.7781 87.001 23.9807C88.7021 25.7209 89.3797 28.3259 88.9442 30.699C87.4066 38.3385 82.4283 45.3315 75.2449 48.5696C77.5213 55.5704 76.5579 63.6409 72.3875 69.7486C71.3782 71.2374 70.1878 72.595 68.8436 73.7902C67.3496 75.1536 65.7712 76.2014 63.7215 76.179H68.0383C69.361 76.1727 70.6477 75.748 71.7143 74.9657C73.1637 73.8888 74.4712 72.633 75.6057 71.2281C80.4732 65.2521 81.9171 56.8578 79.8427 49.4912C79.7535 49.1828 79.6621 48.8744 79.5616 48.5696C86.7452 45.3313 91.7243 38.3385 93.261 30.699C93.6966 28.3261 93.0188 25.7207 91.3177 23.9807C90.1332 22.6869 88.4199 21.8815 86.6571 21.8939H82.3402C82.4602 21.8938 82.5787 21.8988 82.6977 21.9045Z" fill="url(#paint6_linear_41_106)"/>
<path d="M42.1006 54.6527C42.1681 54.6967 53.4506 62.6989 53.4506 76.0002C53.4506 85.0661 46.7132 92.4418 38.4309 92.4418C30.1486 92.4418 23.4116 85.0657 23.4116 76.0002C23.4807 64.7232 31.1718 57.4981 34.7178 54.6527C35.7848 53.8587 37.0793 53.4299 38.4092 53.4299C39.7392 53.4299 41.0336 53.8587 42.1006 54.6527ZM38.4309 77.8871C39.3812 77.8871 40.1553 77.0398 40.1553 76C40.0045 74.1758 39.4137 72.4154 38.4335 70.8696C37.4279 72.4854 36.8327 74.3227 36.7 76.2213C36.7072 77.04 37.4812 77.887 38.4309 77.887" fill="#79517A"/>
<path d="M87.0013 23.9807C88.6339 25.6397 89.3991 28.2322 88.9446 30.699C87.2656 38.84 82.1289 45.4421 75.2452 48.5695C78.3975 57.8849 75.2405 69.3457 67.3975 74.9656C66.3311 75.748 65.0445 76.1728 63.7219 76.179C56.854 76.074 54.7602 66.5121 60.0635 62.7807C65.9136 58.9102 63.9863 48.9469 57.0896 48.103C54.5136 47.6237 52.5275 45.7546 51.7509 43.2021C45.9489 26.8066 24.4825 31.029 24.1083 48.4929C24.1083 52.5066 21.1271 55.7707 17.46 55.7707C15.355 55.7707 13.6436 57.6452 13.6436 59.9484C13.6336 61.6141 14.5259 63.0999 15.9111 63.7464C22.4367 66.8276 20.6101 77.5758 13.3091 77.719C12.4088 77.7107 11.5192 77.522 10.6931 77.1639C-3.32821 70.5304 -2.98368 48.4841 11.3563 42.4491C14.2429 26.7747 28.5286 15.6985 43.4301 18.8328C45.51 9.58279 52.2432 2.2642 60.8811 0.175452C63.6902 -0.519965 66.5882 0.906912 67.9966 3.481C68.9247 5.15618 69.207 7.11325 68.7903 8.98243C68.6203 9.76528 68.5307 10.5635 68.5229 11.3645C68.5229 17.4235 73.0509 22.3802 78.6185 22.3802C79.3652 22.364 80.1078 22.2643 80.8323 22.0829C83.0538 21.5108 85.4092 22.2471 87.0013 23.9807ZM66.2126 36.129C67.7226 36.1279 69.21 35.7624 70.5485 35.0634C64.4239 32.4725 59.5103 27.1244 57.1135 20.4405C56.5005 21.9833 56.209 23.635 56.257 25.2944C59.2226 28.0323 61.6052 31.3406 63.2618 35.0212C63.8917 35.3715 64.5033 35.7536 65.0943 36.1662C65.3534 36.1676 65.6117 36.1606 65.8683 36.1374L66.2126 36.129Z" fill="#79517A"/>
<g style="mix-blend-mode:multiply" opacity="0.4" filter="url(#filter0_f_41_106)">
<path d="M40.2935 58.0539C40.4148 58.1396 49.9818 65.1198 49.9818 75.999C49.9818 82.8084 44.9208 88.3487 38.6994 88.3487C32.478 88.3487 27.4178 82.8087 27.4178 75.999C27.5309 68.9409 31.0632 63.0404 37.0928 58.0331C37.5594 57.6962 38.1211 57.5166 38.6966 57.5203C39.272 57.5241 39.8313 57.7109 40.2935 58.0539ZM44.1631 75.9416C43.8736 71.5703 41.849 67.7311 38.6999 64.9671C35.5504 67.7294 33.5265 71.5694 33.2366 75.9416C33.492 83.9554 43.9099 83.9511 44.1631 75.9416Z" fill="#79517A"/>
<path d="M84.6481 26.8977C85.0231 27.2868 85.3004 27.7593 85.4573 28.2764C85.6142 28.7935 85.6461 29.3405 85.5504 29.8723C83.8584 38.1229 77.9395 44.2666 70.3204 46.0989C75.0899 54.5258 73.3285 65.8518 65.58 71.5672C64.252 72.5432 62.3656 72.0785 61.537 70.6371C60.6649 69.2502 61.0218 67.1499 62.3699 66.2115C71.1072 60.3118 68.2062 45.3739 57.8033 44.036C56.7582 43.8269 55.9046 43.0145 55.5681 41.9093C53.2168 34.4835 46.4491 28.7163 38.6718 28.7638C28.7215 28.7638 20.6372 37.6132 20.6372 48.4907C20.6372 50.2463 19.3323 51.6757 17.7284 51.6757C9.48041 51.809 7.32457 63.9978 14.7163 67.511C17.5718 68.8689 16.7762 73.5542 13.5768 73.6251C13.1574 73.6182 12.7434 73.53 12.3575 73.3655C0.486923 67.5667 2.33037 48.7171 14.936 45.6078C16.5335 29.708 31.2899 18.1645 46.7342 23.8902C47.2269 14.5303 53.3939 6.15863 61.9583 4.17153C62.3911 4.06458 62.8438 4.06859 63.2747 4.18321C64.8343 4.59387 65.7972 6.31619 65.422 8.02343C63.3034 17.0438 70.1247 26.6525 78.8876 26.4739C79.9153 26.4561 80.9378 26.3214 81.9351 26.0722C82.4195 25.9486 82.9286 25.9601 83.407 26.1057C83.8853 26.2512 84.3146 26.5252 84.6481 26.8977ZM77.1515 34.718L78.5962 32.8017C73.3213 32.1951 69.0262 30.4737 65.2754 26.3663C61.4934 22.2644 59.9118 17.3572 59.39 11.734L57.6295 13.3829C54.5519 16.2647 52.787 20.4592 52.787 24.8927V27.2796C56.2691 30.0553 59.0198 33.8073 60.7191 38.0906C61.9275 38.6654 63.0709 39.368 64.1296 40.1864C64.8748 40.268 65.626 40.2797 66.3734 40.2213C70.5568 40.2551 74.4907 38.2464 77.1519 34.718" fill="#79517A"/>
</g>
<path d="M5.78911 60.3946C5.87607 62.5013 6.73975 64.5849 8.25089 66.0672C8.72564 66.534 9.26001 66.936 9.84012 67.2628C10.1343 67.4332 10.4563 67.5535 10.7362 67.7485C11.0944 67.9982 11.3953 68.3214 11.6189 68.6965C12.8199 70.6652 11.6263 73.5859 9.18362 73.6249C9.32191 73.6223 10.335 73.632 10.4463 73.6176C10.7705 73.5944 11.0879 73.5127 11.383 73.3765C11.9134 73.1245 12.3592 72.7238 12.6662 72.2232C12.7435 72.0974 12.8129 71.9668 12.8739 71.8324L12.8746 71.8308C12.9579 71.6418 13.0245 71.446 13.0736 71.2454C13.2804 70.3794 13.1453 69.467 12.6962 68.6982C12.4779 68.3324 12.1868 68.0154 11.8407 67.767C11.5929 67.6093 11.3348 67.4683 11.0683 67.345C10.5141 67.0506 9.99926 66.6877 9.53581 66.2647C6.93126 63.9105 6.18409 59.9046 7.46998 56.6821C8.32864 54.4713 10.1735 52.6111 12.476 51.9518C12.9482 51.8149 13.4337 51.7287 13.9243 51.6946C14.2251 51.6646 14.5314 51.6932 14.8307 51.6419C15.6581 51.5153 16.3865 50.9791 16.8211 50.2727C17.077 49.8558 17.2388 49.3881 17.2951 48.9022C17.3463 48.2898 17.3135 47.6711 17.3679 47.0582C17.4899 45.1797 17.862 43.3258 18.4745 41.5458C20.9319 34.3004 27.5342 28.741 35.3549 28.7641C34.0825 28.7499 32.7461 28.7721 31.4959 28.9988C27.5153 29.6624 23.8669 31.8463 21.2329 34.8813C20.532 35.6878 19.897 36.5492 19.3339 37.4572C18.0772 39.4982 17.1849 41.7421 16.6968 44.0887C16.4597 45.2267 16.3153 46.382 16.2652 47.5433C16.2293 48.0637 16.2801 48.5917 16.1887 49.1072C16.1158 49.5347 15.957 49.9429 15.7219 50.3073C15.4868 50.6717 15.1803 50.9846 14.8208 51.2272C14.4748 51.4551 14.0813 51.6008 13.6703 51.6534C13.3165 51.6916 12.958 51.6688 12.6048 51.7146C11.7253 51.8092 10.8715 52.0687 10.0881 52.4793C8.84925 53.1411 7.80933 54.1212 7.07548 55.3187C6.14505 56.8424 5.69668 58.6117 5.78911 60.3946Z" fill="url(#paint7_linear_41_106)"/>
<path d="M29.9235 75.8847C30.1545 72.7563 31.2858 69.6831 33.2414 67.2211C33.8412 66.4381 34.6691 65.6535 35.3824 64.9667H34.3063C33.5899 65.6573 32.7665 66.4361 32.1653 67.2211C30.1973 69.6979 29.0653 72.7933 28.843 75.9411C28.8387 76.5623 28.9219 77.1809 29.0905 77.7788C29.6318 79.7258 31.2009 81.4154 33.205 81.8558C33.8321 82.0191 34.7346 81.9722 35.3824 81.978C32.1865 81.9827 29.8555 79.0084 29.9192 75.9411L29.9235 75.8847Z" fill="url(#paint8_linear_41_106)"/>
<path d="M34.9337 22.4121C36.4355 22.4683 37.9279 22.6733 39.3892 23.0241C40.2708 23.2257 41.4671 23.6195 42.3408 23.8901H43.417C42.083 23.4665 40.6027 22.9962 39.2289 22.7637C37.6035 22.4559 35.9047 22.3694 34.2503 22.3957C34.4782 22.3976 34.706 22.4031 34.9337 22.4121Z" fill="url(#paint9_linear_41_106)"/>
<path d="M45.6611 69.943C44.0935 65.2947 40.8287 61.0546 36.9762 58.0538C36.7997 57.9261 36.6096 57.818 36.4096 57.7316L36.4079 57.731C36.1547 57.6247 35.8867 57.5573 35.6133 57.5314C35.444 57.5082 34.4741 57.5214 34.2853 57.5184C34.8664 57.5224 35.4314 57.7098 35.8996 58.0538C41.1001 62.1234 45.2563 68.371 45.5651 75.1034C45.7205 77.6894 45.1574 80.3278 43.8517 82.574C41.9263 85.9763 38.2682 88.3801 34.306 88.3486C35.1074 88.3478 36.0706 88.3704 36.8555 88.2433C39.444 87.8823 41.8314 86.4896 43.5367 84.5252C43.5376 84.524 43.5385 84.5229 43.5395 84.5218C43.9795 84.0155 44.3781 83.4746 44.7314 82.9043C44.8829 82.6586 45.0256 82.4069 45.1617 82.1519L45.1639 82.1475C47.174 78.4091 46.9749 73.879 45.6611 69.943Z" fill="url(#paint10_linear_41_106)"/>
<path d="M49.4071 28.1403C52.4689 30.8402 54.8145 34.3062 56.3252 38.0906C57.5331 38.6664 58.6763 39.3689 59.7357 40.1864C60.169 40.2273 60.6222 40.26 61.0566 40.2589H62.1328C61.6992 40.2589 61.2442 40.2279 60.8119 40.1864C59.7526 39.3689 58.6092 38.6663 57.4013 38.0906C56.3772 35.509 54.96 33.1015 53.1998 30.9533L53.1987 30.952C52.0821 29.6056 50.8327 28.3753 49.4693 27.2796C49.4837 26.0715 49.417 24.1744 49.5785 22.9991C49.8402 20.6679 50.6105 18.4226 51.835 16.4217C52.3231 15.6311 52.8831 14.8871 53.5079 14.1993C54.0385 13.5976 55.4803 12.3022 56.0732 11.734H54.9971C53.8534 12.8108 52.2946 14.1678 51.407 15.4554C49.9974 17.4092 49.0516 19.6586 48.6413 22.0326C48.3303 23.5949 48.3958 25.6791 48.3933 27.2796C48.6963 27.533 49.1166 27.8801 49.4071 28.1403Z" fill="url(#paint11_linear_41_106)"/>
<path d="M58.4442 4.10652C59.8554 4.22024 60.9409 5.49705 61.0839 6.86452C61.1746 7.46808 61.0165 8.06056 60.9062 8.64974C60.7787 9.38527 60.6997 10.1284 60.6697 10.8743C60.5909 13.4182 61.1127 15.9449 62.1926 18.2495C63.8015 21.6926 66.7448 24.5525 70.367 25.7857C70.3694 25.7866 70.3719 25.7873 70.3743 25.7881C71.4622 26.1603 72.5954 26.3835 73.7432 26.4517C74.2215 26.4853 75.082 26.4717 75.5704 26.4743C70.9809 26.506 66.7105 23.8866 64.2735 20.0595C61.9643 16.4981 61.1914 12.0054 62.1348 7.87076C62.2292 7.34085 62.1958 6.79607 62.0373 6.28169C61.8788 5.76732 61.5998 5.29821 61.2234 4.91336C61.1592 4.85006 61.0917 4.79005 61.0225 4.73244C60.8637 4.60194 60.6914 4.48862 60.5087 4.39437C60.2118 4.24355 59.8903 4.14717 59.5593 4.10982C59.3645 4.08396 58.4137 4.09803 58.2015 4.09474C58.2819 4.09564 58.3632 4.09933 58.4442 4.10652Z" fill="url(#paint12_linear_41_106)"/>
<path d="M78.5022 25.9997C79.1754 26.0781 79.7978 26.397 80.2546 26.8977C80.6285 27.2875 80.9051 27.7601 81.0619 28.2769C81.2186 28.7938 81.2511 29.3404 81.1567 29.8723C79.988 35.6282 76.4741 40.9658 71.3508 43.9266C70.4215 44.4676 69.4472 44.9271 68.4386 45.2999C67.7872 45.548 66.5985 45.889 65.927 46.0987C66.2645 46.8019 66.8505 47.9758 67.1316 48.6783C67.5434 49.6867 67.8688 50.7283 68.1042 51.7919C69.7032 59.0418 67.2555 67.0849 61.1865 71.5671C60.7234 71.9022 60.167 72.0835 59.5954 72.0856H60.6715C61.243 72.0835 61.7996 71.9022 62.2626 71.5671C63.136 70.9168 63.9472 70.187 64.6859 69.387C69.0054 64.7306 70.5396 57.8873 69.1701 51.7445C68.9352 50.6974 68.6133 49.6717 68.2079 48.6782C67.9275 47.9693 67.3323 46.793 67.0031 46.0984C68.0966 45.7628 69.4469 45.3795 70.4789 44.9123C73.121 43.7515 75.4711 42.0162 77.3581 39.8326C78.1062 38.9712 78.7834 38.0507 79.3831 37.08C80.6187 35.0695 81.5272 32.8756 82.0747 30.5802V30.5793C82.1659 30.1788 82.279 29.7744 82.2833 29.3604C82.2965 28.9071 82.219 28.4557 82.0554 28.0328C81.8919 27.6098 81.6454 27.2238 81.3307 26.8973C81.2988 26.8633 81.267 26.8299 81.2339 26.798C81.0227 26.5903 80.7815 26.4156 80.5184 26.2796C80.5175 26.2792 80.5167 26.2788 80.5159 26.2783C80.3465 26.193 80.1691 26.125 79.9862 26.0753L79.9803 26.0734C79.8483 26.0396 79.7141 26.0148 79.5787 25.9993C79.4841 25.9893 79.388 25.985 79.2926 25.984H78.2163C78.3116 25.9862 78.4076 25.9897 78.5022 25.9997Z" fill="url(#paint13_linear_41_106)"/>
<path d="M35.9 58.0539C36.0213 58.1396 45.5883 65.1198 45.5883 75.999C45.5883 82.8084 40.5273 88.3487 34.3059 88.3487C28.0845 88.3487 23.0244 82.8087 23.0244 75.999C23.1375 68.9409 26.6697 63.0404 32.6993 58.0331C33.1659 57.6962 33.7276 57.5166 34.3031 57.5203C34.8786 57.5241 35.4379 57.7109 35.9 58.0539ZM39.7696 75.9416C39.48 71.5703 37.4555 67.7311 34.3063 64.9671C31.1569 67.7294 29.133 71.5694 28.843 75.9416C29.0986 83.9554 39.5164 83.9511 39.7696 75.9416Z" fill="#E5B5C9"/>
<path d="M80.2546 26.8977C80.6296 27.2868 80.9069 27.7593 81.0638 28.2764C81.2206 28.7935 81.2524 29.3405 81.1567 29.8723C79.4646 38.1229 73.546 44.2666 65.9269 46.0989C70.6964 54.5258 68.9349 65.8518 61.1865 71.5672C59.8585 72.5432 57.972 72.0785 57.1433 70.6371C56.2713 69.2502 56.6282 67.1499 57.9763 66.2115C66.7136 60.3118 63.8127 45.3739 53.4097 44.036C52.3646 43.8269 51.511 43.0145 51.1745 41.9093C48.8232 34.4835 42.0555 28.7163 34.2783 28.7638C24.328 28.7638 16.2437 37.6132 16.2437 48.4907C16.2437 50.2463 14.9387 51.6757 13.3347 51.6757C5.0868 51.809 2.93096 63.9978 10.3227 67.511C13.1783 68.8689 12.3827 73.5542 9.18331 73.6251C8.76391 73.6182 8.34985 73.53 7.96401 73.3655C-3.90669 67.5667 -2.06314 48.7171 10.5425 45.6078C12.14 29.708 26.8964 18.1645 42.3407 23.8902C42.8334 14.5303 49.0004 6.15863 57.5648 4.17153C57.9976 4.06458 58.4503 4.06859 58.8812 4.18321C60.4408 4.59387 61.4037 6.31619 61.0285 8.02343C58.9099 17.0438 65.7317 26.6525 74.4939 26.4739C75.5217 26.4561 76.5441 26.3214 77.5413 26.0722C78.0258 25.9485 78.535 25.9601 79.0134 26.1057C79.4917 26.2512 79.9211 26.5252 80.2546 26.8977ZM72.758 34.718L74.2027 32.8017C68.9278 32.1951 64.6327 30.4737 60.8819 26.3663C57.0998 22.2644 55.5182 17.3572 54.9964 11.734L53.2359 13.3829C50.1584 16.2647 48.3934 20.4592 48.3934 24.8927V27.2796C51.8756 30.0553 54.6262 33.8073 56.3255 38.0906C57.5339 38.6654 58.6772 39.368 59.736 40.1864C60.4812 40.268 61.2324 40.2797 61.9798 40.2213C66.1632 40.2551 70.0971 38.2464 72.7584 34.718" fill="#E5B5C9"/>
<defs>
<filter id="filter0_f_41_106" x="1.39355" y="1.09418" width="87.2108" height="90.2545" filterUnits="userSpaceOnUse" color-interpolation-filters="sRGB">
<feFlood flood-opacity="0" result="BackgroundImageFix"/>
<feBlend mode="normal" in="SourceGraphic" in2="BackgroundImageFix" result="shape"/>
<feGaussianBlur stdDeviation="1.5" result="effect1_foregroundBlur_41_106"/>
</filter>
<linearGradient id="paint0_linear_41_106" x1="53.3495" y1="0.00152588" x2="53.3495" y2="92.4499" gradientUnits="userSpaceOnUse">
<stop stop-color="#79517A"/>
<stop offset="1" stop-color="#3C3261"/>
</linearGradient>
<linearGradient id="paint1_linear_41_106" x1="53.3495" y1="0.00152588" x2="53.3495" y2="92.4499" gradientUnits="userSpaceOnUse">
<stop stop-color="#79517A"/>
<stop offset="1" stop-color="#3C3261"/>
</linearGradient>
<linearGradient id="paint2_linear_41_106" x1="53.3495" y1="0.00152588" x2="53.3495" y2="92.4499" gradientUnits="userSpaceOnUse">
<stop stop-color="#79517A"/>
<stop offset="1" stop-color="#3C3261"/>
</linearGradient>
<linearGradient id="paint3_linear_41_106" x1="53.3495" y1="0.00152588" x2="53.3495" y2="92.4499" gradientUnits="userSpaceOnUse">
<stop stop-color="#79517A"/>
<stop offset="1" stop-color="#3C3261"/>
</linearGradient>
<linearGradient id="paint4_linear_41_106" x1="53.3495" y1="0.00152588" x2="53.3495" y2="92.4499" gradientUnits="userSpaceOnUse">
<stop stop-color="#79517A"/>
<stop offset="1" stop-color="#3C3261"/>
</linearGradient>
<linearGradient id="paint5_linear_41_106" x1="53.3495" y1="0.00152588" x2="53.3495" y2="92.4499" gradientUnits="userSpaceOnUse">
<stop stop-color="#79517A"/>
<stop offset="1" stop-color="#3C3261"/>
</linearGradient>
<linearGradient id="paint6_linear_41_106" x1="53.3495" y1="0.00152588" x2="53.3495" y2="92.4499" gradientUnits="userSpaceOnUse">
<stop stop-color="#79517A"/>
<stop offset="1" stop-color="#3C3261"/>
</linearGradient>
<linearGradient id="paint7_linear_41_106" x1="44.031" y1="4.09381" x2="44.031" y2="88.3497" gradientUnits="userSpaceOnUse">
<stop stop-color="#79517A"/>
<stop offset="0.348958" stop-color="#E5B5C9"/>
</linearGradient>
<linearGradient id="paint8_linear_41_106" x1="44.031" y1="4.09381" x2="44.031" y2="88.3497" gradientUnits="userSpaceOnUse">
<stop stop-color="#79517A"/>
<stop offset="0.348958" stop-color="#E5B5C9"/>
</linearGradient>
<linearGradient id="paint9_linear_41_106" x1="44.031" y1="4.09381" x2="44.031" y2="88.3497" gradientUnits="userSpaceOnUse">
<stop stop-color="#79517A"/>
<stop offset="0.348958" stop-color="#E5B5C9"/>
</linearGradient>
<linearGradient id="paint10_linear_41_106" x1="44.031" y1="4.09381" x2="44.031" y2="88.3497" gradientUnits="userSpaceOnUse">
<stop stop-color="#79517A"/>
<stop offset="0.348958" stop-color="#E5B5C9"/>
</linearGradient>
<linearGradient id="paint11_linear_41_106" x1="44.031" y1="4.09381" x2="44.031" y2="88.3497" gradientUnits="userSpaceOnUse">
<stop stop-color="#79517A"/>
<stop offset="0.348958" stop-color="#E5B5C9"/>
</linearGradient>
<linearGradient id="paint12_linear_41_106" x1="44.031" y1="4.09381" x2="44.031" y2="88.3497" gradientUnits="userSpaceOnUse">
<stop stop-color="#79517A"/>
<stop offset="0.348958" stop-color="#E5B5C9"/>
</linearGradient>
<linearGradient id="paint13_linear_41_106" x1="44.031" y1="4.09381" x2="44.031" y2="88.3497" gradientUnits="userSpaceOnUse">
<stop stop-color="#79517A"/>
<stop offset="0.348958" stop-color="#E5B5C9"/>
</linearGradient>
</defs>
</svg>
