<svg width="94" height="88" viewBox="0 0 94 88" fill="none" xmlns="http://www.w3.org/2000/svg">
<path d="M15.8947 55.7801C18.9719 55.5917 21.4373 52.985 21.9708 50.029C22.6746 46.5919 20.8551 42.7326 17.4453 41.5716C16.8477 41.3682 16.2225 41.2576 15.5913 41.2438C15.5497 41.243 15.5079 41.2426 15.4661 41.2425H11.1492C15.0165 41.2403 17.8402 44.8027 17.7989 48.5179C17.8422 52.2335 15.0156 55.7982 11.1492 55.7966C11.3453 55.7907 15.8432 55.8131 15.8947 55.7801Z" fill="url(#paint0_linear_50_33)"/>
<path d="M25.7035 29.8452C30.3801 29.4829 32.9122 24.4385 31.5384 20.2035C31.2545 19.3063 30.8036 18.4709 30.2093 17.7413C30.2673 17.7742 26.9324 14.1546 26.8647 14.0752C26.6398 13.8663 26.4017 13.6723 26.1517 13.4942L26.1494 13.4926C25.3444 12.9207 24.4171 12.5447 23.4412 12.3943C22.8659 12.2658 18.8904 12.3491 18.2267 12.3269C19.8242 12.3224 21.3883 12.9846 22.5479 14.075C22.7176 14.2694 25.817 17.6239 25.8927 17.741L25.8959 17.7454C28.0646 20.3661 28.1557 24.4382 26.1301 27.1659C24.9468 28.7952 23.0026 29.8753 20.9726 29.8605C21.4726 29.8505 25.2814 29.8825 25.7035 29.8452Z" fill="url(#paint1_linear_50_33)"/>
<path d="M38.0172 54.2877C36.1482 50.226 36.4007 45.2802 38.6426 41.4162C40.7272 37.7372 44.6708 35.1467 48.9565 35.1786C48.5629 35.1853 44.2974 35.1627 44.0467 35.1945C43.3267 35.2327 42.612 35.3401 41.9126 35.5153C38.8385 36.2769 36.189 38.375 34.5407 41.0557L34.5386 41.0591C34.3748 41.3248 34.2206 41.5967 34.0735 41.8725L34.0713 41.8768C31.9408 45.8992 31.9002 50.9626 34.0448 54.9883H38.361C38.2395 54.7585 38.1262 54.524 38.0172 54.2877Z" fill="url(#paint2_linear_50_33)"/>
<path d="M80.7125 61.9205C80.6189 59.067 78.8071 56.2461 76.0512 55.3173C75.3101 55.0695 74.5302 54.9581 73.7494 54.9884C76.4957 42.5428 71.0179 28.8484 59.3818 23.0645C56.9131 21.8436 54.2498 21.0644 51.5125 20.7619C49.7911 20.5355 46.3962 20.6475 44.6397 20.6222C53.8129 20.5914 61.996 26.0754 66.3846 33.9835C69.9327 40.2964 70.9779 47.9271 69.4329 54.9884C73.4546 54.8131 76.4378 58.4031 76.4041 62.267C76.4473 65.9808 73.6225 69.5469 69.7573 69.5457C69.9709 69.5389 74.4335 69.5627 74.5018 69.529C75.246 69.4765 75.9744 69.2892 76.6516 68.976C79.304 67.7587 80.867 64.79 80.7125 61.9205Z" fill="url(#paint3_linear_50_33)"/>
<path d="M82.2197 21.1194C83.0392 18.1018 81.9017 14.5796 79.2366 12.8552C78.442 12.3332 77.5392 11.9989 76.5963 11.8776C76.147 11.7808 72.0592 11.8452 71.5104 11.8277C72.7223 11.8324 73.9068 12.1893 74.9197 12.8549C75.7396 13.398 76.4361 14.1075 76.9642 14.9372C78.8956 17.907 78.4588 22.2129 75.8331 24.6312C75.4295 25.0523 72.8377 27.9879 72.4483 28.2815C71.3156 29.2863 69.8576 29.8473 68.3435 29.8609H72.6604C73.1779 29.8579 73.693 29.79 74.1936 29.6589C75.0827 29.4229 75.9098 28.9959 76.6171 28.4077C77.1516 28.0206 79.646 25.1528 80.1501 24.6312C80.9094 23.9169 81.5061 23.0476 81.8996 22.0823C81.9878 21.8666 82.0649 21.6468 82.1343 21.4241L82.1348 21.4222C82.165 21.3217 82.1933 21.2208 82.2197 21.1194Z" fill="url(#paint4_linear_50_33)"/>
<path d="M93.2716 48.1723C93.178 45.3211 91.3682 42.5042 88.6158 41.5738L88.6102 41.572C88.0128 41.3685 87.3876 41.2579 86.7565 41.2442C86.7149 41.2434 86.6732 41.243 86.6313 41.2429H82.3145C86.1819 41.2407 89.0041 44.8035 88.9627 48.5183C89.006 52.2336 86.1811 55.7986 82.3145 55.797C82.5307 55.7903 86.988 55.814 87.0601 55.7803C87.8043 55.7277 88.5329 55.5404 89.2101 55.2273C91.8636 54.0106 93.426 51.0416 93.2716 48.1723Z" fill="url(#paint5_linear_50_33)"/>
<path d="M51.2809 12.2093C51.1662 15.8003 48.368 19.1448 44.6397 19.1395H48.9566C49.4276 19.1382 49.8968 19.0834 50.3554 18.9762C52.0692 18.5809 53.5493 17.4205 54.4655 15.9342L54.4675 15.9307C55.0211 15.0289 55.3822 14.0223 55.5282 12.9742C55.6715 12.2574 55.5833 8.08849 55.6058 7.27875C55.6388 4.30928 53.8121 1.30057 50.9414 0.331078L50.9359 0.329371C50.3887 0.142072 49.8175 0.0338842 49.2397 0.00814344C49.1455 0.00295153 49.0511 -0.000105041 48.9566 0.000294337H44.6397C47.3977 -0.0277619 49.8516 1.95332 50.7811 4.49037C51.1173 5.38154 51.2894 6.32626 51.289 7.27875C51.2899 7.36551 51.2935 12.332 51.2809 12.2093Z" fill="url(#paint6_linear_50_33)"/>
<path d="M17.7989 48.5183C17.7989 52.5334 14.8163 55.7969 11.1493 55.7969H6.96521C-1.85106 55.4037 -1.85345 41.6371 6.96521 41.2431H11.1487C14.8163 41.243 17.7989 44.5068 17.7989 48.5183Z" fill="#1869FF"/>
<path d="M16.281 27.7495L13.3017 24.4888C9.57893 19.9983 12.2678 12.3796 18.2268 12.3271C19.837 12.3392 21.3821 12.9643 22.5478 14.0751L25.6587 17.471C29.6474 21.7321 27.1117 29.8176 20.9722 29.8606C19.1808 29.8533 17.5296 29.103 16.281 27.7495Z" fill="#1869FF"/>
<path d="M69.7569 54.9884C73.4212 54.9884 76.4036 58.2533 76.4036 62.267C76.4036 66.2808 73.4215 69.5457 69.7569 69.5457H19.5227C15.8556 69.5457 12.8731 66.2813 12.8731 62.267C12.8721 58.1235 16.0381 54.8137 19.8466 54.9884C15.8693 38.2306 28.2274 20.3614 44.6391 20.6219C61.0463 20.3608 73.4049 38.2275 69.432 54.9884H69.7569ZM55.235 54.9884C59.8187 46.5821 54.0443 35.1148 44.6391 35.1787C35.2451 35.1113 29.4566 46.5828 34.0445 54.9884H55.235Z" fill="#1869FF"/>
<path d="M68.2245 29.858C62.2438 29.5344 59.9374 21.6316 63.8238 17.4762L66.5296 14.2887C67.6978 12.791 69.6385 11.8019 71.5101 11.8273C77.9401 11.938 80.3426 20.4752 75.8327 24.6309L73.0032 27.7415C71.7383 29.1182 70.0637 29.8697 68.2846 29.8607L68.2245 29.858Z" fill="#1869FF"/>
<path d="M82.3144 41.243C91.1341 41.6375 91.1299 55.4041 82.3144 55.7967H78.1275C74.4604 55.7967 71.4779 52.5334 71.4779 48.518C71.4779 44.5066 74.46 41.2428 78.1275 41.2428L82.3144 41.243Z" fill="#1869FF"/>
<path d="M44.6393 19.1395C40.9722 19.1395 37.9905 15.8755 37.9905 11.8615V7.27864C38.3553 -2.37682 50.9243 -2.37632 51.2885 7.27864V11.8615C51.2885 15.8755 48.3072 19.1395 44.6393 19.1395Z" fill="#1869FF"/>
<g style="mix-blend-mode:multiply" opacity="0.4" filter="url(#filter0_f_50_33)">
<path d="M82.2433 45.2239C86.1009 45.3964 86.1021 51.4203 82.2433 51.5931H78.0574C74.1989 51.42 74.1986 45.3972 78.0574 45.2239H82.2433Z" fill="#0440AD"/>
<path d="M20.8995 25.658C20.5114 25.6559 20.1281 25.5725 19.7741 25.4134C19.4202 25.2543 19.1034 25.0229 18.8442 24.734L15.9137 21.5262C14.3938 19.6057 15.589 16.3221 18.1547 16.3077C18.8432 16.3127 19.505 16.5746 20.0105 17.042L22.9447 20.2535C24.674 22.1071 23.5901 25.6425 20.8995 25.658Z" fill="#0440AD"/>
<path d="M69.6848 58.9705C73.5288 59.1359 73.558 65.1601 69.6848 65.3406H19.4515C17.8474 65.3406 16.5432 63.9117 16.5432 62.1555C16.5432 60.3994 17.8474 58.9705 19.4515 58.9705H25.0167L24.3231 57.0575C18.8711 42.6137 28.5414 24.606 44.5683 24.6036C60.5975 24.6069 70.2663 42.615 64.8143 57.0576L64.1209 58.9705H69.6848ZM57.5346 58.3914C64.9543 47.4772 57.6229 30.9142 44.568 30.9733C31.143 30.996 24.0218 48.0367 31.9846 58.9709H57.1526L57.5346 58.3914Z" fill="#0440AD"/>
<path d="M71.439 15.8085C74.2819 15.8655 75.3118 19.6338 73.2961 21.4471L70.2889 24.7385C70.0361 25.0203 69.7281 25.2472 69.3841 25.4052C69.0401 25.5632 68.6672 25.6489 68.2887 25.6571C65.6928 25.4843 64.716 22.0657 66.4045 20.2508L69.2155 16.9431C69.4741 16.596 69.8093 16.313 70.1948 16.1163C70.5804 15.9195 71.0061 15.8142 71.439 15.8085Z" fill="#0440AD"/>
<path d="M11.0797 45.2239C14.9377 45.3969 14.9389 51.4197 11.0797 51.5931H6.89316C3.03576 51.4204 3.03547 45.3968 6.89316 45.2239H11.0797Z" fill="#0440AD"/>
<path d="M44.5681 14.9347C42.964 14.9347 41.6599 13.507 41.6599 11.7503V7.16813C41.8196 2.94401 47.3178 2.94391 47.4776 7.16813V11.7503C47.4776 13.5072 46.1731 14.9347 44.5681 14.9347Z" fill="#0440AD"/>
</g>
<path d="M78.243 45.3344C82.1006 45.5069 82.1018 51.5308 78.243 51.7036H74.057C70.1985 51.5305 70.1982 45.5077 74.057 45.3344H78.243Z" fill="#F0F8FF"/>
<path d="M16.8992 25.7685C16.5111 25.7664 16.1278 25.6831 15.7738 25.524C15.4199 25.3648 15.1031 25.1334 14.8439 24.8445L11.9134 21.6367C10.3935 19.7162 11.5887 16.4326 14.1544 16.4182C14.8429 16.4232 15.5047 16.6851 16.0102 17.1525L18.9445 20.364C20.6737 22.2176 19.5896 25.753 16.8992 25.7685Z" fill="#F0F8FF"/>
<path d="M65.6845 59.081C69.5285 59.2464 69.5576 65.2706 65.6845 65.4511H15.4512C13.8471 65.4511 12.5429 64.0222 12.5429 62.266C12.5429 60.5099 13.8471 59.081 15.4512 59.081H21.0163L20.3227 57.168C14.8707 42.7242 24.541 24.7165 40.568 24.7141C56.5971 24.7174 66.266 42.7255 60.814 57.1681L60.1206 59.081H65.6845ZM53.5341 58.5019C60.9539 47.5877 53.6226 31.0247 40.5677 31.0838C27.1427 31.1065 20.0214 48.1472 27.9841 59.0814H53.1523L53.5341 58.5019Z" fill="#F0F8FF"/>
<path d="M67.4386 15.919C70.2815 15.976 71.3114 19.7443 69.2957 21.5576L66.2886 24.849C66.0357 25.1308 65.7278 25.3577 65.3837 25.5157C65.0397 25.6737 64.6669 25.7594 64.2884 25.7676C61.6919 25.5949 60.7156 22.1762 62.4041 20.3613L65.215 17.0536C65.4737 16.7065 65.8088 16.4235 66.1944 16.2268C66.58 16.03 67.0057 15.9247 67.4386 15.919Z" fill="#F0F8FF"/>
<path d="M7.07972 45.3344C10.9377 45.5074 10.9389 51.5302 7.07972 51.7036H2.89323C-0.96426 51.5309 -0.96456 45.5073 2.89323 45.3344H7.07972Z" fill="#F0F8FF"/>
<path d="M40.5676 15.0452C38.9635 15.0452 37.6593 13.6175 37.6593 11.8608V7.27863C37.819 3.05451 43.3172 3.05441 43.477 7.27863V11.8608C43.4773 13.6177 42.1728 15.0452 40.5676 15.0452Z" fill="#F0F8FF"/>
<defs>
<filter id="filter0_f_50_33" x="1" y="1" width="87.137" height="85.6685" filterUnits="userSpaceOnUse" color-interpolation-filters="sRGB">
<feFlood flood-opacity="0" result="BackgroundImageFix"/>
<feBlend mode="normal" in="SourceGraphic" in2="BackgroundImageFix" result="shape"/>
<feGaussianBlur stdDeviation="1.5" result="effect1_foregroundBlur_50_33"/>
</filter>
<linearGradient id="paint0_linear_50_33" x1="52.2156" y1="0" x2="52.2156" y2="87.8756" gradientUnits="userSpaceOnUse">
<stop stop-color="#0440AD"/>
<stop offset="1" stop-color="#1869FF"/>
</linearGradient>
<linearGradient id="paint1_linear_50_33" x1="52.2156" y1="0" x2="52.2156" y2="87.8756" gradientUnits="userSpaceOnUse">
<stop stop-color="#0440AD"/>
<stop offset="1" stop-color="#1869FF"/>
</linearGradient>
<linearGradient id="paint2_linear_50_33" x1="52.2156" y1="0" x2="52.2156" y2="87.8756" gradientUnits="userSpaceOnUse">
<stop stop-color="#0440AD"/>
<stop offset="1" stop-color="#1869FF"/>
</linearGradient>
<linearGradient id="paint3_linear_50_33" x1="52.2156" y1="0" x2="52.2156" y2="87.8756" gradientUnits="userSpaceOnUse">
<stop stop-color="#0440AD"/>
<stop offset="1" stop-color="#1869FF"/>
</linearGradient>
<linearGradient id="paint4_linear_50_33" x1="52.2156" y1="0" x2="52.2156" y2="87.8756" gradientUnits="userSpaceOnUse">
<stop stop-color="#0440AD"/>
<stop offset="1" stop-color="#1869FF"/>
</linearGradient>
<linearGradient id="paint5_linear_50_33" x1="52.2156" y1="0" x2="52.2156" y2="87.8756" gradientUnits="userSpaceOnUse">
<stop stop-color="#0440AD"/>
<stop offset="1" stop-color="#1869FF"/>
</linearGradient>
<linearGradient id="paint6_linear_50_33" x1="52.2156" y1="0" x2="52.2156" y2="87.8756" gradientUnits="userSpaceOnUse">
<stop stop-color="#0440AD"/>
<stop offset="1" stop-color="#1869FF"/>
</linearGradient>
</defs>
</svg>
