<svg width="94" height="98" viewBox="0 0 94 98" fill="none" xmlns="http://www.w3.org/2000/svg">
<path d="M15.7969 69.5632C17.0971 69.4926 18.3427 69.0177 19.3598 68.2048C19.6487 67.9764 19.9191 67.7256 20.1685 67.4547L30.7804 55.7959H26.4635L15.8516 67.4547C15.5595 67.7719 15.2386 68.0614 14.8931 68.3196C13.8188 69.1283 12.5116 69.5674 11.1669 69.5715H15.4838C15.5887 69.5715 15.693 69.5685 15.7969 69.5632Z" fill="url(#paint0_linear_41_136)"/>
<path d="M11.5252 27.4871C12.8251 27.5659 14.0682 28.048 15.0813 28.8664C15.367 29.0939 15.6343 29.3438 15.8805 29.6136L26.4633 41.2399H30.7802L20.1974 29.6136C19.9513 29.3436 19.684 29.0937 19.398 28.8664C18.4647 28.1131 17.3352 27.6428 16.1431 27.5114H16.1418C15.8249 27.4439 11.5984 27.4882 11.1646 27.4763C11.2856 27.4763 11.4052 27.4818 11.5252 27.4871Z" fill="url(#paint1_linear_41_136)"/>
<path d="M23.1579 14.7285C25.0764 17.2731 25.1507 21.0155 23.3637 23.6486C22.1899 25.4201 20.1586 26.6291 18.0114 26.6094H22.3283C22.8916 26.6082 23.4521 26.5307 23.9947 26.379C25.788 25.8809 27.2845 24.5443 28.1225 22.8983C29.3988 22.9427 30.6304 23.3792 31.6499 24.1482C32.3034 24.5009 37.3639 30.3073 38.0063 30.9482H42.3232C41.8294 30.4526 36.5635 24.4892 36.142 24.2835C35.2091 23.5303 34.0801 23.0598 32.8883 22.9278H32.8863C32.5481 22.8606 28.5693 22.9048 28.1253 22.893C29.4981 20.2371 29.187 16.7867 27.2746 14.4721L27.273 14.4702C26.2157 13.1699 24.6648 12.2604 22.9878 12.0889H22.984C22.6729 12.0218 18.4403 12.0658 18.0118 12.0541C20.0356 12.0363 21.9706 13.1102 23.1579 14.7285Z" fill="url(#paint2_linear_41_136)"/>
<path d="M32.3184 72.3163C31.2025 73.4061 29.6925 74.1027 28.126 74.145C27.7742 73.4613 27.318 72.8367 26.7738 72.2935L26.773 72.2927C25.7551 71.2707 24.4201 70.625 22.9869 70.4615H22.9854C22.673 70.3943 18.4418 70.4384 18.0118 70.4266C18.2315 70.4285 18.4511 70.4386 18.669 70.4615H18.6705C22.3988 70.8509 24.9008 74.5479 24.6443 78.1529C24.4982 81.7013 21.6919 84.9983 18.0096 84.9836C18.7417 84.9637 22.6274 85.046 23.2602 84.9116C24.1684 84.7709 25.034 84.4305 25.7947 83.9148C28.9109 81.8402 29.8346 77.4193 28.1294 74.1508H32.2287C32.3333 74.1508 32.4376 74.1476 32.5415 74.1424C33.1024 74.1127 33.6566 74.0069 34.189 73.8279C35.0497 73.5304 35.8392 73.0573 36.5074 72.4387C36.6582 72.2968 36.806 72.1537 36.9468 72.0003L42.3235 66.0888H38.0066L32.6299 72.0003C32.5283 72.1097 32.4258 72.2149 32.3184 72.3163Z" fill="url(#paint3_linear_41_136)"/>
<path d="M32.4558 4.57492C33.8687 4.66246 35.2108 5.22355 36.2655 6.16764C36.68 6.50611 37.6282 7.62217 38.0065 8.02305H42.3234C41.9368 7.61368 41.0004 6.5107 40.5829 6.16804C39.6047 5.29322 38.3783 4.74483 37.0741 4.59908H37.0723C36.7566 4.53169 32.5289 4.57592 32.0961 4.56414C32.2162 4.56404 32.336 4.56983 32.4558 4.57492Z" fill="url(#paint4_linear_41_136)"/>
<path d="M39.244 91.7844C39.7664 91.5123 40.2511 91.1733 40.6858 90.7759C41.0209 90.4823 42.0053 89.3548 42.3233 89.0132H38.0064C37.5342 89.5154 36.6293 90.5981 36.0983 91.0101C34.9753 91.9488 33.5596 92.4658 32.096 92.4715C32.5187 92.4609 36.7478 92.5014 37.0406 92.4389C37.8094 92.3598 38.5567 92.1378 39.244 91.7844Z" fill="url(#paint5_linear_41_136)"/>
<path d="M48.972 97.0365C51.858 97.0619 54.3748 94.9145 55.2275 92.2251C55.4567 91.5278 55.5872 90.8019 55.6153 90.0684C55.6277 89.8338 55.6185 89.2535 55.6213 89.0158H51.3044C51.3303 90.0952 51.2668 91.199 50.9107 92.2246C50.0579 94.9141 47.541 97.0621 44.655 97.0365H48.972Z" fill="url(#paint6_linear_41_136)"/>
<path d="M45.0162 0.0111339C47.7554 0.145624 50.0983 2.24995 50.9102 4.81096C51.2652 5.83077 51.3296 6.94763 51.304 8.02125H55.6209C55.6309 7.20063 55.6209 6.3254 55.4254 5.52774C54.9162 3.20246 53.2378 1.10523 50.9563 0.330835L50.9507 0.329038C50.4034 0.141787 49.8323 0.0336282 49.2545 0.00783857C49.1605 0.0027465 49.0661 -0.00044805 48.9716 5.11717e-05H44.6547C44.7766 -4.86727e-05 44.8964 0.005942 45.0162 0.0111339Z" fill="url(#paint7_linear_41_136)"/>
<path d="M57.5722 4.57492C60.0807 4.69304 62.2883 6.47197 63.2461 8.74752C64.0466 10.6386 64.0881 12.7654 63.3617 14.6863C63.0827 15.4175 62.6889 16.0995 62.1952 16.7068C62.1076 16.8133 62.0187 16.9185 61.9256 17.0208L51.3044 28.6052V30.9482H55.6213V28.6052L66.2431 17.0208C66.3368 16.9196 66.4245 16.8133 66.5122 16.707C67.0062 16.0998 67.4 15.4177 67.6788 14.6863C68.3672 12.8655 68.3675 10.856 67.6795 9.03507C66.8157 6.72098 64.6899 4.8451 62.1909 4.59898H62.1894C61.8727 4.53159 57.6459 4.57582 57.2124 4.56404C57.3327 4.56404 57.4522 4.56983 57.5722 4.57492Z" fill="url(#paint8_linear_41_136)"/>
<path d="M62.4438 80.655C64.495 83.4301 64.3409 87.5916 62.0584 90.1873C60.8317 91.5564 59.08 92.5031 57.2149 92.4826C57.7608 92.4673 61.8377 92.5259 62.2704 92.4362C63.8684 92.2539 65.3076 91.365 66.3752 90.1873C68.8002 87.437 68.8068 82.9369 66.3865 80.1816L55.6213 68.4312V66.0888H51.3044V68.4312L62.0696 80.1816C62.2003 80.3347 62.3256 80.4922 62.4438 80.655Z" fill="url(#paint9_linear_41_136)"/>
<path d="M68.6015 23.6091C67.9125 23.2447 67.1608 23.014 66.386 22.9291C66.3827 22.9291 66.3794 22.9282 66.376 22.9279H66.3742C66.0594 22.8607 61.8307 22.9049 61.3987 22.8931C64.0263 22.8614 66.4109 24.6703 67.418 27.0452C68.2325 28.9434 68.279 31.0835 67.5478 33.0152C67.2689 33.7462 66.8751 34.4281 66.3815 35.0352C66.2938 35.1417 66.205 35.2471 66.1119 35.3494L60.7062 41.2402H65.023L70.4289 35.3494C70.4674 35.3074 70.5053 35.2649 70.5426 35.2219C70.9131 34.794 71.2338 34.3254 71.4985 33.8252C72.0734 32.7104 72.3758 31.4752 72.3807 30.2209C72.3857 28.9666 72.0932 27.729 71.5272 26.6097H75.6156C76.2417 26.6089 76.864 26.513 77.4614 26.3252C79.463 25.7044 81.0451 24.0437 81.7647 22.0977C82.7132 19.5768 82.2859 16.5618 80.5631 14.4717C79.5064 13.1703 77.9546 12.2608 76.2775 12.089H76.2736C75.9621 12.0219 71.7299 12.066 71.3006 12.0542C75.1784 12.0477 77.9915 15.624 77.9427 19.3443C77.9808 22.9701 75.2912 26.4791 71.5238 26.6043C71.1728 25.9248 70.7172 25.3047 70.1737 24.7666C69.7092 24.3057 69.1795 23.9157 68.6015 23.6091Z" fill="url(#paint10_linear_41_136)"/>
<path d="M82.2549 77.3869C82.1987 75.7294 81.6059 74.1349 80.5656 72.8433C80.4474 72.697 80.2883 72.5245 80.1617 72.3825L80.1083 72.34C79.1465 71.3558 77.8925 70.7087 76.5331 70.495C75.9251 70.3652 72.2141 70.4485 71.5278 70.4264C72.128 69.2434 72.4138 67.9258 72.3578 66.6004C72.2869 64.8546 71.6535 63.1785 70.5521 61.822L65.0238 55.7959H60.7068L66.2352 61.822C68.5824 64.6548 68.6994 69.0548 66.2452 71.8585C65.0155 73.2247 63.2646 74.1716 61.3991 74.1508C61.9455 74.1355 66.0219 74.1942 66.4558 74.1043C68.0533 73.9222 69.4921 73.0334 70.5621 71.8585C70.9387 71.423 71.262 70.9442 71.5252 70.4321C73.128 70.478 74.6715 71.2029 75.7917 72.34L75.8452 72.3826C78.3069 74.9066 78.6297 79.1147 76.6525 82.0189C75.4773 83.791 73.4463 85.003 71.2969 84.9837C71.4644 84.979 76.0235 84.9979 76.0296 84.968C76.7635 84.9183 77.4826 84.7379 78.1531 84.4352C80.8243 83.2352 82.3968 80.2628 82.2549 77.3869Z" fill="url(#paint11_linear_41_136)"/>
<path d="M93.2873 48.1721C93.1937 45.32 91.3845 42.5014 88.631 41.5707C88.6292 41.57 88.6273 41.5695 88.6255 41.569C87.7799 41.2629 86.8608 41.2179 85.9686 41.2395C86.346 40.8202 87.3372 39.7918 87.6481 39.3518C88.3999 38.3291 88.882 37.1336 89.0502 35.8755C89.6235 32.0401 87.1364 27.9508 83.1214 27.511H83.1202C82.8033 27.4435 78.5773 27.4878 78.143 27.4759C78.3641 27.4779 78.5851 27.4879 78.8046 27.5112C82.9499 27.9745 85.4261 32.2621 84.6838 36.1892C84.4749 37.3809 83.9815 38.5047 83.2454 39.4649C82.9807 39.8315 81.9611 40.8901 81.6517 41.2397C82.1734 41.2482 82.7882 41.219 83.2976 41.3177C86.7048 41.8505 89.0174 45.174 88.9787 48.5183C89.0193 51.8653 86.6986 55.19 83.2893 55.7189C82.7842 55.8151 82.1667 55.7924 81.6518 55.7957L83.0032 57.2703C85.4194 60.028 85.4147 64.5258 82.9881 67.2754C81.7625 68.6452 80.0107 69.5918 78.1457 69.5713C78.8623 69.548 82.7707 69.6365 83.3904 69.4992C84.662 69.3089 85.8329 68.6742 86.7735 67.8087C86.9566 67.6365 87.1348 67.4631 87.3049 67.2754C89.7318 64.5262 89.7361 60.0277 87.3201 57.2703L85.9686 55.7957C86.4878 55.7935 87.0989 55.811 87.606 55.7189C91.1477 55.1643 93.4812 51.6386 93.2873 48.1721Z" fill="url(#paint12_linear_41_136)"/>
<path d="M18.0113 70.4263C21.7748 70.3595 24.7654 74.0313 24.6572 77.724C24.6989 83.8659 17.7302 87.5849 13.2949 82.8348C9.30354 78.5701 11.8604 70.4701 18.0113 70.4263Z" fill="#79517A"/>
<path d="M13.4905 24.6722L13.2952 24.4648C9.30325 20.1983 11.861 12.0999 18.0114 12.0535C24.1757 12.102 26.7278 20.2396 22.6975 24.4932C20.2859 27.2259 15.9913 27.3068 13.4905 24.6722Z" fill="#79517A"/>
<path d="M75.8448 72.3825C80.0496 76.6292 77.5799 84.9008 71.2965 84.9836C65.1312 84.9317 62.5835 76.7951 66.6124 72.5429C69.0152 69.8215 73.2885 69.7245 75.7914 72.3397L75.8448 72.3825Z" fill="#79517A"/>
<path d="M66.7544 24.654C62.549 20.4075 65.0171 12.1355 71.3016 12.0536C77.4668 12.1011 80.0149 20.2437 75.9855 24.4934C73.5832 27.2143 69.3095 27.3107 66.8072 24.6967L66.7544 24.654Z" fill="#79517A"/>
<path d="M88.9783 48.5185C88.9815 52.8252 85.6071 56.1227 81.6516 55.7959L83.003 57.2705C85.4093 59.9492 85.4045 64.6055 82.988 67.2756C80.3336 70.3036 76.0247 70.3109 73.4228 67.4154L62.8473 55.7959H60.7068L66.2351 61.822C68.6758 64.8227 68.6229 69.119 66.2451 71.8585C63.5837 74.8796 59.284 74.8907 56.6791 71.9983L51.3045 66.0892V68.4316L62.0695 80.1816C64.4808 82.8596 64.4728 87.5156 62.0583 90.1873C59.4024 93.2136 55.0949 93.2226 52.4923 90.3271L51.3041 89.0162C51.6121 93.2485 48.6507 97.043 44.6545 97.0368C40.6575 97.0429 37.6964 93.2461 38.0058 89.0132L36.8156 90.3271C35.5506 91.7144 33.8763 92.4717 32.0952 92.4717C25.9215 92.4266 23.3636 84.2926 27.3793 80.0166L38.0058 68.4316V66.0888L32.629 72.0003C30.155 74.7971 25.8504 74.8572 23.3318 72.15C20.545 69.0813 20.5698 64.5853 23.2045 61.6788L28.6033 55.7956H26.4627L15.8516 67.4547C13.3604 70.2764 8.91508 70.2542 6.44482 67.4147C3.84018 64.5429 3.85743 59.9282 6.45618 57.0989L7.65651 55.7956C3.70267 56.1216 0.329127 52.8237 0.332522 48.5182C0.329327 44.2123 3.70227 40.9133 7.65651 41.2395L6.45838 39.9391C3.85424 37.0836 3.85424 32.4556 6.45189 29.6132C8.93692 26.7807 13.3961 26.7819 15.8802 29.6132L26.463 41.2394H28.6036L23.2026 35.3545C20.6107 32.632 20.6107 27.7473 23.1978 25.0274C25.6794 22.1995 30.1409 22.1976 32.6239 25.0305L38.0061 30.9477V28.6052L27.3844 17.0232C23.3627 12.7437 25.9213 4.61097 32.0957 4.56394C33.8766 4.56394 35.5509 5.32276 36.8105 6.70201L38.0061 8.02305C37.6971 3.78965 40.6574 -0.00613702 44.6549 5.33391e-05C48.6509 -0.00613702 51.6129 3.78885 51.3045 8.02126L52.4927 6.7103C53.7599 5.32246 55.4336 4.56364 57.2125 4.56364C60.9845 4.50823 63.9663 8.12809 63.8785 11.8606C63.8785 13.8089 63.1866 15.641 61.9264 17.0205L51.3043 28.6052V30.9482L56.6811 25.0361C57.271 24.3671 57.9964 23.8312 58.8092 23.464C59.6221 23.0967 60.5037 22.9066 61.3956 22.9061C62.2876 22.9056 63.1694 23.0948 63.9827 23.4611C64.7959 23.8275 65.5219 24.3626 66.1125 25.031C68.6985 27.742 68.6985 32.6352 66.1125 35.3491L60.7068 41.2399H62.8473L73.428 29.616C74.6893 28.2342 76.3634 27.4761 78.1429 27.4761C81.9146 27.4209 84.8959 31.0406 84.8089 34.7725C84.8265 36.6759 84.1295 38.5168 82.8557 39.9313L81.6516 41.24C85.6071 40.9128 88.9817 44.2116 88.9783 48.5185Z" fill="#79517A"/>
<g style="mix-blend-mode:multiply" opacity="0.4" filter="url(#filter0_f_41_136)">
<path d="M20.3845 75.4449C22.1447 77.325 21.0296 80.8641 18.334 80.8879C17.9432 80.8858 17.5573 80.801 17.2016 80.6392C16.8459 80.4773 16.5284 80.242 16.27 79.9488C15.1457 78.7606 15.1497 76.6271 16.2822 75.4449C16.5399 75.1557 16.8559 74.9242 17.2094 74.7657C17.5629 74.6072 17.946 74.5253 18.3334 74.5253C18.7208 74.5253 19.1038 74.6072 19.4573 74.7657C19.8108 74.9242 20.1268 75.1557 20.3845 75.4449Z" fill="#79517A"/>
<path d="M16.2819 21.5907C14.5205 19.712 15.6375 16.1711 18.3328 16.1482C21.0322 16.1689 22.1468 19.7296 20.3841 21.5917C20.1264 21.8811 19.8104 22.1127 19.4569 22.2712C19.1033 22.4297 18.7203 22.5117 18.3328 22.5116C17.9453 22.5115 17.5622 22.4294 17.2088 22.2706C16.8553 22.1119 16.5394 21.8802 16.2819 21.5907Z" fill="#79517A"/>
<path d="M73.673 75.4449C75.4363 77.306 74.322 80.8674 71.6221 80.8879C71.2314 80.8857 70.8455 80.8008 70.4899 80.639C70.1343 80.4771 69.8169 80.2419 69.5585 79.9488C68.434 78.7613 68.4394 76.6271 69.5708 75.4449C69.8285 75.1557 70.1445 74.9242 70.498 74.7657C70.8515 74.6072 71.2345 74.5253 71.6219 74.5253C72.0093 74.5253 72.3923 74.6072 72.7458 74.7657C73.0993 74.9242 73.4153 75.1557 73.673 75.4449Z" fill="#79517A"/>
<path d="M69.5707 21.5907C68.4317 20.3889 68.4358 18.2659 69.5707 17.0744C69.8288 16.785 70.1446 16.5531 70.498 16.3935C70.8514 16.2339 71.2343 16.1504 71.622 16.1482C74.3209 16.169 75.4361 19.7299 73.6729 21.5917C73.4153 21.8811 73.0993 22.1127 72.7457 22.2712C72.3922 22.4297 72.0091 22.5117 71.6216 22.5116C71.2341 22.5115 70.8511 22.4294 70.4976 22.2706C70.1441 22.1119 69.8283 21.8802 69.5707 21.5907Z" fill="#79517A"/>
<path d="M82.652 45.3334C86.5113 45.5065 86.5099 51.5307 82.652 51.7027H72.8964L80.5564 60.0229C81.6789 61.2111 81.6725 63.3465 80.5388 64.5259C79.9658 65.1477 79.2388 65.4759 78.4662 65.4759C78.075 65.4739 77.6886 65.3889 77.3326 65.2265C76.9766 65.0642 76.659 64.8283 76.4008 64.5343L64.7215 51.703H51.9735L63.8122 64.6049C64.3652 65.2251 64.6659 66.0299 64.6551 66.8608C64.6951 68.4889 63.3442 70.0877 61.7219 70.0588C61.3306 70.0565 60.9442 69.9713 60.5882 69.8088C60.2322 69.6464 59.9147 69.4103 59.6565 69.1162L47.8866 56.176V70.1314L59.6263 82.9343C61.3858 84.8291 60.2228 88.3552 57.5361 88.3867C57.1447 88.3846 56.7582 88.2996 56.4021 88.1373C56.0459 87.975 55.7282 87.7391 55.4699 87.4451L47.8866 79.0803V89.7588C47.8866 91.5145 46.582 92.9438 44.9772 92.9438C43.3724 92.9438 42.0684 91.5149 42.0684 89.7588V79.0803L34.4851 87.445C34.2255 87.7372 33.907 87.9711 33.5505 88.1311C33.1939 88.2912 32.8075 88.3738 32.4166 88.3734C32.0258 88.3731 31.6395 88.2899 31.2833 88.1292C30.927 87.9686 30.6088 87.7342 30.3498 87.4415C29.7976 86.8163 29.4928 86.0109 29.4928 85.1767C29.4928 84.3426 29.7976 83.5372 30.3498 82.912L42.0684 70.1319V56.176L30.2803 69.1358C30.0225 69.4242 29.7071 69.6553 29.3545 69.8142C29.0018 69.9732 28.6198 70.0565 28.233 70.0587C26.5771 70.0896 25.2506 68.4465 25.2998 66.8344C25.2953 66.0038 25.6022 65.2016 26.1599 64.586L37.9815 51.7026H25.2334L13.5392 64.55C13.2812 64.8391 12.9653 65.0709 12.6121 65.2304C12.2589 65.3898 11.8762 65.4735 11.4887 65.4758C8.77822 65.4551 7.64945 61.8491 9.4162 60.0044L17.0576 51.7029H7.30201C5.69811 51.7029 4.39355 50.2744 4.39355 48.5179C4.39355 46.7613 5.69811 45.3328 7.30201 45.3328H17.0576L9.4161 37.0318C7.65385 35.1613 8.77962 31.5862 11.4888 31.5672C11.8802 31.5694 12.2667 31.6542 12.6231 31.8159C12.9795 31.9776 13.2978 32.2126 13.5573 32.5057L25.2334 45.3327H37.9814L26.1617 32.452C25.6038 31.8314 25.2987 31.0242 25.3065 30.1897C25.268 28.5523 26.5779 26.9622 28.233 26.9863C28.6245 26.9886 29.0111 27.0734 29.3677 27.2351C29.7242 27.3968 30.0427 27.6318 30.3024 27.9248L42.0684 40.8599V26.9052L30.349 14.1236C29.7974 13.4984 29.4931 12.6931 29.4934 11.8593C29.4936 11.0255 29.7983 10.2205 30.3503 9.59549C30.6095 9.30241 30.928 9.06773 31.2848 8.90701C31.6415 8.74628 32.0283 8.66316 32.4195 8.66316C32.8108 8.66316 33.1976 8.74628 33.5543 8.90701C33.911 9.06773 34.2295 9.30241 34.4888 9.59549L42.0688 17.9567V7.2779C42.0688 5.52214 43.3734 4.09286 44.9777 4.09286C46.582 4.09286 47.8871 5.52174 47.8871 7.2779V17.9568L55.4704 9.5911C55.7298 9.29914 56.0477 9.0651 56.4036 8.90422C56.7594 8.74334 57.1452 8.65922 57.5358 8.65735C60.2463 8.67642 61.3718 12.2499 59.6055 14.1251L47.8871 26.9052V40.8599L59.6553 27.9221C59.9147 27.6297 60.2328 27.3951 60.5889 27.2338C60.945 27.0725 61.3311 26.9881 61.722 26.986C63.3772 26.9625 64.6865 28.5517 64.6475 30.1894C64.6556 31.0249 64.3498 31.833 63.7905 32.4537L51.9735 45.3336H64.7215L76.399 32.5046C76.6585 32.2121 76.9766 31.9775 77.3327 31.8162C77.6888 31.6548 78.0749 31.5702 78.4658 31.568C81.1757 31.5887 82.3017 35.1614 80.5352 37.0361L72.896 45.3332L82.652 45.3334Z" fill="#79517A"/>
</g>
<path d="M7.38115 31.583C7.38234 31.583 7.38356 31.583 7.38475 31.583C7.93416 31.6445 8.45254 31.8691 8.87321 32.2279C8.97611 32.3141 9.07319 32.407 9.16377 32.5061L20.8398 45.3332H21.916C21.6433 45.0405 10.4286 32.7006 10.1307 32.3924L10.1274 32.389C10.0645 32.3279 9.99955 32.2704 9.93396 32.2138C9.51553 31.8635 9.00324 31.6441 8.46096 31.583H8.46018C8.45928 31.583 8.45825 31.583 8.45725 31.583C8.26306 31.5557 7.30788 31.5719 7.09521 31.5679C7.19057 31.5695 7.28659 31.5731 7.38115 31.583Z" fill="url(#paint13_linear_41_136)"/>
<path d="M17.919 77.5819C17.896 76.8458 17.6331 76.1373 17.1702 75.5644C17.1055 75.4853 17.0366 75.4097 16.9637 75.338H16.9632C16.6141 74.9902 16.1806 74.739 15.7052 74.6091C15.5731 74.5753 15.4389 74.5505 15.3035 74.5349C15.3035 74.5349 15.3026 74.5349 15.3021 74.5349C15.1078 74.5077 14.1527 74.524 13.9399 74.5199C14.0353 74.5216 14.1314 74.5252 14.2259 74.5349H14.2273C15.8287 74.6898 16.9368 76.3056 16.8432 77.852C16.8114 79.4066 15.5562 80.9072 13.941 80.8884C14.4902 80.8765 15.3604 80.95 15.8758 80.7475C17.1788 80.3149 17.9848 78.9234 17.919 77.5819Z" fill="url(#paint14_linear_41_136)"/>
<path d="M16.2649 17.4203C17.6341 19.3721 16.47 22.4844 13.9393 22.5175C14.1572 22.515 15.0933 22.5284 15.2889 22.5033C15.6376 22.4676 15.976 22.3643 16.2852 22.1992C18.0558 21.2666 18.4392 18.7123 17.1812 17.2063V17.2058C17.1125 17.1225 17.0397 17.0429 16.9629 16.9671C16.6581 16.6618 16.2873 16.4304 15.879 16.2909C15.6924 16.2281 15.4997 16.1856 15.304 16.1639H15.2989C15.1067 16.1368 14.1507 16.153 13.9393 16.1489C14.8681 16.1409 15.7512 16.6565 16.2649 17.4203Z" fill="url(#paint15_linear_41_136)"/>
<path d="M20.8398 51.703L9.14568 64.55C9.04944 64.6537 8.94648 64.7509 8.83747 64.841C8.3481 65.2486 7.73209 65.4731 7.09521 65.4758C7.30998 65.4719 8.25138 65.4876 8.44458 65.4617C8.87113 65.4174 9.2812 65.2729 9.64125 65.0399C9.85446 64.9015 10.0495 64.7369 10.2218 64.55L21.916 51.703H20.8398Z" fill="url(#paint16_linear_41_136)"/>
<path d="M25.6443 69.371C25.1458 69.8112 24.5045 70.0556 23.8394 70.0587C24.0543 70.0548 24.9956 70.0707 25.1888 70.0446C25.615 70.0004 26.0248 69.8562 26.3846 69.6236C26.597 69.4858 26.7913 69.322 26.9629 69.1359L38.751 56.176H37.6749L25.8867 69.1358C25.81 69.2184 25.7291 69.2968 25.6443 69.371Z" fill="url(#paint17_linear_41_136)"/>
<path d="M24.1264 27.0015C24.6777 27.0627 25.198 27.2878 25.6199 27.6478C25.7222 27.7335 25.8187 27.8259 25.9089 27.9244L37.6749 40.8599H38.751L26.9851 27.9241C26.8897 27.8207 26.7879 27.7235 26.6802 27.633C26.2612 27.2823 25.7483 27.0626 25.2054 27.0014H25.2026C25.0076 26.9739 24.053 26.9903 23.8394 26.9862C23.9351 26.988 24.0316 26.9915 24.1264 27.0015Z" fill="url(#paint18_linear_41_136)"/>
<path d="M28.3145 8.67275H28.3161C28.9426 8.74418 29.5267 9.02515 29.9735 9.47011C30.0156 9.51005 30.0554 9.55238 30.0952 9.59541L37.6753 17.9567H38.7514L31.1713 9.59541C31.1313 9.55238 31.0914 9.51005 31.0498 9.47011C30.7037 9.12711 30.2751 8.87904 29.8053 8.74983C29.6698 8.71426 29.5319 8.6885 29.3927 8.67275H29.391C29.195 8.64509 28.2411 8.66157 28.0266 8.65747C28.1225 8.65917 28.2193 8.66267 28.3145 8.67275Z" fill="url(#paint19_linear_41_136)"/>
<path d="M37.6749 79.0804L30.0916 87.445C29.8276 87.7354 29.5082 87.9699 29.1522 88.1349C28.7985 88.2956 28.4147 88.3791 28.0262 88.3798C28.1611 88.3773 29.1782 88.3864 29.2856 88.3729C29.6116 88.3509 29.931 88.2703 30.2284 88.1349C30.5844 87.9699 30.9037 87.7354 31.1677 87.445L38.751 79.0804H37.6749Z" fill="url(#paint20_linear_41_136)"/>
<path d="M41.8012 92.9395C42.8873 92.8916 43.847 92.1332 44.2751 91.1535C44.4494 90.7593 44.5479 90.336 44.5657 89.9054C44.5686 89.8568 44.5688 89.8079 44.5691 89.7588V79.0804H43.4929V89.7588C43.4926 90.0399 43.4584 90.3199 43.3911 90.5928C43.0946 91.8741 41.9333 92.9591 40.5836 92.9434C40.6695 92.9421 41.7507 92.9471 41.8012 92.9395Z" fill="url(#paint21_linear_41_136)"/>
<path d="M40.8505 4.10717C42.0549 4.217 43.0466 5.18689 43.361 6.32851C43.448 6.63746 43.4925 6.95685 43.493 7.27783V17.9568H44.5692V7.27783C44.5685 7.12248 44.5582 6.96733 44.5383 6.81325C44.4452 6.09723 44.1197 5.43154 43.6118 4.91831C43.4443 4.75307 43.2583 4.60774 43.0574 4.48518L43.0526 4.48259C42.7159 4.2802 42.3395 4.1528 41.9491 4.10907C41.7488 4.08091 40.8015 4.09729 40.5837 4.09329C40.673 4.09489 40.7628 4.09838 40.8505 4.10717Z" fill="url(#paint22_linear_41_136)"/>
<path d="M53.4316 8.67275H53.4322C55.4916 8.8983 56.5703 11.2653 55.8412 13.0967C55.7418 13.3587 55.6088 13.6067 55.4457 13.8346C55.3732 13.9357 55.295 14.0327 55.2115 14.125L43.493 26.905V40.8599H44.5692V26.9051C44.6227 26.8445 56.2881 14.1278 56.3346 14.0726C56.5433 13.831 56.7159 13.5603 56.8469 13.2691C57.4088 12.0233 57.1608 10.441 56.1745 9.4777C55.8245 9.12922 55.39 8.87765 54.9135 8.74763C54.7803 8.71354 54.645 8.68855 54.5084 8.67285H54.5077C54.3104 8.64519 53.3573 8.66167 53.1416 8.65757C53.2384 8.65917 53.3358 8.66266 53.4316 8.67275Z" fill="url(#paint23_linear_41_136)"/>
<path d="M57.1479 85.0398V85.0382C57.1229 84.3134 56.8637 83.6163 56.4091 83.0513L56.4077 83.0496C56.255 82.8629 44.716 70.2987 44.569 70.1315V56.176H43.4928V70.1315L55.2328 82.9343C55.2674 82.9725 55.3006 83.0113 55.3327 83.0508C55.5664 83.3381 55.7494 83.6632 55.8737 84.0121C56.5979 85.9427 55.3155 88.3712 53.1422 88.3867C53.5596 88.3734 54.4185 88.4289 54.815 88.3192C55.7934 88.0972 56.5884 87.3154 56.9331 86.3867L56.9337 86.3852C57.0924 85.955 57.1652 85.4979 57.1479 85.0398Z" fill="url(#paint24_linear_41_136)"/>
<path d="M57.6155 27.0015C59.6701 27.2262 60.7506 29.5765 60.0355 31.409C59.9025 31.7635 59.7084 32.0919 59.462 32.3793C59.4155 32.444 47.6386 45.2636 47.5799 45.3335H48.6561C48.725 45.2548 60.4677 32.465 60.525 32.3959C60.7264 32.1635 60.8935 31.9035 61.0215 31.6238C61.5524 30.4749 61.3928 29.0278 60.5809 28.0484L60.5775 28.0445C60.5103 27.9631 60.439 27.8851 60.364 27.8109L60.3607 27.8074C60.0559 27.5051 59.6875 27.2744 59.2824 27.1324C59.0915 27.0678 58.8942 27.024 58.6939 27.0017H58.6912C58.4961 26.9742 57.5416 26.9906 57.328 26.9865C57.4242 26.988 57.5205 26.9915 57.6155 27.0015Z" fill="url(#paint25_linear_41_136)"/>
<path d="M59.6734 64.9268C61.0635 66.9 59.8685 70.0089 57.3286 70.0588C57.6359 70.0514 58.5236 70.0823 58.8123 70.0273C59.6585 69.9018 60.3972 69.3445 60.8429 68.6263L60.8435 68.6251C61.1414 68.1302 61.3103 67.5684 61.3347 66.9912C61.3591 66.414 61.2383 65.8399 60.9832 65.3216C60.8536 65.0618 60.6893 64.8207 60.495 64.605L48.6561 51.703H47.5799L59.4186 64.6049C59.5104 64.7065 59.5955 64.8141 59.6734 64.9268Z" fill="url(#paint26_linear_41_136)"/>
<path d="M69.5549 75.7922C70.9238 77.7429 69.7577 80.8553 67.2285 80.8879C67.3667 80.8897 68.3773 80.8916 68.4865 80.8811C68.8673 80.8557 69.2384 80.7494 69.5749 80.5693C71.3436 79.6365 71.729 77.0838 70.4708 75.5783L70.4704 75.5776C70.4336 75.5325 70.3945 75.4885 70.3554 75.445C70.3214 75.4079 70.2867 75.3719 70.2513 75.3371C69.8048 74.8898 69.2199 74.6069 68.5921 74.5347H68.5904C68.3965 74.5075 67.4411 74.5237 67.2287 74.5197C67.324 74.5213 67.4198 74.5249 67.5142 74.5347H67.516C68.1949 74.614 68.8219 74.9376 69.2796 75.4453C69.3793 75.5544 69.4713 75.6703 69.5549 75.7922Z" fill="url(#paint27_linear_41_136)"/>
<path d="M69.5537 17.4201C70.9236 19.3714 69.759 22.4843 67.2286 22.5175C67.6466 22.5042 68.5054 22.5595 68.9025 22.4499C69.8726 22.2349 70.6564 21.463 70.9957 20.5429V20.5419C71.41 19.4385 71.2233 18.1204 70.4694 17.2057L70.4687 17.205C70.2524 16.9412 69.9932 16.7158 69.702 16.5381C69.6449 16.5048 69.587 16.4728 69.5286 16.442C69.3607 16.3576 69.1848 16.2902 69.0034 16.2406L68.9935 16.2374C68.8617 16.2037 68.7278 16.179 68.5928 16.1634H68.5872C68.3954 16.1362 67.439 16.1525 67.2283 16.1484C68.1572 16.141 69.0402 16.6564 69.5537 17.4201Z" fill="url(#paint28_linear_41_136)"/>
<path d="M76.4173 60.3448C76.7837 60.8881 76.9873 61.5248 77.0039 62.1799C77.0206 62.835 76.8496 63.4813 76.5112 64.0425C76.5106 64.0435 76.5099 64.0445 76.5093 64.0456C75.9953 64.8821 75.0704 65.4858 74.0725 65.4758C74.2054 65.4734 75.2248 65.4824 75.3305 65.469C75.652 65.4473 75.9668 65.3677 76.26 65.2341C76.8077 64.9748 77.2684 64.5621 77.586 64.046C77.5867 64.0449 77.5874 64.044 77.588 64.0429C77.8859 63.548 78.0549 62.9862 78.0793 62.409C78.1037 61.8319 77.9828 61.2578 77.7277 60.7395C77.6526 60.5885 77.5654 60.4438 77.467 60.3068C77.397 60.2078 77.321 60.1131 77.2396 60.0233L69.5791 51.703H68.5028L76.1629 60.0231C76.2546 60.1247 76.3396 60.2322 76.4173 60.3448Z" fill="url(#paint29_linear_41_136)"/>
<path d="M74.3585 31.5828H74.3623C76.3342 31.7937 77.4323 34.012 76.841 35.8075C76.7103 36.2324 76.4937 36.626 76.2045 36.9637C76.0972 37.1159 68.6031 45.203 68.5028 45.3331H69.5791L77.2182 37.0359C77.2396 37.0123 77.2613 36.9891 77.2807 36.964C77.5283 36.6749 77.7231 36.3445 77.8562 35.988C77.9289 35.7906 77.9841 35.5872 78.0211 35.3801C78.1079 34.8988 78.0908 34.4044 77.971 33.9302C77.8511 33.456 77.6312 33.013 77.3261 32.6307L77.324 32.6283C77.2558 32.5454 77.1834 32.4661 77.107 32.3907C76.9369 32.2233 76.7475 32.0766 76.543 31.9537C76.3792 31.8569 76.2062 31.7766 76.0265 31.714C75.8357 31.6495 75.6385 31.6058 75.4384 31.5835H75.4377C75.4367 31.5835 75.4357 31.5835 75.4347 31.5835C75.2405 31.5563 74.2854 31.5725 74.0727 31.5685C74.168 31.5695 74.264 31.5731 74.3585 31.5828Z" fill="url(#paint30_linear_41_136)"/>
<path d="M78.5253 45.3474C80.132 45.4924 81.261 47.1112 81.1644 48.6646C81.1297 50.2189 79.8729 51.7194 78.2589 51.7028C78.5741 51.6951 79.4585 51.7273 79.7549 51.6691C80.5824 51.5422 81.3108 51.0067 81.7454 50.3001L81.746 50.299C81.9918 49.8932 82.1512 49.4411 82.2141 48.9709C82.2771 48.5007 82.2423 48.0226 82.1118 47.5664C81.9604 47.0349 81.6766 46.5505 81.2869 46.1586C81.2859 46.1577 81.2849 46.1565 81.2839 46.1555C81.116 45.9902 80.9294 45.8451 80.7279 45.723C80.5616 45.6241 80.3859 45.5421 80.2032 45.4784H80.2016C79.6896 45.273 78.8038 45.3457 78.2589 45.3342C78.3475 45.335 78.4372 45.3386 78.5253 45.3474Z" fill="url(#paint31_linear_41_136)"/>
<path d="M15.9906 75.4449C17.7508 77.325 16.6358 80.8641 13.9401 80.8879C13.5493 80.8858 13.1634 80.801 12.8076 80.6391C12.4519 80.4773 12.1345 80.242 11.8761 79.9488C10.7518 78.7606 10.7558 76.6271 11.8884 75.4449C12.1461 75.1557 12.4621 74.9242 12.8155 74.7657C13.169 74.6072 13.5521 74.5253 13.9395 74.5253C14.3269 74.5253 14.7099 74.6072 15.0634 74.7657C15.4169 74.9242 15.7329 75.1557 15.9906 75.4449Z" fill="#E5B5C9"/>
<path d="M11.8883 21.5907C10.127 19.712 11.244 16.1711 13.9393 16.1482C16.6386 16.1689 17.7533 19.7296 15.9906 21.5917C15.7329 21.881 15.4169 22.1125 15.0633 22.271C14.7097 22.4295 14.3266 22.5114 13.9392 22.5113C13.5517 22.5112 13.1687 22.4291 12.8152 22.2705C12.4617 22.1118 12.1458 21.8801 11.8883 21.5907Z" fill="#E5B5C9"/>
<path d="M69.2795 75.4449C71.0427 77.306 69.928 80.8675 67.2285 80.8879C66.8377 80.8858 66.4519 80.801 66.0962 80.6392C65.7405 80.4773 65.4231 80.2421 65.1647 79.949C64.0401 78.7615 64.0456 76.6273 65.1769 75.4451C65.4346 75.1558 65.7506 74.9243 66.1041 74.7658C66.4577 74.6073 66.8407 74.5253 67.2281 74.5253C67.6156 74.5253 67.9986 74.6072 68.3522 74.7657C68.7057 74.9242 69.0217 75.1557 69.2795 75.4449Z" fill="#E5B5C9"/>
<path d="M65.1771 21.5907C64.0381 20.3889 64.0422 18.2659 65.1771 17.0744C65.4352 16.785 65.7511 16.553 66.1045 16.3935C66.4579 16.2339 66.8408 16.1504 67.2286 16.1482C69.9275 16.169 71.0426 19.7299 69.2793 21.5917C69.0217 21.8811 68.7057 22.1127 68.3522 22.2712C67.9986 22.4297 67.6155 22.5117 67.228 22.5116C66.8406 22.5115 66.4575 22.4294 66.104 22.2706C65.7505 22.1119 65.4346 21.8802 65.1771 21.5907Z" fill="#E5B5C9"/>
<path d="M78.2584 45.3334C82.1176 45.5065 82.1163 51.5307 78.2584 51.7027H68.5027L76.1628 60.0229C77.2853 61.2111 77.2789 63.3465 76.1451 64.5259C75.5721 65.1477 74.8452 65.4759 74.0726 65.4759C73.6813 65.4738 73.295 65.3888 72.9389 65.2265C72.5829 65.0642 72.2654 64.8283 72.0072 64.5343L60.328 51.703H47.5798L59.4185 64.6049C59.9716 65.2251 60.2723 66.0299 60.2616 66.8608C60.3015 68.4889 58.9506 70.0877 57.3283 70.0588C56.9369 70.0565 56.5506 69.9713 56.1946 69.8088C55.8386 69.6464 55.5211 69.4103 55.263 69.1162L43.4929 56.176V70.1314L55.2327 82.9343C56.9921 84.8291 55.8292 88.3552 53.1425 88.3867C52.751 88.3847 52.3644 88.2997 52.0082 88.1374C51.6519 87.9751 51.3341 87.7391 51.0757 87.4451L43.4929 79.0803V89.7588C43.4929 91.5145 42.1884 92.9438 40.5836 92.9438C38.9788 92.9438 37.6748 91.5149 37.6748 89.7588V79.0803L30.0915 87.445C29.832 87.7372 29.5135 87.9711 29.1569 88.1311C28.8004 88.2912 28.4139 88.3738 28.0231 88.3734C27.6323 88.3731 27.246 88.2899 26.8897 88.1292C26.5334 87.9686 26.2152 87.7342 25.9562 87.4415C25.404 86.8163 25.0992 86.0109 25.0992 85.1767C25.0992 84.3426 25.404 83.5371 25.9562 82.912L37.6748 70.1319V56.176L25.8867 69.1358C25.6289 69.4242 25.3134 69.6553 24.9608 69.8142C24.6082 69.9732 24.2261 70.0565 23.8393 70.0587C22.1835 70.0896 20.8571 68.4465 20.9062 66.8344C20.9017 66.0038 21.2086 65.2016 21.7664 64.586L33.588 51.7026H20.8398L9.14561 64.55C8.88757 64.8391 8.57179 65.0709 8.21859 65.2304C7.86539 65.3898 7.48267 65.4735 7.09515 65.4758C4.38467 65.4551 3.2559 61.8491 5.02255 60.0044L12.6641 51.7029H2.90836C1.30446 51.7029 0 50.2744 0 48.5179C0 46.7613 1.30446 45.3328 2.90836 45.3328H12.6641L5.02255 37.0318C3.26029 35.1613 4.38607 31.5862 7.09515 31.5672C7.48654 31.5694 7.87303 31.6542 8.22946 31.8159C8.5859 31.9776 8.90424 32.2126 9.1637 32.5057L20.8397 45.3327H33.5879L21.7682 32.452C21.2102 31.8314 20.905 31.0242 20.9129 30.1897C20.8744 28.5523 22.1843 26.9622 23.8394 26.9863C24.2309 26.9886 24.6176 27.0734 24.9741 27.2351C25.3307 27.3968 25.6491 27.6318 25.9088 27.9248L37.6748 40.8599V26.9052L25.9548 14.1236C25.4032 13.4984 25.0989 12.6931 25.0992 11.8593C25.0994 11.0255 25.4042 10.2204 25.9562 9.59549C26.2154 9.30241 26.5339 9.06773 26.8907 8.90701C27.2474 8.74628 27.6342 8.66316 28.0255 8.66316C28.4167 8.66316 28.8035 8.74628 29.1602 8.90701C29.517 9.06773 29.8355 9.30241 30.0947 9.59549L37.6748 17.9567V7.2779C37.6748 5.52214 38.9792 4.09286 40.5836 4.09286C42.188 4.09286 43.4929 5.52174 43.4929 7.2779V17.9568L51.0762 9.5911C51.3356 9.29915 51.6536 9.06511 52.0094 8.90423C52.3653 8.74334 52.751 8.65923 53.1416 8.65735C55.8522 8.67642 56.9776 12.2499 55.2114 14.1251L43.4929 26.9052V40.8599L55.2612 27.9224C55.5206 27.6299 55.8387 27.3954 56.1948 27.2341C56.5509 27.0728 56.937 26.9884 57.328 26.9863C58.9832 26.9628 60.2923 28.552 60.2534 30.1897C60.2615 31.0252 59.9557 31.8333 59.3963 32.454L47.5793 45.3339H60.3275L72.0049 32.5049C72.2643 32.2124 72.5825 31.9779 72.9386 31.8165C73.2946 31.6551 73.6807 31.5705 74.0717 31.5683C76.7815 31.589 77.9076 35.1617 76.141 37.0364L68.5019 45.3335L78.2584 45.3334Z" fill="#E5B5C9"/>
<defs>
<filter id="filter0_f_41_136" x="1.39355" y="1.09286" width="87.1523" height="94.851" filterUnits="userSpaceOnUse" color-interpolation-filters="sRGB">
<feFlood flood-opacity="0" result="BackgroundImageFix"/>
<feBlend mode="normal" in="SourceGraphic" in2="BackgroundImageFix" result="shape"/>
<feGaussianBlur stdDeviation="1.5" result="effect1_foregroundBlur_41_136"/>
</filter>
<linearGradient id="paint0_linear_41_136" x1="52.2315" y1="0" x2="52.2315" y2="97.0367" gradientUnits="userSpaceOnUse">
<stop stop-color="#79517A"/>
<stop offset="1" stop-color="#3C3261"/>
</linearGradient>
<linearGradient id="paint1_linear_41_136" x1="52.2315" y1="0" x2="52.2315" y2="97.0367" gradientUnits="userSpaceOnUse">
<stop stop-color="#79517A"/>
<stop offset="1" stop-color="#3C3261"/>
</linearGradient>
<linearGradient id="paint2_linear_41_136" x1="52.2315" y1="0" x2="52.2315" y2="97.0367" gradientUnits="userSpaceOnUse">
<stop stop-color="#79517A"/>
<stop offset="1" stop-color="#3C3261"/>
</linearGradient>
<linearGradient id="paint3_linear_41_136" x1="52.2315" y1="0" x2="52.2315" y2="97.0367" gradientUnits="userSpaceOnUse">
<stop stop-color="#79517A"/>
<stop offset="1" stop-color="#3C3261"/>
</linearGradient>
<linearGradient id="paint4_linear_41_136" x1="52.2315" y1="0" x2="52.2315" y2="97.0367" gradientUnits="userSpaceOnUse">
<stop stop-color="#79517A"/>
<stop offset="1" stop-color="#3C3261"/>
</linearGradient>
<linearGradient id="paint5_linear_41_136" x1="52.2315" y1="0" x2="52.2315" y2="97.0367" gradientUnits="userSpaceOnUse">
<stop stop-color="#79517A"/>
<stop offset="1" stop-color="#3C3261"/>
</linearGradient>
<linearGradient id="paint6_linear_41_136" x1="52.2315" y1="0" x2="52.2315" y2="97.0367" gradientUnits="userSpaceOnUse">
<stop stop-color="#79517A"/>
<stop offset="1" stop-color="#3C3261"/>
</linearGradient>
<linearGradient id="paint7_linear_41_136" x1="52.2315" y1="0" x2="52.2315" y2="97.0367" gradientUnits="userSpaceOnUse">
<stop stop-color="#79517A"/>
<stop offset="1" stop-color="#3C3261"/>
</linearGradient>
<linearGradient id="paint8_linear_41_136" x1="52.2315" y1="0" x2="52.2315" y2="97.0367" gradientUnits="userSpaceOnUse">
<stop stop-color="#79517A"/>
<stop offset="1" stop-color="#3C3261"/>
</linearGradient>
<linearGradient id="paint9_linear_41_136" x1="52.2315" y1="0" x2="52.2315" y2="97.0367" gradientUnits="userSpaceOnUse">
<stop stop-color="#79517A"/>
<stop offset="1" stop-color="#3C3261"/>
</linearGradient>
<linearGradient id="paint10_linear_41_136" x1="52.2315" y1="0" x2="52.2315" y2="97.0367" gradientUnits="userSpaceOnUse">
<stop stop-color="#79517A"/>
<stop offset="1" stop-color="#3C3261"/>
</linearGradient>
<linearGradient id="paint11_linear_41_136" x1="52.2315" y1="0" x2="52.2315" y2="97.0367" gradientUnits="userSpaceOnUse">
<stop stop-color="#79517A"/>
<stop offset="1" stop-color="#3C3261"/>
</linearGradient>
<linearGradient id="paint12_linear_41_136" x1="52.2315" y1="0" x2="52.2315" y2="97.0367" gradientUnits="userSpaceOnUse">
<stop stop-color="#79517A"/>
<stop offset="1" stop-color="#3C3261"/>
</linearGradient>
<linearGradient id="paint13_linear_41_136" x1="44.6699" y1="4.09212" x2="44.6699" y2="92.9438" gradientUnits="userSpaceOnUse">
<stop stop-color="#79517A"/>
<stop offset="0.40625" stop-color="#E5B5C9"/>
</linearGradient>
<linearGradient id="paint14_linear_41_136" x1="44.6699" y1="4.09212" x2="44.6699" y2="92.9438" gradientUnits="userSpaceOnUse">
<stop stop-color="#79517A"/>
<stop offset="0.40625" stop-color="#E5B5C9"/>
</linearGradient>
<linearGradient id="paint15_linear_41_136" x1="44.6699" y1="4.09212" x2="44.6699" y2="92.9438" gradientUnits="userSpaceOnUse">
<stop stop-color="#79517A"/>
<stop offset="0.40625" stop-color="#E5B5C9"/>
</linearGradient>
<linearGradient id="paint16_linear_41_136" x1="44.6699" y1="4.09212" x2="44.6699" y2="92.9438" gradientUnits="userSpaceOnUse">
<stop stop-color="#79517A"/>
<stop offset="0.40625" stop-color="#E5B5C9"/>
</linearGradient>
<linearGradient id="paint17_linear_41_136" x1="44.6699" y1="4.09212" x2="44.6699" y2="92.9438" gradientUnits="userSpaceOnUse">
<stop stop-color="#79517A"/>
<stop offset="0.40625" stop-color="#E5B5C9"/>
</linearGradient>
<linearGradient id="paint18_linear_41_136" x1="44.6699" y1="4.09212" x2="44.6699" y2="92.9438" gradientUnits="userSpaceOnUse">
<stop stop-color="#79517A"/>
<stop offset="0.40625" stop-color="#E5B5C9"/>
</linearGradient>
<linearGradient id="paint19_linear_41_136" x1="44.6699" y1="4.09212" x2="44.6699" y2="92.9438" gradientUnits="userSpaceOnUse">
<stop stop-color="#79517A"/>
<stop offset="0.40625" stop-color="#E5B5C9"/>
</linearGradient>
<linearGradient id="paint20_linear_41_136" x1="44.6699" y1="4.09212" x2="44.6699" y2="92.9438" gradientUnits="userSpaceOnUse">
<stop stop-color="#79517A"/>
<stop offset="0.40625" stop-color="#E5B5C9"/>
</linearGradient>
<linearGradient id="paint21_linear_41_136" x1="44.6699" y1="4.09212" x2="44.6699" y2="92.9438" gradientUnits="userSpaceOnUse">
<stop stop-color="#79517A"/>
<stop offset="0.40625" stop-color="#E5B5C9"/>
</linearGradient>
<linearGradient id="paint22_linear_41_136" x1="44.6699" y1="4.09212" x2="44.6699" y2="92.9438" gradientUnits="userSpaceOnUse">
<stop stop-color="#79517A"/>
<stop offset="0.40625" stop-color="#E5B5C9"/>
</linearGradient>
<linearGradient id="paint23_linear_41_136" x1="44.6699" y1="4.09212" x2="44.6699" y2="92.9438" gradientUnits="userSpaceOnUse">
<stop stop-color="#79517A"/>
<stop offset="0.40625" stop-color="#E5B5C9"/>
</linearGradient>
<linearGradient id="paint24_linear_41_136" x1="44.6699" y1="4.09212" x2="44.6699" y2="92.9438" gradientUnits="userSpaceOnUse">
<stop stop-color="#79517A"/>
<stop offset="0.40625" stop-color="#E5B5C9"/>
</linearGradient>
<linearGradient id="paint25_linear_41_136" x1="44.6699" y1="4.09212" x2="44.6699" y2="92.9438" gradientUnits="userSpaceOnUse">
<stop stop-color="#79517A"/>
<stop offset="0.40625" stop-color="#E5B5C9"/>
</linearGradient>
<linearGradient id="paint26_linear_41_136" x1="44.6699" y1="4.09212" x2="44.6699" y2="92.9438" gradientUnits="userSpaceOnUse">
<stop stop-color="#79517A"/>
<stop offset="0.40625" stop-color="#E5B5C9"/>
</linearGradient>
<linearGradient id="paint27_linear_41_136" x1="44.6699" y1="4.09212" x2="44.6699" y2="92.9438" gradientUnits="userSpaceOnUse">
<stop stop-color="#79517A"/>
<stop offset="0.40625" stop-color="#E5B5C9"/>
</linearGradient>
<linearGradient id="paint28_linear_41_136" x1="44.6699" y1="4.09212" x2="44.6699" y2="92.9438" gradientUnits="userSpaceOnUse">
<stop stop-color="#79517A"/>
<stop offset="0.40625" stop-color="#E5B5C9"/>
</linearGradient>
<linearGradient id="paint29_linear_41_136" x1="44.6699" y1="4.09212" x2="44.6699" y2="92.9438" gradientUnits="userSpaceOnUse">
<stop stop-color="#79517A"/>
<stop offset="0.40625" stop-color="#E5B5C9"/>
</linearGradient>
<linearGradient id="paint30_linear_41_136" x1="44.6699" y1="4.09212" x2="44.6699" y2="92.9438" gradientUnits="userSpaceOnUse">
<stop stop-color="#79517A"/>
<stop offset="0.40625" stop-color="#E5B5C9"/>
</linearGradient>
<linearGradient id="paint31_linear_41_136" x1="44.6699" y1="4.09212" x2="44.6699" y2="92.9438" gradientUnits="userSpaceOnUse">
<stop stop-color="#79517A"/>
<stop offset="0.40625" stop-color="#E5B5C9"/>
</linearGradient>
</defs>
</svg>
