<svg width="94" height="94" viewBox="0 0 94 94" fill="none" xmlns="http://www.w3.org/2000/svg">
<path d="M16.4076 64.8825C19.5978 66.649 20.8156 70.8632 19.4951 74.1823C18.5566 76.6912 16.108 78.6607 13.3733 78.6336C14.1221 78.6136 17.9929 78.6989 18.6433 78.5573C19.8663 78.3545 21.0038 77.7999 21.9168 76.9613C25.0447 74.1518 25.1462 68.9039 22.1533 65.9596C21.751 65.5621 21.3001 65.217 20.8113 64.9326C20.3833 64.6857 19.9126 64.5083 19.5332 64.1837C18.2601 63.1613 17.7696 61.3734 18.1475 59.8099C18.4655 58.4408 19.4922 57.2165 20.8633 56.8246C21.5946 56.6043 22.3744 56.7413 23.1128 56.55C24.8792 56.1828 26.4134 55.0024 27.3524 53.4778C27.949 52.5064 28.3216 51.4142 28.4432 50.2807C28.5147 49.6006 28.4764 48.9128 28.5354 48.2317C28.639 46.8177 28.9208 45.4224 29.3741 44.079C30.7602 39.9471 33.9025 36.3559 38.0006 34.7705C39.3218 34.2533 40.7175 33.9517 42.1342 33.877C42.3546 33.862 42.6959 33.8596 42.8318 33.8584C41.7826 33.8735 38.1936 33.812 37.3085 33.914C31.5765 34.4064 26.8395 38.7186 25.0575 44.079C24.6047 45.4207 24.3229 46.8141 24.2189 48.2264V48.2317C24.1611 48.8884 24.1965 49.5523 24.1331 50.2086C24.0206 51.3666 23.6459 52.4837 23.0371 53.4752C22.0661 55.0549 20.4529 56.2641 18.6108 56.5865C18.0125 56.719 17.3919 56.6357 16.7936 56.7628C15.7799 56.9736 14.9008 57.6514 14.3616 58.5259C13.9412 59.2204 13.7151 60.0151 13.707 60.8269C13.699 61.6387 13.9093 62.4377 14.316 63.1404L14.3171 63.1423C14.6032 63.6232 14.9887 64.0375 15.4478 64.3574C15.7467 64.5703 16.0898 64.7036 16.4076 64.8825Z" fill="url(#paint0_linear_101_670)"/>
<path d="M42.4436 78.7544C41.6914 78.5971 41.0586 77.9007 41.0404 77.1224C41.1757 75.2243 41.7707 73.3876 42.7741 71.7707H38.4573C37.4536 73.3875 36.8587 75.2242 36.7238 77.1224C36.7328 77.6615 37.0495 78.1631 37.4819 78.4712C37.7184 78.6396 37.9934 78.7457 38.2817 78.7798L38.2856 78.7804C38.3418 78.7864 38.3983 78.7894 38.4547 78.7894H42.7715C42.6613 78.7892 42.5514 78.7774 42.4436 78.7544Z" fill="url(#paint1_linear_101_670)"/>
<path d="M38.9834 19.2264C39.8439 19.2475 40.7028 19.3122 41.5568 19.4202H45.8737C43.9268 19.1256 40.4395 19.2373 38.4402 19.2183C38.6215 19.2193 38.8024 19.2212 38.9834 19.2264Z" fill="url(#paint2_linear_101_670)"/>
<path d="M46.0805 55.3086C45.7815 55.1178 45.4672 54.9522 45.1407 54.8136C44.5202 54.5515 43.861 54.3929 43.1891 54.3444C43.1028 54.3128 38.6513 54.333 38.4335 54.3278C39.7628 54.3337 41.0557 54.7632 42.1242 55.5541C44.4239 57.2814 46.4275 59.3954 48.1539 61.693C51.5325 66.1899 53.6297 71.7518 53.4656 77.4176C53.2953 85.6693 47.0289 93.3228 38.454 93.3428C39.1375 93.3364 43.0605 93.3669 43.6423 93.3145C44.4818 93.262 45.3147 93.1325 46.1306 92.9277C49.9205 91.9886 53.1864 89.4005 55.2173 86.0949C57.9409 81.7182 58.3305 76.558 57.1842 71.612C55.7726 65.5774 52.0586 60.2376 47.3595 56.2724L47.3576 56.271C47.0823 56.0431 46.8053 55.8217 46.5202 55.6113L46.4756 55.5787L46.4562 55.5649C46.4519 55.5617 46.4416 55.5549 46.4408 55.554C46.3237 55.468 46.203 55.3867 46.0805 55.3086Z" fill="url(#paint3_linear_101_670)"/>
<path d="M47.2481 7.86486C48.7389 7.95914 50.1493 8.57401 51.2331 9.60216L52.4281 10.8838H56.7451L55.55 9.60216C55.3251 9.39323 55.087 9.19906 54.8371 9.02086L54.8341 9.01867C53.781 8.26815 52.5216 7.86159 51.2285 7.85468H46.9116C47.0239 7.85508 47.1359 7.85967 47.2481 7.86486Z" fill="url(#paint4_linear_101_670)"/>
<path d="M60.5102 25.5189C60.5551 25.4639 60.6001 25.4084 60.6455 25.3567C62.0017 23.9663 63.9061 23.1114 65.8565 23.119C65.2183 23.1363 61.2389 23.071 60.7033 23.1707C59.0478 23.3615 57.4914 24.171 56.3286 25.3567C56.1973 25.509 56.0733 25.6635 55.9535 25.8278C59.055 28.6025 61.5366 32.0446 63.2731 35.8222C64.2209 36.2532 65.1322 36.7603 65.9981 37.3385H70.315C69.4491 36.7603 68.5378 36.2533 67.5901 35.8222C65.8536 32.0445 63.372 28.602 60.2704 25.8278C60.3494 25.7206 60.4259 25.6185 60.5102 25.5189Z" fill="url(#paint5_linear_101_670)"/>
<path d="M61.8389 0.900315C64.578 1.03501 66.9203 3.13903 67.7326 5.70004C67.9384 6.32394 68.0639 6.97146 68.1063 7.62703C68.1444 8.02491 68.1199 9.3827 68.1263 9.79775C68.9556 10.1059 69.7638 10.4683 70.5456 10.8825H74.8625C74.081 10.4678 73.2728 10.1054 72.4433 9.79775C72.4333 9.07228 72.4817 7.78149 72.3687 7.07979C72.1532 5.45252 71.4109 3.94055 70.2552 2.77489C69.557 2.07708 68.7104 1.54571 67.7785 1.22032L67.773 1.21862C67.2256 1.03129 66.6543 0.923095 66.0763 0.89732C65.9824 0.892228 65.8882 0.889033 65.7939 0.889532H61.4772C61.5986 0.889132 61.7184 0.895223 61.8389 0.900315Z" fill="url(#paint6_linear_101_670)"/>
<path d="M76.3838 7.86207C80.4628 8.10798 83.1133 12.1147 82.6504 16.0068V16.0074C82.4999 17.4128 81.9613 18.7486 81.0947 19.8653L79.9265 21.1504C80.3124 22.0124 80.6443 22.8976 80.9201 23.8009C81.2121 23.7937 82.5101 23.7994 82.7699 23.8121C83.3143 23.8446 83.852 23.9495 84.3687 24.124C87.2522 25.084 89.0896 28.1012 89.0565 31.0789C89.0901 34.0421 87.2701 37.0441 84.4098 38.0199C83.9018 38.1953 83.3729 38.3032 82.8367 38.3407C82.516 38.3785 81.3158 38.3475 80.9796 38.3574C80.7326 39.2386 80.4364 40.1053 80.0922 40.9533C80.4238 41.3284 81.3318 42.2735 81.6089 42.6656C82.1053 43.3335 82.4869 44.0794 82.7381 44.8728V44.8745C83.8506 48.2943 82.4163 52.4313 79.059 53.9692H79.0579C78.2746 54.3274 77.4255 54.5191 76.5643 54.5322C77.2185 60.6863 75.476 67.1126 71.5886 71.9557C70.6642 73.1117 69.6205 74.1671 68.4749 75.1045C67.1216 76.268 65.5894 77.1214 63.7823 77.0959H68.0991C69.4089 77.0918 70.6844 76.6756 71.7446 75.9063C73.5825 74.585 75.1966 72.9775 76.5254 71.145C79.978 66.404 81.4982 60.3502 80.8807 54.5322C81.7419 54.5191 82.5909 54.3274 83.3742 53.9692H83.3754C85.4779 53.0097 86.926 50.9158 87.3048 48.6604C87.6901 46.4786 87.1399 44.1268 85.7238 42.408C85.5834 42.2271 84.5809 41.1468 84.4081 40.9533C84.7524 40.1053 85.0487 39.2386 85.2955 38.3574C85.9967 38.3452 87.1339 38.4045 87.8104 38.2587C89.6501 37.9367 91.2615 36.7296 92.2316 35.1522L92.2338 35.1486C94.6374 31.3109 93.1145 25.6758 88.7083 24.1317L88.7028 24.1299C88.0656 23.9127 87.3971 23.8014 86.724 23.8004H85.2357C84.9599 22.8972 84.628 22.0119 84.2422 21.1499L85.4103 19.8648C86.2771 18.7483 86.8158 17.4124 86.966 16.0069V16.0062C87.2703 13.3672 86.1705 10.5618 83.9706 9.01896C83.1673 8.44666 82.2413 8.0702 81.2665 7.91968C80.6856 7.78928 76.7152 7.87385 76.0463 7.85128C76.1599 7.85218 76.2718 7.85698 76.3838 7.86207Z" fill="url(#paint7_linear_101_670)"/>
<path d="M42.1243 55.5538C42.1918 55.5989 53.4743 63.6012 53.4743 76.9013C53.4743 85.9672 46.736 93.3429 38.4547 93.3429C30.1734 93.3429 23.4345 85.9674 23.4345 76.9013C23.5044 65.6254 31.194 58.3983 34.7417 55.5538C35.8088 54.7604 37.1032 54.332 38.433 54.332C39.7628 54.332 41.0572 54.7604 42.1243 55.5538ZM38.4547 78.7894C39.4044 78.7894 40.1789 77.9415 40.1789 76.9013C40.0278 75.0772 39.437 73.3169 38.4572 71.7709C37.4516 73.3868 36.8565 75.224 36.7237 77.1226C36.7308 77.9413 37.5049 78.79 38.4547 78.79" fill="#1869FF"/>
<path d="M82.4082 38.3574H80.9797C80.7343 39.2391 80.438 40.1059 80.0923 40.9533L81.1766 42.1402C85.1386 46.3785 82.667 54.4154 76.5649 54.5327C77.4373 62.8006 74.0198 71.1954 67.4291 75.9068C64.4092 78.1356 60.0939 77.0916 58.2023 73.7959C56.1919 70.4289 57.0557 65.8992 60.1294 63.6959C61.8341 62.461 62.991 60.4743 63.2914 58.2467C63.8784 53.9201 61.1362 49.8761 57.1827 49.2336C54.704 48.7683 52.718 46.8995 51.9409 44.3464C49.9712 38.1154 44.5724 33.8887 38.5177 33.8587C30.6142 33.8587 24.2076 40.8399 24.1742 49.421C24.1742 53.422 21.1915 56.6858 17.5246 56.6858C15.4204 56.6858 13.7081 58.5603 13.7081 60.8635C13.6988 62.5293 14.5913 64.0151 15.9759 64.6616C18.4551 65.8146 20.0445 68.4681 20.0208 71.4194C20.0295 76.4529 15.1767 80.0868 10.7573 78.079C-3.26088 71.4417 -2.92137 49.4026 11.4216 43.367C14.2058 28.3894 27.2787 17.5957 41.5571 19.4207C38.452 14.8927 41.2476 7.89535 46.912 7.85511C48.5223 7.8664 50.0678 8.49127 51.2334 9.60239L52.4284 10.8841C53.2023 10.4655 54.005 10.1024 54.8304 9.79759V8.16723C54.8304 4.15348 57.8132 0.889267 61.4776 0.889267C65.1447 0.889267 68.1272 4.15308 68.1272 8.16723V9.79739C68.9576 10.1029 69.7661 10.4654 70.5466 10.8822L71.585 9.74397C74.1283 7.26064 77.8616 7.24137 80.3718 9.60419C83.1555 12.1014 83.4639 16.9735 81.0953 19.8644L79.9271 21.1495C80.313 22.0116 80.6448 22.8969 80.9207 23.8002H82.409C91.2282 24.1956 91.2232 37.9651 82.4082 38.3574ZM66.6598 36.6251C69.4828 33.438 69.4828 28.444 66.6598 25.2569C63.9008 22.4024 59.1072 22.4189 56.3287 25.3567C56.2014 25.5012 56.0767 25.6597 55.9536 25.8278C59.0531 28.622 61.5445 32.024 63.2731 35.8222C64.2214 36.2523 65.1328 36.7594 65.9982 37.3385C66.1111 37.251 66.2223 37.1597 66.327 37.0643L66.6598 36.6251Z" fill="#1869FF"/>
<g style="mix-blend-mode:multiply" opacity="0.4" filter="url(#filter0_f_101_670)">
<path d="M40.3259 58.9551C40.4457 59.0396 50.0141 66.031 50.0141 76.9013C50.0141 83.71 44.9534 89.2497 38.7325 89.2497C32.5115 89.2497 27.4513 83.71 27.4513 76.9013C27.5656 69.8406 31.0943 63.9445 37.1267 58.9345C37.593 58.5978 38.1544 58.4183 38.7296 58.422C39.3048 58.4257 39.8639 58.6124 40.3259 58.9551ZM44.1953 76.8437C43.9075 72.4715 41.8801 68.6328 38.7325 65.8683C35.584 68.6322 33.5584 72.4718 33.2692 76.8437C33.524 84.857 43.9425 84.8532 44.1953 76.8437Z" fill="#0440AD"/>
<path d="M82.6866 27.8932C86.5463 28.067 86.5441 34.09 82.6866 34.2626H78.2878L78.0845 35.3909C77.698 37.6419 76.8627 39.745 75.7809 41.7177L78.812 45.0346C80.5407 46.887 79.4567 50.4233 76.7667 50.4388C76.3786 50.4368 75.9952 50.3536 75.6412 50.1945C75.2872 50.0354 74.9705 49.8039 74.7113 49.515L74.1705 48.9238L72.0802 50.4253C74.9692 58.0686 72.3708 67.8122 65.6631 72.4768C64.334 73.4608 62.4424 73.0008 61.6105 71.5533C60.7262 70.0756 61.1056 68.0864 62.4558 67.1194C70.7494 61.1397 68.0107 46.8584 58.0245 45.1864C56.9699 44.9835 56.1061 44.168 55.768 43.055C53.2645 35.1374 46.4531 29.8025 38.8144 29.764C28.561 29.6098 20.5416 39.3038 20.7118 49.4011C20.7118 51.164 19.4062 52.5918 17.8021 52.5918C9.55499 52.7247 7.39834 64.9143 14.7905 68.4271C17.6456 69.7871 16.8504 74.4707 13.6519 74.5415C13.2322 74.5346 12.8177 74.4462 12.4317 74.2813C0.560195 68.4803 2.40434 49.6374 15.0101 46.5236C16.4565 31.1407 30.939 19.2902 46.0162 24.5809C46.4914 23.6001 46.9587 22.3744 47.4465 21.4412L47.9544 20.5141L44.9508 17.1677C43.4264 15.249 44.6206 11.9589 47.1887 11.9448C47.8791 11.9499 48.5426 12.2131 49.0489 12.6826L52.118 15.985C53.8526 14.7222 55.7913 13.6855 57.8542 13.196L58.8471 12.9469V8.16709C58.8471 6.41113 60.1516 4.98206 61.7557 4.98206C63.3598 4.98206 64.6651 6.41083 64.6651 8.16709V12.9451L65.6551 13.1948C67.7319 13.694 69.6912 14.7272 71.4491 15.9838L74.4676 12.679C74.9736 12.2112 75.6362 11.9494 76.3253 11.9449C78.8827 11.9558 80.0769 15.2407 78.564 17.1631L75.5455 20.4679L76.0722 21.4078C77.2052 23.3817 77.9046 25.6312 78.3217 27.893L82.6866 27.8932ZM69.982 39.0484C73.8194 34.471 73.6691 26.8016 69.6218 22.4062C68.6223 21.3491 67.4184 20.506 66.0832 19.9283C64.7479 19.3505 63.3093 19.0501 61.8544 19.0452C60.3996 19.0404 58.9588 19.3312 57.6198 19.9C56.2807 20.4688 55.0713 21.3037 54.0647 22.3542C52.8133 23.7131 52.0342 25.3357 51.4239 27.0441C55.6628 30.0498 58.9292 34.2306 60.8201 39.0708C62.4916 39.6692 64.0527 40.5396 65.4405 41.6468L66.0596 42.1409L66.749 41.7752C67.9529 41.1503 69.0396 40.2539 69.9818 39.2473V39.0476" fill="#0440AD"/>
</g>
<path d="M5.85807 61.2473C5.93456 63.374 6.79433 65.4823 8.32016 66.9792C8.79571 67.4475 9.33126 67.8506 9.91279 68.1781C10.2069 68.3487 10.5289 68.4689 10.8087 68.6641C11.167 68.914 11.4681 69.2373 11.6919 69.6126C12.8924 71.581 11.7 74.5019 9.25717 74.5406C9.51537 74.5347 10.4281 74.5582 10.6665 74.5189C11.5259 74.4159 12.2902 73.8686 12.7393 73.1391C12.8167 73.0134 12.886 72.8829 12.9469 72.7485L12.9475 72.7473C13.0308 72.5585 13.0973 72.3627 13.1463 72.1622C13.3533 71.2961 13.2182 70.3835 12.7692 69.6145L12.7681 69.6125C12.4097 69.0231 11.8704 68.5654 11.2306 68.3076C10.6729 68.0207 10.1537 67.6646 9.68522 67.2477C7.13239 65.0054 6.3105 61.1842 7.39211 58.0092C8.18388 55.6199 10.101 53.5676 12.5488 52.8672C13.0211 52.7303 13.5067 52.6442 13.9972 52.6101C14.2981 52.5801 14.6043 52.6086 14.9037 52.5575C15.7308 52.431 16.4588 51.8952 16.8932 51.189L16.8941 51.1872C17.0799 50.884 17.2166 50.5533 17.2991 50.2074C17.4046 49.7972 17.3921 49.3717 17.4003 48.9517C17.417 48.318 17.4577 47.6849 17.5295 47.0553C17.7437 45.1223 18.2241 43.2282 18.9573 41.4269C21.7113 34.6574 28.0508 29.727 35.4961 29.7632C34.7581 29.7624 33.8493 29.7522 33.1253 29.8123C31.5922 29.9263 30.0819 30.2496 28.6365 30.7734C23.1139 32.7586 18.9241 37.6481 17.2457 43.209C16.7816 44.7362 16.4895 46.3105 16.3746 47.9025C16.3156 48.5381 16.3425 49.1789 16.2918 49.8141C16.2352 50.3039 16.0716 50.7752 15.8126 51.1947C15.603 51.5424 15.323 51.8424 14.9906 52.0754C14.6582 52.3085 14.2807 52.4694 13.8824 52.5479C13.6054 52.6036 13.32 52.5846 13.04 52.6012C12.6775 52.6216 12.3169 52.6695 11.9617 52.7446C9.95548 53.1617 8.21352 54.5032 7.14728 56.2345L7.14503 56.2382C6.22809 57.7431 5.78002 59.4869 5.85807 61.2473Z" fill="url(#paint8_linear_101_670)"/>
<path d="M33.0945 67.0922C30.5857 69.7073 29.1256 73.2416 28.8755 76.8437C28.8203 79.4989 30.5828 82.1795 33.2487 82.7604C33.8677 82.9194 34.775 82.8757 35.4153 82.8802C32.2192 82.885 29.8882 79.9113 29.952 76.8436C30.1742 73.6956 31.3068 70.6001 33.2748 68.1232C33.8744 67.3401 34.7026 66.5551 35.4153 65.8682H34.3391C34.0525 66.149 33.3586 66.8089 33.0945 67.0922Z" fill="url(#paint9_linear_101_670)"/>
<path d="M34.8089 23.3181C37.1311 23.3571 39.4241 23.8488 41.6225 24.581H42.6988C41.3442 24.1464 39.9241 23.7431 38.5165 23.5456C37.1519 23.3297 35.7068 23.2949 34.3239 23.3111C34.4857 23.3116 34.6473 23.3129 34.8089 23.3181Z" fill="url(#paint10_linear_101_670)"/>
<path d="M43.0663 11.9592C43.3979 11.9944 43.7203 12.09 44.0176 12.2411C44.2486 12.3596 44.463 12.5081 44.6553 12.6826L47.7245 15.9849H48.8005L45.7315 12.6826C45.6982 12.6524 45.6644 12.6231 45.6303 12.5947L45.6288 12.5933C45.4639 12.4572 45.2849 12.3393 45.0949 12.2415H45.0938C44.9789 12.1837 44.8604 12.1335 44.739 12.0911L44.7375 12.0905C44.5474 12.0262 44.3509 11.9825 44.1515 11.9602C43.9613 11.9332 43.0039 11.9492 42.795 11.9452C42.8856 11.9461 42.9763 11.9499 43.0663 11.9592Z" fill="url(#paint11_linear_101_670)"/>
<path d="M46.6904 76.4457C46.6479 74.822 46.397 73.2105 45.9439 71.6507C44.5412 66.8637 41.4515 62.6811 37.674 59.4807C37.6718 59.4788 37.6693 59.4768 37.6672 59.4749C37.4543 59.2994 37.2279 59.1164 37.0122 58.9579L37.0095 58.9559L37.0084 58.9551C36.8867 58.8683 36.7592 58.7899 36.6269 58.7204C36.567 58.6883 36.5042 58.6605 36.4419 58.6336L36.4403 58.633C36.1869 58.5266 35.9188 58.4592 35.6451 58.4333C35.4765 58.4103 34.5061 58.4233 34.3183 58.4203C34.9064 58.4251 35.4778 58.617 35.9495 58.9682C41.2245 63.1158 45.407 69.4585 45.6103 76.3139C45.9366 82.8584 41.1757 89.2178 34.3389 89.2502C35.1402 89.2495 36.1035 89.2719 36.8885 89.1449C39.477 88.7837 41.8643 87.3913 43.5695 85.4267C43.5705 85.4257 43.5714 85.4245 43.5724 85.4233C44.2023 84.6983 44.7465 83.9032 45.1945 83.0537C46.2561 81.0175 46.7715 78.7407 46.6904 76.4457Z" fill="url(#paint12_linear_101_670)"/>
<path d="M49.1007 23.0464C48.5304 23.7842 48.0503 24.5875 47.6707 25.4393C47.5027 25.8081 47.1834 26.6574 47.0307 27.0443C47.9127 27.7033 48.8593 28.4201 49.6616 29.1668C51.4141 30.773 52.9381 32.6119 54.1909 34.6322C55.0629 36.0445 55.8111 37.5297 56.4269 39.0711C57.478 39.4518 58.4881 39.9372 59.4421 40.52C60.2195 41.0095 60.9627 41.5512 61.6666 42.1415H62.7428C62.0391 41.5511 61.296 41.0094 60.5186 40.5201C59.5648 39.9369 58.5546 39.4514 57.5033 39.0711C55.5563 34.1807 52.4029 30.0931 48.1072 27.0443C48.3386 26.4574 48.652 25.5966 48.9331 25.0437C49.4135 24.0695 50.0238 23.1648 50.7472 22.3544C52.764 20.2848 55.5989 19.0103 58.5016 19.0258C57.9924 19.0293 57.14 19.0116 56.6438 19.0552C55.6558 19.1296 54.6831 19.3425 53.7543 19.6875C52.5643 20.1338 51.4595 20.7807 50.4878 21.6C50.2041 21.8387 49.9319 22.0902 49.6711 22.3544C49.4732 22.5788 49.2815 22.8089 49.1007 23.0464Z" fill="url(#paint13_linear_101_670)"/>
<path d="M57.6289 4.99645C58.91 5.11267 59.9413 6.19858 60.192 7.43026C60.346 7.79798 60.2441 12.4465 60.2719 12.9452C61.3561 13.2078 62.5084 13.5102 63.5285 13.9575C64.769 14.4683 65.9539 15.22 67.0559 15.9843H68.132C67.023 15.2155 65.8332 14.4617 64.5844 13.949C63.573 13.5075 62.4224 13.2053 61.348 12.9455C61.339 12.7879 61.3749 7.67098 61.3171 7.70293C61.2942 7.53927 61.2605 7.37733 61.2159 7.21819C61.0928 6.78759 60.8836 6.38644 60.601 6.03902C60.5341 5.95915 60.4646 5.88097 60.3904 5.80788L60.3874 5.80469C60.3252 5.74378 60.2602 5.68627 60.1946 5.62966C59.9307 5.41059 59.6298 5.24047 59.306 5.12735H59.3044C58.7925 4.92216 57.9065 4.99465 57.3619 4.98327C57.451 4.98397 57.5409 4.98756 57.6289 4.99645Z" fill="url(#paint14_linear_101_670)"/>
<path d="M67.8859 51.0098C69.81 56.8829 68.8367 63.6691 65.1354 68.6485C64.2425 69.8633 63.1963 70.9576 62.0228 71.9041C61.7769 72.1016 61.5259 72.2924 61.2697 72.4765C60.8047 72.8158 60.2445 72.9998 59.6689 73.0025C61.1119 73.0109 61.6305 73.0975 62.8181 72.125C64.1372 71.105 65.3038 69.902 66.2827 68.5522C66.2839 68.5505 66.2851 68.5487 66.2864 68.5471C66.8103 67.8244 67.2823 67.0655 67.6989 66.2761L67.7007 66.2729C70.2523 61.4471 70.6143 55.5514 68.7623 50.425L70.8525 48.9236H69.7762L67.6861 50.425C67.7565 50.6186 67.8223 50.8137 67.8859 51.0098Z" fill="url(#paint15_linear_101_670)"/>
<path d="M73.1532 40.3675C73.2393 40.1896 73.3229 40.0109 73.404 39.8305C73.8841 38.7515 74.2639 37.6307 74.5386 36.4821C74.6955 35.8478 74.8517 34.9139 74.9706 34.2628H73.8943C73.5901 36.1632 73.1304 38.0768 72.3279 39.8305C72.0813 40.3929 71.6725 41.1641 71.3876 41.7176L74.4185 45.0345C74.453 45.0724 74.4865 45.1112 74.5188 45.1508C74.9015 45.6245 75.1462 46.1945 75.226 46.7982C75.4969 48.5597 74.2488 50.4458 72.3734 50.4387C72.6262 50.4331 73.5424 50.4555 73.7755 50.4182C74.1588 50.368 74.5276 50.2394 74.8591 50.0406C75.1906 49.8417 75.4777 49.5768 75.7024 49.2623C75.9977 48.8519 76.1959 48.3799 76.2822 47.8817V47.8802C76.3431 47.5269 76.3505 47.1664 76.3039 46.8109C76.2284 46.2019 75.9826 45.6266 75.595 45.1508L75.5941 45.1496C75.562 45.1105 75.5287 45.0721 75.4943 45.0345L72.4632 41.7176C72.6184 41.4147 73.0126 40.6634 73.1532 40.3675Z" fill="url(#paint16_linear_101_670)"/>
<path d="M74.3622 13.3811C74.4753 13.5697 74.5692 13.769 74.6429 13.9762C74.8303 14.5055 74.8852 15.0727 74.8029 15.6282C74.7205 16.1836 74.5034 16.7105 74.1704 17.1626L71.1517 20.4675C71.7883 21.5757 72.4287 22.7607 72.8673 23.9595C73.3527 25.2047 73.6661 26.5805 73.9279 27.8925H75.0041C74.7419 26.5786 74.4292 25.2058 73.9435 23.9593C73.5054 22.7618 72.8637 21.5742 72.2279 20.4675L75.2464 17.1626C75.3073 17.0815 75.3643 16.9969 75.4186 16.9117L75.4202 16.909C75.7698 16.3331 75.9414 15.6666 75.9132 14.9935C75.8989 14.6467 75.8335 14.3039 75.7191 13.9762C75.5064 13.3647 75.1107 12.8335 74.5857 12.4547L74.5836 12.4531C74.4714 12.3748 74.3542 12.304 74.2328 12.2412C74.0032 12.1251 73.7587 12.0413 73.5062 11.9924C73.4345 11.9786 73.3621 11.9693 73.2897 11.9598C73.0983 11.933 72.1415 11.9488 71.9319 11.9448C72.9273 11.9382 73.8636 12.532 74.3622 13.3811Z" fill="url(#paint17_linear_101_670)"/>
<path d="M78.5598 27.9071C80.1663 28.0525 81.2955 29.6708 81.1989 31.2244C81.1641 32.7785 79.9072 34.2791 78.2934 34.2627C78.6084 34.2551 79.4927 34.287 79.7891 34.2291C80.6168 34.102 81.3453 33.5663 81.78 32.8595V32.8586C82.5216 31.6725 82.4276 30.0289 81.5313 28.9495C81.4645 28.8697 81.395 28.7915 81.3207 28.7183C81.3197 28.7174 81.3189 28.7163 81.3179 28.7152C81.1498 28.5499 80.9631 28.4047 80.7616 28.2825C80.5952 28.1836 80.4195 28.1017 80.2369 28.0379H80.2353C80.048 27.9746 79.8545 27.9316 79.6581 27.9096C79.4611 27.8813 78.5083 27.8977 78.2929 27.8937C78.382 27.8948 78.4717 27.8984 78.5598 27.9071Z" fill="url(#paint18_linear_101_670)"/>
<path d="M35.9323 58.9551C36.0522 59.0395 45.6206 66.0309 45.6206 76.9013C45.6206 83.71 40.5597 89.2497 34.3389 89.2497C28.1181 89.2497 23.0578 83.71 23.0578 76.9013C23.172 69.8406 26.7007 63.9445 32.7326 58.9345C33.1991 58.5977 33.7606 58.4182 34.3359 58.4219C34.9112 58.4256 35.4703 58.6123 35.9323 58.9551ZM39.8018 76.8437C39.5139 72.4715 37.4865 68.6328 34.3389 65.8683C31.1904 68.6322 29.1649 72.4718 28.8756 76.8437C29.1304 84.857 39.5489 84.8532 39.8018 76.8437Z" fill="#F0F8FF"/>
<path d="M78.2931 27.8932C82.1528 28.067 82.1506 34.09 78.2931 34.2626H73.8944L73.6909 35.3909C73.3045 37.6419 72.4692 39.745 71.3875 41.7177L74.4185 45.0346C76.1472 46.887 75.0632 50.4233 72.3733 50.4388C71.9852 50.4368 71.6017 50.3536 71.2477 50.1945C70.8937 50.0354 70.577 49.8039 70.3178 49.515L69.777 48.9238L67.6868 50.4253C70.5758 58.0686 67.9774 67.8122 61.2697 72.4768C59.9405 73.4608 58.049 73.0008 57.2171 71.5533C56.3328 70.0756 56.7122 68.0864 58.0624 67.1194C66.3559 61.1397 63.6173 46.8584 53.6311 45.1864C52.5764 44.9835 51.7126 44.168 51.3746 43.055C48.8712 35.1374 42.0598 29.8025 34.421 29.764C24.1675 29.6098 16.1482 39.3038 16.3183 49.4011C16.3183 51.164 15.0128 52.5918 13.4087 52.5918C5.16159 52.7247 3.00494 64.9143 10.3971 68.4271C13.2522 69.7871 12.457 74.4707 9.25837 74.5415C8.83869 74.5346 8.42427 74.4462 8.0383 74.2813C-3.8332 68.4803 -1.98915 49.6374 10.6167 46.5236C12.063 31.1407 26.5459 19.2902 41.6224 24.5809C42.0978 23.6001 42.565 22.3744 43.0527 21.4412L43.5606 20.5141L40.557 17.1677C39.0326 15.249 40.2268 11.9589 42.795 11.9448C43.4854 11.9499 44.1489 12.2131 44.6552 12.6826L47.7243 15.985C49.4589 14.7222 51.3976 13.6855 53.4604 13.196L54.4534 12.9469V8.16709C54.4534 6.41113 55.7577 4.98206 57.3619 4.98206C58.9661 4.98206 60.2714 6.41083 60.2714 8.16709V12.9451L61.2614 13.1948C63.3382 13.694 65.2974 14.7272 67.0552 15.9838L70.0739 12.679C70.5799 12.2112 71.2424 11.9494 71.9315 11.9449C74.4889 11.9558 75.6831 15.2407 74.1703 17.1631L71.1517 20.4679L71.6785 21.4078C72.8114 23.3817 73.5107 25.6312 73.9278 27.893L78.2931 27.8932ZM65.5884 39.0484C69.4259 34.471 69.2756 26.8016 65.2282 22.4062C64.2287 21.3491 63.0248 20.506 61.6896 19.9283C60.3544 19.3505 58.9156 19.0501 57.4608 19.0453C56.006 19.0404 54.5653 19.3312 53.2263 19.9C51.8872 20.4688 50.6778 21.3038 49.6712 22.3542C48.4198 23.7131 47.6407 25.3357 47.0303 27.0441C51.2692 30.0498 54.5356 34.2306 56.4265 39.0708C58.098 39.6692 59.6592 40.5396 61.047 41.6468L61.6661 42.1409L62.3555 41.7752C63.5594 41.1503 64.6461 40.2539 65.5882 39.2473V39.0476" fill="#F0F8FF"/>
<defs>
<filter id="filter0_f_101_670" x="1.46729" y="1.98206" width="87.1133" height="90.2676" filterUnits="userSpaceOnUse" color-interpolation-filters="sRGB">
<feFlood flood-opacity="0" result="BackgroundImageFix"/>
<feBlend mode="normal" in="SourceGraphic" in2="BackgroundImageFix" result="shape"/>
<feGaussianBlur stdDeviation="1.5" result="effect1_foregroundBlur_101_670"/>
</filter>
<linearGradient id="paint0_linear_101_670" x1="53.3713" y1="0.889481" x2="53.3713" y2="93.3459" gradientUnits="userSpaceOnUse">
<stop stop-color="#0440AD"/>
<stop offset="1" stop-color="#1869FF"/>
</linearGradient>
<linearGradient id="paint1_linear_101_670" x1="53.3713" y1="0.889481" x2="53.3713" y2="93.3459" gradientUnits="userSpaceOnUse">
<stop stop-color="#0440AD"/>
<stop offset="1" stop-color="#1869FF"/>
</linearGradient>
<linearGradient id="paint2_linear_101_670" x1="53.3713" y1="0.889481" x2="53.3713" y2="93.3459" gradientUnits="userSpaceOnUse">
<stop stop-color="#0440AD"/>
<stop offset="1" stop-color="#1869FF"/>
</linearGradient>
<linearGradient id="paint3_linear_101_670" x1="53.3713" y1="0.889481" x2="53.3713" y2="93.3459" gradientUnits="userSpaceOnUse">
<stop stop-color="#0440AD"/>
<stop offset="1" stop-color="#1869FF"/>
</linearGradient>
<linearGradient id="paint4_linear_101_670" x1="53.3713" y1="0.889481" x2="53.3713" y2="93.3459" gradientUnits="userSpaceOnUse">
<stop stop-color="#0440AD"/>
<stop offset="1" stop-color="#1869FF"/>
</linearGradient>
<linearGradient id="paint5_linear_101_670" x1="53.3713" y1="0.889481" x2="53.3713" y2="93.3459" gradientUnits="userSpaceOnUse">
<stop stop-color="#0440AD"/>
<stop offset="1" stop-color="#1869FF"/>
</linearGradient>
<linearGradient id="paint6_linear_101_670" x1="53.3713" y1="0.889481" x2="53.3713" y2="93.3459" gradientUnits="userSpaceOnUse">
<stop stop-color="#0440AD"/>
<stop offset="1" stop-color="#1869FF"/>
</linearGradient>
<linearGradient id="paint7_linear_101_670" x1="53.3713" y1="0.889481" x2="53.3713" y2="93.3459" gradientUnits="userSpaceOnUse">
<stop stop-color="#0440AD"/>
<stop offset="1" stop-color="#1869FF"/>
</linearGradient>
<linearGradient id="paint8_linear_101_670" x1="44.063" y1="4.97975" x2="44.063" y2="89.2513" gradientUnits="userSpaceOnUse">
<stop stop-color="#81ADFF"/>
<stop offset="1" stop-color="#F0F8FF"/>
</linearGradient>
<linearGradient id="paint9_linear_101_670" x1="44.063" y1="4.97975" x2="44.063" y2="89.2513" gradientUnits="userSpaceOnUse">
<stop stop-color="#81ADFF"/>
<stop offset="1" stop-color="#F0F8FF"/>
</linearGradient>
<linearGradient id="paint10_linear_101_670" x1="44.063" y1="4.97975" x2="44.063" y2="89.2513" gradientUnits="userSpaceOnUse">
<stop stop-color="#81ADFF"/>
<stop offset="1" stop-color="#F0F8FF"/>
</linearGradient>
<linearGradient id="paint11_linear_101_670" x1="44.063" y1="4.97975" x2="44.063" y2="89.2513" gradientUnits="userSpaceOnUse">
<stop stop-color="#81ADFF"/>
<stop offset="1" stop-color="#F0F8FF"/>
</linearGradient>
<linearGradient id="paint12_linear_101_670" x1="44.063" y1="4.97975" x2="44.063" y2="89.2513" gradientUnits="userSpaceOnUse">
<stop stop-color="#81ADFF"/>
<stop offset="1" stop-color="#F0F8FF"/>
</linearGradient>
<linearGradient id="paint13_linear_101_670" x1="44.063" y1="4.97975" x2="44.063" y2="89.2513" gradientUnits="userSpaceOnUse">
<stop stop-color="#81ADFF"/>
<stop offset="1" stop-color="#F0F8FF"/>
</linearGradient>
<linearGradient id="paint14_linear_101_670" x1="44.063" y1="4.97975" x2="44.063" y2="89.2513" gradientUnits="userSpaceOnUse">
<stop stop-color="#81ADFF"/>
<stop offset="1" stop-color="#F0F8FF"/>
</linearGradient>
<linearGradient id="paint15_linear_101_670" x1="44.063" y1="4.97975" x2="44.063" y2="89.2513" gradientUnits="userSpaceOnUse">
<stop stop-color="#81ADFF"/>
<stop offset="1" stop-color="#F0F8FF"/>
</linearGradient>
<linearGradient id="paint16_linear_101_670" x1="44.063" y1="4.97975" x2="44.063" y2="89.2513" gradientUnits="userSpaceOnUse">
<stop stop-color="#81ADFF"/>
<stop offset="1" stop-color="#F0F8FF"/>
</linearGradient>
<linearGradient id="paint17_linear_101_670" x1="44.063" y1="4.97975" x2="44.063" y2="89.2513" gradientUnits="userSpaceOnUse">
<stop stop-color="#81ADFF"/>
<stop offset="1" stop-color="#F0F8FF"/>
</linearGradient>
<linearGradient id="paint18_linear_101_670" x1="44.063" y1="4.97975" x2="44.063" y2="89.2513" gradientUnits="userSpaceOnUse">
<stop stop-color="#81ADFF"/>
<stop offset="1" stop-color="#F0F8FF"/>
</linearGradient>
</defs>
</svg>
