<svg width="94" height="89" viewBox="0 0 94 89" fill="none" xmlns="http://www.w3.org/2000/svg">
<path d="M14.0289 49.6239C14.1632 53.0197 16.7882 55.9358 20.2946 55.7985C21.8339 55.8825 23.3055 56.5873 24.3916 57.6723C26.182 59.4369 26.9195 62.1262 26.4344 64.576C25.8704 67.6911 23.1941 70.3651 19.9335 70.3433C20.6864 70.3147 24.5529 70.415 25.2088 70.2667C26.2254 70.1013 27.186 69.6889 28.0062 69.0657C31.083 66.7693 31.7702 62.1471 29.7272 58.9486C28.5744 57.0737 26.4768 55.7679 24.2504 55.7874C21.6892 55.8138 19.4436 53.8962 18.689 51.5091C18.3882 50.5944 18.2793 49.6275 18.3693 48.6688C18.4593 47.7102 18.7462 46.7804 19.2121 45.9377C20.0129 44.5017 21.3924 43.3669 23.0071 42.9944C23.7275 42.8008 24.4793 42.8946 25.2091 42.7726C27.4644 42.4281 29.3721 40.761 30.2552 38.6894C30.5656 37.9738 30.766 37.2154 30.8498 36.4399C30.906 35.9489 30.8916 35.4531 30.9072 34.96C30.9369 33.9311 31.0394 32.9055 31.214 31.891C31.5912 29.6795 32.3148 27.5412 33.3584 25.5552C36.4755 19.5837 42.5677 15.3759 49.4056 15.4049C48.0369 15.4171 44.5853 15.3425 43.2935 15.5001C41.8615 15.6514 40.4546 15.9836 39.1061 16.4885C33.0674 18.7225 28.6381 24.2979 27.1827 30.4967C26.8219 32.0074 26.6219 33.5521 26.586 35.1049C26.6629 37.3293 25.9071 39.5616 24.2548 41.0956C23.328 41.98 22.1562 42.5648 20.8922 42.7736C20.351 42.8734 19.7968 42.8235 19.2529 42.8945C17.505 43.1025 15.9462 44.215 15.0349 45.7008L15.0338 45.7025C14.3144 46.8798 13.9644 48.2457 14.0289 49.6239Z" fill="url(#paint0_linear_101_679)"/>
<path d="M45.7174 87.1741C45.4876 87.366 45.2458 87.543 44.9934 87.7041C44.7452 87.8602 44.4871 88.0003 44.2209 88.1234C44.2198 88.124 44.2186 88.1246 44.2175 88.1251C43.9516 88.2455 43.6782 88.3483 43.3988 88.4326L43.3962 88.4335C43.1154 88.516 42.8293 88.5794 42.5399 88.6232H42.5386C42.246 88.6652 41.9507 88.6868 41.6552 88.6879C42.3241 88.6666 46.2827 88.7469 46.8554 88.6232H46.857C47.1472 88.5793 47.4341 88.5157 47.7156 88.4327C47.995 88.3484 48.2685 88.2457 48.5344 88.1253L48.5377 88.1236C48.8055 88.0001 49.065 87.8592 49.3145 87.702C50.1316 87.1792 50.8298 86.4908 51.3642 85.6813C51.5039 85.4716 51.6314 85.2544 51.7496 85.0318L61.419 66.7043C61.5676 66.4204 61.6988 66.1277 61.8118 65.8279C62.9238 62.9017 62.1333 59.2893 59.6861 57.2757C58.8446 56.5722 57.8373 56.0954 56.7598 55.8904C56.6083 55.8631 56.4561 55.8398 56.3028 55.8235C55.989 55.7555 51.76 55.7999 51.329 55.7881C55.2229 55.7947 58.0359 59.3349 57.9895 63.0804C57.99 64.3424 57.6856 65.5858 57.1022 66.7048L47.4327 85.0323C47.3546 85.1787 47.2729 85.323 47.1867 85.4644C46.7911 86.1089 46.2951 86.6861 45.7174 87.1741Z" fill="url(#paint1_linear_101_679)"/>
<path d="M55.2295 44.6468C55.2179 43.6873 55.0331 42.7378 54.6841 41.844C54.1831 40.5458 53.3154 39.4213 52.1865 38.6077L52.1855 38.6071C51.3075 37.9834 50.2853 37.5935 49.215 37.4739C48.9241 37.4086 44.6704 37.4511 44.2584 37.4398C46.9876 37.4209 49.4162 39.3392 50.3672 41.8438C51.0094 43.4884 51.0874 45.2997 50.589 46.9934C50.4473 47.882 46.5489 54.8312 46.1008 55.7877H50.4177C50.5418 55.5252 54.724 47.7368 54.6617 47.6908C55.0522 46.7242 55.2452 45.6892 55.2295 44.6468Z" fill="url(#paint2_linear_101_679)"/>
<path d="M77.3262 69.1399C85.7132 66.2362 91.6651 58.3627 93.1815 49.7401C95.2084 38.7142 90.3769 26.7412 80.1688 21.5427L80.1664 21.5415C79.471 21.1891 78.7584 20.8718 78.0312 20.5908C75.9037 15.7122 72.6795 11.298 68.579 7.89411C64.4996 4.4983 59.5478 2.13189 54.3068 1.23997C53.1387 1.03866 51.9594 0.909234 50.7754 0.852395C49.744 0.786598 46.124 0.827516 45.0443 0.816733C57.7834 0.808246 68.7426 9.09834 73.7139 20.5908C86.1935 25.4282 91.8306 39.844 88.262 52.3332C85.4524 62.3775 76.677 70.3233 65.9847 70.3432C67.5779 70.3215 71.0329 70.4201 72.5667 70.2154C74.1889 70.0389 75.7857 69.6781 77.3262 69.1399Z" fill="url(#paint3_linear_101_679)"/>
<path d="M51.329 55.7874C56.6735 55.7935 59.5725 62.2 57.1021 66.7036L47.4327 85.0311C45.7144 88.4236 41.4853 89.758 38.3363 87.7163C35.1256 85.7793 34.0667 81.0275 35.8811 77.7585L39.8099 70.3433H34.5824C29.2393 70.334 26.3377 63.9348 28.8089 59.4245L38.4778 41.0959C40.2006 37.7056 44.4234 36.3682 47.5751 38.4108C50.7582 40.4177 51.8602 44.8846 50.0301 48.3691L46.1006 55.7875L51.329 55.7874Z" fill="#1869FF"/>
<path d="M73.715 20.5909C98.0179 30.196 92.4369 69.7196 65.9854 70.3434C62.3138 70.3434 59.3316 67.0801 59.3316 63.0648C59.3316 59.0494 62.3138 55.7873 65.9784 55.7873C70.7634 55.7259 74.8904 51.92 75.7631 46.7399C76.2618 43.8788 75.6884 40.9343 74.1525 38.4694C72.6229 36.0395 70.3185 34.4051 67.6662 33.8674C65.303 33.436 63.3163 31.5956 62.5208 29.0717C55.2703 7.46727 26.9298 13.1007 26.5797 35.5768C26.5797 39.5852 23.5979 42.8492 19.9338 42.8492C12.0936 43.1986 12.0933 55.4346 19.9338 55.7873C28.7483 56.1805 28.7471 69.9501 19.9338 70.3432C10.981 70.3432 3.29811 63.7098 1.21775 54.2155C-1.15166 44.3309 4.18822 32.7363 13.8065 29.3771C19.4365 -3.0737 59.6093 -10.2592 73.715 20.5909Z" fill="#1869FF"/>
<g style="mix-blend-mode:multiply" opacity="0.4" filter="url(#filter0_f_101_679)">
<path d="M51.6693 59.88C53.9993 59.8864 55.2697 62.6863 54.1887 64.6562L44.519 82.9849C43.7628 84.4769 41.9109 85.0665 40.5263 84.1676C39.1285 83.289 38.6445 81.3289 39.448 79.7988L46.6274 66.2488H34.8914C33.8556 66.2488 32.8907 65.6387 32.3727 64.6562C32.1173 64.1645 31.9839 63.6186 31.9837 63.0646C31.9836 62.5105 32.1167 61.9646 32.3718 61.4727L42.0425 43.143C42.7988 41.6519 44.6502 41.0632 46.0351 41.9604C47.4445 42.8121 47.908 44.8947 47.1135 46.33L39.9336 59.88H51.6693Z" fill="#0440AD"/>
<path d="M81.9943 31.8646C91.2538 45.0877 83.2349 66.0306 66.3011 66.2488C64.7004 66.2488 63.395 64.821 63.395 63.0638C63.395 61.3065 64.7004 59.8798 66.3046 59.8798C72.9136 59.7974 78.5687 54.5837 79.7659 47.4836C81.2303 39.8814 76.354 31.2698 68.6711 29.8426C67.5981 29.6456 66.729 28.8407 66.3808 27.7371C57.1931 1.3618 23.5425 8.88868 23.1664 35.5676C23.1664 37.327 21.8609 38.7551 20.2568 38.7551C7.46146 39.3274 7.45936 59.3067 20.2568 59.8799C21.8608 59.8799 23.1662 61.3077 23.1662 63.0638C23.1662 64.8198 21.8608 66.2488 20.2567 66.2488C16.7615 66.2488 13.3602 64.9575 10.6434 62.611C7.92651 60.2644 5.98548 56.9446 5.17914 53.261C3.10477 44.369 8.4255 34.4471 17.4757 32.6274C20.5989 1.63019 59.0537 -6.2087 71.3143 23.9387C75.632 25.2361 79.3329 27.9516 81.9943 31.8646Z" fill="#0440AD"/>
</g>
<path d="M33.9376 12.5575C33.4499 12.736 32.969 12.9316 32.4948 13.1442L32.4922 13.1454C24.9149 16.561 19.8619 24.3046 18.957 32.4709C18.856 33.3112 18.8011 34.1571 18.7801 35.0033C18.7688 35.4606 18.7933 35.9254 18.6788 36.3727C18.5798 36.8095 18.389 37.2201 18.1191 37.5775C17.8493 37.9349 17.5065 38.2308 17.1136 38.4456C16.6089 38.7291 16.0267 38.7662 15.4608 38.7651C15.0197 38.785 14.5807 38.8377 14.1474 38.9228C12.1069 39.3204 10.2484 40.4624 8.88956 42.0252L8.88693 42.0283C8.51153 42.4604 8.17132 42.9219 7.86967 43.4083C4.37911 49.0045 6.57583 57.1362 12.9848 59.4003C13.6255 59.6196 14.2891 59.7651 14.9627 59.8338C15.4945 59.906 16.0434 59.828 16.5645 59.9742C17.7988 60.3025 18.659 61.5018 18.7586 62.7499C18.9443 64.4642 17.6673 66.2569 15.8631 66.2487C16.1782 66.2411 17.0624 66.2732 17.3588 66.2152C18.1868 66.0882 18.9156 65.5522 19.3502 64.845C20.093 63.6568 19.9978 62.0094 19.097 60.9311C18.9757 60.7847 18.8414 60.6497 18.6957 60.5276C18.4318 60.3085 18.1308 60.1383 17.807 60.0252C17.4604 59.9132 17.0968 59.8632 16.7328 59.8776C16.3548 59.869 15.9776 59.836 15.6038 59.7789C14.3097 59.5789 13.0744 59.1008 11.9829 58.3774C5.82378 54.292 5.72379 44.6607 11.756 40.4123C13.0213 39.5189 14.4945 38.9646 16.0349 38.8021C16.5192 38.7352 17.0158 38.7957 17.496 38.6961C17.8796 38.6083 18.2416 38.4439 18.5602 38.2128C18.8788 37.9817 19.1475 37.6887 19.3502 37.3513C19.606 36.9343 19.7677 36.4664 19.824 35.9805C19.8747 35.4073 19.8425 34.8281 19.8839 34.2538C19.9787 32.324 20.2855 30.4106 20.7987 28.5479C22.982 20.4838 29.409 13.5356 37.7153 11.7767H37.7163C39.1584 11.468 40.629 11.3119 42.1037 11.3111C40.2814 11.279 38.4207 11.3788 36.6402 11.7767H36.6392C35.7222 11.9759 34.8196 12.2368 33.9376 12.5575Z" fill="url(#paint4_linear_101_679)"/>
<path d="M44.181 44.5682C44.1572 44.0816 44.0317 43.6055 43.8127 43.1703C43.6128 42.766 43.3233 42.4125 42.9662 42.1369C42.6091 41.8613 42.1939 41.6708 41.7521 41.5798C41.418 41.5062 40.5385 41.5423 40.1891 41.5345C41.2637 41.5308 42.261 42.2162 42.7345 43.1665C43.1381 43.9667 43.2185 44.8914 42.9591 45.7491C42.8967 45.9495 42.8166 46.1439 42.7199 46.3301L35.5406 59.8801H36.6167L43.7962 46.3301C43.8929 46.1439 43.973 45.9495 44.0353 45.7491C44.1517 45.3669 44.201 44.9673 44.181 44.5682Z" fill="url(#paint5_linear_101_679)"/>
<path d="M51.2544 62.8873C51.2247 62.2545 51.0175 61.6429 50.6568 61.1222C50.4405 60.8086 50.1644 60.5408 49.8444 60.3342C49.5243 60.1276 49.1666 59.9864 48.7918 59.9185C48.4869 59.8536 47.5959 59.8885 47.2756 59.88C47.731 59.8885 48.1777 60.0057 48.5787 60.2218C48.9796 60.4378 49.3232 60.7465 49.5807 61.1222C49.9022 61.592 50.1022 62.1341 50.1629 62.7001C50.2237 63.266 50.1432 63.8382 49.9288 64.3655C49.8892 64.4646 49.8445 64.5616 49.7951 64.6562L40.1254 82.9849C40.0795 83.0664 40.0362 83.1498 39.9833 83.2267C39.815 83.4903 39.6082 83.7273 39.3699 83.9298L39.3682 83.9312C39.2681 84.0144 39.163 84.0913 39.0535 84.1616L39.052 84.1626C38.9428 84.2311 38.8294 84.2926 38.7125 84.3468L38.7114 84.3474C38.5943 84.4001 38.4739 84.4453 38.351 84.4826C38.2276 84.5185 38.102 84.5462 37.975 84.5658H37.9742C37.8457 84.5839 37.716 84.5933 37.5862 84.5941C37.8758 84.5875 38.7778 84.6151 39.0503 84.5658H39.0512C39.1782 84.5462 39.3037 84.5185 39.4271 84.4826C39.5501 84.4453 39.6705 84.4002 39.7877 84.3474L39.7888 84.3468C39.9057 84.2926 40.019 84.2311 40.1282 84.1626L40.1298 84.1616C40.2393 84.0913 40.3443 84.0144 40.4444 83.9312C40.7441 83.6769 40.9937 83.3687 41.1802 83.0227C41.206 82.9827 50.8472 64.6985 50.8715 64.656C50.9023 64.592 50.9354 64.5288 50.9647 64.4641C51.019 64.3385 51.0671 64.2103 51.1085 64.0799C51.1273 64.0127 51.1461 63.9452 51.1637 63.8776C51.2399 63.5533 51.2705 63.22 51.2544 62.8873Z" fill="url(#paint6_linear_101_679)"/>
<path d="M82.5654 43.818C82.3876 38.7394 80.4928 33.721 77.1485 29.8806C75.2107 27.6307 72.7843 25.8535 70.0546 24.6847L70.0488 24.6823C69.3929 24.4022 68.6779 24.1588 67.9969 23.9392C63.9823 13.1965 54.2739 5.16167 42.5831 4.91616H42.5782C42.2235 4.90727 41.3421 4.91187 40.9751 4.91077C52.8777 4.91596 62.8395 13.0154 66.9208 23.9393C70.4755 25.0086 73.6511 27.0705 76.0741 29.8827C82.7844 37.5499 83.3181 49.5575 77.4353 57.8506C73.8867 62.9274 68.1643 66.26 61.9078 66.2494C67.3143 66.4436 72.1805 64.5544 76.0414 60.7605C80.5267 56.3908 82.8318 50.0403 82.5654 43.818Z" fill="url(#paint7_linear_101_679)"/>
<path d="M47.2762 59.88C49.6063 59.8864 50.8766 62.6863 49.7955 64.6562L40.1259 82.9849C39.3696 84.4769 37.5178 85.0665 36.1332 84.1676C34.7354 83.289 34.2513 81.3289 35.0549 79.7988L42.2343 66.2488H30.4978C29.462 66.2488 28.4972 65.6387 27.9791 64.6562C27.7237 64.1645 27.5903 63.6186 27.5902 63.0646C27.59 62.5105 27.7232 61.9646 27.9783 61.4727L37.6488 43.143C38.4052 41.6519 40.2567 41.0632 41.6415 41.9604C43.051 42.8121 43.5145 44.8947 42.7198 46.33L35.5405 59.88H47.2762Z" fill="#F0F8FF"/>
<path d="M77.6007 31.8646C86.8602 45.0877 78.8414 66.0306 61.9075 66.2488C60.3068 66.2488 59.0014 64.821 59.0014 63.0638C59.0014 61.3065 60.3068 59.8798 61.9109 59.8798C68.52 59.7974 74.1751 54.5837 75.3722 47.4836C76.8367 39.8814 71.9604 31.2698 64.2776 29.8426C63.2045 29.6456 62.3354 28.8407 61.9871 27.7371C52.7995 1.3618 19.1488 8.88868 18.7728 35.5676C18.7728 37.327 17.4674 38.7551 15.8633 38.7551C3.06781 39.3274 3.06571 59.3067 15.8633 59.8799C17.4673 59.8799 18.7726 61.3077 18.7726 63.0638C18.7726 64.8198 17.4673 66.2488 15.8632 66.2488C12.3679 66.2488 8.9667 64.9575 6.24973 62.611C3.53277 60.2644 1.59174 56.9446 0.785495 53.261C-1.28897 44.369 4.03186 34.4471 13.0822 32.6274C16.2054 1.63019 54.6601 -6.2087 66.9206 23.9387C71.2381 25.2361 74.9393 27.9516 77.6007 31.8646Z" fill="#F0F8FF"/>
<defs>
<filter id="filter0_f_101_679" x="1.73206" y="1.93947" width="87.1628" height="85.653" filterUnits="userSpaceOnUse" color-interpolation-filters="sRGB">
<feFlood flood-opacity="0" result="BackgroundImageFix"/>
<feBlend mode="normal" in="SourceGraphic" in2="BackgroundImageFix" result="shape"/>
<feGaussianBlur stdDeviation="1.5" result="effect1_foregroundBlur_101_679"/>
</filter>
<linearGradient id="paint0_linear_101_679" x1="53.8285" y1="0.813889" x2="53.8285" y2="88.6942" gradientUnits="userSpaceOnUse">
<stop stop-color="#0440AD"/>
<stop offset="1" stop-color="#1869FF"/>
</linearGradient>
<linearGradient id="paint1_linear_101_679" x1="53.8285" y1="0.813889" x2="53.8285" y2="88.6942" gradientUnits="userSpaceOnUse">
<stop stop-color="#0440AD"/>
<stop offset="1" stop-color="#1869FF"/>
</linearGradient>
<linearGradient id="paint2_linear_101_679" x1="53.8285" y1="0.813889" x2="53.8285" y2="88.6942" gradientUnits="userSpaceOnUse">
<stop stop-color="#0440AD"/>
<stop offset="1" stop-color="#1869FF"/>
</linearGradient>
<linearGradient id="paint3_linear_101_679" x1="53.8285" y1="0.813889" x2="53.8285" y2="88.6942" gradientUnits="userSpaceOnUse">
<stop stop-color="#0440AD"/>
<stop offset="1" stop-color="#1869FF"/>
</linearGradient>
<linearGradient id="paint4_linear_101_679" x1="44.4018" y1="4.91053" x2="44.4018" y2="84.596" gradientUnits="userSpaceOnUse">
<stop stop-color="#81ADFF"/>
<stop offset="1" stop-color="#F0F8FF"/>
</linearGradient>
<linearGradient id="paint5_linear_101_679" x1="44.4018" y1="4.91053" x2="44.4018" y2="84.596" gradientUnits="userSpaceOnUse">
<stop stop-color="#81ADFF"/>
<stop offset="1" stop-color="#F0F8FF"/>
</linearGradient>
<linearGradient id="paint6_linear_101_679" x1="44.4018" y1="4.91053" x2="44.4018" y2="84.596" gradientUnits="userSpaceOnUse">
<stop stop-color="#81ADFF"/>
<stop offset="1" stop-color="#F0F8FF"/>
</linearGradient>
<linearGradient id="paint7_linear_101_679" x1="44.4018" y1="4.91053" x2="44.4018" y2="84.596" gradientUnits="userSpaceOnUse">
<stop stop-color="#81ADFF"/>
<stop offset="1" stop-color="#F0F8FF"/>
</linearGradient>
</defs>
</svg>
