<svg width="95" height="98" viewBox="0 0 95 98" fill="none" xmlns="http://www.w3.org/2000/svg">
<path d="M18.8663 77.9576C21.0001 77.8587 22.9505 76.5543 24.0509 74.7526C25.8798 71.8444 25.4811 67.7136 23.0106 65.2944L23.0099 65.2937C22.583 64.8723 22.1019 64.5097 21.5792 64.2154C21.2989 64.0552 20.9949 63.9375 20.7249 63.7589C20.3032 63.4871 19.9383 63.1358 19.6507 62.7245C18.0941 60.5339 18.9729 57.0516 21.6102 56.189C22.3705 55.9238 23.1933 56.0798 23.968 55.8807C25.6299 55.5345 27.0919 54.4678 28.0368 53.0707C28.7332 52.0383 29.1663 50.8512 29.2981 49.6129C29.3696 48.9321 29.3313 48.2435 29.3905 47.5621C29.4944 46.1462 29.7769 44.749 30.2312 43.4039C31.8188 38.6261 35.8201 34.5888 40.8048 33.5052C41.7518 33.2957 42.7187 33.1895 43.6886 33.1886C42.8499 33.1939 39.071 33.1572 38.3257 33.2303C37.4379 33.2998 36.5594 33.4593 35.7037 33.7062C31.7643 34.8252 28.4987 37.8015 26.7204 41.4564C25.6878 43.5674 25.1146 45.8735 25.0388 48.2223C25.0681 49.8464 24.7655 51.4166 23.8906 52.8078V52.8084L23.8901 52.8091C22.9507 54.333 21.4173 55.5136 19.651 55.8807C19.1125 56.0098 18.5586 56.0022 18.0098 56.0357C17.234 56.1233 16.5066 56.457 15.9342 56.988C15.6575 57.2442 15.4164 57.5363 15.2173 57.8566L15.2165 57.858C14.7963 58.5529 14.5703 59.3479 14.5623 60.1599C14.5543 60.9719 14.7646 61.7712 15.1711 62.4742L15.1721 62.4758C15.5055 63.0383 15.9754 63.5075 16.5383 63.8401C17.2356 64.1876 17.9233 64.5656 18.4937 65.1054C19.8616 66.3488 20.6832 68.1347 20.8428 69.9678C21.2452 73.9161 18.3766 77.9527 14.2283 77.9664C14.332 77.9626 18.9381 77.9761 18.8663 77.9576Z" fill="url(#paint0_linear_101_674)"/>
<path d="M37.5766 90.3285C37.4619 93.9186 34.6642 97.2637 30.937 97.2583H35.2538C35.8963 97.2573 36.5346 97.1555 37.1456 96.9567C39.1125 96.3254 40.6672 94.6961 41.3897 92.7814C41.7297 91.8867 41.9034 90.9374 41.9021 89.9803V62.4865C41.9026 62.3051 41.8958 62.1259 41.8821 61.9457C41.8326 61.1761 41.6682 60.4181 41.3943 59.6971C40.6514 57.7125 39.0105 56.0342 36.9512 55.4484C36.3996 55.2886 35.8281 55.2074 35.2538 55.2073H30.937C33.7933 55.1806 36.292 57.2872 37.1649 59.9406C37.4064 60.6503 37.5452 61.391 37.5772 62.14C37.5821 62.255 37.5852 62.3703 37.5852 62.4865V89.9803C37.5847 90.0971 37.5816 90.213 37.5766 90.3285Z" fill="url(#paint1_linear_101_674)"/>
<path d="M39.8903 18.5589C40.7332 18.5801 41.5745 18.6442 42.411 18.751H46.7281C45.6948 18.6192 44.6541 18.5523 43.6124 18.5507H39.2955C39.4935 18.5513 39.6918 18.554 39.8903 18.5589Z" fill="url(#paint2_linear_101_674)"/>
<path d="M56.1332 8.6934C55.9911 8.57199 55.8411 8.45917 55.6897 8.35004C54.8846 7.77816 53.9571 7.40209 52.9811 7.25175C52.4055 7.12325 48.4303 7.20651 47.7665 7.18435C49.364 7.17995 50.9285 7.84193 52.088 8.93253L53.2829 10.2145H57.5998L56.4049 8.93253C56.3163 8.84986 56.2253 8.77068 56.1332 8.6934Z" fill="url(#paint3_linear_101_674)"/>
<path d="M54.3208 85.7455C54.2063 89.3349 51.4095 92.6808 47.6823 92.6755H51.9992C52.4698 92.6744 52.9388 92.6196 53.397 92.5123C55.1102 92.1171 56.5895 90.9566 57.5055 89.4708C58.0658 88.5593 58.4291 87.5406 58.5722 86.4803C58.6207 86.1214 58.6454 85.7597 58.646 85.3975V57.9031C58.6517 56.3775 58.2055 54.8844 57.3636 53.6121C56.434 52.208 54.9803 51.1351 53.3263 50.7715C52.8906 50.6753 52.4457 50.6264 51.9994 50.6257H47.6824C50.538 50.599 53.036 52.7051 53.9087 55.3576C54.1503 56.0673 54.2892 56.8078 54.3211 57.5568C54.326 57.6716 54.3291 57.787 54.3291 57.9031V85.3974C54.3289 85.5142 54.3259 85.6301 54.3208 85.7455Z" fill="url(#paint4_linear_101_674)"/>
<path d="M61.9464 22.6032C60.1507 22.7131 58.4353 23.5487 57.1808 24.8286C57.0472 24.9894 56.9175 25.1592 56.7959 25.3319C59.8914 28.1227 62.3825 31.5178 64.1156 35.3081C65.0556 35.7141 65.9621 36.1935 66.8266 36.7419H71.1435C70.2789 36.1934 69.3725 35.714 68.4325 35.3081C66.6995 31.5178 64.2084 28.1226 61.1128 25.3319C61.2347 25.1592 61.364 24.9894 61.4977 24.8286C62.8606 23.4331 64.7741 22.5782 66.7325 22.5859C66.5659 22.5911 61.9083 22.5708 61.9464 22.6032Z" fill="url(#paint5_linear_101_674)"/>
<path d="M73.2912 7.17927C73.2057 4.31832 71.396 1.48625 68.6334 0.552506L68.6277 0.5508C67.9906 0.333405 67.322 0.22209 66.6488 0.221308H62.3318C65.1874 0.19445 67.6872 2.29998 68.5604 4.95315C68.7819 5.60034 68.9164 6.27408 68.9604 6.95671C68.9988 7.35539 68.974 8.71058 68.9804 9.12623C69.8087 9.43615 70.6159 9.79949 71.3972 10.2139H75.7145C74.9334 9.79903 74.1261 9.43568 73.2976 9.12623C73.2953 8.8892 73.3034 7.38175 73.2912 7.17927Z" fill="url(#paint6_linear_101_674)"/>
<path d="M94.1957 29.6912C93.9755 26.9719 92.1917 24.3535 89.5641 23.4645L89.5584 23.4626C89.036 23.2844 88.4919 23.1775 87.9409 23.1447C87.6938 23.1247 86.3634 23.1365 86.0908 23.1336C85.8154 22.2301 85.4837 21.3448 85.0977 20.4828L86.2667 19.1988C87.1334 18.0822 87.6719 16.7461 87.8218 15.3405V15.3367C88.1248 12.6962 87.0235 9.88836 84.8212 8.34646C84.0166 7.77553 83.0897 7.40046 82.1145 7.25117C81.5408 7.12407 77.564 7.20642 76.9019 7.18445C81.1437 7.21301 83.9809 11.3115 83.5054 15.3367C83.3558 16.7436 82.8172 18.081 81.95 19.1988L80.781 20.4828C81.167 21.3448 81.4987 22.2301 81.774 23.1336C82.0662 23.1263 83.3643 23.1321 83.6242 23.1447C84.1751 23.1778 84.7191 23.2847 85.2416 23.4626C88.1142 24.4302 89.9443 27.4376 89.9115 30.4087C89.9451 33.3722 88.1249 36.3747 85.2641 37.3504C84.756 37.5257 84.227 37.6336 83.6908 37.6711C83.3704 37.7093 82.1105 37.6777 81.7737 37.6878C81.4972 38.5897 81.1663 39.474 80.7828 40.3358C81.1123 40.7078 81.9788 41.6076 82.2546 41.9978C82.7515 42.6662 83.1333 43.4128 83.3845 44.2069C84.7985 48.5723 82.0656 53.7398 77.2168 53.8626C77.8958 60.1418 76.1226 66.712 72.0863 71.6074C71.2427 72.6377 70.305 73.5873 69.2855 74.444C67.9442 75.6304 66.4506 76.4389 64.6382 76.4269H68.955C70.2811 76.4203 71.5711 75.9934 72.6393 75.2075C73.7353 74.3891 74.7504 73.4675 75.6704 72.4554C80.2118 67.4931 82.2573 60.5117 81.5338 53.8626C84.8187 53.8334 87.4356 51.1429 87.9512 47.9931C88.3372 45.812 87.7873 43.4606 86.3721 41.7421C86.2277 41.5562 85.2751 40.5319 85.0997 40.3358C85.4833 39.474 85.8142 38.5897 86.0907 37.6878C86.4345 37.6853 87.6942 37.7007 88.0077 37.6711C88.6208 37.6287 89.224 37.4937 89.7966 37.2704C92.7843 36.1268 94.5127 32.8074 94.1957 29.6912Z" fill="url(#paint7_linear_101_674)"/>
<path d="M30.9364 55.2072C34.6033 55.2072 37.5847 58.4721 37.5847 62.4865V89.9803C37.5847 93.9947 34.6033 97.2582 30.9364 97.2582C27.2695 97.2582 24.2893 93.9947 24.2893 89.9803V62.4865C24.2893 58.472 27.2706 55.2072 30.9364 55.2072Z" fill="#1869FF"/>
<path d="M47.6822 50.6257C51.3475 50.6257 54.3289 53.8892 54.3289 57.903V85.3974C54.3289 89.4118 51.3475 92.6755 47.6822 92.6755C44.0149 92.6755 41.0335 89.4118 41.0335 85.3974V57.903C41.0335 53.8892 44.0149 50.6257 47.6822 50.6257Z" fill="#1869FF"/>
<path d="M83.2621 37.6878H81.7736C81.498 38.59 81.167 39.4743 80.7826 40.3358L81.8221 41.4724C85.7829 45.7082 83.3133 53.741 77.2167 53.8626C78.1418 62.0659 74.6957 70.5351 68.3222 75.2075C65.2713 77.4739 60.973 76.4407 59.059 73.1284C57.0463 69.7622 57.9121 65.2313 60.9825 63.0283C66.4408 59.0812 64.6286 49.657 58.0371 48.5644C55.561 48.1006 53.5714 46.2343 52.7948 43.6785C50.8253 37.4474 45.427 33.2208 39.372 33.189C31.4678 33.189 25.0614 40.1692 25.0279 48.754C25.0279 52.752 22.046 56.0161 18.3791 56.0161C16.2752 56.0161 14.5627 57.8901 14.5627 60.1954C14.5527 61.8628 15.4451 63.3473 16.8301 63.9942C19.3101 65.1469 20.8991 67.7977 20.8753 70.7487C20.8835 75.7845 16.0309 79.4206 11.6121 77.4111C-2.40804 70.7765 -2.06408 48.7311 12.2754 42.6966C15.061 27.7215 28.1322 16.93 42.4111 18.751C39.3075 14.2181 42.103 7.22529 47.7669 7.18445C49.3772 7.19659 50.9224 7.8217 52.0883 8.93263L53.2832 10.2146C54.0571 9.79539 54.8599 9.43193 55.6856 9.12703V7.49817C55.6856 3.48612 58.6669 0.221909 62.3321 0.221909C65.9995 0.221909 68.9809 3.48612 68.9809 7.49817V9.12703C69.8104 9.43414 70.6179 9.79753 71.3978 10.2146L72.4395 9.07442C74.9825 6.59379 78.7163 6.5752 81.2258 8.93463C84.009 11.436 84.3187 16.3043 81.95 19.1986L80.7811 20.4824C81.167 21.3445 81.4987 22.2299 81.7741 23.1334H83.2626C92.0853 23.5289 92.0767 37.296 83.2621 37.6878ZM67.9396 35.626C70.3731 32.4333 70.246 27.7619 67.5547 24.7263C64.8032 21.87 59.9518 21.8875 57.1808 24.8286C57.0535 24.981 56.9239 25.15 56.796 25.332C59.8934 28.1209 62.3848 31.5165 64.1157 35.3081C65.056 35.7133 65.9626 36.1928 66.8267 36.742C67.2111 36.4412 67.6079 35.9961 67.9396 35.626Z" fill="#1869FF"/>
<g style="mix-blend-mode:multiply" opacity="0.4" filter="url(#filter0_f_101_674)">
<path d="M31.2144 59.3022C32.8187 59.3022 34.1237 60.7312 34.1237 62.4873V89.9803C34.1237 91.7359 32.8187 93.1653 31.2144 93.1653C29.6101 93.1653 28.305 91.7363 28.305 89.9803V62.4869C28.305 60.7312 29.6105 59.3022 31.2144 59.3022Z" fill="#0440AD"/>
<path d="M47.9586 54.7203C49.563 54.7203 50.868 56.1493 50.868 57.9053V85.3991C50.868 87.1547 49.563 88.5827 47.9586 88.5827C46.3542 88.5827 45.0502 87.1549 45.0502 85.3991V57.9049C45.0502 56.1493 46.3547 54.7203 47.9586 54.7203Z" fill="#0440AD"/>
<path d="M83.541 27.2269C87.4 27.4005 87.3978 33.424 83.541 33.5962H79.1754C78.7585 35.8586 78.06 38.1074 76.9272 40.0812L76.4002 41.0213L79.4562 44.3676C81.1855 46.2201 80.1014 49.7561 77.4112 49.771C77.0234 49.7688 76.6403 49.6856 76.2865 49.5267C75.9326 49.3678 75.616 49.1367 75.3567 48.8482L74.7787 48.2629L72.7273 49.8095C75.6306 57.4768 72.9826 67.1452 66.507 71.8174C64.1687 73.417 61.5216 71.0769 62.0476 68.4771C62.1923 67.6648 62.6442 66.9394 63.3096 66.4515C71.603 60.4737 68.8654 46.1918 58.8781 44.5193C57.8241 44.3167 56.9599 43.5009 56.6216 42.388C54.1182 34.4696 47.3071 29.1344 39.668 29.0968C29.4159 28.9429 21.3944 38.6359 21.5657 48.7341C21.5657 50.4962 20.26 51.9251 18.6562 51.9251C10.4082 52.0581 8.25346 64.2473 15.644 67.7599C18.4996 69.1177 17.7038 73.8038 14.5047 73.874C14.085 73.8674 13.6705 73.7789 13.2846 73.6136C1.41312 67.8152 3.25884 48.9649 15.8643 45.8568C17.3081 30.4759 31.7964 18.6219 46.8707 23.9148C47.345 22.9343 47.8138 21.7073 48.2998 20.7751L48.809 19.8473L45.8053 16.5011C44.2802 14.5816 45.4744 11.2924 48.0423 11.2786C48.7328 11.283 49.3965 11.5463 49.9022 12.0165L52.9727 15.3178C54.7076 14.056 56.6456 13.0191 58.7082 12.5286L59.7007 12.2804V7.49978C59.7007 5.74411 61.0057 4.31472 62.61 4.31472C64.2143 4.31472 65.5193 5.74371 65.5193 7.49978V12.2779L66.5091 12.5275C68.5866 13.0278 70.5441 14.0614 72.3025 15.3168L75.322 12.0125C75.8331 11.5386 76.5061 11.2779 77.2031 11.2838C77.9001 11.2897 78.5685 11.5617 79.0716 12.0442C80.2751 13.1279 80.4236 15.2297 79.418 16.4966L76.3998 19.8009L76.9268 20.7405C78.0595 22.7148 78.7584 24.9651 79.175 27.2269H83.541ZM70.5183 38.9454C74.7018 34.4077 74.7011 26.4149 70.5183 21.8774C66.26 17.403 59.1677 17.395 54.9202 21.8245C53.6757 23.2244 52.8967 24.8464 52.2736 26.5571C56.5188 29.5666 59.7891 33.7542 61.6802 38.6022C63.3498 39.1578 64.9171 39.9831 66.3199 41.0454L66.9217 41.5022C68.0674 40.955 69.1594 40.2884 70.0682 39.3693H70.1413L70.5183 38.9454Z" fill="#0440AD"/>
</g>
<path d="M6.71328 60.5799C6.78936 62.7015 7.64503 64.8033 9.16287 66.301L9.16406 66.3022C9.64264 66.7747 10.1819 67.1815 10.7678 67.5118C11.0332 67.6668 11.3229 67.7772 11.5816 67.9437C11.8929 68.1429 12.1641 68.3988 12.381 68.6981C13.5592 70.2631 13.0539 72.7906 11.2345 73.6256C10.8823 73.788 10.4992 73.8727 10.1113 73.8739C10.4593 73.8626 11.3313 73.9053 11.6603 73.8309C12.6148 73.6641 13.4146 72.9562 13.8016 72.0816C14.0217 71.5822 14.1204 71.0378 14.0895 70.493C14.0587 69.9482 13.8992 69.4184 13.6242 68.9471L13.6229 68.9452C13.4049 68.5804 13.1142 68.2644 12.7688 68.0167C12.521 67.8589 12.2629 67.7179 11.9963 67.5944C11.4421 67.3002 10.9271 66.9372 10.4636 66.5141C7.88166 64.1801 7.12474 60.2213 8.36561 57.0138C9.21229 54.7673 11.0721 52.869 13.4038 52.2013C13.8761 52.0645 14.3616 51.9783 14.8521 51.9442C15.1529 51.9143 15.4593 51.9428 15.7586 51.8916C16.5856 51.765 17.3137 51.2288 17.7479 50.5226C18.0045 50.1044 18.1667 49.6352 18.2231 49.1478C18.2741 48.5124 18.2468 47.8709 18.3057 47.235C18.4368 45.3977 18.8064 43.5852 19.4053 41.8434C21.8904 34.5596 28.4902 29.0558 36.3508 29.0973C35.5392 29.0917 34.6003 29.0883 33.8041 29.1608C32.2461 29.2923 30.7142 29.6408 29.2528 30.1963C22.8102 32.6217 18.3304 38.9435 17.4012 45.6707C17.2806 46.4907 17.2079 47.317 17.1837 48.1455C17.1656 48.532 17.1926 48.9234 17.125 49.3059C17.0548 49.7365 16.9013 50.1494 16.6732 50.5212C16.4705 50.8586 16.2019 51.1516 15.8834 51.3826C15.5648 51.6137 15.2029 51.7781 14.8194 51.8661C14.3967 51.9583 13.9594 51.9076 13.5326 51.9645C12.2463 52.1058 11.0227 52.5943 9.99267 53.3776C7.77792 55.0328 6.58767 57.8413 6.71328 60.5799Z" fill="url(#paint8_linear_101_674)"/>
<path d="M29.7267 90.1271C29.7038 90.7051 29.5334 91.2677 29.2317 91.7613C28.7267 92.5917 27.8048 93.1737 26.8208 93.1653C27.0804 93.1593 27.992 93.183 28.2319 93.1435C29.0928 93.0411 29.8593 92.493 30.3078 91.7613C30.5269 91.4044 30.6772 91.0096 30.751 90.5974C30.7873 90.3938 30.8058 90.1875 30.8063 89.9807V62.4869C30.8119 61.6031 30.4664 60.7533 29.8458 60.1242C29.7833 60.0634 29.7185 60.0057 29.6529 59.9493C29.5393 59.8562 29.4195 59.7709 29.2943 59.6942C29.2928 59.6933 29.2911 59.6926 29.2896 59.6916C29.1233 59.5927 28.9475 59.5107 28.7648 59.4469L28.7633 59.4464C28.2513 59.2412 27.3655 59.3136 26.8208 59.3022C28.1232 59.2882 29.257 60.2985 29.5938 61.5241C29.6839 61.8371 29.7298 62.1612 29.7301 62.4869C29.7245 62.6183 29.7382 90.0132 29.7267 90.1271Z" fill="url(#paint9_linear_101_674)"/>
<path d="M35.6769 22.6523C37.9903 22.6922 40.2879 23.1824 42.4777 23.9148H43.5539C42.8065 23.6835 41.9034 23.3932 41.1486 23.2219C39.6818 22.874 38.1822 22.6823 36.675 22.6498C36.3848 22.6419 35.4828 22.6459 35.1788 22.645C35.3446 22.6452 35.5105 22.6469 35.6769 22.6523Z" fill="url(#paint10_linear_101_674)"/>
<path d="M43.9504 11.2964C44.1434 11.3186 44.3335 11.3614 44.5174 11.4242C44.6385 11.4665 44.7568 11.5166 44.8714 11.574L44.8746 11.5758C45.1045 11.6941 45.3178 11.8422 45.5089 12.0163L48.5795 15.3176H49.6557L46.5852 12.0163C46.5507 11.9849 46.5153 11.9544 46.4799 11.9248C46.3166 11.7898 46.1392 11.6728 45.9508 11.5758L45.9481 11.5743H45.9475C45.8328 11.5168 45.7145 11.4668 45.5934 11.4245H45.5923C45.0797 11.2182 44.1945 11.2906 43.6489 11.2793C43.7496 11.2796 43.8503 11.2854 43.9504 11.2964Z" fill="url(#paint11_linear_101_674)"/>
<path d="M46.4709 85.5452C46.4481 86.123 46.2777 86.6854 45.9761 87.1787C45.9753 87.18 45.9744 87.1812 45.9736 87.1826C45.4684 88.0113 44.5472 88.5904 43.565 88.5823C43.8801 88.5748 44.7647 88.6069 45.061 88.5487C45.8886 88.422 46.6171 87.8862 47.0518 87.1796V87.1788C47.2708 86.822 47.4211 86.4274 47.4949 86.0153C47.5311 85.8118 47.5496 85.6055 47.5501 85.3987V57.9048C47.5557 57.0211 47.2102 56.1713 46.5895 55.5422C46.2867 55.2411 45.9207 55.011 45.5181 54.8686C45.5149 54.8675 45.5119 54.8661 45.5087 54.865L45.5071 54.8645C44.9952 54.6592 44.1093 54.7318 43.5646 54.7203C43.8632 54.7212 44.1596 54.7713 44.4419 54.8686C45.4454 55.2135 46.1792 56.1419 46.3944 57.168C46.4472 57.4101 46.4739 57.6571 46.4743 57.9048C46.4694 58.0374 46.4819 85.4306 46.4709 85.5452Z" fill="url(#paint12_linear_101_674)"/>
<path d="M57.9515 18.499C55.162 18.5763 52.4695 19.8379 50.5265 21.8245C49.8033 22.658 49.1913 23.5818 48.7058 24.5728C48.4308 25.1171 48.1091 25.9833 47.88 26.5573C52.1833 29.6139 55.3394 33.7008 57.2867 38.6023C58.3299 38.954 59.3359 39.4078 60.2899 39.9572C61.0709 40.4197 61.8188 40.9359 62.5282 41.5022H63.6043C62.8951 40.9358 62.1472 40.4195 61.3661 39.9572C60.4122 39.4075 59.4062 38.9537 58.3628 38.6023C56.4152 33.7 53.2595 29.6137 48.9562 26.5573C49.1752 26.0106 49.49 25.1618 49.7472 24.6446C50.2379 23.6264 50.8619 22.6781 51.6027 21.8245C53.626 19.7522 56.4676 18.4771 59.3765 18.4925C59.1142 18.4945 58.1978 18.487 57.9515 18.499Z" fill="url(#paint13_linear_101_674)"/>
<path d="M62.1996 7.36038C62.1712 6.52673 61.8303 5.73424 61.2446 5.14033C61.0772 4.97499 60.8911 4.8296 60.6902 4.70709L60.6853 4.70441C60.5191 4.60545 60.3433 4.5235 60.1606 4.4598L60.1591 4.45929C59.6473 4.25401 58.7613 4.32661 58.2168 4.31513C59.5248 4.30095 60.66 5.31945 60.9941 6.55073C61.0812 6.85958 61.1256 7.17889 61.1262 7.49977V12.278C62.3699 12.5742 63.66 12.9322 64.814 13.4825C65.8888 13.9612 66.9381 14.6507 67.9091 15.3168H68.9852C67.877 14.5494 66.6888 13.7957 65.4414 13.2832C65.4402 13.2826 65.4389 13.2823 65.4377 13.2817C64.4264 12.8405 63.2763 12.5374 62.2021 12.278V7.49977C62.2022 7.4531 62.2014 7.40664 62.1996 7.36038Z" fill="url(#paint14_linear_101_674)"/>
<path d="M69.7078 50.6929C69.6156 50.3961 69.5163 50.1017 69.4099 49.8095L71.4613 48.263H70.3851L68.3338 49.8095C71.1651 57.4824 68.7663 66.8952 62.1135 71.8174C61.6502 72.1518 61.094 72.3328 60.5227 72.3349H61.5989C62.1702 72.3328 62.7265 72.1518 63.1897 71.8174C69.584 67.0859 72.0602 58.191 69.7078 50.6929Z" fill="url(#paint15_linear_101_674)"/>
<path d="M72.7691 21.175C73.3932 22.3613 73.8895 23.6107 74.2495 24.9021C74.4491 25.5889 74.6324 26.5195 74.782 27.227H75.8583C75.5962 25.9123 75.2836 24.5387 74.7977 23.2915C74.36 22.0943 73.7194 20.907 73.083 19.8009L76.1012 16.4966C76.1624 16.4148 76.221 16.3304 76.2748 16.2439C76.2754 16.2428 76.2762 16.2418 76.2768 16.2408C76.3522 16.1169 76.4201 15.9886 76.4801 15.8566C77.1717 14.3505 76.6046 12.334 75.0882 11.5753C74.8585 11.4588 74.6138 11.3748 74.361 11.3257L74.351 11.3234C74.0208 11.2488 73.1329 11.2865 72.7863 11.2781C75.3818 11.3216 76.525 14.5592 75.0246 16.4963L72.0065 19.8005C72.1785 20.11 72.6126 20.8719 72.7691 21.175Z" fill="url(#paint16_linear_101_674)"/>
<path d="M75.1634 44.4842C76.7479 46.3921 75.6617 49.7347 73.0177 49.7711C73.4762 49.7565 74.3337 49.8202 74.7687 49.6847C75.9105 49.4011 76.7397 48.3529 76.9269 47.2149V47.2139C77.0131 46.7362 76.9964 46.2456 76.8778 45.7748C76.7592 45.3041 76.5416 44.8641 76.2393 44.4842L76.2389 44.4835C76.2065 44.4442 76.1732 44.4055 76.139 44.3675L73.0829 41.0213C73.7319 39.8931 74.3792 38.6889 74.8224 37.4669C75.2936 36.2414 75.6012 34.8856 75.8582 33.5964H74.7819C74.524 34.8879 74.2176 36.2411 73.7456 37.4683C73.3031 38.6886 72.6546 39.8953 72.0067 41.0215L75.0628 44.3676C75.0974 44.4058 75.131 44.4447 75.1634 44.4842Z" fill="url(#paint17_linear_101_674)"/>
<path d="M79.4365 27.2428C81.7348 27.5144 82.7384 30.3392 81.5547 32.1974C81.0496 33.0253 80.1291 33.6044 79.1474 33.5963C79.4624 33.5886 80.3468 33.6208 80.6432 33.5627C81.4707 33.4359 82.1987 32.9 82.6334 32.1936L82.634 32.1923C82.8798 31.7866 83.0392 31.3345 83.1021 30.8643C83.1651 30.3942 83.1303 29.916 82.9998 29.4599C82.8481 28.9269 82.5632 28.4413 82.1719 28.0487C82.1075 27.9863 82.0414 27.9263 81.973 27.869C81.7111 27.652 81.4125 27.4835 81.0913 27.3715L81.0898 27.371C80.5779 27.1659 79.692 27.2383 79.1474 27.2269C79.244 27.228 79.3408 27.2334 79.4365 27.2428Z" fill="url(#paint18_linear_101_674)"/>
<path d="M26.8206 59.3022C28.425 59.3022 29.73 60.7312 29.73 62.4873V89.9803C29.73 91.7359 28.425 93.1653 26.8206 93.1653C25.2162 93.1653 23.9114 91.7363 23.9114 89.9803V62.4869C23.9115 60.7312 25.2169 59.3022 26.8206 59.3022Z" fill="#F0F8FF"/>
<path d="M43.565 54.7203C45.1693 54.7203 46.4743 56.1493 46.4743 57.9053V85.3991C46.4743 87.1547 45.1693 88.5827 43.565 88.5827C41.9607 88.5827 40.6566 87.1549 40.6566 85.3991V57.9049C40.6566 56.1493 41.9611 54.7203 43.565 54.7203Z" fill="#F0F8FF"/>
<path d="M79.1474 27.2269C83.0064 27.4005 83.0042 33.424 79.1474 33.5962H74.7819C74.3651 35.8586 73.6665 38.1074 72.5336 40.0812L72.0067 41.0213L75.0628 44.3676C76.792 46.2201 75.708 49.7561 73.0177 49.771C72.6298 49.7688 72.2467 49.6856 71.8929 49.5267C71.5391 49.3678 71.2224 49.1367 70.9632 48.8482L70.3852 48.2629L68.3339 49.8095C71.237 57.4768 68.5892 67.1452 62.1135 71.8174C59.7754 73.417 57.1281 71.0769 57.6541 68.4771C57.7989 67.6648 58.2508 66.9394 58.9161 66.4515C67.2096 60.4737 64.4721 46.1918 54.4847 44.5193C53.4308 44.3167 52.5665 43.5009 52.2283 42.388C49.7249 34.4696 42.9137 29.1344 35.2747 29.0968C25.0224 28.9429 17.001 38.6359 17.1723 48.7341C17.1723 50.4962 15.8667 51.9251 14.2628 51.9251C6.01476 52.0581 3.86012 64.2473 11.2507 67.7599C14.1063 69.1177 13.3105 73.8038 10.1113 73.874C9.6915 73.8674 9.27707 73.7789 8.89118 73.6136C-2.98033 67.8152 -1.1345 48.9649 11.471 45.8568C12.9148 30.4759 27.403 18.6219 42.4772 23.9148C42.9517 22.9343 43.4205 21.7073 43.9064 20.7751L44.4156 19.8473L41.412 16.5011C39.887 14.5816 41.0811 11.2924 43.6485 11.2786C44.339 11.283 45.0027 11.5463 45.5083 12.0165L48.5788 15.3178C50.3138 14.056 52.2518 13.0191 54.3144 12.5286L55.307 12.2804V7.49978C55.307 5.74411 56.6119 4.31472 58.2162 4.31472C59.8205 4.31472 61.1256 5.74371 61.1256 7.49978V12.2779L62.1154 12.5275C64.1929 13.0278 66.1504 14.0614 67.9087 15.3168L70.9282 12.0125C71.4393 11.5386 72.1123 11.2779 72.8093 11.2838C73.5063 11.2897 74.1747 11.5617 74.6778 12.0442C75.8813 13.1279 76.0299 15.2297 75.0241 16.4966L72.006 19.8009L72.533 20.7405C73.6656 22.7148 74.3647 24.9651 74.7812 27.2269H79.1474ZM66.1248 38.9454C70.3083 34.4077 70.3075 26.4149 66.1248 21.8774C61.8663 17.403 54.7742 17.395 50.5265 21.8245C49.2821 23.2244 48.5031 24.8464 47.88 26.5571C52.1253 29.5666 55.3956 33.7542 57.2867 38.6022C58.9562 39.1578 60.5235 39.9831 61.9262 41.0454L62.5282 41.5022C63.6737 40.955 64.7657 40.2884 65.6746 39.3693H65.7477L66.1248 38.9454Z" fill="#F0F8FF"/>
<defs>
<filter id="filter0_f_101_674" x="2.32086" y="1.31472" width="87.1135" height="94.8506" filterUnits="userSpaceOnUse" color-interpolation-filters="sRGB">
<feFlood flood-opacity="0" result="BackgroundImageFix"/>
<feBlend mode="normal" in="SourceGraphic" in2="BackgroundImageFix" result="shape"/>
<feGaussianBlur stdDeviation="1.5" result="effect1_foregroundBlur_101_674"/>
</filter>
<linearGradient id="paint0_linear_101_674" x1="54.2306" y1="0.221054" x2="54.2306" y2="97.2583" gradientUnits="userSpaceOnUse">
<stop stop-color="#0440AD"/>
<stop offset="1" stop-color="#1869FF"/>
</linearGradient>
<linearGradient id="paint1_linear_101_674" x1="54.2306" y1="0.221054" x2="54.2306" y2="97.2583" gradientUnits="userSpaceOnUse">
<stop stop-color="#0440AD"/>
<stop offset="1" stop-color="#1869FF"/>
</linearGradient>
<linearGradient id="paint2_linear_101_674" x1="54.2306" y1="0.221054" x2="54.2306" y2="97.2583" gradientUnits="userSpaceOnUse">
<stop stop-color="#0440AD"/>
<stop offset="1" stop-color="#1869FF"/>
</linearGradient>
<linearGradient id="paint3_linear_101_674" x1="54.2306" y1="0.221054" x2="54.2306" y2="97.2583" gradientUnits="userSpaceOnUse">
<stop stop-color="#0440AD"/>
<stop offset="1" stop-color="#1869FF"/>
</linearGradient>
<linearGradient id="paint4_linear_101_674" x1="54.2306" y1="0.221054" x2="54.2306" y2="97.2583" gradientUnits="userSpaceOnUse">
<stop stop-color="#0440AD"/>
<stop offset="1" stop-color="#1869FF"/>
</linearGradient>
<linearGradient id="paint5_linear_101_674" x1="54.2306" y1="0.221054" x2="54.2306" y2="97.2583" gradientUnits="userSpaceOnUse">
<stop stop-color="#0440AD"/>
<stop offset="1" stop-color="#1869FF"/>
</linearGradient>
<linearGradient id="paint6_linear_101_674" x1="54.2306" y1="0.221054" x2="54.2306" y2="97.2583" gradientUnits="userSpaceOnUse">
<stop stop-color="#0440AD"/>
<stop offset="1" stop-color="#1869FF"/>
</linearGradient>
<linearGradient id="paint7_linear_101_674" x1="54.2306" y1="0.221054" x2="54.2306" y2="97.2583" gradientUnits="userSpaceOnUse">
<stop stop-color="#0440AD"/>
<stop offset="1" stop-color="#1869FF"/>
</linearGradient>
<linearGradient id="paint8_linear_101_674" x1="44.9184" y1="4.31165" x2="44.9184" y2="93.167" gradientUnits="userSpaceOnUse">
<stop stop-color="#81ADFF"/>
<stop offset="1" stop-color="#F0F8FF"/>
</linearGradient>
<linearGradient id="paint9_linear_101_674" x1="44.9184" y1="4.31165" x2="44.9184" y2="93.167" gradientUnits="userSpaceOnUse">
<stop stop-color="#81ADFF"/>
<stop offset="1" stop-color="#F0F8FF"/>
</linearGradient>
<linearGradient id="paint10_linear_101_674" x1="44.9184" y1="4.31165" x2="44.9184" y2="93.167" gradientUnits="userSpaceOnUse">
<stop stop-color="#81ADFF"/>
<stop offset="1" stop-color="#F0F8FF"/>
</linearGradient>
<linearGradient id="paint11_linear_101_674" x1="44.9184" y1="4.31165" x2="44.9184" y2="93.167" gradientUnits="userSpaceOnUse">
<stop stop-color="#81ADFF"/>
<stop offset="1" stop-color="#F0F8FF"/>
</linearGradient>
<linearGradient id="paint12_linear_101_674" x1="44.9184" y1="4.31165" x2="44.9184" y2="93.167" gradientUnits="userSpaceOnUse">
<stop stop-color="#81ADFF"/>
<stop offset="1" stop-color="#F0F8FF"/>
</linearGradient>
<linearGradient id="paint13_linear_101_674" x1="44.9184" y1="4.31165" x2="44.9184" y2="93.167" gradientUnits="userSpaceOnUse">
<stop stop-color="#81ADFF"/>
<stop offset="1" stop-color="#F0F8FF"/>
</linearGradient>
<linearGradient id="paint14_linear_101_674" x1="44.9184" y1="4.31165" x2="44.9184" y2="93.167" gradientUnits="userSpaceOnUse">
<stop stop-color="#81ADFF"/>
<stop offset="1" stop-color="#F0F8FF"/>
</linearGradient>
<linearGradient id="paint15_linear_101_674" x1="44.9184" y1="4.31165" x2="44.9184" y2="93.167" gradientUnits="userSpaceOnUse">
<stop stop-color="#81ADFF"/>
<stop offset="1" stop-color="#F0F8FF"/>
</linearGradient>
<linearGradient id="paint16_linear_101_674" x1="44.9184" y1="4.31165" x2="44.9184" y2="93.167" gradientUnits="userSpaceOnUse">
<stop stop-color="#81ADFF"/>
<stop offset="1" stop-color="#F0F8FF"/>
</linearGradient>
<linearGradient id="paint17_linear_101_674" x1="44.9184" y1="4.31165" x2="44.9184" y2="93.167" gradientUnits="userSpaceOnUse">
<stop stop-color="#81ADFF"/>
<stop offset="1" stop-color="#F0F8FF"/>
</linearGradient>
<linearGradient id="paint18_linear_101_674" x1="44.9184" y1="4.31165" x2="44.9184" y2="93.167" gradientUnits="userSpaceOnUse">
<stop stop-color="#81ADFF"/>
<stop offset="1" stop-color="#F0F8FF"/>
</linearGradient>
</defs>
</svg>
